<svg width="607" height="148" viewBox="0 0 607 148" fill="none" xmlns="http://www.w3.org/2000/svg">
    <g clip-path="url(#clip0_848_994)">
        <path d="M-597.88 -412.67L1256.7 84.2625M-599.174 -407.843L1255.4 89.0895M-600.467 -403.016L1254.11 93.9169M-601.761 -398.188L1252.82 98.7446M-603.055 -393.36L1251.52 103.573M-604.348 -388.532L1250.23 108.401M-605.642 -383.703L1248.94 113.229M-606.936 -378.875L1247.64 118.058M-608.23 -374.046L1246.35 122.886M-609.524 -369.217L1245.05 127.715M-610.817 -364.389L1243.76 132.544M-612.111 -359.56L1242.47 137.373M-613.405 -354.731L1241.17 142.202M-614.699 -349.901L1239.88 147.031M-615.993 -345.072L1238.58 151.86M-617.287 -340.243L1237.29 156.69M-618.581 -335.414L1236 161.519M-619.875 -330.585L1234.7 166.348M-621.169 -325.755L1233.41 171.177M-622.463 -320.926L1232.11 176.007M-623.757 -316.097L1230.82 180.836M-625.051 -311.267L1229.53 185.666M-626.345 -306.438L1228.23 190.495M-627.639 -301.608L1226.94 195.324M-628.933 -296.779L1225.64 200.154M-630.227 -291.949L1224.35 204.983M-631.521 -287.12L1223.06 209.813M-632.816 -282.291L1221.76 214.642M-634.11 -277.461L1220.47 219.472M-635.404 -272.632L1219.17 224.301M-636.698 -267.802L1217.88 229.131M-637.992 -262.972L1216.59 233.96M-639.286 -258.143L1215.29 238.79M-640.58 -253.313L1214 243.619M-641.874 -248.484L1212.7 248.449M-643.168 -243.654L1211.41 253.278M-644.462 -238.825L1210.12 258.108M-645.756 -233.995L1208.82 262.938M-647.05 -229.166L1207.53 267.767M-648.344 -224.336L1206.23 272.597M-649.639 -219.506L1204.94 277.426M-650.933 -214.677L1203.64 282.256M-652.227 -209.847L1202.35 287.086M-653.521 -205.018L1201.06 291.915M-654.815 -200.188L1199.76 296.745M-656.109 -195.358L1198.47 301.574M-657.403 -190.529L1197.17 306.404M-658.697 -185.699L1195.88 311.234M-659.991 -180.87L1194.59 316.063M-661.285 -176.04L1193.29 320.893M-662.579 -171.21L1192 325.722M-663.873 -166.381L1190.7 330.552M-665.168 -161.551L1189.41 335.382M-666.462 -156.721L1188.12 340.211M-667.756 -151.892L1186.82 345.041M-669.05 -147.062L1185.53 349.871M-670.344 -142.233L1184.23 354.7M-671.638 -137.403L1182.94 359.53M-672.932 -132.573L1181.65 364.359M-674.226 -127.744L1180.35 369.189M-675.52 -122.914L1179.06 374.019M-676.814 -118.084L1177.76 378.848M-678.109 -113.255L1176.47 383.678M-679.403 -108.425L1175.17 388.508M-680.697 -103.596L1173.88 393.337M-681.991 -98.7659L1172.59 398.167M-683.285 -93.9363L1171.29 402.996M-684.579 -89.1067L1170 407.826M-685.873 -84.277L1168.7 412.656M-687.167 -79.4474L1167.41 417.485M-688.461 -74.6178L1166.12 422.315M-689.755 -69.7881L1164.82 427.145M-691.049 -64.9585L1163.53 431.974M-692.344 -60.1289L1162.23 436.804M-693.638 -55.2993L1160.94 441.633M-694.932 -50.4697L1159.65 446.463M-696.226 -45.64L1158.35 451.293M-697.52 -40.8104L1157.06 456.122M-698.814 -35.9808L1155.76 460.952M-700.108 -31.1512L1154.47 465.782M-701.402 -26.3216L1153.18 470.611M-702.696 -21.492L1151.88 475.441M-703.99 -16.6624L1150.59 480.27M-705.284 -11.8328L1149.29 485.1M-706.579 -7.00314L1148 489.93M-707.873 -2.17357L1146.7 494.759M-709.167 2.65603L1145.41 499.589M-710.461 7.4856L1144.12 504.418M-711.755 12.3152L1142.82 509.248M-713.049 17.1448L1141.53 514.078M-714.343 21.9744L1140.23 518.907M-715.637 26.8039L1138.94 523.737M-716.931 31.6335L1137.65 528.566M-718.225 36.4631L1136.35 533.396M-719.519 41.2926L1135.06 538.225M-720.813 46.1222L1133.76 543.055M-722.108 50.9517L1132.47 547.884M-723.402 55.7812L1131.18 552.714M-724.696 60.6108L1129.88 557.543M-725.99 65.4403L1128.59 562.373M-727.284 70.2698L1127.29 567.203M-728.578 75.0992L1126 572.032M-729.872 79.9287L1124.71 576.861M-731.166 84.7582L1123.41 581.691M-732.46 89.5876L1122.12 586.52M-733.754 94.417L1120.82 591.35M-735.048 99.2464L1119.53 596.179M-736.342 104.076L1118.24 601.009M-737.636 108.905L1116.94 605.838M-738.93 113.734L1115.65 610.667M-740.224 118.564L1114.35 615.496M-741.518 123.393L1113.06 620.326M-742.812 128.222L1111.77 625.155M-744.106 133.051L1110.47 629.984M-745.402 137.886L1109.18 634.819M-746.697 142.721L1107.88 639.654" stroke="#484848" class="lines-stroke"/>
    </g>
    <mask id="path-2-outside-1_848_994" maskUnits="userSpaceOnUse" x="155.663" y="18.8327" width="295" height="111" fill="black">
        <rect fill="white" x="155.663" y="18.8327" width="295" height="111"/>
        <path d="M199.268 87.8833C192.537 88.5018 186.977 86.7666 182.589 82.6777C178.201 78.5887 176.007 73.2499 176.007 66.6614C176.007 60.0301 178.201 54.2882 182.589 49.4356C186.977 44.5402 192.537 41.7832 199.268 41.1647C203.315 40.7928 207.043 41.4129 210.451 43.0249C213.902 44.5903 216.586 46.9106 218.503 49.9859L210.899 55.1127C209.791 53.2037 208.215 51.787 206.17 50.8625C204.125 49.8953 201.824 49.5291 199.268 49.764C194.922 50.1633 191.408 51.8553 188.724 54.84C186.082 57.8208 184.762 61.4931 184.762 65.857C184.762 70.178 186.082 73.5862 188.724 76.0816C191.408 78.573 194.922 79.6191 199.268 79.2198C201.824 78.985 204.125 78.2174 206.17 76.9171C208.257 75.5702 209.834 73.8638 210.899 71.7979L218.503 75.5271C216.586 78.9548 213.923 81.7878 210.515 84.0262C207.107 86.2218 203.358 87.5075 199.268 87.8833Z"/>
        <path d="M304.06 71.516C299.544 76.4232 294.048 79.1743 287.572 79.7693C281.097 80.3643 275.601 78.6232 271.085 74.546C266.612 70.4221 264.375 65.0873 264.375 58.5415C264.375 51.9958 266.612 46.2713 271.085 41.3681C275.601 36.4182 281.097 33.6457 287.572 33.0507C294.048 32.4556 299.544 34.2181 304.06 38.3381C308.576 42.4153 310.834 47.7268 310.834 54.2726C310.834 60.8183 308.576 66.5661 304.06 71.516ZM277.284 67.9441C280.053 70.4277 283.482 71.4816 287.572 71.1058C291.662 70.73 295.092 69.0458 297.861 66.0533C300.63 63.018 302.015 59.3612 302.015 55.0829C302.015 50.8046 300.63 47.4023 297.861 44.8759C295.092 42.3495 291.662 41.2742 287.572 41.65C283.482 42.0258 280.053 43.7314 277.284 46.7667C274.514 49.802 273.13 53.4588 273.13 57.7371C273.13 62.0153 274.514 65.4177 277.284 67.9441Z"/>
        <path d="M354.672 66.8655C350.156 71.7726 344.66 74.5237 338.184 75.1187C331.709 75.7137 326.213 73.9726 321.697 69.8954C317.224 65.7715 314.987 60.4367 314.987 53.8909C314.987 47.3452 317.224 41.6207 321.697 36.7175C326.213 31.7676 331.709 28.9951 338.184 28.4001C344.66 27.805 350.156 29.5675 354.672 33.6875C359.188 37.7648 361.446 43.0762 361.446 49.622C361.446 56.1677 359.188 61.9155 354.672 66.8655ZM327.896 63.2935C330.665 65.7771 334.094 66.831 338.184 66.4552C342.274 66.0794 345.704 64.3952 348.473 61.4027C351.242 58.3674 352.627 54.7106 352.627 50.4323C352.627 46.1541 351.242 42.7517 348.473 40.2253C345.704 37.6989 342.274 36.6236 338.184 36.9994C334.094 37.3752 330.665 39.0808 327.896 42.1161C325.126 45.1514 323.742 48.8082 323.742 53.0865C323.742 57.3647 325.126 60.7671 327.896 63.2935Z"/>
        <path d="M381.294 71.1574C376.864 71.5645 373.136 70.9231 370.111 69.233C367.086 67.5002 364.956 64.9792 363.721 61.6701L371.261 56.5492C373.008 60.9665 376.438 62.9402 381.55 62.4705C384.021 62.2434 385.832 61.6278 386.982 60.6237C388.132 59.6196 388.707 58.433 388.707 57.0639C388.707 55.481 388.004 54.3263 386.599 53.5998C385.193 52.8305 382.679 52.0989 379.058 51.4049C377.055 50.9899 375.351 50.5475 373.945 50.0777C372.582 49.6041 371.198 48.9398 369.792 48.085C368.428 47.1835 367.385 45.9959 366.66 44.5223C365.936 43.0487 365.574 41.2851 365.574 39.2315C365.574 35.1672 367.001 31.8059 369.856 29.1478C372.753 26.443 376.225 24.9047 380.272 24.5328C383.893 24.2 387.067 24.8068 389.794 26.3531C392.563 27.8528 394.714 30.1151 396.248 33.1401L388.835 38.1209C387.046 34.4349 384.191 32.7719 380.272 33.1321C378.44 33.3004 376.992 33.8613 375.926 34.8148C374.904 35.7217 374.393 36.8382 374.393 38.1645C374.393 39.5763 374.968 40.6786 376.118 41.4713C377.311 42.2174 379.569 42.9511 382.892 43.6725C384.255 43.9751 385.278 44.2234 385.96 44.4175C386.684 44.5648 387.642 44.8404 388.835 45.2442C390.071 45.6013 391.008 45.9644 391.647 46.3335C392.329 46.6986 393.096 47.2057 393.948 47.8548C394.8 48.5038 395.439 49.1937 395.865 49.9247C396.333 50.6517 396.717 51.5577 397.015 52.6426C397.356 53.6809 397.526 54.8418 397.526 56.1252C397.526 60.2751 396.014 63.7084 392.989 66.4249C390.007 69.1376 386.109 70.7151 381.294 71.1574Z"/>
        <path d="M210.695 119.476C207.684 122.748 204.02 124.582 199.703 124.979C195.386 125.375 191.722 124.215 188.712 121.496C185.729 118.747 184.238 115.191 184.238 110.827C184.238 106.463 185.729 102.647 188.712 99.3778C191.722 96.0779 195.386 94.2296 199.703 93.8329C204.02 93.4362 207.684 94.6112 210.695 97.3578C213.705 100.076 215.211 103.617 215.211 107.981C215.211 112.345 213.705 116.177 210.695 119.476ZM192.844 117.095C194.69 118.751 196.977 119.454 199.703 119.203C202.43 118.952 204.716 117.83 206.562 115.835C208.408 113.811 209.332 111.373 209.332 108.521C209.332 105.669 208.408 103.401 206.562 101.716C204.716 100.032 202.43 99.3152 199.703 99.5658C196.977 99.8163 194.69 100.953 192.844 102.977C190.998 105 190.075 107.438 190.075 110.29C190.075 113.143 190.998 115.411 192.844 117.095Z"/>
        <path d="M230.254 122.171C226.931 122.477 224.205 121.786 222.075 120.099C219.944 118.413 218.879 115.986 218.879 112.82V92.6698L224.716 92.1335V111.813C224.716 113.382 225.156 114.582 226.037 115.414C226.945 116.243 228.351 116.571 230.254 116.396C232.157 116.221 233.549 115.637 234.429 114.643C235.338 113.647 235.793 112.364 235.793 110.796V91.1157L241.672 90.5755V110.726C241.672 113.892 240.607 116.514 238.477 118.592C236.347 120.67 233.606 121.863 230.254 122.171Z"/>
        <path d="M305.881 84.6755L311.76 84.1353V114.083L305.881 114.623V84.6755Z"/>
        <path d="M346.549 94.8002V97.1105C346.549 101.389 345.185 104.979 342.459 107.882C339.732 110.786 336.21 112.435 331.893 112.832C327.292 113.255 323.472 112.108 320.433 109.393C317.422 106.646 315.917 103.105 315.917 98.77C315.917 94.4062 317.408 90.5756 320.39 87.2783C323.401 83.9783 327.122 82.1248 331.552 81.7177C334.336 81.4619 336.878 81.8701 339.178 82.9421C341.479 83.9857 343.268 85.5041 344.546 87.4972L339.519 90.8684C338.809 89.7072 337.73 88.8081 336.281 88.1711C334.861 87.5315 333.271 87.2926 331.51 87.4544C328.669 87.7154 326.326 88.8719 324.48 90.924C322.662 92.945 321.754 95.3815 321.754 98.2337C321.754 101.057 322.677 103.311 324.523 104.996C326.397 106.649 328.868 107.334 331.936 107.053C334.208 106.844 336.082 106.172 337.559 105.038C339.065 103.873 340.087 102.382 340.627 100.564L331.595 101.394V96.1743L346.549 94.8002Z"/>
        <path d="M398.788 76.1385V81.7858L390.736 82.5257V106.826L384.857 107.366V83.0659L376.848 83.8019V78.1545L398.788 76.1385Z"/>
        <path d="M407.95 99.5972L420.518 98.4424V104.09L402.07 105.785V75.8369L420.305 74.1614V79.8087L407.95 80.944V87.3186L419.239 86.2812V91.8429L407.95 92.8803V99.5972Z"/>
    </mask>
    <path d="M199.268 87.8833C192.537 88.5018 186.977 86.7666 182.589 82.6777C178.201 78.5887 176.007 73.2499 176.007 66.6614C176.007 60.0301 178.201 54.2882 182.589 49.4356C186.977 44.5402 192.537 41.7832 199.268 41.1647C203.315 40.7928 207.043 41.4129 210.451 43.0249C213.902 44.5903 216.586 46.9106 218.503 49.9859L210.899 55.1127C209.791 53.2037 208.215 51.787 206.17 50.8625C204.125 49.8953 201.824 49.5291 199.268 49.764C194.922 50.1633 191.408 51.8553 188.724 54.84C186.082 57.8208 184.762 61.4931 184.762 65.857C184.762 70.178 186.082 73.5862 188.724 76.0816C191.408 78.573 194.922 79.6191 199.268 79.2198C201.824 78.985 204.125 78.2174 206.17 76.9171C208.257 75.5702 209.834 73.8638 210.899 71.7979L218.503 75.5271C216.586 78.9548 213.923 81.7878 210.515 84.0262C207.107 86.2218 203.358 87.5075 199.268 87.8833Z" fill="url(#paint0_linear_848_994)"/>
    <path d="M304.06 71.516C299.544 76.4232 294.048 79.1743 287.572 79.7693C281.097 80.3643 275.601 78.6232 271.085 74.546C266.612 70.4221 264.375 65.0873 264.375 58.5415C264.375 51.9958 266.612 46.2713 271.085 41.3681C275.601 36.4182 281.097 33.6457 287.572 33.0507C294.048 32.4556 299.544 34.2181 304.06 38.3381C308.576 42.4153 310.834 47.7268 310.834 54.2726C310.834 60.8183 308.576 66.5661 304.06 71.516ZM277.284 67.9441C280.053 70.4277 283.482 71.4816 287.572 71.1058C291.662 70.73 295.092 69.0458 297.861 66.0533C300.63 63.018 302.015 59.3612 302.015 55.0829C302.015 50.8046 300.63 47.4023 297.861 44.8759C295.092 42.3495 291.662 41.2742 287.572 41.65C283.482 42.0258 280.053 43.7314 277.284 46.7667C274.514 49.802 273.13 53.4588 273.13 57.7371C273.13 62.0153 274.514 65.4177 277.284 67.9441Z" fill="url(#paint1_linear_848_994)"/>
    <path d="M354.672 66.8655C350.156 71.7726 344.66 74.5237 338.184 75.1187C331.709 75.7137 326.213 73.9726 321.697 69.8954C317.224 65.7715 314.987 60.4367 314.987 53.8909C314.987 47.3452 317.224 41.6207 321.697 36.7175C326.213 31.7676 331.709 28.9951 338.184 28.4001C344.66 27.805 350.156 29.5675 354.672 33.6875C359.188 37.7648 361.446 43.0762 361.446 49.622C361.446 56.1677 359.188 61.9155 354.672 66.8655ZM327.896 63.2935C330.665 65.7771 334.094 66.831 338.184 66.4552C342.274 66.0794 345.704 64.3952 348.473 61.4027C351.242 58.3674 352.627 54.7106 352.627 50.4323C352.627 46.1541 351.242 42.7517 348.473 40.2253C345.704 37.6989 342.274 36.6236 338.184 36.9994C334.094 37.3752 330.665 39.0808 327.896 42.1161C325.126 45.1514 323.742 48.8082 323.742 53.0865C323.742 57.3647 325.126 60.7671 327.896 63.2935Z" fill="url(#paint2_linear_848_994)"/>
    <path d="M381.294 71.1574C376.864 71.5645 373.136 70.9231 370.111 69.233C367.086 67.5002 364.956 64.9792 363.721 61.6701L371.261 56.5492C373.008 60.9665 376.438 62.9402 381.55 62.4705C384.021 62.2434 385.832 61.6278 386.982 60.6237C388.132 59.6196 388.707 58.433 388.707 57.0639C388.707 55.481 388.004 54.3263 386.599 53.5998C385.193 52.8305 382.679 52.0989 379.058 51.4049C377.055 50.9899 375.351 50.5475 373.945 50.0777C372.582 49.6041 371.198 48.9398 369.792 48.085C368.428 47.1835 367.385 45.9959 366.66 44.5223C365.936 43.0487 365.574 41.2851 365.574 39.2315C365.574 35.1672 367.001 31.8059 369.856 29.1478C372.753 26.443 376.225 24.9047 380.272 24.5328C383.893 24.2 387.067 24.8068 389.794 26.3531C392.563 27.8528 394.714 30.1151 396.248 33.1401L388.835 38.1209C387.046 34.4349 384.191 32.7719 380.272 33.1321C378.44 33.3004 376.992 33.8613 375.926 34.8148C374.904 35.7217 374.393 36.8382 374.393 38.1645C374.393 39.5763 374.968 40.6786 376.118 41.4713C377.311 42.2174 379.569 42.9511 382.892 43.6725C384.255 43.9751 385.278 44.2234 385.96 44.4175C386.684 44.5648 387.642 44.8404 388.835 45.2442C390.071 45.6013 391.008 45.9644 391.647 46.3335C392.329 46.6986 393.096 47.2057 393.948 47.8548C394.8 48.5038 395.439 49.1937 395.865 49.9247C396.333 50.6517 396.717 51.5577 397.015 52.6426C397.356 53.6809 397.526 54.8418 397.526 56.1252C397.526 60.2751 396.014 63.7084 392.989 66.4249C390.007 69.1376 386.109 70.7151 381.294 71.1574Z" fill="url(#paint3_linear_848_994)"/>
    <path d="M210.695 119.476C207.684 122.748 204.02 124.582 199.703 124.979C195.386 125.375 191.722 124.215 188.712 121.496C185.729 118.747 184.238 115.191 184.238 110.827C184.238 106.463 185.729 102.647 188.712 99.3778C191.722 96.0779 195.386 94.2296 199.703 93.8329C204.02 93.4362 207.684 94.6112 210.695 97.3578C213.705 100.076 215.211 103.617 215.211 107.981C215.211 112.345 213.705 116.177 210.695 119.476ZM192.844 117.095C194.69 118.751 196.977 119.454 199.703 119.203C202.43 118.952 204.716 117.83 206.562 115.835C208.408 113.811 209.332 111.373 209.332 108.521C209.332 105.669 208.408 103.401 206.562 101.716C204.716 100.032 202.43 99.3152 199.703 99.5658C196.977 99.8163 194.69 100.953 192.844 102.977C190.998 105 190.075 107.438 190.075 110.29C190.075 113.143 190.998 115.411 192.844 117.095Z" fill="url(#paint4_linear_848_994)"/>
    <path d="M230.254 122.171C226.931 122.477 224.205 121.786 222.075 120.099C219.944 118.413 218.879 115.986 218.879 112.82V92.6698L224.716 92.1335V111.813C224.716 113.382 225.156 114.582 226.037 115.414C226.945 116.243 228.351 116.571 230.254 116.396C232.157 116.221 233.549 115.637 234.429 114.643C235.338 113.647 235.793 112.364 235.793 110.796V91.1157L241.672 90.5755V110.726C241.672 113.892 240.607 116.514 238.477 118.592C236.347 120.67 233.606 121.863 230.254 122.171Z" fill="url(#paint5_linear_848_994)"/>
    <path d="M305.881 84.6755L311.76 84.1353V114.083L305.881 114.623V84.6755Z" fill="url(#paint6_linear_848_994)"/>
    <path d="M346.549 94.8002V97.1105C346.549 101.389 345.185 104.979 342.459 107.882C339.732 110.786 336.21 112.435 331.893 112.832C327.292 113.255 323.472 112.108 320.433 109.393C317.422 106.646 315.917 103.105 315.917 98.77C315.917 94.4062 317.408 90.5756 320.39 87.2783C323.401 83.9783 327.122 82.1248 331.552 81.7177C334.336 81.4619 336.878 81.8701 339.178 82.9421C341.479 83.9857 343.268 85.5041 344.546 87.4972L339.519 90.8684C338.809 89.7072 337.73 88.8081 336.281 88.1711C334.861 87.5315 333.271 87.2926 331.51 87.4544C328.669 87.7154 326.326 88.8719 324.48 90.924C322.662 92.945 321.754 95.3815 321.754 98.2337C321.754 101.057 322.677 103.311 324.523 104.996C326.397 106.649 328.868 107.334 331.936 107.053C334.208 106.844 336.082 106.172 337.559 105.038C339.065 103.873 340.087 102.382 340.627 100.564L331.595 101.394V96.1743L346.549 94.8002Z" fill="url(#paint7_linear_848_994)"/>
    <path d="M398.788 76.1385V81.7858L390.736 82.5257V106.826L384.857 107.366V83.0659L376.848 83.8019V78.1545L398.788 76.1385Z" fill="url(#paint8_linear_848_994)"/>
    <path d="M407.95 99.5972L420.518 98.4424V104.09L402.07 105.785V75.8369L420.305 74.1614V79.8087L407.95 80.944V87.3186L419.239 86.2812V91.8429L407.95 92.8803V99.5972Z" fill="url(#paint9_linear_848_994)"/>
    <path d="M199.268 87.8833C192.537 88.5018 186.977 86.7666 182.589 82.6777C178.201 78.5887 176.007 73.2499 176.007 66.6614C176.007 60.0301 178.201 54.2882 182.589 49.4356C186.977 44.5402 192.537 41.7832 199.268 41.1647C203.315 40.7928 207.043 41.4129 210.451 43.0249C213.902 44.5903 216.586 46.9106 218.503 49.9859L210.899 55.1127C209.791 53.2037 208.215 51.787 206.17 50.8625C204.125 49.8953 201.824 49.5291 199.268 49.764C194.922 50.1633 191.408 51.8553 188.724 54.84C186.082 57.8208 184.762 61.4931 184.762 65.857C184.762 70.178 186.082 73.5862 188.724 76.0816C191.408 78.573 194.922 79.6191 199.268 79.2198C201.824 78.985 204.125 78.2174 206.17 76.9171C208.257 75.5702 209.834 73.8638 210.899 71.7979L218.503 75.5271C216.586 78.9548 213.923 81.7878 210.515 84.0262C207.107 86.2218 203.358 87.5075 199.268 87.8833Z" stroke="#242424" class="background-stroke" stroke-width="6" mask="url(#path-2-outside-1_848_994)"/>
    <path d="M304.06 71.516C299.544 76.4232 294.048 79.1743 287.572 79.7693C281.097 80.3643 275.601 78.6232 271.085 74.546C266.612 70.4221 264.375 65.0873 264.375 58.5415C264.375 51.9958 266.612 46.2713 271.085 41.3681C275.601 36.4182 281.097 33.6457 287.572 33.0507C294.048 32.4556 299.544 34.2181 304.06 38.3381C308.576 42.4153 310.834 47.7268 310.834 54.2726C310.834 60.8183 308.576 66.5661 304.06 71.516ZM277.284 67.9441C280.053 70.4277 283.482 71.4816 287.572 71.1058C291.662 70.73 295.092 69.0458 297.861 66.0533C300.63 63.018 302.015 59.3612 302.015 55.0829C302.015 50.8046 300.63 47.4023 297.861 44.8759C295.092 42.3495 291.662 41.2742 287.572 41.65C283.482 42.0258 280.053 43.7314 277.284 46.7667C274.514 49.802 273.13 53.4588 273.13 57.7371C273.13 62.0153 274.514 65.4177 277.284 67.9441Z" stroke="#242424" class="background-stroke" stroke-width="6" mask="url(#path-2-outside-1_848_994)"/>
    <path d="M354.672 66.8655C350.156 71.7726 344.66 74.5237 338.184 75.1187C331.709 75.7137 326.213 73.9726 321.697 69.8954C317.224 65.7715 314.987 60.4367 314.987 53.8909C314.987 47.3452 317.224 41.6207 321.697 36.7175C326.213 31.7676 331.709 28.9951 338.184 28.4001C344.66 27.805 350.156 29.5675 354.672 33.6875C359.188 37.7648 361.446 43.0762 361.446 49.622C361.446 56.1677 359.188 61.9155 354.672 66.8655ZM327.896 63.2935C330.665 65.7771 334.094 66.831 338.184 66.4552C342.274 66.0794 345.704 64.3952 348.473 61.4027C351.242 58.3674 352.627 54.7106 352.627 50.4323C352.627 46.1541 351.242 42.7517 348.473 40.2253C345.704 37.6989 342.274 36.6236 338.184 36.9994C334.094 37.3752 330.665 39.0808 327.896 42.1161C325.126 45.1514 323.742 48.8082 323.742 53.0865C323.742 57.3647 325.126 60.7671 327.896 63.2935Z" stroke="#242424" class="background-stroke" stroke-width="6" mask="url(#path-2-outside-1_848_994)"/>
    <path d="M381.294 71.1574C376.864 71.5645 373.136 70.9231 370.111 69.233C367.086 67.5002 364.956 64.9792 363.721 61.6701L371.261 56.5492C373.008 60.9665 376.438 62.9402 381.55 62.4705C384.021 62.2434 385.832 61.6278 386.982 60.6237C388.132 59.6196 388.707 58.433 388.707 57.0639C388.707 55.481 388.004 54.3263 386.599 53.5998C385.193 52.8305 382.679 52.0989 379.058 51.4049C377.055 50.9899 375.351 50.5475 373.945 50.0777C372.582 49.6041 371.198 48.9398 369.792 48.085C368.428 47.1835 367.385 45.9959 366.66 44.5223C365.936 43.0487 365.574 41.2851 365.574 39.2315C365.574 35.1672 367.001 31.8059 369.856 29.1478C372.753 26.443 376.225 24.9047 380.272 24.5328C383.893 24.2 387.067 24.8068 389.794 26.3531C392.563 27.8528 394.714 30.1151 396.248 33.1401L388.835 38.1209C387.046 34.4349 384.191 32.7719 380.272 33.1321C378.44 33.3004 376.992 33.8613 375.926 34.8148C374.904 35.7217 374.393 36.8382 374.393 38.1645C374.393 39.5763 374.968 40.6786 376.118 41.4713C377.311 42.2174 379.569 42.9511 382.892 43.6725C384.255 43.9751 385.278 44.2234 385.96 44.4175C386.684 44.5648 387.642 44.8404 388.835 45.2442C390.071 45.6013 391.008 45.9644 391.647 46.3335C392.329 46.6986 393.096 47.2057 393.948 47.8548C394.8 48.5038 395.439 49.1937 395.865 49.9247C396.333 50.6517 396.717 51.5577 397.015 52.6426C397.356 53.6809 397.526 54.8418 397.526 56.1252C397.526 60.2751 396.014 63.7084 392.989 66.4249C390.007 69.1376 386.109 70.7151 381.294 71.1574Z" stroke="#242424" class="background-stroke" stroke-width="6" mask="url(#path-2-outside-1_848_994)"/>
    <path d="M210.695 119.476C207.684 122.748 204.02 124.582 199.703 124.979C195.386 125.375 191.722 124.215 188.712 121.496C185.729 118.747 184.238 115.191 184.238 110.827C184.238 106.463 185.729 102.647 188.712 99.3778C191.722 96.0779 195.386 94.2296 199.703 93.8329C204.02 93.4362 207.684 94.6112 210.695 97.3578C213.705 100.076 215.211 103.617 215.211 107.981C215.211 112.345 213.705 116.177 210.695 119.476ZM192.844 117.095C194.69 118.751 196.977 119.454 199.703 119.203C202.43 118.952 204.716 117.83 206.562 115.835C208.408 113.811 209.332 111.373 209.332 108.521C209.332 105.669 208.408 103.401 206.562 101.716C204.716 100.032 202.43 99.3152 199.703 99.5658C196.977 99.8163 194.69 100.953 192.844 102.977C190.998 105 190.075 107.438 190.075 110.29C190.075 113.143 190.998 115.411 192.844 117.095Z" stroke="#242424" class="background-stroke"  stroke-width="6" mask="url(#path-2-outside-1_848_994)"/>
    <path d="M230.254 122.171C226.931 122.477 224.205 121.786 222.075 120.099C219.944 118.413 218.879 115.986 218.879 112.82V92.6698L224.716 92.1335V111.813C224.716 113.382 225.156 114.582 226.037 115.414C226.945 116.243 228.351 116.571 230.254 116.396C232.157 116.221 233.549 115.637 234.429 114.643C235.338 113.647 235.793 112.364 235.793 110.796V91.1157L241.672 90.5755V110.726C241.672 113.892 240.607 116.514 238.477 118.592C236.347 120.67 233.606 121.863 230.254 122.171Z" stroke="#242424" class="background-stroke" stroke-width="6" mask="url(#path-2-outside-1_848_994)"/>
    <path d="M305.881 84.6755L311.76 84.1353V114.083L305.881 114.623V84.6755Z" stroke="#242424" class="background-stroke" stroke-width="6" mask="url(#path-2-outside-1_848_994)"/>
    <path d="M346.549 94.8002V97.1105C346.549 101.389 345.185 104.979 342.459 107.882C339.732 110.786 336.21 112.435 331.893 112.832C327.292 113.255 323.472 112.108 320.433 109.393C317.422 106.646 315.917 103.105 315.917 98.77C315.917 94.4062 317.408 90.5756 320.39 87.2783C323.401 83.9783 327.122 82.1248 331.552 81.7177C334.336 81.4619 336.878 81.8701 339.178 82.9421C341.479 83.9857 343.268 85.5041 344.546 87.4972L339.519 90.8684C338.809 89.7072 337.73 88.8081 336.281 88.1711C334.861 87.5315 333.271 87.2926 331.51 87.4544C328.669 87.7154 326.326 88.8719 324.48 90.924C322.662 92.945 321.754 95.3815 321.754 98.2337C321.754 101.057 322.677 103.311 324.523 104.996C326.397 106.649 328.868 107.334 331.936 107.053C334.208 106.844 336.082 106.172 337.559 105.038C339.065 103.873 340.087 102.382 340.627 100.564L331.595 101.394V96.1743L346.549 94.8002Z" stroke="#242424" class="background-stroke" stroke-width="6" mask="url(#path-2-outside-1_848_994)"/>
    <path d="M398.788 76.1385V81.7858L390.736 82.5257V106.826L384.857 107.366V83.0659L376.848 83.8019V78.1545L398.788 76.1385Z" stroke="#242424" class="background-stroke" stroke-width="6" mask="url(#path-2-outside-1_848_994)"/>
    <path d="M407.95 99.5972L420.518 98.4424V104.09L402.07 105.785V75.8369L420.305 74.1614V79.8087L407.95 80.944V87.3186L419.239 86.2812V91.8429L407.95 92.8803V99.5972Z" stroke="#242424" class="background-stroke" stroke-width="6" mask="url(#path-2-outside-1_848_994)"/>
    <path d="M249.217 35.6562L247.855 35.7814V37.1499V53.6217L234.24 54.8728V38.6766V37.0324L232.602 37.1829L223.783 37.9932L222.421 38.1184V39.4869V84.4087V86.0528L224.058 85.9024L232.877 85.092L234.24 84.9668V83.5983V66.3564L247.855 65.1053V82.0716V83.7158L249.492 83.5653L258.247 82.7608L259.61 82.6356V81.2671V36.3454V34.7012L257.972 34.8517L249.217 35.6562ZM428.582 37.2077L413.285 38.6133V32.0641L430.455 30.4864L431.817 30.3612V28.9927V20.5217V18.8776L430.18 19.028L402.829 21.5412L401.466 21.6665V23.035V67.9567V69.6008L403.103 69.4504L430.774 66.9078L432.137 66.7826V65.4141V56.9432V55.299L430.5 55.4494L413.285 57.0312V49.9686L428.857 48.5377L430.22 48.4125V47.044V38.7014V37.0572L428.582 37.2077ZM186.231 96.1854L187.536 93.7326L184.769 93.9868L178.123 94.5975L177.288 94.6742L176.916 95.426L171.721 105.925L166.627 96.5642L166.155 95.6972L165.172 95.7876L158.526 96.3982L156.173 96.6144L157.37 98.6517L167.345 115.633V126.904V128.548L168.982 128.398L174.819 127.862L176.182 127.736V126.368V115.063L186.231 96.1854ZM262.048 119.004L262.534 119.802L263.465 119.716L269.813 119.133L272.225 118.911L270.952 116.851L265.128 107.425C266.48 106.455 267.612 105.25 268.516 103.817L268.522 103.808C269.709 101.895 270.324 99.8496 270.324 97.6952C270.324 94.5579 269.197 91.898 266.938 89.8369C264.675 87.7725 261.907 86.8988 258.76 87.188L246.831 88.2841L245.468 88.4093V89.7778V119.726V121.37L247.106 121.219L252.985 120.679L254.348 120.554V119.185V110.158L256.527 109.957L262.048 119.004ZM301.734 91.8992L303.097 91.774V90.4055V84.7582V83.1141L301.459 83.2645L283.651 84.9008L282.288 85.0261V86.3945V116.342V117.987L283.926 117.836L289.805 117.296L291.168 117.171V115.802V105.619L301.393 104.68L302.756 104.555V103.186V97.5387V95.8946L301.119 96.045L291.168 96.9594V92.8701L301.734 91.8992ZM367.549 77.1917L366.186 77.3169V78.6854V89.2105L358.11 89.9526V79.7032V78.0591L356.472 78.2095L350.593 78.7497L349.23 78.875V80.2435V110.191V111.835L350.868 111.685L356.747 111.145L358.11 111.02V109.651V98.6126L366.186 97.8704V108.633V110.277L367.824 110.127L373.66 109.591L375.023 109.465V108.097V78.1491V76.505L373.386 76.6554L367.549 77.1917ZM439.741 102.676L440.228 103.474L441.159 103.388L447.506 102.805L449.918 102.583L448.645 100.523L442.821 91.0968C444.173 90.127 445.305 88.9224 446.209 87.4895L446.215 87.4798C447.402 85.5671 448.017 83.5219 448.017 81.3674C448.017 78.2302 446.89 75.5703 444.631 73.5092C442.368 71.4448 439.601 70.5711 436.453 70.8603L424.524 71.9564L423.162 72.0816V73.4501V103.398V105.042L424.799 104.892L430.678 104.351L432.041 104.226V102.858V93.83L434.221 93.6297L439.741 102.676ZM258.76 101.563L254.348 101.968V96.1251L259.035 95.6944C259.701 95.6331 260.218 95.817 260.7 96.291C261.178 96.7622 261.445 97.367 261.445 98.2354C261.445 99.1025 261.175 99.8538 260.605 100.544C260.038 101.202 259.436 101.501 258.76 101.563ZM436.453 85.2353L432.041 85.6407V79.7973L436.728 79.3667C437.394 79.3054 437.911 79.4893 438.393 79.9633C438.872 80.4345 439.138 81.0393 439.138 81.9077C439.138 82.7746 438.869 83.526 438.299 84.2158C437.732 84.8745 437.129 85.1731 436.453 85.2353Z" fill="url(#paint10_linear_848_994)" stroke="#242424" class="background-stroke" stroke-width="3"/>
    <defs>
        <linearGradient id="paint0_linear_848_994" x1="109.586" y1="70.6096" x2="491.018" y2="49.4719" gradientUnits="userSpaceOnUse">
            <stop stop-color="#DDB7E0"/>
            <stop offset="1" stop-color="#98E6E2"/>
        </linearGradient>
        <linearGradient id="paint1_linear_848_994" x1="109.586" y1="70.6096" x2="491.018" y2="49.4719" gradientUnits="userSpaceOnUse">
            <stop stop-color="#DDB7E0"/>
            <stop offset="1" stop-color="#98E6E2"/>
        </linearGradient>
        <linearGradient id="paint2_linear_848_994" x1="109.586" y1="70.6096" x2="491.018" y2="49.4719" gradientUnits="userSpaceOnUse">
            <stop stop-color="#DDB7E0"/>
            <stop offset="1" stop-color="#98E6E2"/>
        </linearGradient>
        <linearGradient id="paint3_linear_848_994" x1="109.586" y1="70.6096" x2="491.018" y2="49.4719" gradientUnits="userSpaceOnUse">
            <stop stop-color="#DDB7E0"/>
            <stop offset="1" stop-color="#98E6E2"/>
        </linearGradient>
        <linearGradient id="paint4_linear_848_994" x1="109.586" y1="70.6096" x2="491.018" y2="49.4719" gradientUnits="userSpaceOnUse">
            <stop stop-color="#DDB7E0"/>
            <stop offset="1" stop-color="#98E6E2"/>
        </linearGradient>
        <linearGradient id="paint5_linear_848_994" x1="109.586" y1="70.6096" x2="491.018" y2="49.4719" gradientUnits="userSpaceOnUse">
            <stop stop-color="#DDB7E0"/>
            <stop offset="1" stop-color="#98E6E2"/>
        </linearGradient>
        <linearGradient id="paint6_linear_848_994" x1="109.586" y1="70.6096" x2="491.018" y2="49.4719" gradientUnits="userSpaceOnUse">
            <stop stop-color="#DDB7E0"/>
            <stop offset="1" stop-color="#98E6E2"/>
        </linearGradient>
        <linearGradient id="paint7_linear_848_994" x1="109.586" y1="70.6096" x2="491.018" y2="49.4719" gradientUnits="userSpaceOnUse">
            <stop stop-color="#DDB7E0"/>
            <stop offset="1" stop-color="#98E6E2"/>
        </linearGradient>
        <linearGradient id="paint8_linear_848_994" x1="109.586" y1="70.6096" x2="491.018" y2="49.4719" gradientUnits="userSpaceOnUse">
            <stop stop-color="#DDB7E0"/>
            <stop offset="1" stop-color="#98E6E2"/>
        </linearGradient>
        <linearGradient id="paint9_linear_848_994" x1="109.586" y1="70.6096" x2="491.018" y2="49.4719" gradientUnits="userSpaceOnUse">
            <stop stop-color="#DDB7E0"/>
            <stop offset="1" stop-color="#98E6E2"/>
        </linearGradient>
        <linearGradient id="paint10_linear_848_994" x1="109.586" y1="70.2987" x2="491.018" y2="49.1609" gradientUnits="userSpaceOnUse">
            <stop stop-color="#DDB7E0"/>
            <stop offset="1" stop-color="#98E6E2"/>
        </linearGradient>
        <clipPath id="clip0_848_994">
            <rect width="606.087" height="147.957" fill="white" transform="translate(0.902222 0.0217285)"/>
        </clipPath>
    </defs>
</svg>
