<svg width="83" height="59.5" version="1.1" viewBox="0 0 83 59.5" xmlns="http://www.w3.org/2000/svg">
<style>.st0{fill:#A0A0A0;}.st1{fill:#FFFFFF}</style>
<path class="st0" d="m61.232 59.139s-2.5478-3.0432-4.671-5.6618c9.2712-2.6186 12.81-8.3511 12.81-8.3511-2.9017 1.9108-5.6618 3.2555-8.1388 4.1756-3.5386 1.4862-6.9357 2.4063-10.262 3.0432-6.7941 1.2739-13.022 0.92003-18.33-0.0708-4.034-0.77849-7.5018-1.8401-10.404-3.0432-1.6278-0.63695-3.3971-1.4154-5.1664-2.4062-0.21232-0.14155-0.42463-0.21232-0.63695-0.35386-0.14154-0.0708-0.21232-0.14155-0.28309-0.14155-1.2739-0.70772-1.9816-1.2031-1.9816-1.2031s3.3971 5.591 12.385 8.2803c-2.1232 2.6893-4.7417 5.8033-4.7417 5.8033-15.641-0.49538-21.586-10.687-21.586-10.687 0-22.576 10.191-40.906 10.191-40.906 10.191-7.5726 19.816-7.3603 19.816-7.3603l0.70772 0.84927c-12.739 3.6094-18.542 9.2004-18.542 9.2004s1.557-0.84927 4.1756-1.9816c7.5726-3.3263 13.588-4.1756 16.065-4.4586 0.42463-0.07077 0.77849-0.14154 1.2031-0.14154 4.3171-0.56618 9.2004-0.70772 14.296-0.14154 6.7234 0.77849 13.942 2.7601 21.302 6.7234 0 0-5.591-5.3079-17.622-8.9173l0.99081-1.1324s9.6958-0.21232 19.816 7.3603c0 0 10.191 18.33 10.191 40.906 0-0.0708-5.9449 10.12-21.586 10.616z" fill="#A0A0A0" stroke-width=".70772"/>
<path class="st1" d="m54.662 29.58c-4.034 0-7.2188 3.4678-7.2188 7.7849s3.2555 7.785 7.2188 7.785c4.034 0 7.2188-3.4678 7.2188-7.785s-3.2555-7.7849-7.2188-7.7849zm-25.832 0c-4.034 0-7.2188 3.4678-7.2188 7.7849s3.2555 7.785 7.2188 7.785c4.034 0 7.2188-3.4678 7.2188-7.785 0.0708-4.3171-3.1847-7.7849-7.2188-7.7849z" fill="#fff" stroke-width=".70772"/>
</svg>
