<svg width="64" height="72" viewBox="0 0 64 72" fill="none" xmlns="http://www.w3.org/2000/svg">
<rect x="5" width="55" height="55" rx="2" fill="#EBEBEB"/>
<rect x="9.3461" y="5.40176" width="16.187" height="21.6383" rx="0.925379" fill="white"/>
<rect x="27.5873" y="3" width="14.7128" height="18.0995" rx="0.923622" fill="white"/>
<rect x="27.5873" y="23.1537" width="14.7128" height="28.7038" rx="0.923622" fill="white"/>
<rect x="44.1323" y="5.4429" width="11.2705" height="40.474" rx="0.744023" fill="white"/>
<rect x="22.5108" y="36.9904" width="3.28724" height="3.28724" rx="0.923622" fill="white"/>
<rect x="22.5108" y="32.6758" width="3.28724" height="3.28724" rx="0.923622" fill="white"/>
<rect x="18.1963" y="32.6758" width="3.28724" height="3.28724" rx="0.923622" fill="white"/>
<rect x="13.8819" y="28.3614" width="11.9162" height="3.28724" rx="0.923622" fill="white"/>
<rect x="5" y="59" width="55" height="13" rx="2" fill="#DADADA"/>
<path d="M11.0384 68.284H14.5094V70H9.24441V60.9H11.0384V68.284ZM21.6325 70L21.0865 68.362H17.4595L16.9135 70H14.9765L18.1615 60.9H20.3845L23.5825 70H21.6325ZM18.0315 66.685H20.5275L19.2795 62.967L18.0315 66.685ZM30.4874 60.9L27.3674 66.451V70H25.5864V66.451L22.4794 60.9H24.5074L26.4834 64.696L28.4594 60.9H30.4874ZM38.3565 68.817C37.4378 69.727 36.3198 70.182 35.0025 70.182C33.6852 70.182 32.5672 69.727 31.6485 68.817C30.7385 67.8983 30.2835 66.776 30.2835 65.45C30.2835 64.124 30.7385 63.006 31.6485 62.096C32.5672 61.1773 33.6852 60.718 35.0025 60.718C36.3198 60.718 37.4378 61.1773 38.3565 62.096C39.2752 63.006 39.7345 64.124 39.7345 65.45C39.7345 66.776 39.2752 67.8983 38.3565 68.817ZM32.9095 67.595C33.4728 68.1497 34.1705 68.427 35.0025 68.427C35.8345 68.427 36.5322 68.1497 37.0955 67.595C37.6588 67.0317 37.9405 66.3167 37.9405 65.45C37.9405 64.5833 37.6588 63.8683 37.0955 63.305C36.5322 62.7417 35.8345 62.46 35.0025 62.46C34.1705 62.46 33.4728 62.7417 32.9095 63.305C32.3462 63.8683 32.0645 64.5833 32.0645 65.45C32.0645 66.3167 32.3462 67.0317 32.9095 67.595ZM44.3249 70.182C43.3109 70.182 42.4789 69.896 41.8289 69.324C41.1789 68.752 40.8539 67.985 40.8539 67.023V60.9H42.6349V66.88C42.6349 67.3567 42.7692 67.7337 43.0379 68.011C43.3152 68.2883 43.7442 68.427 44.3249 68.427C44.9056 68.427 45.3302 68.2883 45.5989 68.011C45.8762 67.7337 46.0149 67.3567 46.0149 66.88V60.9H47.8089V67.023C47.8089 67.985 47.4839 68.752 46.8339 69.324C46.1839 69.896 45.3476 70.182 44.3249 70.182ZM55.4441 60.9V62.616H52.9871V70H51.1931V62.616H48.7491V60.9H55.4441Z" fill="white"/>
</svg>
