<svg width="680" height="166" viewBox="0 0 680 166" fill="none" xmlns="http://www.w3.org/2000/svg">
<g clip-path="url(#clip0)">
<path d="M-561.88 -413.67L1292.7 83.2625M-563.174 -408.843L1291.4 88.0895M-564.467 -404.016L1290.11 92.9169M-565.761 -399.188L1288.82 97.7446M-567.054 -394.36L1287.52 102.573M-568.348 -389.532L1286.23 107.401M-569.642 -384.703L1284.94 112.229M-570.936 -379.875L1283.64 117.058M-572.229 -375.046L1282.35 121.886M-573.523 -370.217L1281.05 126.715M-574.817 -365.389L1279.76 131.544M-576.111 -360.56L1278.47 136.373M-577.405 -355.731L1277.17 141.202M-578.699 -350.901L1275.88 146.031M-579.993 -346.072L1274.58 150.86M-581.287 -341.243L1273.29 155.69M-582.581 -336.414L1272 160.519M-583.875 -331.585L1270.7 165.348M-585.169 -326.755L1269.41 170.177M-586.463 -321.926L1268.11 175.007M-587.757 -317.097L1266.82 179.836M-589.051 -312.267L1265.53 184.666M-590.345 -307.438L1264.23 189.495M-591.639 -302.608L1262.94 194.324M-592.933 -297.779L1261.64 199.154M-594.227 -292.949L1260.35 203.983M-595.521 -288.12L1259.06 208.813M-596.815 -283.291L1257.76 213.642M-598.109 -278.461L1256.47 218.472M-599.403 -273.632L1255.17 223.301M-600.698 -268.802L1253.88 228.131M-601.992 -263.972L1252.59 232.96M-603.286 -259.143L1251.29 237.79M-604.58 -254.313L1250 242.619M-605.874 -249.484L1248.7 247.449M-607.168 -244.654L1247.41 252.278M-608.462 -239.825L1246.12 257.108M-609.756 -234.995L1244.82 261.938M-611.05 -230.166L1243.53 266.767M-612.344 -225.336L1242.23 271.597M-613.638 -220.506L1240.94 276.426M-614.932 -215.677L1239.65 281.256M-616.226 -210.847L1238.35 286.086M-617.521 -206.018L1237.06 290.915M-618.815 -201.188L1235.76 295.745M-620.109 -196.358L1234.47 300.574M-621.403 -191.529L1233.17 305.404M-622.697 -186.699L1231.88 310.234M-623.991 -181.87L1230.59 315.063M-625.285 -177.04L1229.29 319.893M-626.579 -172.21L1228 324.722M-627.873 -167.381L1226.7 329.552M-629.167 -162.551L1225.41 334.382M-630.461 -157.721L1224.12 339.211M-631.756 -152.892L1222.82 344.041M-633.05 -148.062L1221.53 348.871M-634.344 -143.233L1220.23 353.7M-635.638 -138.403L1218.94 358.53M-636.932 -133.573L1217.65 363.359M-638.226 -128.744L1216.35 368.189M-639.52 -123.914L1215.06 373.019M-640.814 -119.084L1213.76 377.848M-642.108 -114.255L1212.47 382.678M-643.402 -109.425L1211.18 387.508M-644.697 -104.596L1209.88 392.337M-645.991 -99.7659L1208.59 397.167M-647.285 -94.9363L1207.29 401.996M-648.579 -90.1067L1206 406.826M-649.873 -85.277L1204.7 411.656M-651.167 -80.4474L1203.41 416.485M-652.461 -75.6178L1202.12 421.315M-653.755 -70.7881L1200.82 426.145M-655.049 -65.9585L1199.53 430.974M-656.343 -61.1289L1198.23 435.804M-657.637 -56.2993L1196.94 440.633M-658.932 -51.4697L1195.65 445.463M-660.226 -46.64L1194.35 450.293M-661.52 -41.8104L1193.06 455.122M-662.814 -36.9808L1191.76 459.952M-664.108 -32.1512L1190.47 464.782M-665.402 -27.3216L1189.18 469.611M-666.696 -22.492L1187.88 474.441M-667.99 -17.6624L1186.59 479.27M-669.284 -12.8328L1185.29 484.1M-670.578 -8.00314L1184 488.93M-671.872 -3.17357L1182.71 493.759M-673.167 1.65603L1181.41 498.589M-674.461 6.4856L1180.12 503.418M-675.755 11.3152L1178.82 508.248M-677.049 16.1448L1177.53 513.078M-678.343 20.9744L1176.23 517.907M-679.637 25.8039L1174.94 522.737M-680.931 30.6335L1173.65 527.566M-682.225 35.4631L1172.35 532.396M-683.519 40.2926L1171.06 537.225M-684.813 45.1222L1169.76 542.055M-686.107 49.9517L1168.47 546.884M-687.401 54.7812L1167.18 551.714M-688.695 59.6108L1165.88 556.543M-689.99 64.4403L1164.59 561.373M-691.284 69.2698L1163.29 566.203M-692.578 74.0992L1162 571.032M-693.872 78.9287L1160.71 575.861M-695.166 83.7582L1159.41 580.691M-696.46 88.5876L1158.12 585.52M-697.754 93.417L1156.82 590.35M-699.048 98.2464L1155.53 595.179M-700.342 103.076L1154.24 600.009M-701.636 107.905L1152.94 604.838M-702.93 112.734L1151.65 609.667M-704.224 117.564L1150.35 614.496M-705.518 122.393L1149.06 619.326M-706.812 127.222L1147.77 624.155M-708.106 132.051L1146.47 628.984M-709.401 136.886L1145.18 633.819M-710.697 141.721L1143.88 638.654" stroke="#EBEBEB" class="lines-stroke"/>
</g>
<mask id="path-2-outside-1" maskUnits="userSpaceOnUse" x="215.886" y="14.3729" width="248" height="130" fill="black">
<rect fill="white" x="215.886" y="14.3729" width="248" height="130"/>
<path d="M237.412 84.5397C232.993 84.9457 229.276 84.306 226.259 82.6205C223.242 80.8924 221.118 78.3782 219.886 75.0781L227.406 69.9711C229.148 74.3764 232.568 76.3448 237.667 75.8763C240.131 75.6498 241.937 75.0359 243.084 74.0345C244.231 73.0331 244.805 71.8497 244.805 70.4844C244.805 68.9057 244.104 67.7541 242.702 67.0296C241.3 66.2625 238.793 65.5328 235.181 64.8407C233.185 64.4268 231.485 63.9856 230.083 63.5172C228.723 63.0447 227.342 62.3823 225.94 61.5298C224.581 60.6307 223.54 59.4464 222.818 57.9767C222.095 56.5071 221.734 54.7483 221.734 52.7003C221.734 48.647 223.157 45.2948 226.004 42.6439C228.893 39.9465 232.356 38.4123 236.392 38.0414C240.004 37.7096 243.169 38.3147 245.888 39.8568C248.65 41.3524 250.796 43.6086 252.325 46.6254L244.932 51.5927C243.148 47.9167 240.301 46.2582 236.392 46.6174C234.565 46.7853 233.121 47.3447 232.059 48.2956C231.039 49.2 230.529 50.3135 230.529 51.6362C230.529 53.0442 231.103 54.1435 232.25 54.934C233.439 55.6781 235.691 56.4098 239.005 57.1293C240.365 57.431 241.385 57.6787 242.064 57.8722C242.787 58.0192 243.743 58.294 244.932 58.6967C246.165 59.0528 247.099 59.4149 247.737 59.783C248.416 60.1472 249.181 60.6529 250.031 61.3002C250.881 61.9474 251.518 62.6355 251.943 63.3645C252.41 64.0896 252.793 64.9931 253.09 66.0751C253.43 67.1105 253.6 68.2683 253.6 69.5483C253.6 73.6869 252.092 77.1108 249.075 79.82C246.101 82.5253 242.213 84.0985 237.412 84.5397Z"/>
<path d="M280.184 80.6095C273.471 81.2264 267.926 79.4958 263.55 75.418C259.174 71.3401 256.986 66.0158 256.986 59.4451C256.986 52.8318 259.174 47.1054 263.55 42.266C267.926 37.3838 273.471 34.6344 280.184 34.0175C284.22 33.6466 287.938 34.265 291.337 35.8727C294.778 37.4338 297.455 39.7479 299.367 42.8148L291.783 47.9277C290.678 46.0239 289.106 44.611 287.067 43.6891C285.027 42.7245 282.733 42.3593 280.184 42.5935C275.85 42.9917 272.345 44.6792 269.668 47.6558C267.034 50.6285 265.717 54.2909 265.717 58.6429C265.717 62.9522 267.034 66.3512 269.668 68.8398C272.345 71.3245 275.85 72.3677 280.184 71.9695C282.733 71.7353 285.027 70.9698 287.067 69.6731C289.149 68.3298 290.721 66.628 291.783 64.5677L299.367 68.2868C297.455 71.7052 294.8 74.5305 291.401 76.7628C288.002 78.9525 284.263 80.2347 280.184 80.6095Z"/>
<path d="M330.135 30.3237L338.866 29.5214V74.3214L330.135 75.1237V56.5637L313.565 58.0863V76.6463L304.77 77.4544V32.6544L313.565 31.8462V49.6383L330.135 48.1157V30.3237Z"/>
<path d="M355.949 64.3037L374.749 62.5762V71.0242L347.154 73.5599V28.7599L374.431 26.2534V34.7014L355.949 36.3997V45.9357L372.838 44.3838V52.7038L355.949 54.2557V64.3037Z"/>
<path d="M424.605 21.6431V66.4431L415.874 67.2454V38.1894L403.319 60.143L402.299 60.2367L389.744 40.6544V69.6464L380.949 70.4545V25.6545L389.999 24.823L402.809 44.8299L415.555 22.4747L424.605 21.6431Z"/>
<path d="M441.712 56.4231L460.513 54.6956V63.1436L432.917 65.6793V20.8793L460.195 18.3729V26.8209L441.712 28.5191V38.0551L458.601 36.5033V44.8233L441.712 46.3751V56.4231Z"/>
<path d="M229.742 95.5485L238.537 94.7403V139.54L229.742 140.348V95.5485Z"/>
<path d="M290.451 89.9701V134.77L281.72 135.572V106.516L269.165 128.47L268.145 128.564L255.59 108.981V137.973L246.795 138.782V93.9815L255.845 93.1499L268.655 113.157L281.401 90.8016L290.451 89.9701Z"/>
<path d="M315.398 87.6778C319.689 87.2835 323.3 88.4023 326.232 91.0343C329.164 93.6662 330.63 97.0942 330.63 101.318C330.63 105.542 329.164 109.24 326.232 112.41C323.3 115.581 319.689 117.364 315.398 117.758L307.559 118.478V133.198L298.764 134.006V89.2063L315.398 87.6778ZM315.398 109.502C317.267 109.33 318.818 108.548 320.05 107.154C321.282 105.718 321.898 104.04 321.898 102.12C321.898 100.158 321.282 98.5931 320.05 97.4263C318.818 96.2595 317.267 95.762 315.398 95.9338L307.559 96.6541V110.222L315.398 109.502Z"/>
<path d="M373.582 121.307C369.078 126.201 363.598 128.945 357.139 129.538C350.681 130.132 345.2 128.395 340.697 124.329C336.235 120.216 334.005 114.896 334.005 108.368C334.005 101.84 336.235 96.1311 340.697 91.2412C345.2 86.3047 350.681 83.5397 357.139 82.9463C363.598 82.3529 369.078 84.1106 373.582 88.2194C378.086 92.2856 380.338 97.5827 380.338 104.111C380.338 110.639 378.086 116.371 373.582 121.307ZM346.879 117.745C349.64 120.222 353.061 121.273 357.139 120.898C361.218 120.524 364.639 118.844 367.4 115.859C370.162 112.832 371.543 109.185 371.543 104.919C371.543 100.652 370.162 97.259 367.4 94.7395C364.639 92.2199 361.218 91.1475 357.139 91.5223C353.061 91.8971 349.64 93.598 346.879 96.6251C344.117 99.6522 342.736 103.299 342.736 107.566C342.736 111.832 344.117 115.226 346.879 117.745Z"/>
<path d="M410.992 123.694L402.006 108.968L395.314 109.583V125.135L386.519 125.943V81.1427L404.364 79.503C408.485 79.1243 411.991 80.2529 414.88 82.8887C417.769 85.5246 419.213 88.8905 419.213 92.9865C419.213 95.7598 418.427 98.4134 416.855 100.947C415.283 103.438 413.201 105.4 410.61 106.833L420.488 122.821L410.992 123.694ZM395.314 88.5905V101.839L404.364 101.007C406.021 100.855 407.444 100.084 408.634 98.6946C409.824 97.2626 410.418 95.6293 410.418 93.7946C410.418 91.96 409.824 90.4573 408.634 89.2866C407.444 88.1159 406.021 87.6067 404.364 87.759L395.314 88.5905Z"/>
<path d="M454.241 74.9199V83.3679L442.196 84.4747V120.827L433.401 121.635V85.2829L421.419 86.3838V77.9358L454.241 74.9199Z"/>
</mask>
<path d="M237.412 84.5397C232.993 84.9457 229.276 84.306 226.259 82.6205C223.242 80.8924 221.118 78.3782 219.886 75.0781L227.406 69.9711C229.148 74.3764 232.568 76.3448 237.667 75.8763C240.131 75.6498 241.937 75.0359 243.084 74.0345C244.231 73.0331 244.805 71.8497 244.805 70.4844C244.805 68.9057 244.104 67.7541 242.702 67.0296C241.3 66.2625 238.793 65.5328 235.181 64.8407C233.185 64.4268 231.485 63.9856 230.083 63.5172C228.723 63.0447 227.342 62.3823 225.94 61.5298C224.581 60.6307 223.54 59.4464 222.818 57.9767C222.095 56.5071 221.734 54.7483 221.734 52.7003C221.734 48.647 223.157 45.2948 226.004 42.6439C228.893 39.9465 232.356 38.4123 236.392 38.0414C240.004 37.7096 243.169 38.3147 245.888 39.8568C248.65 41.3524 250.796 43.6086 252.325 46.6254L244.932 51.5927C243.148 47.9167 240.301 46.2582 236.392 46.6174C234.565 46.7853 233.121 47.3447 232.059 48.2956C231.039 49.2 230.529 50.3135 230.529 51.6362C230.529 53.0442 231.103 54.1435 232.25 54.934C233.439 55.6781 235.691 56.4098 239.005 57.1293C240.365 57.431 241.385 57.6787 242.064 57.8722C242.787 58.0192 243.743 58.294 244.932 58.6967C246.165 59.0528 247.099 59.4149 247.737 59.783C248.416 60.1472 249.181 60.6529 250.031 61.3002C250.881 61.9474 251.518 62.6355 251.943 63.3645C252.41 64.0896 252.793 64.9931 253.09 66.0751C253.43 67.1105 253.6 68.2683 253.6 69.5483C253.6 73.6869 252.092 77.1108 249.075 79.82C246.101 82.5253 242.213 84.0985 237.412 84.5397Z" fill="url(#paint0_linear)"/>
<path d="M280.184 80.6095C273.471 81.2264 267.926 79.4958 263.55 75.418C259.174 71.3401 256.986 66.0158 256.986 59.4451C256.986 52.8318 259.174 47.1054 263.55 42.266C267.926 37.3838 273.471 34.6344 280.184 34.0175C284.22 33.6466 287.938 34.265 291.337 35.8727C294.778 37.4338 297.455 39.7479 299.367 42.8148L291.783 47.9277C290.678 46.0239 289.106 44.611 287.067 43.6891C285.027 42.7245 282.733 42.3593 280.184 42.5935C275.85 42.9917 272.345 44.6792 269.668 47.6558C267.034 50.6285 265.717 54.2909 265.717 58.6429C265.717 62.9522 267.034 66.3512 269.668 68.8398C272.345 71.3245 275.85 72.3677 280.184 71.9695C282.733 71.7353 285.027 70.9698 287.067 69.6731C289.149 68.3298 290.721 66.628 291.783 64.5677L299.367 68.2868C297.455 71.7052 294.8 74.5305 291.401 76.7628C288.002 78.9525 284.263 80.2347 280.184 80.6095Z" fill="url(#paint1_linear)"/>
<path d="M330.135 30.3237L338.866 29.5214V74.3214L330.135 75.1237V56.5637L313.565 58.0863V76.6463L304.77 77.4544V32.6544L313.565 31.8462V49.6383L330.135 48.1157V30.3237Z" fill="url(#paint2_linear)"/>
<path d="M355.949 64.3037L374.749 62.5762V71.0242L347.154 73.5599V28.7599L374.431 26.2534V34.7014L355.949 36.3997V45.9357L372.838 44.3838V52.7038L355.949 54.2557V64.3037Z" fill="url(#paint3_linear)"/>
<path d="M424.605 21.6431V66.4431L415.874 67.2454V38.1894L403.319 60.143L402.299 60.2367L389.744 40.6544V69.6464L380.949 70.4545V25.6545L389.999 24.823L402.809 44.8299L415.555 22.4747L424.605 21.6431Z" fill="url(#paint4_linear)"/>
<path d="M441.712 56.4231L460.513 54.6956V63.1436L432.917 65.6793V20.8793L460.195 18.3729V26.8209L441.712 28.5191V38.0551L458.601 36.5033V44.8233L441.712 46.3751V56.4231Z" fill="url(#paint5_linear)"/>
<path d="M229.742 95.5485L238.537 94.7403V139.54L229.742 140.348V95.5485Z" fill="url(#paint6_linear)"/>
<path d="M290.451 89.9701V134.77L281.72 135.572V106.516L269.165 128.47L268.145 128.564L255.59 108.981V137.973L246.795 138.782V93.9815L255.845 93.1499L268.655 113.157L281.401 90.8016L290.451 89.9701Z" fill="url(#paint7_linear)"/>
<path d="M315.398 87.6778C319.689 87.2835 323.3 88.4023 326.232 91.0343C329.164 93.6662 330.63 97.0942 330.63 101.318C330.63 105.542 329.164 109.24 326.232 112.41C323.3 115.581 319.689 117.364 315.398 117.758L307.559 118.478V133.198L298.764 134.006V89.2063L315.398 87.6778ZM315.398 109.502C317.267 109.33 318.818 108.548 320.05 107.154C321.282 105.718 321.898 104.04 321.898 102.12C321.898 100.158 321.282 98.5931 320.05 97.4263C318.818 96.2595 317.267 95.762 315.398 95.9338L307.559 96.6541V110.222L315.398 109.502Z" fill="url(#paint8_linear)"/>
<path d="M373.582 121.307C369.078 126.201 363.598 128.945 357.139 129.538C350.681 130.132 345.2 128.395 340.697 124.329C336.235 120.216 334.005 114.896 334.005 108.368C334.005 101.84 336.235 96.1311 340.697 91.2412C345.2 86.3047 350.681 83.5397 357.139 82.9463C363.598 82.3529 369.078 84.1106 373.582 88.2194C378.086 92.2856 380.338 97.5827 380.338 104.111C380.338 110.639 378.086 116.371 373.582 121.307ZM346.879 117.745C349.64 120.222 353.061 121.273 357.139 120.898C361.218 120.524 364.639 118.844 367.4 115.859C370.162 112.832 371.543 109.185 371.543 104.919C371.543 100.652 370.162 97.259 367.4 94.7395C364.639 92.2199 361.218 91.1475 357.139 91.5223C353.061 91.8971 349.64 93.598 346.879 96.6251C344.117 99.6522 342.736 103.299 342.736 107.566C342.736 111.832 344.117 115.226 346.879 117.745Z" fill="url(#paint9_linear)"/>
<path d="M410.992 123.694L402.006 108.968L395.314 109.583V125.135L386.519 125.943V81.1427L404.364 79.503C408.485 79.1243 411.991 80.2529 414.88 82.8887C417.769 85.5246 419.213 88.8905 419.213 92.9865C419.213 95.7598 418.427 98.4134 416.855 100.947C415.283 103.438 413.201 105.4 410.61 106.833L420.488 122.821L410.992 123.694ZM395.314 88.5905V101.839L404.364 101.007C406.021 100.855 407.444 100.084 408.634 98.6946C409.824 97.2626 410.418 95.6293 410.418 93.7946C410.418 91.96 409.824 90.4573 408.634 89.2866C407.444 88.1159 406.021 87.6067 404.364 87.759L395.314 88.5905Z" fill="url(#paint10_linear)"/>
<path d="M454.241 74.9199V83.3679L442.196 84.4747V120.827L433.401 121.635V85.2829L421.419 86.3838V77.9358L454.241 74.9199Z" fill="url(#paint11_linear)"/>
<path d="M237.412 84.5397C232.993 84.9457 229.276 84.306 226.259 82.6205C223.242 80.8924 221.118 78.3782 219.886 75.0781L227.406 69.9711C229.148 74.3764 232.568 76.3448 237.667 75.8763C240.131 75.6498 241.937 75.0359 243.084 74.0345C244.231 73.0331 244.805 71.8497 244.805 70.4844C244.805 68.9057 244.104 67.7541 242.702 67.0296C241.3 66.2625 238.793 65.5328 235.181 64.8407C233.185 64.4268 231.485 63.9856 230.083 63.5172C228.723 63.0447 227.342 62.3823 225.94 61.5298C224.581 60.6307 223.54 59.4464 222.818 57.9767C222.095 56.5071 221.734 54.7483 221.734 52.7003C221.734 48.647 223.157 45.2948 226.004 42.6439C228.893 39.9465 232.356 38.4123 236.392 38.0414C240.004 37.7096 243.169 38.3147 245.888 39.8568C248.65 41.3524 250.796 43.6086 252.325 46.6254L244.932 51.5927C243.148 47.9167 240.301 46.2582 236.392 46.6174C234.565 46.7853 233.121 47.3447 232.059 48.2956C231.039 49.2 230.529 50.3135 230.529 51.6362C230.529 53.0442 231.103 54.1435 232.25 54.934C233.439 55.6781 235.691 56.4098 239.005 57.1293C240.365 57.431 241.385 57.6787 242.064 57.8722C242.787 58.0192 243.743 58.294 244.932 58.6967C246.165 59.0528 247.099 59.4149 247.737 59.783C248.416 60.1472 249.181 60.6529 250.031 61.3002C250.881 61.9474 251.518 62.6355 251.943 63.3645C252.41 64.0896 252.793 64.9931 253.09 66.0751C253.43 67.1105 253.6 68.2683 253.6 69.5483C253.6 73.6869 252.092 77.1108 249.075 79.82C246.101 82.5253 242.213 84.0985 237.412 84.5397Z" stroke="white" class="background-stroke" stroke-width="6" mask="url(#path-2-outside-1)"/>
<path d="M280.184 80.6095C273.471 81.2264 267.926 79.4958 263.55 75.418C259.174 71.3401 256.986 66.0158 256.986 59.4451C256.986 52.8318 259.174 47.1054 263.55 42.266C267.926 37.3838 273.471 34.6344 280.184 34.0175C284.22 33.6466 287.938 34.265 291.337 35.8727C294.778 37.4338 297.455 39.7479 299.367 42.8148L291.783 47.9277C290.678 46.0239 289.106 44.611 287.067 43.6891C285.027 42.7245 282.733 42.3593 280.184 42.5935C275.85 42.9917 272.345 44.6792 269.668 47.6558C267.034 50.6285 265.717 54.2909 265.717 58.6429C265.717 62.9522 267.034 66.3512 269.668 68.8398C272.345 71.3245 275.85 72.3677 280.184 71.9695C282.733 71.7353 285.027 70.9698 287.067 69.6731C289.149 68.3298 290.721 66.628 291.783 64.5677L299.367 68.2868C297.455 71.7052 294.8 74.5305 291.401 76.7628C288.002 78.9525 284.263 80.2347 280.184 80.6095Z" stroke="white" class="background-stroke" stroke-width="6" mask="url(#path-2-outside-1)"/>
<path d="M330.135 30.3237L338.866 29.5214V74.3214L330.135 75.1237V56.5637L313.565 58.0863V76.6463L304.77 77.4544V32.6544L313.565 31.8462V49.6383L330.135 48.1157V30.3237Z" stroke="white" class="background-stroke" stroke-width="6" mask="url(#path-2-outside-1)"/>
<path d="M355.949 64.3037L374.749 62.5762V71.0242L347.154 73.5599V28.7599L374.431 26.2534V34.7014L355.949 36.3997V45.9357L372.838 44.3838V52.7038L355.949 54.2557V64.3037Z" stroke="white" class="background-stroke" stroke-width="6" mask="url(#path-2-outside-1)"/>
<path d="M424.605 21.6431V66.4431L415.874 67.2454V38.1894L403.319 60.143L402.299 60.2367L389.744 40.6544V69.6464L380.949 70.4545V25.6545L389.999 24.823L402.809 44.8299L415.555 22.4747L424.605 21.6431Z" stroke="white" class="background-stroke" stroke-width="6" mask="url(#path-2-outside-1)"/>
<path d="M441.712 56.4231L460.513 54.6956V63.1436L432.917 65.6793V20.8793L460.195 18.3729V26.8209L441.712 28.5191V38.0551L458.601 36.5033V44.8233L441.712 46.3751V56.4231Z" stroke="white" class="background-stroke" stroke-width="6" mask="url(#path-2-outside-1)"/>
<path d="M229.742 95.5485L238.537 94.7403V139.54L229.742 140.348V95.5485Z" stroke="white" class="background-stroke" stroke-width="6" mask="url(#path-2-outside-1)"/>
<path d="M290.451 89.9701V134.77L281.72 135.572V106.516L269.165 128.47L268.145 128.564L255.59 108.981V137.973L246.795 138.782V93.9815L255.845 93.1499L268.655 113.157L281.401 90.8016L290.451 89.9701Z" stroke="white" class="background-stroke" stroke-width="6" mask="url(#path-2-outside-1)"/>
<path d="M315.398 87.6778C319.689 87.2835 323.3 88.4023 326.232 91.0343C329.164 93.6662 330.63 97.0942 330.63 101.318C330.63 105.542 329.164 109.24 326.232 112.41C323.3 115.581 319.689 117.364 315.398 117.758L307.559 118.478V133.198L298.764 134.006V89.2063L315.398 87.6778ZM315.398 109.502C317.267 109.33 318.818 108.548 320.05 107.154C321.282 105.718 321.898 104.04 321.898 102.12C321.898 100.158 321.282 98.5931 320.05 97.4263C318.818 96.2595 317.267 95.762 315.398 95.9338L307.559 96.6541V110.222L315.398 109.502Z" stroke="white" class="background-stroke" stroke-width="6" mask="url(#path-2-outside-1)"/>
<path d="M373.582 121.307C369.078 126.201 363.598 128.945 357.139 129.538C350.681 130.132 345.2 128.395 340.697 124.329C336.235 120.216 334.005 114.896 334.005 108.368C334.005 101.84 336.235 96.1311 340.697 91.2412C345.2 86.3047 350.681 83.5397 357.139 82.9463C363.598 82.3529 369.078 84.1106 373.582 88.2194C378.086 92.2856 380.338 97.5827 380.338 104.111C380.338 110.639 378.086 116.371 373.582 121.307ZM346.879 117.745C349.64 120.222 353.061 121.273 357.139 120.898C361.218 120.524 364.639 118.844 367.4 115.859C370.162 112.832 371.543 109.185 371.543 104.919C371.543 100.652 370.162 97.259 367.4 94.7395C364.639 92.2199 361.218 91.1475 357.139 91.5223C353.061 91.8971 349.64 93.598 346.879 96.6251C344.117 99.6522 342.736 103.299 342.736 107.566C342.736 111.832 344.117 115.226 346.879 117.745Z" stroke="white" class="background-stroke" stroke-width="6" mask="url(#path-2-outside-1)"/>
<path d="M410.992 123.694L402.006 108.968L395.314 109.583V125.135L386.519 125.943V81.1427L404.364 79.503C408.485 79.1243 411.991 80.2529 414.88 82.8887C417.769 85.5246 419.213 88.8905 419.213 92.9865C419.213 95.7598 418.427 98.4134 416.855 100.947C415.283 103.438 413.201 105.4 410.61 106.833L420.488 122.821L410.992 123.694ZM395.314 88.5905V101.839L404.364 101.007C406.021 100.855 407.444 100.084 408.634 98.6946C409.824 97.2626 410.418 95.6293 410.418 93.7946C410.418 91.96 409.824 90.4573 408.634 89.2866C407.444 88.1159 406.021 87.6067 404.364 87.759L395.314 88.5905Z" stroke="white" class="background-stroke" stroke-width="6" mask="url(#path-2-outside-1)"/>
<path d="M454.241 74.9199V83.3679L442.196 84.4747V120.827L433.401 121.635V85.2829L421.419 86.3838V77.9358L454.241 74.9199Z" stroke="white" class="background-stroke" stroke-width="6" mask="url(#path-2-outside-1)"/>
<defs>
<linearGradient id="paint0_linear" x1="118.801" y1="103.966" x2="557.83" y2="80.5142" gradientUnits="userSpaceOnUse">
<stop stop-color="#DDB7E0"/>
<stop offset="1" stop-color="#98E6E2"/>
</linearGradient>
<linearGradient id="paint1_linear" x1="118.801" y1="103.966" x2="557.83" y2="80.5142" gradientUnits="userSpaceOnUse">
<stop stop-color="#DDB7E0"/>
<stop offset="1" stop-color="#98E6E2"/>
</linearGradient>
<linearGradient id="paint2_linear" x1="118.801" y1="103.966" x2="557.83" y2="80.5142" gradientUnits="userSpaceOnUse">
<stop stop-color="#DDB7E0"/>
<stop offset="1" stop-color="#98E6E2"/>
</linearGradient>
<linearGradient id="paint3_linear" x1="118.801" y1="103.966" x2="557.83" y2="80.5142" gradientUnits="userSpaceOnUse">
<stop stop-color="#DDB7E0"/>
<stop offset="1" stop-color="#98E6E2"/>
</linearGradient>
<linearGradient id="paint4_linear" x1="118.801" y1="103.966" x2="557.83" y2="80.5142" gradientUnits="userSpaceOnUse">
<stop stop-color="#DDB7E0"/>
<stop offset="1" stop-color="#98E6E2"/>
</linearGradient>
<linearGradient id="paint5_linear" x1="118.801" y1="103.966" x2="557.83" y2="80.5142" gradientUnits="userSpaceOnUse">
<stop stop-color="#DDB7E0"/>
<stop offset="1" stop-color="#98E6E2"/>
</linearGradient>
<linearGradient id="paint6_linear" x1="118.801" y1="103.966" x2="557.83" y2="80.5142" gradientUnits="userSpaceOnUse">
<stop stop-color="#DDB7E0"/>
<stop offset="1" stop-color="#98E6E2"/>
</linearGradient>
<linearGradient id="paint7_linear" x1="118.801" y1="103.966" x2="557.83" y2="80.5142" gradientUnits="userSpaceOnUse">
<stop stop-color="#DDB7E0"/>
<stop offset="1" stop-color="#98E6E2"/>
</linearGradient>
<linearGradient id="paint8_linear" x1="118.801" y1="103.966" x2="557.83" y2="80.5142" gradientUnits="userSpaceOnUse">
<stop stop-color="#DDB7E0"/>
<stop offset="1" stop-color="#98E6E2"/>
</linearGradient>
<linearGradient id="paint9_linear" x1="118.801" y1="103.966" x2="557.83" y2="80.5142" gradientUnits="userSpaceOnUse">
<stop stop-color="#DDB7E0"/>
<stop offset="1" stop-color="#98E6E2"/>
</linearGradient>
<linearGradient id="paint10_linear" x1="118.801" y1="103.966" x2="557.83" y2="80.5142" gradientUnits="userSpaceOnUse">
<stop stop-color="#DDB7E0"/>
<stop offset="1" stop-color="#98E6E2"/>
</linearGradient>
<linearGradient id="paint11_linear" x1="118.801" y1="103.966" x2="557.83" y2="80.5142" gradientUnits="userSpaceOnUse">
<stop stop-color="#DDB7E0"/>
<stop offset="1" stop-color="#98E6E2"/>
</linearGradient>
<clipPath id="clip0">
<rect width="680" height="166" fill="white" transform="translate(0.000244141)"/>
</clipPath>
</defs>
</svg>
