<svg width="290" height="44" viewBox="0 0 290 44" fill="none" xmlns="http://www.w3.org/2000/svg">
<path d="M14.0764 43.7048C11.4143 44.0912 9.02776 43.7999 6.91683 42.8307C4.83306 41.8577 3.22877 40.3436 2.10395 38.2885L5.04953 35.9475C6.74147 39.2236 9.57043 40.5738 13.5364 39.9981C15.4923 39.7141 16.9203 39.1048 17.8205 38.1699C18.7162 37.208 19.0525 36.0639 18.8294 34.7375C18.6017 33.3841 17.9149 32.4439 16.7688 31.917C15.6228 31.3901 13.7772 30.9232 11.2321 30.5162C9.9731 30.3108 9.01301 30.1451 8.35181 30.0193C7.68606 29.8663 6.83911 29.6288 5.81096 29.3066C4.80542 28.9535 4.03078 28.5668 3.48704 28.1466C2.93874 27.6993 2.40615 27.0972 1.88927 26.3404C1.39955 25.5796 1.06819 24.6849 0.895189 23.6562C0.480891 21.193 1.02235 19.1178 2.51958 17.4308C4.01225 15.7167 6.00814 14.6783 8.50726 14.3155C10.7619 13.9882 12.8133 14.2728 14.6616 15.1691C16.537 16.0615 18.0528 17.3805 19.209 19.126L16.3381 21.4145C14.624 18.6685 12.2186 17.5203 9.12188 17.9698C7.57351 18.1946 6.38769 18.7549 5.56441 19.6509C4.74114 20.5468 4.43877 21.6444 4.6573 22.9438C4.86672 24.1889 5.47428 25.0713 6.47997 25.5908C7.48566 26.1103 9.14784 26.5623 11.4665 26.9467C12.2953 27.0759 12.8817 27.171 13.2259 27.232C13.5701 27.2929 14.1045 27.4095 14.8291 27.5816C15.5809 27.7497 16.1335 27.8914 16.4868 28.0065C16.8401 28.1216 17.3134 28.2886 17.9068 28.5075C18.5273 28.7224 18.9961 28.9455 19.3133 29.1768C19.6305 29.408 19.9998 29.701 20.4212 30.0558C20.8652 30.3796 21.2029 30.7326 21.4342 31.115C21.6655 31.4974 21.881 31.9514 22.0807 32.477C22.303 32.9715 22.4642 33.5166 22.5644 34.1121C22.9832 36.6025 22.4079 38.7241 20.8382 40.4771C19.2641 42.203 17.0101 43.2789 14.0764 43.7048Z" fill="url(#paint0_linear_1446_400)"/>
<path d="M46.6598 35.4601C44.9118 37.514 42.4564 38.7244 39.2935 39.0913C36.1306 39.4582 33.4191 38.8472 31.159 37.2582C28.9225 35.6388 27.5998 33.2918 27.1909 30.2172L24.6669 11.2385L28.4705 10.7973L30.9728 29.6127C31.2406 31.6262 32.0539 33.162 33.4128 34.22C34.7682 35.2509 36.5637 35.6366 38.7996 35.3772C41.0354 35.1179 42.6754 34.3336 43.7195 33.0244C44.76 31.6881 45.1463 30.0131 44.8786 27.9996L42.3763 9.18425L46.1391 8.74778L48.663 27.7264C49.0719 30.8011 48.4042 33.379 46.6598 35.4601Z" fill="url(#paint1_linear_1446_400)"/>
<path d="M83.8648 18.3335L84.0285 20.055C84.3845 23.7987 83.395 27.0204 81.0601 29.7204C78.7225 32.3929 75.4337 33.9051 71.1937 34.2567C66.8169 34.6197 63.0559 33.4857 59.9108 30.8547C56.7904 28.1942 55.0328 24.7871 54.6379 20.6336C54.2429 16.4801 55.3315 12.8507 57.9036 9.74556C60.5005 6.61081 63.96 4.86419 68.2821 4.50573C70.9355 4.28566 73.4312 4.7259 75.7691 5.82644C78.1044 6.89966 79.9726 8.42473 81.3737 10.4017L78.2742 12.6004C77.3055 11.1109 75.9426 9.97079 74.1856 9.18011C72.4533 8.35983 70.5888 8.0325 68.5918 8.19812C65.3092 8.47037 62.7174 9.77321 60.8163 12.1066C58.9126 14.4128 58.1115 17.1507 58.4129 20.3205C58.7143 23.4903 60.0195 26.0535 62.3285 28.0103C64.6649 29.9647 67.5154 30.8024 70.8801 30.5234C73.7523 30.2851 76.0113 29.3955 77.6568 27.8544C79.2998 26.286 80.2063 24.3655 80.3762 22.0931L69.8308 22.9677L69.5034 19.5246L83.8648 18.3335Z" fill="url(#paint2_linear_1446_400)"/>
<path d="M117.834 15.3951L117.929 17.1217C118.136 20.8766 117.02 24.063 114.58 26.6809C112.139 29.2715 108.793 30.6689 104.544 30.8732C100.157 31.0841 96.4447 29.8199 93.4073 27.0805C90.3957 24.3124 88.7752 20.8454 88.5456 16.6794C88.316 12.5135 89.5476 8.92308 92.2404 5.90822C94.9591 2.86464 98.4844 1.23872 102.816 1.03046C105.476 0.902614 107.951 1.42938 110.243 2.61077C112.534 3.76475 114.339 5.35423 115.66 7.3792L112.477 9.46959C111.568 7.94691 110.252 6.75984 108.528 5.90839C106.83 5.02821 104.981 4.63623 102.979 4.73245C99.6891 4.89062 97.0481 6.10304 95.0563 8.36972C93.063 10.609 92.154 13.3183 92.3292 16.4975C92.5044 19.6768 93.7065 22.2846 95.9355 24.3209C98.1918 26.3558 101.006 27.2923 104.379 27.1301C107.257 26.9917 109.549 26.1808 111.254 24.6974C112.958 23.1865 113.94 21.2981 114.2 19.0323L103.63 19.5404L103.44 16.087L117.834 15.3951Z" fill="url(#paint3_linear_1446_400)"/>
<path d="M128.149 26.4976L141.529 26.2566L141.604 29.8791L124.396 30.1891L123.801 1.37372L140.803 1.06745L140.877 4.68995L127.704 4.92726L127.887 13.7777L140.031 13.5589L140.105 17.1403L127.961 17.359L128.149 26.4976Z" fill="url(#paint4_linear_1446_400)"/>
<path d="M156.647 30.5707C153.957 30.5488 151.658 29.8987 149.75 28.6204C147.869 27.3424 146.556 25.6024 145.811 23.4003L149.125 21.5333C150.213 25.0283 152.761 26.7921 156.769 26.8248C158.745 26.8409 160.259 26.4552 161.31 25.6677C162.362 24.8528 162.895 23.7729 162.909 22.4279C162.924 21.0556 162.413 20.022 161.377 19.3273C160.342 18.6326 158.606 17.8911 156.172 17.1026C154.968 16.7085 154.052 16.3991 153.423 16.1744C152.794 15.9222 152.002 15.5589 151.046 15.0845C150.118 14.5828 149.423 14.083 148.962 13.5852C148.501 13.0599 148.082 12.3839 147.707 11.5574C147.359 10.7311 147.19 9.79639 147.201 8.75338C147.228 6.25566 148.127 4.28659 149.899 2.84619C151.671 1.37834 153.82 0.654711 156.345 0.675293C158.624 0.693861 160.594 1.28637 162.256 2.45281C163.945 3.61948 165.206 5.15322 166.037 7.05403L162.805 8.88056C161.602 5.90616 159.435 4.40621 156.306 4.38071C154.742 4.36796 153.475 4.74193 152.506 5.50263C151.537 6.26333 151.046 7.30242 151.032 8.6199C151.019 9.88249 151.461 10.8468 152.36 11.513C153.259 12.1791 154.816 12.878 157.032 13.6098C157.825 13.8633 158.386 14.0463 158.714 14.1588C159.043 14.2712 159.548 14.4675 160.232 14.7476C160.942 15.0279 161.462 15.2517 161.789 15.4191C162.117 15.5864 162.554 15.8233 163.099 16.1297C163.673 16.4363 164.095 16.728 164.367 17.0047C164.638 17.2814 164.95 17.6271 165.303 18.0417C165.683 18.4291 165.953 18.8294 166.113 19.2424C166.274 19.6555 166.406 20.1369 166.51 20.6868C166.642 21.2094 166.704 21.7726 166.698 22.3765C166.671 24.9016 165.73 26.9115 163.875 28.4062C162.021 29.8733 159.611 30.5948 156.647 30.5707Z" fill="url(#paint5_linear_1446_400)"/>
<path d="M190.671 1.88283L190.522 5.50302L182.004 5.19604L180.964 30.3728L177.179 30.2364L178.219 5.0596L169.743 4.75411L169.892 1.13392L190.671 1.88283Z" fill="url(#paint6_linear_1446_400)"/>
<path d="M196.652 2.8559L200.474 3.07549L198.58 31.8347L194.758 31.6151L196.652 2.8559Z" fill="url(#paint7_linear_1446_400)"/>
<path d="M230.033 31.357C226.885 34.0153 223.233 35.1721 219.075 34.8272C214.917 34.4824 211.539 32.7426 208.942 29.6078C206.345 26.4731 205.243 22.8426 205.635 18.7164C206.03 14.5629 207.8 11.1706 210.946 8.53962C214.093 5.8813 217.746 4.72457 221.904 5.06942C226.062 5.41427 229.439 7.15408 232.036 10.2888C234.663 13.3985 235.779 17.0301 235.384 21.1837C234.992 25.3099 233.208 28.701 230.033 31.357ZM211.814 27.2433C213.745 29.5517 216.283 30.8363 219.429 31.0973C222.575 31.3582 225.303 30.5103 227.612 28.5535C229.95 26.5718 231.269 24.0096 231.568 20.8672C231.87 17.6974 231.055 14.9583 229.124 12.6499C227.223 10.3165 224.699 9.01931 221.553 8.75841C218.407 8.4975 215.665 9.35793 213.326 11.3397C211.017 13.2964 209.712 15.8597 209.411 19.0295C209.112 22.1719 209.913 24.9099 211.814 27.2433Z" fill="url(#paint8_linear_1446_400)"/>
<path d="M260.566 9.78889L264.37 10.2301L260.57 38.8001L257.503 38.4443L245.618 15.3905L242.779 36.7363L238.976 36.2951L242.775 7.72512L245.842 8.08094L257.733 31.0939L260.566 9.78889Z" fill="url(#paint9_linear_1446_400)"/>
<path d="M276.537 42.8183C273.875 42.4298 271.698 41.4742 270.005 39.9514C268.339 38.4326 267.307 36.5347 266.909 34.2579L270.481 32.8656C271.019 36.4663 273.271 38.556 277.237 39.1347C279.192 39.4201 280.752 39.2456 281.915 38.6111C283.083 37.9495 283.778 36.9555 284 35.6289C284.227 34.2753 283.88 33.1847 282.962 32.3573C282.043 31.5298 280.438 30.5607 278.147 29.4499C277.016 28.8965 276.156 28.4659 275.567 28.1582C274.983 27.8233 274.254 27.3564 273.381 26.7575C272.539 26.1354 271.928 25.547 271.547 24.9923C271.172 24.4106 270.862 23.6858 270.617 22.8182C270.4 21.9544 270.378 21.0082 270.55 19.9794C270.962 17.5158 272.157 15.6934 274.136 14.5122C276.118 13.304 278.359 12.8822 280.858 13.2469C283.113 13.5758 284.973 14.4298 286.44 15.8086C287.934 17.1914 288.945 18.8783 289.475 20.8691L285.991 22.2328C285.258 19.1306 283.343 17.3535 280.247 16.9017C278.699 16.6757 277.386 16.8724 276.308 17.4917C275.231 18.111 274.583 19.0704 274.366 20.3699C274.158 21.6153 274.447 22.6282 275.235 23.4088C276.022 24.1893 277.457 25.0921 279.54 26.117C280.287 26.4756 280.814 26.7329 281.122 26.8887C281.43 27.0446 281.9 27.3074 282.534 27.6772C283.195 28.051 283.675 28.3429 283.974 28.5529C284.272 28.7629 284.668 29.0565 285.162 29.4335C285.682 29.8146 286.056 30.1603 286.282 30.4706C286.509 30.781 286.764 31.165 287.049 31.6226C287.366 32.0571 287.572 32.4893 287.667 32.9192C287.762 33.3491 287.819 33.8427 287.837 34.4C287.887 34.9342 287.862 35.4991 287.762 36.0947C287.345 38.5854 286.103 40.4424 284.034 41.6659C281.969 42.8622 279.47 43.2464 276.537 42.8183Z" fill="url(#paint10_linear_1446_400)"/>
<defs>
<linearGradient id="paint0_linear_1446_400" x1="0.169922" y1="1.43178" x2="289.843" y2="-4.61211" gradientUnits="userSpaceOnUse">
<stop stop-color="#73BCE6"/>
<stop offset="1" stop-color="#E695A7"/>
</linearGradient>
<linearGradient id="paint1_linear_1446_400" x1="0.169922" y1="1.43178" x2="289.843" y2="-4.61211" gradientUnits="userSpaceOnUse">
<stop stop-color="#73BCE6"/>
<stop offset="1" stop-color="#E695A7"/>
</linearGradient>
<linearGradient id="paint2_linear_1446_400" x1="0.169922" y1="1.43178" x2="289.843" y2="-4.61211" gradientUnits="userSpaceOnUse">
<stop stop-color="#73BCE6"/>
<stop offset="1" stop-color="#E695A7"/>
</linearGradient>
<linearGradient id="paint3_linear_1446_400" x1="0.169922" y1="1.43178" x2="289.843" y2="-4.61211" gradientUnits="userSpaceOnUse">
<stop stop-color="#73BCE6"/>
<stop offset="1" stop-color="#E695A7"/>
</linearGradient>
<linearGradient id="paint4_linear_1446_400" x1="0.169922" y1="1.43178" x2="289.843" y2="-4.61211" gradientUnits="userSpaceOnUse">
<stop stop-color="#73BCE6"/>
<stop offset="1" stop-color="#E695A7"/>
</linearGradient>
<linearGradient id="paint5_linear_1446_400" x1="0.169922" y1="1.43178" x2="289.843" y2="-4.61211" gradientUnits="userSpaceOnUse">
<stop stop-color="#73BCE6"/>
<stop offset="1" stop-color="#E695A7"/>
</linearGradient>
<linearGradient id="paint6_linear_1446_400" x1="0.169922" y1="1.43178" x2="289.843" y2="-4.61211" gradientUnits="userSpaceOnUse">
<stop stop-color="#73BCE6"/>
<stop offset="1" stop-color="#E695A7"/>
</linearGradient>
<linearGradient id="paint7_linear_1446_400" x1="0.169922" y1="1.43178" x2="289.843" y2="-4.61211" gradientUnits="userSpaceOnUse">
<stop stop-color="#73BCE6"/>
<stop offset="1" stop-color="#E695A7"/>
</linearGradient>
<linearGradient id="paint8_linear_1446_400" x1="0.169922" y1="1.43178" x2="289.843" y2="-4.61211" gradientUnits="userSpaceOnUse">
<stop stop-color="#73BCE6"/>
<stop offset="1" stop-color="#E695A7"/>
</linearGradient>
<linearGradient id="paint9_linear_1446_400" x1="0.169922" y1="1.43178" x2="289.843" y2="-4.61211" gradientUnits="userSpaceOnUse">
<stop stop-color="#73BCE6"/>
<stop offset="1" stop-color="#E695A7"/>
</linearGradient>
<linearGradient id="paint10_linear_1446_400" x1="0.169922" y1="1.43178" x2="289.843" y2="-4.61211" gradientUnits="userSpaceOnUse">
<stop stop-color="#73BCE6"/>
<stop offset="1" stop-color="#E695A7"/>
</linearGradient>
</defs>
</svg>
