<svg width="286" height="94" viewBox="0 0 286 94" fill="none" xmlns="http://www.w3.org/2000/svg">
<path d="M70.4148 14.9V28.496H50.9478V87H36.7338V28.496H17.3698V14.9H70.4148ZM78.3498 14.9H92.5638V87H78.3498V14.9ZM132.793 14.9C139.729 14.9 145.565 17.2347 150.303 21.904C155.041 26.5733 157.41 32.307 157.41 39.105C157.41 45.903 155.041 51.6367 150.303 56.306C145.565 60.9753 139.729 63.31 132.793 63.31H120.124V87H105.91V14.9H132.793ZM132.793 50.023C135.815 50.023 138.321 48.993 140.312 46.933C142.304 44.8043 143.299 42.195 143.299 39.105C143.299 35.9463 142.304 33.337 140.312 31.277C138.321 29.217 135.815 28.187 132.793 28.187H120.124V50.023H132.793Z" fill="#DADADA"/>
<path d="M181.225 34.148C179.055 36.318 176.399 37.403 173.258 37.403C170.117 37.403 167.451 36.318 165.26 34.148C163.09 31.9573 162.005 29.2913 162.005 26.15C162.005 23.0087 163.09 20.353 165.26 18.183C167.451 15.9923 170.117 14.897 173.258 14.897C176.399 14.897 179.055 15.9923 181.225 18.183C183.416 20.353 184.511 23.0087 184.511 26.15C184.511 29.2913 183.416 31.9573 181.225 34.148ZM167.771 31.73C169.259 33.1973 171.088 33.931 173.258 33.931C175.428 33.931 177.247 33.1973 178.714 31.73C180.202 30.242 180.946 28.382 180.946 26.15C180.946 23.918 180.202 22.0683 178.714 20.601C177.247 19.113 175.428 18.369 173.258 18.369C171.088 18.369 169.259 19.113 167.771 20.601C166.304 22.0683 165.57 23.918 165.57 26.15C165.57 28.382 166.304 30.242 167.771 31.73ZM202.023 18.71H192.878V24.786H201.713V28.196H192.878V37H189.313V15.3H202.023V18.71ZM230.313 15.3V18.71H224.206V37H220.641V18.71H214.503V15.3H230.313ZM247.364 15.3H250.929V37H247.364V27.607H238.064V37H234.499V15.3H238.064V24.197H247.364V15.3ZM260.382 33.59H269.992V37H256.817V15.3H269.837V18.71H260.382V24.352H269.062V27.731H260.382V33.59ZM178.04 47.8C183.453 47.8 187.971 49.6853 191.592 53.456C195.251 57.1893 197.08 61.8373 197.08 67.4C197.08 72.9627 195.251 77.6293 191.592 81.4C187.971 85.1333 183.453 87 178.04 87H162.08V47.8H178.04ZM178.04 77.312C180.765 77.312 182.987 76.416 184.704 74.624C186.421 72.7947 187.28 70.3867 187.28 67.4C187.28 64.4133 186.421 62.024 184.704 60.232C182.987 58.4027 180.765 57.488 178.04 57.488H172.384V77.312H178.04ZM226.179 87L224.499 81.344H211.451L209.771 87H198.907L211.843 47.8H224.051L236.987 87H226.179ZM214.027 72.72H221.923L217.947 59.392L214.027 72.72ZM270.142 47.8L256.926 71.936V87H246.902V72.048L233.686 47.8H244.942L251.886 62.304L258.886 47.8H270.142Z" fill="#DADADA"/>
<rect x="280" y="15" width="6" height="72" fill="#DADADA"/>
<rect y="15" width="6" height="72" fill="#DADADA"/>
</svg>
