<?xml version="1.0" standalone="no"?>
<!DOCTYPE svg PUBLIC "-//W3C//DTD SVG 20010904//EN"
 "http://www.w3.org/TR/2001/REC-SVG-20010904/DTD/svg10.dtd">
<svg version="1.0" xmlns="http://www.w3.org/2000/svg"
 width="512.000000pt" height="512.000000pt" viewBox="0 0 512.000000 512.000000"
 preserveAspectRatio="xMidYMid meet">
<metadata>
Created by potrace 1.14, written by Peter Selinger 2001-2017
</metadata>
<g transform="translate(0.000000,512.000000) scale(0.100000,-0.100000)"
fill="#000000" stroke="none">
<path d="M2375 4794 c-419 -73 -767 -380 -888 -784 -28 -93 -33 -119 -43 -230
-9 -93 -9 -97 0 -194 24 -271 132 -503 326 -697 108 -108 226 -187 380 -252
158 -67 414 -93 600 -61 539 93 934 562 934 1109 0 411 -216 776 -585 988 -86
49 -232 100 -349 122 -71 13 -295 13 -375 -1z"/>
<path d="M3967 2564 c-1 -1 -33 -4 -72 -7 -98 -9 -129 -15 -225 -44 -230 -69
-441 -220 -586 -419 -24 -34 -44 -67 -44 -73 0 -6 -4 -11 -9 -11 -17 0 -99
-198 -124 -300 -26 -105 -29 -129 -32 -248 -4 -180 28 -333 103 -497 20 -44
39 -82 43 -85 3 -3 8 -12 11 -20 3 -9 33 -52 66 -96 177 -234 428 -386 722
-437 105 -18 318 -14 410 8 463 111 801 467 874 924 14 85 15 304 1 366 -19
89 -26 115 -44 171 -22 69 -117 260 -141 284 -3 3 -25 31 -49 63 -171 224
-479 390 -771 413 -114 9 -130 10 -133 8z"/>
<path d="M930 2543 c-165 -28 -383 -121 -468 -200 -7 -7 -17 -13 -21 -13 -15
0 -160 -148 -213 -216 -88 -116 -166 -280 -197 -419 -6 -27 -14 -61 -17 -75
-13 -54 -12 -300 2 -372 45 -243 152 -448 324 -617 161 -158 360 -260 596
-305 74 -14 305 -16 359 -3 27 6 94 18 97 17 6 -1 146 49 193 69 27 12 76 38
110 58 342 206 546 561 549 953 1 158 -12 243 -56 375 -93 280 -297 513 -563
645 -173 85 -316 119 -504 117 -64 0 -150 -6 -191 -14z"/>
</g>
</svg>
