<svg width="606" height="148" viewBox="0 0 606 148" fill="none" xmlns="http://www.w3.org/2000/svg">
    <g clip-path="url(#clip0_863_125)">
        <path d="M-561.88 -420.67L1292.7 76.2625M-563.174 -415.843L1291.4 81.0895M-564.467 -411.016L1290.11 85.9169M-565.761 -406.188L1288.82 90.7446M-567.055 -401.36L1287.52 95.5726M-568.348 -396.532L1286.23 100.401M-569.642 -391.703L1284.94 105.229M-570.936 -386.875L1283.64 110.058M-572.23 -382.046L1282.35 114.886M-573.524 -377.217L1281.05 119.715M-574.817 -372.389L1279.76 124.544M-576.111 -367.56L1278.47 129.373M-577.405 -362.731L1277.17 134.202M-578.699 -357.901L1275.88 139.031M-579.993 -353.072L1274.58 143.86M-581.287 -348.243L1273.29 148.69M-582.581 -343.414L1272 153.519M-583.875 -338.585L1270.7 158.348M-585.169 -333.755L1269.41 163.177M-586.463 -328.926L1268.11 168.007M-587.757 -324.097L1266.82 172.836M-589.051 -319.267L1265.53 177.666M-590.345 -314.438L1264.23 182.495M-591.639 -309.608L1262.94 187.324M-592.933 -304.779L1261.64 192.154M-594.227 -299.949L1260.35 196.983M-595.522 -295.12L1259.06 201.813M-596.816 -290.291L1257.76 206.642M-598.11 -285.461L1256.47 211.472M-599.404 -280.632L1255.17 216.301M-600.698 -275.802L1253.88 221.131M-601.992 -270.972L1252.59 225.96M-603.286 -266.143L1251.29 230.79M-604.58 -261.313L1250 235.619M-605.874 -256.484L1248.7 240.449M-607.168 -251.654L1247.41 245.278M-608.462 -246.825L1246.12 250.108M-609.756 -241.995L1244.82 254.938M-611.05 -237.166L1243.53 259.767M-612.344 -232.336L1242.23 264.597M-613.639 -227.506L1240.94 269.426M-614.933 -222.677L1239.64 274.256M-616.227 -217.847L1238.35 279.086M-617.521 -213.018L1237.06 283.915M-618.815 -208.188L1235.76 288.745M-620.109 -203.358L1234.47 293.574M-621.403 -198.529L1233.17 298.404M-622.697 -193.699L1231.88 303.234M-623.991 -188.87L1230.59 308.063M-625.285 -184.04L1229.29 312.893M-626.579 -179.21L1228 317.722M-627.874 -174.381L1226.7 322.552M-629.168 -169.551L1225.41 327.382M-630.462 -164.721L1224.12 332.211M-631.756 -159.892L1222.82 337.041M-633.05 -155.062L1221.53 341.871M-634.344 -150.233L1220.23 346.7M-635.638 -145.403L1218.94 351.53M-636.932 -140.573L1217.65 356.359M-638.226 -135.744L1216.35 361.189M-639.52 -130.914L1215.06 366.019M-640.814 -126.084L1213.76 370.848M-642.109 -121.255L1212.47 375.678M-643.403 -116.425L1211.17 380.508M-644.697 -111.596L1209.88 385.337M-645.991 -106.766L1208.59 390.167M-647.285 -101.936L1207.29 394.996M-648.579 -97.1067L1206 399.826M-649.873 -92.277L1204.7 404.656M-651.167 -87.4474L1203.41 409.485M-652.461 -82.6178L1202.12 414.315M-653.755 -77.7881L1200.82 419.145M-655.05 -72.9585L1199.53 423.974M-656.344 -68.1289L1198.23 428.804M-657.638 -63.2993L1196.94 433.633M-658.932 -58.4697L1195.65 438.463M-660.226 -53.64L1194.35 443.293M-661.52 -48.8104L1193.06 448.122M-662.814 -43.9808L1191.76 452.952M-664.108 -39.1512L1190.47 457.782M-665.402 -34.3216L1189.18 462.611M-666.696 -29.492L1187.88 467.441M-667.99 -24.6624L1186.59 472.27M-669.285 -19.8328L1185.29 477.1M-670.579 -15.0031L1184 481.93M-671.873 -10.1736L1182.7 486.759M-673.167 -5.34397L1181.41 491.589M-674.461 -0.5144L1180.12 496.418M-675.755 4.31523L1178.82 501.248M-677.049 9.1448L1177.53 506.078M-678.343 13.9744L1176.23 510.907M-679.637 18.8039L1174.94 515.737M-680.931 23.6335L1173.65 520.566M-682.225 28.4631L1172.35 525.396M-683.519 33.2926L1171.06 530.225M-684.814 38.1222L1169.76 535.055M-686.108 42.9517L1168.47 539.884M-687.402 47.7812L1167.18 544.714M-688.696 52.6108L1165.88 549.543M-689.99 57.4403L1164.59 554.373M-691.284 62.2698L1163.29 559.203M-692.578 67.0992L1162 564.032M-693.872 71.9287L1160.71 568.861M-695.166 76.7582L1159.41 573.691M-696.46 81.5876L1158.12 578.52M-697.754 86.417L1156.82 583.35M-699.048 91.2464L1155.53 588.179M-700.342 96.0758L1154.24 593.009M-701.636 100.905L1152.94 597.838M-702.93 105.734L1151.65 602.667M-704.224 110.564L1150.35 607.496M-705.518 115.393L1149.06 612.326M-706.812 120.222L1147.77 617.155M-708.106 125.051L1146.47 621.984M-709.402 129.886L1145.18 626.819M-710.697 134.721L1143.88 631.654" stroke="#484848" class="lines-stroke"/>
    </g>
    <mask id="path-2-outside-1_863_125" maskUnits="userSpaceOnUse" x="79.6218" y="9.83258" width="450" height="128" fill="black">
        <rect fill="white" x="79.6218" y="9.83258" width="450" height="128"/>
        <path d="M117.573 96.2766L107.413 97.2105L91.4394 77.6237V98.6789L82.6218 99.4895V54.5546L91.4394 53.744V73.5795L106.774 52.3343L116.934 51.4003L100.385 74.7472L117.573 96.2766Z"/>
        <path d="M151.809 93.1293L149.125 85.2877L131.298 86.9265L128.615 95.2615L119.094 96.1367L134.749 49.7627L145.675 48.7583L161.393 92.2483L151.809 93.1293ZM134.11 78.3872L146.378 77.2594L140.244 59.4642L134.11 78.3872Z"/>
        <path d="M200.687 88.6361L190.527 89.57L174.553 69.9832V91.0385L165.736 91.849V46.9141L174.553 46.1035V65.9391L189.888 44.6938L200.048 43.7599L183.499 67.1067L200.687 88.6361Z"/>
        <path d="M238.875 79.284C234.36 84.1926 228.865 86.9445 222.39 87.5397C215.915 88.1349 210.42 86.3933 205.905 82.3149C201.432 78.1898 199.196 72.8534 199.196 66.3057C199.196 59.758 201.432 54.0319 205.905 49.1272C210.42 44.1759 215.915 41.4026 222.39 40.8074C228.865 40.2122 234.36 41.9752 238.875 46.0964C243.39 50.1748 245.648 55.4878 245.648 62.0355C245.648 68.5831 243.39 74.3327 238.875 79.284ZM212.103 75.711C214.871 78.1954 218.3 79.2496 222.39 78.8737C226.479 78.4978 229.908 76.8131 232.677 73.8197C235.446 70.7835 236.83 67.1256 236.83 62.8461C236.83 58.5665 235.446 55.1632 232.677 52.6361C229.908 50.1089 226.479 49.0333 222.39 49.4092C218.3 49.7851 214.871 51.4912 212.103 54.5274C209.334 57.5636 207.949 61.2215 207.949 65.501C207.949 69.7805 209.334 73.1839 212.103 75.711Z"/>
        <path d="M260.663 74.6492L279.512 72.9165V81.3899L251.845 83.9333V38.9983L279.192 36.4843V44.9578L260.663 46.6612V56.2259L277.595 54.6694V63.0144L260.663 64.571V74.6492Z"/>
        <path d="M335.118 31.3432V76.2782L326.301 77.0887V40.6272L310.519 42.0781V78.5396L301.701 79.3501V34.4152L335.118 31.3432Z"/>
        <path d="M339.995 75.8299V67.6132C342.636 67.7556 344.617 67.0386 345.937 65.4621C347.258 63.8857 347.918 60.9791 347.918 56.7424V30.1666L378.332 27.3707V72.3056L369.579 73.1103V36.6488L356.672 37.8353V55.6809C356.672 59.5753 356.203 62.8922 355.266 65.6316C354.329 68.3711 353.03 70.4591 351.368 71.8957C349.75 73.3283 348.003 74.3448 346.129 74.945C344.297 75.5414 342.253 75.8363 339.995 75.8299Z"/>
        <path d="M415.378 68.9001L412.694 61.0586L394.867 62.6973L392.184 71.0323L382.663 71.9075L398.318 25.5335L409.244 24.5291L424.962 68.0191L415.378 68.9001ZM397.679 54.158L409.947 53.0303L403.813 35.235L397.679 54.158Z"/>
        <path d="M455.644 20.2636V28.7371L443.568 29.8472V66.3087L434.75 67.1193V30.6578L422.738 31.7621V23.2886L455.644 20.2636Z"/>
        <path d="M477.243 33.0424C481.545 32.6469 485.166 33.7691 488.105 36.409C491.045 39.0489 492.514 42.4872 492.514 46.7239C492.514 50.9606 491.045 54.6691 488.105 57.8494C485.166 61.0296 481.545 62.8175 477.243 63.213L460.566 64.7461V19.8111L469.384 19.0006V33.7649L477.243 33.0424ZM477.243 54.9322C479.117 54.7599 480.672 53.975 481.907 52.5776C483.143 51.1802 483.76 49.4972 483.76 47.5286C483.76 45.6028 483.143 44.0548 481.907 42.8845C480.672 41.6714 479.117 41.151 477.243 41.3233L469.384 42.0458V55.6546L477.243 54.9322Z"/>
        <path d="M507.072 51.9975L525.922 50.2647V58.7382L498.255 61.2815V16.3465L525.602 13.8326V22.306L507.072 24.0094V33.5741L524.005 32.0176V40.3627L507.072 41.9192V51.9975Z"/>
        <path d="M112.934 134.748C108.447 135.16 104.741 134.003 101.816 131.276C98.8914 128.55 97.4289 124.989 97.4289 120.596C97.4289 116.174 98.8914 112.345 101.816 109.109C104.741 105.844 108.447 104.005 112.934 103.593C115.632 103.345 118.117 103.758 120.389 104.833C122.689 105.877 124.478 107.425 125.756 109.476L120.687 112.894C119.949 111.621 118.898 110.677 117.535 110.06C116.172 109.415 114.638 109.171 112.934 109.328C110.038 109.594 107.695 110.722 105.906 112.713C104.145 114.7 103.265 117.149 103.265 120.059C103.265 122.941 104.145 125.214 105.906 126.878C107.695 128.539 110.038 129.237 112.934 128.971C114.638 128.814 116.172 128.302 117.535 127.435C118.926 126.537 119.977 125.399 120.687 124.021L125.756 126.508C124.478 128.794 122.703 130.683 120.431 132.176C118.159 133.64 115.66 134.497 112.934 134.748Z"/>
        <path d="M135.245 126.449L147.812 125.294V130.943L129.367 132.638V102.681L147.599 101.006V106.654L135.245 107.79V114.167L146.534 113.129V118.692L135.245 119.73V126.449Z"/>
        <path d="M168.909 99.0465V104.695L157.833 105.714V130.021L151.955 130.562V100.605L168.909 99.0465Z"/>
        <path d="M195.431 122.671C192.421 125.943 188.758 127.778 184.441 128.174C180.125 128.571 176.461 127.41 173.451 124.691C170.47 121.941 168.979 118.384 168.979 114.018C168.979 109.653 170.47 105.836 173.451 102.566C176.461 99.2652 180.125 97.4163 184.441 97.0195C188.758 96.6227 192.421 97.7981 195.431 100.546C198.442 103.264 199.947 106.807 199.947 111.172C199.947 115.537 198.442 119.37 195.431 122.671ZM177.583 120.289C179.429 121.945 181.715 122.648 184.441 122.397C187.168 122.146 189.454 121.023 191.299 119.028C193.145 117.004 194.068 114.565 194.068 111.712C194.068 108.859 193.145 106.59 191.299 104.905C189.454 103.221 187.168 102.503 184.441 102.754C181.715 103.005 179.429 104.142 177.583 106.166C175.737 108.19 174.814 110.629 174.814 113.482C174.814 116.335 175.737 118.604 177.583 120.289Z"/>
        <path d="M225.664 118.137L228.859 117.843V129.227L222.981 129.767V124.032L206.496 125.548V131.282L200.617 131.823V120.439L203.514 120.173C205.161 117.711 205.984 114.254 205.984 109.803V95.6383L225.664 93.8291V118.137ZM209.818 119.593L219.786 118.677V99.8901L211.863 100.618V109.349C211.863 113.685 211.181 117.1 209.818 119.593Z"/>
        <path d="M249.735 91.6164L255.571 91.0799V121.037L249.735 121.573V109.162L238.66 110.181V122.591L232.781 123.132V93.1749L238.66 92.6345V104.532L249.735 103.513V91.6164Z"/>
        <path d="M282.153 88.6363V118.593L276.275 119.133V108.734L272.909 109.043L266.051 120.073L259.449 120.68L266.733 108.969C264.83 108.459 263.282 107.432 262.09 105.887C260.897 104.342 260.301 102.571 260.301 100.574C260.301 97.8347 261.266 95.4065 263.197 93.2889C265.128 91.1713 267.471 89.986 270.226 89.7327L282.153 88.6363ZM270.226 104.112L276.275 103.556V94.6973L270.226 95.2533C269.118 95.3551 268.167 95.8705 267.372 96.7995C266.577 97.7285 266.179 98.8064 266.179 100.033C266.179 101.26 266.577 102.279 267.372 103.09C268.167 103.873 269.118 104.214 270.226 104.112Z"/>
        <path d="M316.359 99.9138C318.972 101.186 320.278 103.348 320.278 106.401C320.278 108.94 319.384 111.105 317.595 112.896C315.806 114.686 313.605 115.702 310.992 115.942L298.341 117.105V87.1482L310.098 86.0674C312.653 85.8325 314.797 86.4342 316.53 87.8727C318.29 89.28 319.171 91.2104 319.171 93.664C319.171 96.1461 318.234 98.2294 316.359 99.9138ZM310.098 91.588L304.219 92.1284V98.7188L310.098 98.1785C311.006 98.0949 311.759 97.7119 312.355 97.0294C312.98 96.3443 313.292 95.531 313.292 94.5895C313.292 93.648 312.994 92.8909 312.398 92.318C311.801 91.7452 311.035 91.5019 310.098 91.588ZM310.992 110.421C311.986 110.33 312.81 109.926 313.463 109.21C314.116 108.465 314.442 107.579 314.442 106.552C314.442 105.554 314.116 104.756 313.463 104.16C312.81 103.535 311.986 103.269 310.992 103.36L304.219 103.983V111.044L310.992 110.421Z"/>
        <path d="M330.01 108.545L342.576 107.389V113.038L324.132 114.734V84.7773L342.363 83.1013V88.7503L330.01 89.8859V96.2623L341.299 95.2246V100.788L330.01 101.826V108.545Z"/>
        <path d="M362.268 81.2715L368.146 80.7312V110.688L362.268 111.228V100.273C360.45 101.21 358.505 101.774 356.432 101.965C353.422 102.241 350.937 101.628 348.978 100.125C347.047 98.5906 346.081 96.3684 346.081 93.4584V82.7596L351.959 82.2192V92.1477C351.959 93.5742 352.371 94.6632 353.195 95.4149C354.047 96.1354 355.168 96.4317 356.56 96.3038C358.633 96.1133 360.536 95.5247 362.268 94.538V81.2715Z"/>
        <path d="M379.554 103.99L392.12 102.835V108.484L373.676 110.179V80.2228L391.907 78.5469V84.1958L379.554 85.3314V91.7079L390.843 90.6702V96.2336L379.554 97.2713V103.99Z"/>
        <path d="M407.382 77.1243C410.25 76.8607 412.664 77.6088 414.623 79.3687C416.583 81.1286 417.562 83.4208 417.562 86.2453C417.562 89.0698 416.583 91.5421 414.623 93.6623C412.664 95.7825 410.25 96.9744 407.382 97.2381L402.142 97.7197V107.563L396.264 108.103V78.1464L407.382 77.1243ZM407.382 91.7175C408.631 91.6026 409.668 91.0794 410.491 90.1478C411.315 89.1877 411.727 88.0657 411.727 86.7818C411.727 85.4694 411.315 84.4231 410.491 83.6429C409.668 82.8627 408.631 82.5301 407.382 82.6449L402.142 83.1266V92.1992L407.382 91.7175Z"/>
        <path d="M446.271 99.6116C443.261 102.884 439.598 104.719 435.281 105.115C430.965 105.512 427.301 104.351 424.291 101.632C421.309 98.8821 419.818 95.3245 419.818 90.9594C419.818 86.5943 421.309 82.7768 424.291 79.5071C427.301 76.2062 430.965 74.3573 435.281 73.9605C439.598 73.5637 443.261 74.739 446.271 77.4865C449.281 80.2054 450.786 83.7475 450.786 88.1126C450.786 92.4777 449.281 96.3107 446.271 99.6116ZM428.423 97.2296C430.269 98.8858 432.555 99.5887 435.281 99.338C438.007 99.0874 440.293 97.9643 442.139 95.9687C443.985 93.9446 444.908 91.506 444.908 88.653C444.908 85.7999 443.985 83.5311 442.139 81.8463C440.293 80.1615 438.007 79.4444 435.281 79.695C432.555 79.9457 430.269 81.083 428.423 83.1072C426.577 85.1313 425.654 87.5699 425.654 90.4229C425.654 93.2759 426.577 95.5448 428.423 97.2296Z"/>
        <path d="M484.097 70.0721V100.029L478.261 100.565V81.1362L469.87 95.8161L469.188 95.8787L460.797 82.7845V102.171L454.918 102.711V72.7545L460.967 72.1984L469.529 85.5765L478.048 70.6282L484.097 70.0721Z"/>
        <path d="M495.191 88.9521C495.191 87.6968 495.56 86.4646 496.298 85.2555C497.065 84.0438 497.888 83.0551 498.769 82.2895C499.649 81.4953 500.458 80.5935 501.197 79.5841C501.964 78.5722 502.347 77.5954 502.347 76.6539C502.347 75.6554 502.006 74.9164 501.325 74.437C500.643 73.9576 499.692 73.774 498.471 73.8862C496.085 74.1055 494.395 75.5304 493.402 78.161L488.375 75.713C489.227 73.5234 490.576 71.7732 492.422 70.4623C494.296 69.1203 496.383 68.3435 498.684 68.1321C501.268 67.8945 503.497 68.4457 505.371 69.7855C507.274 71.0941 508.225 73.0608 508.225 75.6856C508.225 76.8839 507.97 78.02 507.459 79.0941C506.976 80.1656 506.379 81.1048 505.669 81.9119C504.988 82.6878 504.292 83.4365 503.582 84.1579C502.901 84.8482 502.304 85.5592 501.793 86.291C501.31 87.0201 501.069 87.727 501.069 88.4117L495.191 88.9521ZM500.686 97.9903C499.976 98.7688 499.124 99.2037 498.13 99.2951C497.136 99.3865 496.284 99.1082 495.574 98.4602C494.864 97.8122 494.509 96.9889 494.509 95.9903C494.509 94.9918 494.864 94.1033 495.574 93.3247C496.284 92.5462 497.136 92.1113 498.13 92.0199C499.124 91.9285 499.976 92.2069 500.686 92.8548C501.396 93.5028 501.751 94.3261 501.751 95.3247C501.751 96.3232 501.396 97.2117 500.686 97.9903Z"/>
    </mask>
    <path d="M117.573 96.2766L107.413 97.2105L91.4394 77.6237V98.6789L82.6218 99.4895V54.5546L91.4394 53.744V73.5795L106.774 52.3343L116.934 51.4003L100.385 74.7472L117.573 96.2766Z" fill="url(#paint0_linear_863_125)"/>
    <path d="M151.809 93.1293L149.125 85.2877L131.298 86.9265L128.615 95.2615L119.094 96.1367L134.749 49.7627L145.675 48.7583L161.393 92.2483L151.809 93.1293ZM134.11 78.3872L146.378 77.2594L140.244 59.4642L134.11 78.3872Z" fill="url(#paint1_linear_863_125)"/>
    <path d="M200.687 88.6361L190.527 89.57L174.553 69.9832V91.0385L165.736 91.849V46.9141L174.553 46.1035V65.9391L189.888 44.6938L200.048 43.7599L183.499 67.1067L200.687 88.6361Z" fill="url(#paint2_linear_863_125)"/>
    <path d="M238.875 79.284C234.36 84.1926 228.865 86.9445 222.39 87.5397C215.915 88.1349 210.42 86.3933 205.905 82.3149C201.432 78.1898 199.196 72.8534 199.196 66.3057C199.196 59.758 201.432 54.0319 205.905 49.1272C210.42 44.1759 215.915 41.4026 222.39 40.8074C228.865 40.2122 234.36 41.9752 238.875 46.0964C243.39 50.1748 245.648 55.4878 245.648 62.0355C245.648 68.5831 243.39 74.3327 238.875 79.284ZM212.103 75.711C214.871 78.1954 218.3 79.2496 222.39 78.8737C226.479 78.4978 229.908 76.8131 232.677 73.8197C235.446 70.7835 236.83 67.1256 236.83 62.8461C236.83 58.5665 235.446 55.1632 232.677 52.6361C229.908 50.1089 226.479 49.0333 222.39 49.4092C218.3 49.7851 214.871 51.4912 212.103 54.5274C209.334 57.5636 207.949 61.2215 207.949 65.501C207.949 69.7805 209.334 73.1839 212.103 75.711Z" fill="url(#paint3_linear_863_125)"/>
    <path d="M260.663 74.6492L279.512 72.9165V81.3899L251.845 83.9333V38.9983L279.192 36.4843V44.9578L260.663 46.6612V56.2259L277.595 54.6694V63.0144L260.663 64.571V74.6492Z" fill="url(#paint4_linear_863_125)"/>
    <path d="M335.118 31.3432V76.2782L326.301 77.0887V40.6272L310.519 42.0781V78.5396L301.701 79.3501V34.4152L335.118 31.3432Z" fill="url(#paint5_linear_863_125)"/>
    <path d="M339.995 75.8299V67.6132C342.636 67.7556 344.617 67.0386 345.937 65.4621C347.258 63.8857 347.918 60.9791 347.918 56.7424V30.1666L378.332 27.3707V72.3056L369.579 73.1103V36.6488L356.672 37.8353V55.6809C356.672 59.5753 356.203 62.8922 355.266 65.6316C354.329 68.3711 353.03 70.4591 351.368 71.8957C349.75 73.3283 348.003 74.3448 346.129 74.945C344.297 75.5414 342.253 75.8363 339.995 75.8299Z" fill="url(#paint6_linear_863_125)"/>
    <path d="M415.378 68.9001L412.694 61.0586L394.867 62.6973L392.184 71.0323L382.663 71.9075L398.318 25.5335L409.244 24.5291L424.962 68.0191L415.378 68.9001ZM397.679 54.158L409.947 53.0303L403.813 35.235L397.679 54.158Z" fill="url(#paint7_linear_863_125)"/>
    <path d="M455.644 20.2636V28.7371L443.568 29.8472V66.3087L434.75 67.1193V30.6578L422.738 31.7621V23.2886L455.644 20.2636Z" fill="url(#paint8_linear_863_125)"/>
    <path d="M477.243 33.0424C481.545 32.6469 485.166 33.7691 488.105 36.409C491.045 39.0489 492.514 42.4872 492.514 46.7239C492.514 50.9606 491.045 54.6691 488.105 57.8494C485.166 61.0296 481.545 62.8175 477.243 63.213L460.566 64.7461V19.8111L469.384 19.0006V33.7649L477.243 33.0424ZM477.243 54.9322C479.117 54.7599 480.672 53.975 481.907 52.5776C483.143 51.1802 483.76 49.4972 483.76 47.5286C483.76 45.6028 483.143 44.0548 481.907 42.8845C480.672 41.6714 479.117 41.151 477.243 41.3233L469.384 42.0458V55.6546L477.243 54.9322Z" fill="url(#paint9_linear_863_125)"/>
    <path d="M507.072 51.9975L525.922 50.2647V58.7382L498.255 61.2815V16.3465L525.602 13.8326V22.306L507.072 24.0094V33.5741L524.005 32.0176V40.3627L507.072 41.9192V51.9975Z" fill="url(#paint10_linear_863_125)"/>
    <path d="M112.934 134.748C108.447 135.16 104.741 134.003 101.816 131.276C98.8914 128.55 97.4289 124.989 97.4289 120.596C97.4289 116.174 98.8914 112.345 101.816 109.109C104.741 105.844 108.447 104.005 112.934 103.593C115.632 103.345 118.117 103.758 120.389 104.833C122.689 105.877 124.478 107.425 125.756 109.476L120.687 112.894C119.949 111.621 118.898 110.677 117.535 110.06C116.172 109.415 114.638 109.171 112.934 109.328C110.038 109.594 107.695 110.722 105.906 112.713C104.145 114.7 103.265 117.149 103.265 120.059C103.265 122.941 104.145 125.214 105.906 126.878C107.695 128.539 110.038 129.237 112.934 128.971C114.638 128.814 116.172 128.302 117.535 127.435C118.926 126.537 119.977 125.399 120.687 124.021L125.756 126.508C124.478 128.794 122.703 130.683 120.431 132.176C118.159 133.64 115.66 134.497 112.934 134.748Z" fill="url(#paint11_linear_863_125)"/>
    <path d="M135.245 126.449L147.812 125.294V130.943L129.367 132.638V102.681L147.599 101.006V106.654L135.245 107.79V114.167L146.534 113.129V118.692L135.245 119.73V126.449Z" fill="url(#paint12_linear_863_125)"/>
    <path d="M168.909 99.0465V104.695L157.833 105.714V130.021L151.955 130.562V100.605L168.909 99.0465Z" fill="url(#paint13_linear_863_125)"/>
    <path d="M195.431 122.671C192.421 125.943 188.758 127.778 184.441 128.174C180.125 128.571 176.461 127.41 173.451 124.691C170.47 121.941 168.979 118.384 168.979 114.018C168.979 109.653 170.47 105.836 173.451 102.566C176.461 99.2652 180.125 97.4163 184.441 97.0195C188.758 96.6227 192.421 97.7981 195.431 100.546C198.442 103.264 199.947 106.807 199.947 111.172C199.947 115.537 198.442 119.37 195.431 122.671ZM177.583 120.289C179.429 121.945 181.715 122.648 184.441 122.397C187.168 122.146 189.454 121.023 191.299 119.028C193.145 117.004 194.068 114.565 194.068 111.712C194.068 108.859 193.145 106.59 191.299 104.905C189.454 103.221 187.168 102.503 184.441 102.754C181.715 103.005 179.429 104.142 177.583 106.166C175.737 108.19 174.814 110.629 174.814 113.482C174.814 116.335 175.737 118.604 177.583 120.289Z" fill="url(#paint14_linear_863_125)"/>
    <path d="M225.664 118.137L228.859 117.843V129.227L222.981 129.767V124.032L206.496 125.548V131.282L200.617 131.823V120.439L203.514 120.173C205.161 117.711 205.984 114.254 205.984 109.803V95.6383L225.664 93.8291V118.137ZM209.818 119.593L219.786 118.677V99.8901L211.863 100.618V109.349C211.863 113.685 211.181 117.1 209.818 119.593Z" fill="url(#paint15_linear_863_125)"/>
    <path d="M249.735 91.6164L255.571 91.0799V121.037L249.735 121.573V109.162L238.66 110.181V122.591L232.781 123.132V93.1749L238.66 92.6345V104.532L249.735 103.513V91.6164Z" fill="url(#paint16_linear_863_125)"/>
    <path d="M282.153 88.6363V118.593L276.275 119.133V108.734L272.909 109.043L266.051 120.073L259.449 120.68L266.733 108.969C264.83 108.459 263.282 107.432 262.09 105.887C260.897 104.342 260.301 102.571 260.301 100.574C260.301 97.8347 261.266 95.4065 263.197 93.2889C265.128 91.1713 267.471 89.986 270.226 89.7327L282.153 88.6363ZM270.226 104.112L276.275 103.556V94.6973L270.226 95.2533C269.118 95.3551 268.167 95.8705 267.372 96.7995C266.577 97.7285 266.179 98.8064 266.179 100.033C266.179 101.26 266.577 102.279 267.372 103.09C268.167 103.873 269.118 104.214 270.226 104.112Z" fill="url(#paint17_linear_863_125)"/>
    <path d="M316.359 99.9138C318.972 101.186 320.278 103.348 320.278 106.401C320.278 108.94 319.384 111.105 317.595 112.896C315.806 114.686 313.605 115.702 310.992 115.942L298.341 117.105V87.1482L310.098 86.0674C312.653 85.8325 314.797 86.4342 316.53 87.8727C318.29 89.28 319.171 91.2104 319.171 93.664C319.171 96.1461 318.234 98.2294 316.359 99.9138ZM310.098 91.588L304.219 92.1284V98.7188L310.098 98.1785C311.006 98.0949 311.759 97.7119 312.355 97.0294C312.98 96.3443 313.292 95.531 313.292 94.5895C313.292 93.648 312.994 92.8909 312.398 92.318C311.801 91.7452 311.035 91.5019 310.098 91.588ZM310.992 110.421C311.986 110.33 312.81 109.926 313.463 109.21C314.116 108.465 314.442 107.579 314.442 106.552C314.442 105.554 314.116 104.756 313.463 104.16C312.81 103.535 311.986 103.269 310.992 103.36L304.219 103.983V111.044L310.992 110.421Z" fill="url(#paint18_linear_863_125)"/>
    <path d="M330.01 108.545L342.576 107.389V113.038L324.132 114.734V84.7773L342.363 83.1013V88.7503L330.01 89.8859V96.2623L341.299 95.2246V100.788L330.01 101.826V108.545Z" fill="url(#paint19_linear_863_125)"/>
    <path d="M362.268 81.2715L368.146 80.7312V110.688L362.268 111.228V100.273C360.45 101.21 358.505 101.774 356.432 101.965C353.422 102.241 350.937 101.628 348.978 100.125C347.047 98.5906 346.081 96.3684 346.081 93.4584V82.7596L351.959 82.2192V92.1477C351.959 93.5742 352.371 94.6632 353.195 95.4149C354.047 96.1354 355.168 96.4317 356.56 96.3038C358.633 96.1133 360.536 95.5247 362.268 94.538V81.2715Z" fill="url(#paint20_linear_863_125)"/>
    <path d="M379.554 103.99L392.12 102.835V108.484L373.676 110.179V80.2228L391.907 78.5469V84.1958L379.554 85.3314V91.7079L390.843 90.6702V96.2336L379.554 97.2713V103.99Z" fill="url(#paint21_linear_863_125)"/>
    <path d="M407.382 77.1243C410.25 76.8607 412.664 77.6088 414.623 79.3687C416.583 81.1286 417.562 83.4208 417.562 86.2453C417.562 89.0698 416.583 91.5421 414.623 93.6623C412.664 95.7825 410.25 96.9744 407.382 97.2381L402.142 97.7197V107.563L396.264 108.103V78.1464L407.382 77.1243ZM407.382 91.7175C408.631 91.6026 409.668 91.0794 410.491 90.1478C411.315 89.1877 411.727 88.0657 411.727 86.7818C411.727 85.4694 411.315 84.4231 410.491 83.6429C409.668 82.8627 408.631 82.5301 407.382 82.6449L402.142 83.1266V92.1992L407.382 91.7175Z" fill="url(#paint22_linear_863_125)"/>
    <path d="M446.271 99.6116C443.261 102.884 439.598 104.719 435.281 105.115C430.965 105.512 427.301 104.351 424.291 101.632C421.309 98.8821 419.818 95.3245 419.818 90.9594C419.818 86.5943 421.309 82.7768 424.291 79.5071C427.301 76.2062 430.965 74.3573 435.281 73.9605C439.598 73.5637 443.261 74.739 446.271 77.4865C449.281 80.2054 450.786 83.7475 450.786 88.1126C450.786 92.4777 449.281 96.3107 446.271 99.6116ZM428.423 97.2296C430.269 98.8858 432.555 99.5887 435.281 99.338C438.007 99.0874 440.293 97.9643 442.139 95.9687C443.985 93.9446 444.908 91.506 444.908 88.653C444.908 85.7999 443.985 83.5311 442.139 81.8463C440.293 80.1615 438.007 79.4444 435.281 79.695C432.555 79.9457 430.269 81.083 428.423 83.1072C426.577 85.1313 425.654 87.5699 425.654 90.4229C425.654 93.2759 426.577 95.5448 428.423 97.2296Z" fill="url(#paint23_linear_863_125)"/>
    <path d="M484.097 70.0721V100.029L478.261 100.565V81.1362L469.87 95.8161L469.188 95.8787L460.797 82.7845V102.171L454.918 102.711V72.7545L460.967 72.1984L469.529 85.5765L478.048 70.6282L484.097 70.0721Z" fill="url(#paint24_linear_863_125)"/>
    <path d="M495.191 88.9521C495.191 87.6968 495.56 86.4646 496.298 85.2555C497.065 84.0438 497.888 83.0551 498.769 82.2895C499.649 81.4953 500.458 80.5935 501.197 79.5841C501.964 78.5722 502.347 77.5954 502.347 76.6539C502.347 75.6554 502.006 74.9164 501.325 74.437C500.643 73.9576 499.692 73.774 498.471 73.8862C496.085 74.1055 494.395 75.5304 493.402 78.161L488.375 75.713C489.227 73.5234 490.576 71.7732 492.422 70.4623C494.296 69.1203 496.383 68.3435 498.684 68.1321C501.268 67.8945 503.497 68.4457 505.371 69.7855C507.274 71.0941 508.225 73.0608 508.225 75.6856C508.225 76.8839 507.97 78.02 507.459 79.0941C506.976 80.1656 506.379 81.1048 505.669 81.9119C504.988 82.6878 504.292 83.4365 503.582 84.1579C502.901 84.8482 502.304 85.5592 501.793 86.291C501.31 87.0201 501.069 87.727 501.069 88.4117L495.191 88.9521ZM500.686 97.9903C499.976 98.7688 499.124 99.2037 498.13 99.2951C497.136 99.3865 496.284 99.1082 495.574 98.4602C494.864 97.8122 494.509 96.9889 494.509 95.9903C494.509 94.9918 494.864 94.1033 495.574 93.3247C496.284 92.5462 497.136 92.1113 498.13 92.0199C499.124 91.9285 499.976 92.2069 500.686 92.8548C501.396 93.5028 501.751 94.3261 501.751 95.3247C501.751 96.3232 501.396 97.2117 500.686 97.9903Z" fill="url(#paint25_linear_863_125)"/>
    <path d="M117.573 96.2766L107.413 97.2105L91.4394 77.6237V98.6789L82.6218 99.4895V54.5546L91.4394 53.744V73.5795L106.774 52.3343L116.934 51.4003L100.385 74.7472L117.573 96.2766Z" stroke="#242424" class="background-stroke" stroke-width="6" mask="url(#path-2-outside-1_863_125)"/>
    <path d="M151.809 93.1293L149.125 85.2877L131.298 86.9265L128.615 95.2615L119.094 96.1367L134.749 49.7627L145.675 48.7583L161.393 92.2483L151.809 93.1293ZM134.11 78.3872L146.378 77.2594L140.244 59.4642L134.11 78.3872Z" stroke="#242424" class="background-stroke" stroke-width="6" mask="url(#path-2-outside-1_863_125)"/>
    <path d="M200.687 88.6361L190.527 89.57L174.553 69.9832V91.0385L165.736 91.849V46.9141L174.553 46.1035V65.9391L189.888 44.6938L200.048 43.7599L183.499 67.1067L200.687 88.6361Z" stroke="#242424" class="background-stroke" stroke-width="6" mask="url(#path-2-outside-1_863_125)"/>
    <path d="M238.875 79.284C234.36 84.1926 228.865 86.9445 222.39 87.5397C215.915 88.1349 210.42 86.3933 205.905 82.3149C201.432 78.1898 199.196 72.8534 199.196 66.3057C199.196 59.758 201.432 54.0319 205.905 49.1272C210.42 44.1759 215.915 41.4026 222.39 40.8074C228.865 40.2122 234.36 41.9752 238.875 46.0964C243.39 50.1748 245.648 55.4878 245.648 62.0355C245.648 68.5831 243.39 74.3327 238.875 79.284ZM212.103 75.711C214.871 78.1954 218.3 79.2496 222.39 78.8737C226.479 78.4978 229.908 76.8131 232.677 73.8197C235.446 70.7835 236.83 67.1256 236.83 62.8461C236.83 58.5665 235.446 55.1632 232.677 52.6361C229.908 50.1089 226.479 49.0333 222.39 49.4092C218.3 49.7851 214.871 51.4912 212.103 54.5274C209.334 57.5636 207.949 61.2215 207.949 65.501C207.949 69.7805 209.334 73.1839 212.103 75.711Z" stroke="#242424" class="background-stroke" stroke-width="6" mask="url(#path-2-outside-1_863_125)"/>
    <path d="M260.663 74.6492L279.512 72.9165V81.3899L251.845 83.9333V38.9983L279.192 36.4843V44.9578L260.663 46.6612V56.2259L277.595 54.6694V63.0144L260.663 64.571V74.6492Z" stroke="#242424" class="background-stroke" stroke-width="6" mask="url(#path-2-outside-1_863_125)"/>
    <path d="M335.118 31.3432V76.2782L326.301 77.0887V40.6272L310.519 42.0781V78.5396L301.701 79.3501V34.4152L335.118 31.3432Z" stroke="#242424" class="background-stroke" stroke-width="6" mask="url(#path-2-outside-1_863_125)"/>
    <path d="M339.995 75.8299V67.6132C342.636 67.7556 344.617 67.0386 345.937 65.4621C347.258 63.8857 347.918 60.9791 347.918 56.7424V30.1666L378.332 27.3707V72.3056L369.579 73.1103V36.6488L356.672 37.8353V55.6809C356.672 59.5753 356.203 62.8922 355.266 65.6316C354.329 68.3711 353.03 70.4591 351.368 71.8957C349.75 73.3283 348.003 74.3448 346.129 74.945C344.297 75.5414 342.253 75.8363 339.995 75.8299Z" stroke="#242424" class="background-stroke" stroke-width="6" mask="url(#path-2-outside-1_863_125)"/>
    <path d="M415.378 68.9001L412.694 61.0586L394.867 62.6973L392.184 71.0323L382.663 71.9075L398.318 25.5335L409.244 24.5291L424.962 68.0191L415.378 68.9001ZM397.679 54.158L409.947 53.0303L403.813 35.235L397.679 54.158Z" stroke="#242424" class="background-stroke" stroke-width="6" mask="url(#path-2-outside-1_863_125)"/>
    <path d="M455.644 20.2636V28.7371L443.568 29.8472V66.3087L434.75 67.1193V30.6578L422.738 31.7621V23.2886L455.644 20.2636Z" stroke="#242424" class="background-stroke" stroke-width="6" mask="url(#path-2-outside-1_863_125)"/>
    <path d="M477.243 33.0424C481.545 32.6469 485.166 33.7691 488.105 36.409C491.045 39.0489 492.514 42.4872 492.514 46.7239C492.514 50.9606 491.045 54.6691 488.105 57.8494C485.166 61.0296 481.545 62.8175 477.243 63.213L460.566 64.7461V19.8111L469.384 19.0006V33.7649L477.243 33.0424ZM477.243 54.9322C479.117 54.7599 480.672 53.975 481.907 52.5776C483.143 51.1802 483.76 49.4972 483.76 47.5286C483.76 45.6028 483.143 44.0548 481.907 42.8845C480.672 41.6714 479.117 41.151 477.243 41.3233L469.384 42.0458V55.6546L477.243 54.9322Z" stroke="#242424" class="background-stroke" stroke-width="6" mask="url(#path-2-outside-1_863_125)"/>
    <path d="M507.072 51.9975L525.922 50.2647V58.7382L498.255 61.2815V16.3465L525.602 13.8326V22.306L507.072 24.0094V33.5741L524.005 32.0176V40.3627L507.072 41.9192V51.9975Z" stroke="#242424" class="background-stroke" stroke-width="6" mask="url(#path-2-outside-1_863_125)"/>
    <path d="M112.934 134.748C108.447 135.16 104.741 134.003 101.816 131.276C98.8914 128.55 97.4289 124.989 97.4289 120.596C97.4289 116.174 98.8914 112.345 101.816 109.109C104.741 105.844 108.447 104.005 112.934 103.593C115.632 103.345 118.117 103.758 120.389 104.833C122.689 105.877 124.478 107.425 125.756 109.476L120.687 112.894C119.949 111.621 118.898 110.677 117.535 110.06C116.172 109.415 114.638 109.171 112.934 109.328C110.038 109.594 107.695 110.722 105.906 112.713C104.145 114.7 103.265 117.149 103.265 120.059C103.265 122.941 104.145 125.214 105.906 126.878C107.695 128.539 110.038 129.237 112.934 128.971C114.638 128.814 116.172 128.302 117.535 127.435C118.926 126.537 119.977 125.399 120.687 124.021L125.756 126.508C124.478 128.794 122.703 130.683 120.431 132.176C118.159 133.64 115.66 134.497 112.934 134.748Z" stroke="#242424" class="background-stroke" stroke-width="6" mask="url(#path-2-outside-1_863_125)"/>
    <path d="M135.245 126.449L147.812 125.294V130.943L129.367 132.638V102.681L147.599 101.006V106.654L135.245 107.79V114.167L146.534 113.129V118.692L135.245 119.73V126.449Z" stroke="#242424" class="background-stroke" stroke-width="6" mask="url(#path-2-outside-1_863_125)"/>
    <path d="M168.909 99.0465V104.695L157.833 105.714V130.021L151.955 130.562V100.605L168.909 99.0465Z" stroke="#242424" class="background-stroke" stroke-width="6" mask="url(#path-2-outside-1_863_125)"/>
    <path d="M195.431 122.671C192.421 125.943 188.758 127.778 184.441 128.174C180.125 128.571 176.461 127.41 173.451 124.691C170.47 121.941 168.979 118.384 168.979 114.018C168.979 109.653 170.47 105.836 173.451 102.566C176.461 99.2652 180.125 97.4163 184.441 97.0195C188.758 96.6227 192.421 97.7981 195.431 100.546C198.442 103.264 199.947 106.807 199.947 111.172C199.947 115.537 198.442 119.37 195.431 122.671ZM177.583 120.289C179.429 121.945 181.715 122.648 184.441 122.397C187.168 122.146 189.454 121.023 191.299 119.028C193.145 117.004 194.068 114.565 194.068 111.712C194.068 108.859 193.145 106.59 191.299 104.905C189.454 103.221 187.168 102.503 184.441 102.754C181.715 103.005 179.429 104.142 177.583 106.166C175.737 108.19 174.814 110.629 174.814 113.482C174.814 116.335 175.737 118.604 177.583 120.289Z" stroke="#242424" class="background-stroke" stroke-width="6" mask="url(#path-2-outside-1_863_125)"/>
    <path d="M225.664 118.137L228.859 117.843V129.227L222.981 129.767V124.032L206.496 125.548V131.282L200.617 131.823V120.439L203.514 120.173C205.161 117.711 205.984 114.254 205.984 109.803V95.6383L225.664 93.8291V118.137ZM209.818 119.593L219.786 118.677V99.8901L211.863 100.618V109.349C211.863 113.685 211.181 117.1 209.818 119.593Z" stroke="#242424" class="background-stroke" stroke-width="6" mask="url(#path-2-outside-1_863_125)"/>
    <path d="M249.735 91.6164L255.571 91.0799V121.037L249.735 121.573V109.162L238.66 110.181V122.591L232.781 123.132V93.1749L238.66 92.6345V104.532L249.735 103.513V91.6164Z" stroke="#242424" class="background-stroke" stroke-width="6" mask="url(#path-2-outside-1_863_125)"/>
    <path d="M282.153 88.6363V118.593L276.275 119.133V108.734L272.909 109.043L266.051 120.073L259.449 120.68L266.733 108.969C264.83 108.459 263.282 107.432 262.09 105.887C260.897 104.342 260.301 102.571 260.301 100.574C260.301 97.8347 261.266 95.4065 263.197 93.2889C265.128 91.1713 267.471 89.986 270.226 89.7327L282.153 88.6363ZM270.226 104.112L276.275 103.556V94.6973L270.226 95.2533C269.118 95.3551 268.167 95.8705 267.372 96.7995C266.577 97.7285 266.179 98.8064 266.179 100.033C266.179 101.26 266.577 102.279 267.372 103.09C268.167 103.873 269.118 104.214 270.226 104.112Z" stroke="#242424" class="background-stroke" stroke-width="6" mask="url(#path-2-outside-1_863_125)"/>
    <path d="M316.359 99.9138C318.972 101.186 320.278 103.348 320.278 106.401C320.278 108.94 319.384 111.105 317.595 112.896C315.806 114.686 313.605 115.702 310.992 115.942L298.341 117.105V87.1482L310.098 86.0674C312.653 85.8325 314.797 86.4342 316.53 87.8727C318.29 89.28 319.171 91.2104 319.171 93.664C319.171 96.1461 318.234 98.2294 316.359 99.9138ZM310.098 91.588L304.219 92.1284V98.7188L310.098 98.1785C311.006 98.0949 311.759 97.7119 312.355 97.0294C312.98 96.3443 313.292 95.531 313.292 94.5895C313.292 93.648 312.994 92.8909 312.398 92.318C311.801 91.7452 311.035 91.5019 310.098 91.588ZM310.992 110.421C311.986 110.33 312.81 109.926 313.463 109.21C314.116 108.465 314.442 107.579 314.442 106.552C314.442 105.554 314.116 104.756 313.463 104.16C312.81 103.535 311.986 103.269 310.992 103.36L304.219 103.983V111.044L310.992 110.421Z" stroke="#242424" class="background-stroke" stroke-width="6" mask="url(#path-2-outside-1_863_125)"/>
    <path d="M330.01 108.545L342.576 107.389V113.038L324.132 114.734V84.7773L342.363 83.1013V88.7503L330.01 89.8859V96.2623L341.299 95.2246V100.788L330.01 101.826V108.545Z" stroke="#242424" class="background-stroke" stroke-width="6" mask="url(#path-2-outside-1_863_125)"/>
    <path d="M362.268 81.2715L368.146 80.7312V110.688L362.268 111.228V100.273C360.45 101.21 358.505 101.774 356.432 101.965C353.422 102.241 350.937 101.628 348.978 100.125C347.047 98.5906 346.081 96.3684 346.081 93.4584V82.7596L351.959 82.2192V92.1477C351.959 93.5742 352.371 94.6632 353.195 95.4149C354.047 96.1354 355.168 96.4317 356.56 96.3038C358.633 96.1133 360.536 95.5247 362.268 94.538V81.2715Z" stroke="#242424" class="background-stroke" stroke-width="6" mask="url(#path-2-outside-1_863_125)"/>
    <path d="M379.554 103.99L392.12 102.835V108.484L373.676 110.179V80.2228L391.907 78.5469V84.1958L379.554 85.3314V91.7079L390.843 90.6702V96.2336L379.554 97.2713V103.99Z" stroke="#242424" class="background-stroke" stroke-width="6" mask="url(#path-2-outside-1_863_125)"/>
    <path d="M407.382 77.1243C410.25 76.8607 412.664 77.6088 414.623 79.3687C416.583 81.1286 417.562 83.4208 417.562 86.2453C417.562 89.0698 416.583 91.5421 414.623 93.6623C412.664 95.7825 410.25 96.9744 407.382 97.2381L402.142 97.7197V107.563L396.264 108.103V78.1464L407.382 77.1243ZM407.382 91.7175C408.631 91.6026 409.668 91.0794 410.491 90.1478C411.315 89.1877 411.727 88.0657 411.727 86.7818C411.727 85.4694 411.315 84.4231 410.491 83.6429C409.668 82.8627 408.631 82.5301 407.382 82.6449L402.142 83.1266V92.1992L407.382 91.7175Z" stroke="#242424" class="background-stroke" stroke-width="6" mask="url(#path-2-outside-1_863_125)"/>
    <path d="M446.271 99.6116C443.261 102.884 439.598 104.719 435.281 105.115C430.965 105.512 427.301 104.351 424.291 101.632C421.309 98.8821 419.818 95.3245 419.818 90.9594C419.818 86.5943 421.309 82.7768 424.291 79.5071C427.301 76.2062 430.965 74.3573 435.281 73.9605C439.598 73.5637 443.261 74.739 446.271 77.4865C449.281 80.2054 450.786 83.7475 450.786 88.1126C450.786 92.4777 449.281 96.3107 446.271 99.6116ZM428.423 97.2296C430.269 98.8858 432.555 99.5887 435.281 99.338C438.007 99.0874 440.293 97.9643 442.139 95.9687C443.985 93.9446 444.908 91.506 444.908 88.653C444.908 85.7999 443.985 83.5311 442.139 81.8463C440.293 80.1615 438.007 79.4444 435.281 79.695C432.555 79.9457 430.269 81.083 428.423 83.1072C426.577 85.1313 425.654 87.5699 425.654 90.4229C425.654 93.2759 426.577 95.5448 428.423 97.2296Z" stroke="#242424" class="background-stroke" stroke-width="6" mask="url(#path-2-outside-1_863_125)"/>
    <path d="M484.097 70.0721V100.029L478.261 100.565V81.1362L469.87 95.8161L469.188 95.8787L460.797 82.7845V102.171L454.918 102.711V72.7545L460.967 72.1984L469.529 85.5765L478.048 70.6282L484.097 70.0721Z" stroke="#242424" class="background-stroke" stroke-width="6" mask="url(#path-2-outside-1_863_125)"/>
    <path d="M495.191 88.9521C495.191 87.6968 495.56 86.4646 496.298 85.2555C497.065 84.0438 497.888 83.0551 498.769 82.2895C499.649 81.4953 500.458 80.5935 501.197 79.5841C501.964 78.5722 502.347 77.5954 502.347 76.6539C502.347 75.6554 502.006 74.9164 501.325 74.437C500.643 73.9576 499.692 73.774 498.471 73.8862C496.085 74.1055 494.395 75.5304 493.402 78.161L488.375 75.713C489.227 73.5234 490.576 71.7732 492.422 70.4623C494.296 69.1203 496.383 68.3435 498.684 68.1321C501.268 67.8945 503.497 68.4457 505.371 69.7855C507.274 71.0941 508.225 73.0608 508.225 75.6856C508.225 76.8839 507.97 78.02 507.459 79.0941C506.976 80.1656 506.379 81.1048 505.669 81.9119C504.988 82.6878 504.292 83.4365 503.582 84.1579C502.901 84.8482 502.304 85.5592 501.793 86.291C501.31 87.0201 501.069 87.727 501.069 88.4117L495.191 88.9521ZM500.686 97.9903C499.976 98.7688 499.124 99.2037 498.13 99.2951C497.136 99.3865 496.284 99.1082 495.574 98.4602C494.864 97.8122 494.509 96.9889 494.509 95.9903C494.509 94.9918 494.864 94.1033 495.574 93.3247C496.284 92.5462 497.136 92.1113 498.13 92.0199C499.124 91.9285 499.976 92.2069 500.686 92.8548C501.396 93.5028 501.751 94.3261 501.751 95.3247C501.751 96.3232 501.396 97.2117 500.686 97.9903Z" stroke="#242424" class="background-stroke" stroke-width="6" mask="url(#path-2-outside-1_863_125)"/>
    <defs>
        <linearGradient id="paint0_linear_863_125" x1="109.542" y1="70.8474" x2="490.888" y2="48.3431" gradientUnits="userSpaceOnUse">
            <stop stop-color="#DDB7E0"/>
            <stop offset="1" stop-color="#98E6E2"/>
        </linearGradient>
        <linearGradient id="paint1_linear_863_125" x1="109.542" y1="70.8474" x2="490.888" y2="48.3431" gradientUnits="userSpaceOnUse">
            <stop stop-color="#DDB7E0"/>
            <stop offset="1" stop-color="#98E6E2"/>
        </linearGradient>
        <linearGradient id="paint2_linear_863_125" x1="109.542" y1="70.8474" x2="490.888" y2="48.3431" gradientUnits="userSpaceOnUse">
            <stop stop-color="#DDB7E0"/>
            <stop offset="1" stop-color="#98E6E2"/>
        </linearGradient>
        <linearGradient id="paint3_linear_863_125" x1="109.542" y1="70.8474" x2="490.888" y2="48.3431" gradientUnits="userSpaceOnUse">
            <stop stop-color="#DDB7E0"/>
            <stop offset="1" stop-color="#98E6E2"/>
        </linearGradient>
        <linearGradient id="paint4_linear_863_125" x1="109.542" y1="70.8474" x2="490.888" y2="48.3431" gradientUnits="userSpaceOnUse">
            <stop stop-color="#DDB7E0"/>
            <stop offset="1" stop-color="#98E6E2"/>
        </linearGradient>
        <linearGradient id="paint5_linear_863_125" x1="109.542" y1="70.8474" x2="490.888" y2="48.3431" gradientUnits="userSpaceOnUse">
            <stop stop-color="#DDB7E0"/>
            <stop offset="1" stop-color="#98E6E2"/>
        </linearGradient>
        <linearGradient id="paint6_linear_863_125" x1="109.542" y1="70.8474" x2="490.888" y2="48.3431" gradientUnits="userSpaceOnUse">
            <stop stop-color="#DDB7E0"/>
            <stop offset="1" stop-color="#98E6E2"/>
        </linearGradient>
        <linearGradient id="paint7_linear_863_125" x1="109.542" y1="70.8474" x2="490.888" y2="48.3431" gradientUnits="userSpaceOnUse">
            <stop stop-color="#DDB7E0"/>
            <stop offset="1" stop-color="#98E6E2"/>
        </linearGradient>
        <linearGradient id="paint8_linear_863_125" x1="109.542" y1="70.8474" x2="490.888" y2="48.3431" gradientUnits="userSpaceOnUse">
            <stop stop-color="#DDB7E0"/>
            <stop offset="1" stop-color="#98E6E2"/>
        </linearGradient>
        <linearGradient id="paint9_linear_863_125" x1="109.542" y1="70.8474" x2="490.888" y2="48.3431" gradientUnits="userSpaceOnUse">
            <stop stop-color="#DDB7E0"/>
            <stop offset="1" stop-color="#98E6E2"/>
        </linearGradient>
        <linearGradient id="paint10_linear_863_125" x1="109.542" y1="70.8474" x2="490.888" y2="48.3431" gradientUnits="userSpaceOnUse">
            <stop stop-color="#DDB7E0"/>
            <stop offset="1" stop-color="#98E6E2"/>
        </linearGradient>
        <linearGradient id="paint11_linear_863_125" x1="109.542" y1="70.8474" x2="490.888" y2="48.3431" gradientUnits="userSpaceOnUse">
            <stop stop-color="#DDB7E0"/>
            <stop offset="1" stop-color="#98E6E2"/>
        </linearGradient>
        <linearGradient id="paint12_linear_863_125" x1="109.542" y1="70.8474" x2="490.888" y2="48.3431" gradientUnits="userSpaceOnUse">
            <stop stop-color="#DDB7E0"/>
            <stop offset="1" stop-color="#98E6E2"/>
        </linearGradient>
        <linearGradient id="paint13_linear_863_125" x1="109.542" y1="70.8474" x2="490.888" y2="48.3431" gradientUnits="userSpaceOnUse">
            <stop stop-color="#DDB7E0"/>
            <stop offset="1" stop-color="#98E6E2"/>
        </linearGradient>
        <linearGradient id="paint14_linear_863_125" x1="109.542" y1="70.8474" x2="490.888" y2="48.3431" gradientUnits="userSpaceOnUse">
            <stop stop-color="#DDB7E0"/>
            <stop offset="1" stop-color="#98E6E2"/>
        </linearGradient>
        <linearGradient id="paint15_linear_863_125" x1="109.542" y1="70.8474" x2="490.888" y2="48.3431" gradientUnits="userSpaceOnUse">
            <stop stop-color="#DDB7E0"/>
            <stop offset="1" stop-color="#98E6E2"/>
        </linearGradient>
        <linearGradient id="paint16_linear_863_125" x1="109.542" y1="70.8474" x2="490.888" y2="48.3431" gradientUnits="userSpaceOnUse">
            <stop stop-color="#DDB7E0"/>
            <stop offset="1" stop-color="#98E6E2"/>
        </linearGradient>
        <linearGradient id="paint17_linear_863_125" x1="109.542" y1="70.8474" x2="490.888" y2="48.3431" gradientUnits="userSpaceOnUse">
            <stop stop-color="#DDB7E0"/>
            <stop offset="1" stop-color="#98E6E2"/>
        </linearGradient>
        <linearGradient id="paint18_linear_863_125" x1="109.542" y1="70.8474" x2="490.888" y2="48.3431" gradientUnits="userSpaceOnUse">
            <stop stop-color="#DDB7E0"/>
            <stop offset="1" stop-color="#98E6E2"/>
        </linearGradient>
        <linearGradient id="paint19_linear_863_125" x1="109.542" y1="70.8474" x2="490.888" y2="48.3431" gradientUnits="userSpaceOnUse">
            <stop stop-color="#DDB7E0"/>
            <stop offset="1" stop-color="#98E6E2"/>
        </linearGradient>
        <linearGradient id="paint20_linear_863_125" x1="109.542" y1="70.8474" x2="490.888" y2="48.3431" gradientUnits="userSpaceOnUse">
            <stop stop-color="#DDB7E0"/>
            <stop offset="1" stop-color="#98E6E2"/>
        </linearGradient>
        <linearGradient id="paint21_linear_863_125" x1="109.542" y1="70.8474" x2="490.888" y2="48.3431" gradientUnits="userSpaceOnUse">
            <stop stop-color="#DDB7E0"/>
            <stop offset="1" stop-color="#98E6E2"/>
        </linearGradient>
        <linearGradient id="paint22_linear_863_125" x1="109.542" y1="70.8474" x2="490.888" y2="48.3431" gradientUnits="userSpaceOnUse">
            <stop stop-color="#DDB7E0"/>
            <stop offset="1" stop-color="#98E6E2"/>
        </linearGradient>
        <linearGradient id="paint23_linear_863_125" x1="109.542" y1="70.8474" x2="490.888" y2="48.3431" gradientUnits="userSpaceOnUse">
            <stop stop-color="#DDB7E0"/>
            <stop offset="1" stop-color="#98E6E2"/>
        </linearGradient>
        <linearGradient id="paint24_linear_863_125" x1="109.542" y1="70.8474" x2="490.888" y2="48.3431" gradientUnits="userSpaceOnUse">
            <stop stop-color="#DDB7E0"/>
            <stop offset="1" stop-color="#98E6E2"/>
        </linearGradient>
        <linearGradient id="paint25_linear_863_125" x1="109.542" y1="70.8474" x2="490.888" y2="48.3431" gradientUnits="userSpaceOnUse">
            <stop stop-color="#DDB7E0"/>
            <stop offset="1" stop-color="#98E6E2"/>
        </linearGradient>
        <clipPath id="clip0_863_125">
            <rect width="606" height="148" fill="white"/>
        </clipPath>
    </defs>
</svg>
