<svg width="50" height="50" version="1.1" viewBox="0 0 13.229 13.229" xmlns="http://www.w3.org/2000/svg">
 <path d="m6.6091 0.028606c-3.6356 0-6.5841 3.0191-6.5841 6.7436 0 2.9789 1.8865 5.5066 4.5031 6.3988 0.32945 0.06168 0.4495-0.14655 0.4495-0.32538 0-0.16021-0.00561-0.58411-0.00894-1.1467-1.8316 0.40735-2.218-0.90411-2.218-0.90411-0.29953-0.77909-0.73125-0.98649-0.73125-0.98649-0.59785-0.41811 0.045272-0.40983 0.045272-0.40983 0.66092 0.047607 1.0086 0.69506 1.0086 0.69506 0.58735 1.0304 1.5413 0.73273 1.9165 0.5601 0.059825-0.4355 0.23001-0.73273 0.41797-0.90122-1.4621-0.17056-2.9994-0.74887-2.9994-3.3329 0-0.73645 0.25669-1.338 0.67789-1.8095-0.067914-0.17056-0.29387-0.85609 0.064672-1.7846 0 0 0.55258-0.18132 1.8105 0.69092 0.52509-0.14944 1.0886-0.22396 1.6484-0.22686 0.55945 0.00293 1.1225 0.077413 1.6484 0.22686 1.2572-0.87224 1.8089-0.69092 1.8089-0.69092 0.35936 0.92854 0.1334 1.6141 0.06589 1.7846 0.42202 0.47151 0.67668 1.073 0.67668 1.8095 0 2.5906-1.5397 3.1607-3.0063 3.3275 0.23607 0.20823 0.44667 0.61972 0.44667 1.249 0 0.90122-0.00814 1.6286-0.00814 1.8496 0 0.18049 0.11884 0.39038 0.45274 0.32455 2.6146-0.89376 4.4995-3.4194 4.4995-6.3979 0-3.7245-2.9484-6.7436-6.5853-6.7436" fill="#A0A0A0" fill-rule="evenodd"/>
</svg>
