<svg width="680" height="174" viewBox="0 0 680 174" fill="none" xmlns="http://www.w3.org/2000/svg">
<g clip-path="url(#clip0)">
<path d="M-561.88 -420.67L1292.7 76.2625M-563.174 -415.843L1291.4 81.0895M-564.467 -411.016L1290.11 85.9169M-565.761 -406.188L1288.82 90.7446M-567.055 -401.36L1287.52 95.5726M-568.348 -396.532L1286.23 100.401M-569.642 -391.703L1284.94 105.229M-570.936 -386.875L1283.64 110.058M-572.23 -382.046L1282.35 114.886M-573.524 -377.217L1281.05 119.715M-574.817 -372.389L1279.76 124.544M-576.111 -367.56L1278.47 129.373M-577.405 -362.731L1277.17 134.202M-578.699 -357.901L1275.88 139.031M-579.993 -353.072L1274.58 143.86M-581.287 -348.243L1273.29 148.69M-582.581 -343.414L1272 153.519M-583.875 -338.585L1270.7 158.348M-585.169 -333.755L1269.41 163.177M-586.463 -328.926L1268.11 168.007M-587.757 -324.097L1266.82 172.836M-589.051 -319.267L1265.53 177.666M-590.345 -314.438L1264.23 182.495M-591.639 -309.608L1262.94 187.324M-592.933 -304.779L1261.64 192.154M-594.227 -299.949L1260.35 196.983M-595.522 -295.12L1259.06 201.813M-596.816 -290.291L1257.76 206.642M-598.11 -285.461L1256.47 211.472M-599.404 -280.632L1255.17 216.301M-600.698 -275.802L1253.88 221.131M-601.992 -270.972L1252.59 225.96M-603.286 -266.143L1251.29 230.79M-604.58 -261.313L1250 235.619M-605.874 -256.484L1248.7 240.449M-607.168 -251.654L1247.41 245.278M-608.462 -246.825L1246.12 250.108M-609.756 -241.995L1244.82 254.938M-611.05 -237.166L1243.53 259.767M-612.344 -232.336L1242.23 264.597M-613.639 -227.506L1240.94 269.426M-614.933 -222.677L1239.64 274.256M-616.227 -217.847L1238.35 279.086M-617.521 -213.018L1237.06 283.915M-618.815 -208.188L1235.76 288.745M-620.109 -203.358L1234.47 293.574M-621.403 -198.529L1233.17 298.404M-622.697 -193.699L1231.88 303.234M-623.991 -188.87L1230.59 308.063M-625.285 -184.04L1229.29 312.893M-626.579 -179.21L1228 317.722M-627.874 -174.381L1226.7 322.552M-629.168 -169.551L1225.41 327.382M-630.462 -164.721L1224.12 332.211M-631.756 -159.892L1222.82 337.041M-633.05 -155.062L1221.53 341.871M-634.344 -150.233L1220.23 346.7M-635.638 -145.403L1218.94 351.53M-636.932 -140.573L1217.65 356.359M-638.226 -135.744L1216.35 361.189M-639.52 -130.914L1215.06 366.019M-640.814 -126.084L1213.76 370.848M-642.109 -121.255L1212.47 375.678M-643.403 -116.425L1211.17 380.508M-644.697 -111.596L1209.88 385.337M-645.991 -106.766L1208.59 390.167M-647.285 -101.936L1207.29 394.996M-648.579 -97.1067L1206 399.826M-649.873 -92.277L1204.7 404.656M-651.167 -87.4474L1203.41 409.485M-652.461 -82.6178L1202.12 414.315M-653.755 -77.7881L1200.82 419.145M-655.05 -72.9585L1199.53 423.974M-656.344 -68.1289L1198.23 428.804M-657.638 -63.2993L1196.94 433.633M-658.932 -58.4697L1195.65 438.463M-660.226 -53.64L1194.35 443.293M-661.52 -48.8104L1193.06 448.122M-662.814 -43.9808L1191.76 452.952M-664.108 -39.1512L1190.47 457.782M-665.402 -34.3216L1189.18 462.611M-666.696 -29.492L1187.88 467.441M-667.99 -24.6624L1186.59 472.27M-669.285 -19.8328L1185.29 477.1M-670.579 -15.0031L1184 481.93M-671.873 -10.1736L1182.7 486.759M-673.167 -5.34397L1181.41 491.589M-674.461 -0.5144L1180.12 496.418M-675.755 4.31523L1178.82 501.248M-677.049 9.1448L1177.53 506.078M-678.343 13.9744L1176.23 510.907M-679.637 18.8039L1174.94 515.737M-680.931 23.6335L1173.65 520.566M-682.225 28.4631L1172.35 525.396M-683.519 33.2926L1171.06 530.225M-684.814 38.1222L1169.76 535.055M-686.108 42.9517L1168.47 539.884M-687.402 47.7812L1167.18 544.714M-688.696 52.6108L1165.88 549.543M-689.99 57.4403L1164.59 554.373M-691.284 62.2698L1163.29 559.203M-692.578 67.0992L1162 564.032M-693.872 71.9287L1160.71 568.861M-695.166 76.7582L1159.41 573.691M-696.46 81.5876L1158.12 578.52M-697.754 86.417L1156.82 583.35M-699.048 91.2464L1155.53 588.179M-700.342 96.0758L1154.24 593.009M-701.636 100.905L1152.94 597.838M-702.93 105.734L1151.65 602.667M-704.224 110.564L1150.35 607.496M-705.518 115.393L1149.06 612.326M-706.812 120.222L1147.77 617.155M-708.106 125.051L1146.47 621.984M-709.402 129.886L1145.18 626.819M-710.697 134.721L1143.88 631.654" stroke="#EBEBEB"/>
</g>
<path d="M131.93 107.986L120.53 109.033L102.605 87.0644V110.68L92.7109 111.59V61.1896L102.605 60.2804V82.5284L119.813 58.6993L131.213 57.6517L112.643 83.8381L131.93 107.986ZM170.346 104.456L167.335 95.6606L147.331 97.4987L144.32 106.847L133.637 107.829L151.203 55.8149L163.463 54.6883L181.101 103.468L170.346 104.456ZM150.486 87.9208L164.252 86.6559L157.369 66.6963L150.486 87.9208ZM225.193 99.4162L213.793 100.464L195.869 78.4947V102.111L185.974 103.02V52.6199L195.869 51.7107V73.9587L213.076 50.1296L224.476 49.082L205.906 75.2684L225.193 99.4162ZM268.044 88.9267C262.978 94.4322 256.812 97.5188 249.546 98.1864C242.281 98.854 236.115 96.9006 231.048 92.3262C226.029 87.6993 223.52 81.7139 223.52 74.3699C223.52 67.0259 226.029 60.6033 231.048 55.1022C236.115 49.5486 242.281 46.438 249.546 45.7704C256.812 45.1028 262.978 47.0802 268.044 51.7027C273.111 56.2771 275.644 62.2363 275.644 69.5803C275.644 76.9243 273.111 83.3731 268.044 88.9267ZM238.003 84.9191C241.11 87.7056 244.958 88.8881 249.546 88.4664C254.135 88.0448 257.983 86.1552 261.09 82.7977C264.197 79.3923 265.75 75.2895 265.75 70.4895C265.75 65.6895 264.197 61.8722 261.09 59.0377C257.983 56.2032 254.135 54.9968 249.546 55.4184C244.958 55.8401 241.11 57.7536 238.003 61.1591C234.896 64.5646 233.343 68.6673 233.343 73.4673C233.343 78.2673 234.896 82.0846 238.003 84.9191ZM292.493 83.7282L313.644 81.7847V91.2887L282.598 94.1414V43.7413L313.285 40.9216V50.4256L292.493 52.3362V63.0642L311.493 61.3183V70.6783L292.493 72.4242V83.7282ZM376.04 35.1552V85.5552L366.146 86.4644V45.5684L348.437 47.1957V88.0917L338.542 89.0008V38.6008L376.04 35.1552ZM381.512 85.0524V75.8364C384.476 75.9961 386.699 75.1919 388.18 73.4237C389.662 71.6556 390.403 68.3955 390.403 63.6435V33.8355L424.531 30.6996V81.0996L414.709 82.0021V41.1061L400.226 42.4369V62.4529C400.226 66.8209 399.7 70.5412 398.648 73.6139C397.597 76.6865 396.139 79.0285 394.275 80.6397C392.458 82.2466 390.499 83.3867 388.395 84.06C386.34 84.7288 384.046 85.0596 381.512 85.0524ZM466.1 77.2799L463.089 68.4846L443.085 70.3227L440.074 79.6714L429.391 80.653L446.957 28.6389L459.217 27.5123L476.855 76.2917L466.1 77.2799ZM446.24 60.7448L460.006 59.4799L453.123 39.5203L446.24 60.7448ZM511.284 22.7281V32.2321L497.733 33.4773V74.3733L487.838 75.2825V34.3865L474.359 35.625V26.121L511.284 22.7281ZM535.52 37.0611C540.348 36.6175 544.411 37.8762 547.709 40.8371C551.007 43.7981 552.656 47.6545 552.656 52.4065C552.656 57.1585 551.007 61.3181 547.709 64.8851C544.411 68.4522 540.348 70.4575 535.52 70.9011L516.807 72.6206V22.2206L526.701 21.3114V37.8714L535.52 37.0611ZM535.52 61.6131C537.623 61.4198 539.368 60.5395 540.754 58.9722C542.14 57.4048 542.833 55.5171 542.833 53.3091C542.833 51.1491 542.14 49.4128 540.754 48.1002C539.368 46.7395 537.623 46.1558 535.52 46.3491L526.701 47.1594V62.4234L535.52 61.6131ZM568.992 58.3215L590.143 56.378V65.882L559.098 68.7346V18.3346L589.784 15.5149V25.0189L568.992 26.9295V37.6575L587.992 35.9116V45.2716L568.992 47.0175V58.3215ZM126.725 151.136C121.69 151.599 117.532 150.301 114.249 147.242C110.967 144.184 109.326 140.191 109.326 135.263C109.326 130.303 110.967 126.008 114.249 122.378C117.532 118.717 121.69 116.655 126.725 116.192C129.752 115.914 132.54 116.378 135.09 117.584C137.671 118.754 139.678 120.49 141.112 122.79L135.424 126.625C134.596 125.197 133.417 124.137 131.887 123.446C130.358 122.722 128.637 122.448 126.725 122.624C123.475 122.923 120.846 124.188 118.838 126.421C116.862 128.65 115.875 131.397 115.875 134.661C115.875 137.893 116.862 140.442 118.838 142.309C120.846 144.172 123.475 144.955 126.725 144.656C128.637 144.48 130.358 143.906 131.887 142.934C133.449 141.926 134.628 140.65 135.424 139.105L141.112 141.894C139.678 144.458 137.687 146.577 135.137 148.251C132.588 149.893 129.784 150.855 126.725 151.136ZM151.761 141.828L165.861 140.532V146.868L145.164 148.77V115.17L165.622 113.29V119.626L151.761 120.9V128.052L164.427 126.888V133.128L151.761 134.292V141.828ZM189.535 111.093V117.429L177.107 118.571V145.835L170.511 146.441V112.841L189.535 111.093ZM219.296 137.59C215.918 141.26 211.807 143.318 206.964 143.763C202.12 144.208 198.01 142.906 194.632 139.856C191.286 136.772 189.613 132.782 189.613 127.886C189.613 122.99 191.286 118.708 194.632 115.04C198.01 111.338 202.12 109.264 206.964 108.819C211.807 108.374 215.918 109.692 219.296 112.774C222.674 115.824 224.363 119.796 224.363 124.692C224.363 129.588 222.674 133.888 219.296 137.59ZM199.268 134.918C201.34 136.776 203.905 137.564 206.964 137.283C210.023 137.002 212.588 135.742 214.659 133.504C216.731 131.234 217.766 128.499 217.766 125.299C217.766 122.099 216.731 119.554 214.659 117.664C212.588 115.774 210.023 114.97 206.964 115.251C203.905 115.532 201.34 116.808 199.268 119.078C197.197 121.349 196.161 124.084 196.161 127.284C196.161 130.484 197.197 133.029 199.268 134.918ZM253.221 132.505L256.805 132.175V144.943L250.209 145.549V139.117L231.711 140.817V147.249L225.115 147.855V135.087L228.365 134.789C230.214 132.027 231.138 128.15 231.138 123.158V107.27L253.221 105.241V132.505ZM235.439 134.139L246.624 133.111V112.039L237.734 112.856V122.648C237.734 127.512 236.969 131.342 235.439 134.139ZM280.231 102.759L286.779 102.157V135.757L280.231 136.359V122.439L267.803 123.581V137.501L261.207 138.107V104.507L267.803 103.901V117.245L280.231 116.103V102.759ZM316.607 99.4164V133.016L310.011 133.622V121.958L306.235 122.305L298.539 134.677L291.131 135.357L299.304 122.222C297.169 121.65 295.432 120.498 294.094 118.765C292.756 117.032 292.086 115.046 292.086 112.806C292.086 109.734 293.17 107.01 295.337 104.635C297.504 102.26 300.133 100.93 303.224 100.646L316.607 99.4164ZM303.224 116.774L310.011 116.15V106.214L303.224 106.838C301.981 106.952 300.913 107.53 300.021 108.572C299.129 109.614 298.683 110.823 298.683 112.199C298.683 113.575 299.129 114.718 300.021 115.628C300.913 116.506 301.981 116.888 303.224 116.774ZM354.991 112.065C357.922 113.492 359.388 115.917 359.388 119.341C359.388 122.189 358.384 124.618 356.377 126.626C354.369 128.635 351.9 129.773 348.968 130.043L334.772 131.347V97.7473L347.964 96.5351C350.832 96.2716 353.238 96.9465 355.182 98.5599C357.157 100.138 358.145 102.304 358.145 105.056C358.145 107.84 357.094 110.176 354.991 112.065ZM347.964 102.727L341.368 103.333V110.725L347.964 110.119C348.984 110.025 349.828 109.596 350.498 108.83C351.199 108.062 351.549 107.15 351.549 106.094C351.549 105.038 351.215 104.188 350.545 103.546C349.876 102.903 349.016 102.63 347.964 102.727ZM348.968 123.851C350.083 123.748 351.007 123.295 351.74 122.492C352.473 121.657 352.84 120.663 352.84 119.511C352.84 118.391 352.473 117.497 351.74 116.828C351.007 116.127 350.083 115.828 348.968 115.931L341.368 116.629V124.549L348.968 123.851ZM370.309 121.746L384.409 120.45V126.786L363.712 128.688V95.088L384.17 93.2082V99.5442L370.309 100.818V107.97L382.975 106.806V113.046L370.309 114.21V121.746ZM406.505 91.1559L413.101 90.5498V124.15L406.505 124.756V112.468C404.466 113.519 402.283 114.152 399.957 114.366C396.579 114.676 393.791 113.988 391.592 112.302C389.425 110.581 388.342 108.089 388.342 104.825V92.8249L394.938 92.2188V103.355C394.938 104.955 395.4 106.176 396.324 107.019C397.28 107.828 398.539 108.16 400.1 108.016C402.426 107.803 404.561 107.143 406.505 106.036V91.1559ZM425.902 116.638L440.003 115.342V121.678L419.306 123.58V89.9797L439.764 88.0999V94.4359L425.902 95.7096V102.862L438.569 101.698V107.938L425.902 109.102V116.638ZM457.128 86.5043C460.347 86.2086 463.055 87.0477 465.254 89.0217C467.453 90.9956 468.552 93.5666 468.552 96.7346C468.552 99.9026 467.453 102.676 465.254 105.054C463.055 107.432 460.347 108.769 457.128 109.064L451.249 109.605V120.645L444.653 121.251V87.6507L457.128 86.5043ZM457.128 102.872C458.53 102.743 459.693 102.157 460.617 101.112C461.541 100.035 462.004 98.7763 462.004 97.3363C462.004 95.8643 461.541 94.6908 460.617 93.8157C459.693 92.9406 458.53 92.5675 457.128 92.6963L451.249 93.2366V103.413L457.128 102.872ZM500.766 111.727C497.389 115.397 493.278 117.455 488.434 117.9C483.591 118.345 479.48 117.042 476.102 113.993C472.756 110.908 471.083 106.918 471.083 102.022C471.083 97.126 472.756 92.8443 476.102 89.1768C479.48 85.4745 483.591 83.4008 488.434 82.9557C493.278 82.5106 497.389 83.8289 500.766 86.9105C504.144 89.9602 505.833 93.933 505.833 98.829C505.833 103.725 504.144 108.024 500.766 111.727ZM480.739 109.055C482.81 110.912 485.375 111.701 488.434 111.42C491.493 111.139 494.059 109.879 496.13 107.641C498.201 105.37 499.237 102.635 499.237 99.4351C499.237 96.2351 498.201 93.6902 496.13 91.8006C494.059 89.9109 491.493 89.1066 488.434 89.3877C485.375 89.6688 482.81 90.9445 480.739 93.2148C478.667 95.4851 477.632 98.2203 477.632 101.42C477.632 104.62 478.667 107.165 480.739 109.055ZM543.211 78.5944V112.194L536.663 112.796V91.0041L527.246 107.469L526.482 107.54L517.065 92.8529V114.597L510.469 115.203V81.603L517.257 80.9793L526.864 95.9845L536.424 79.2181L543.211 78.5944ZM555.659 99.7706C555.659 98.3626 556.074 96.9805 556.902 95.6244C557.762 94.2653 558.687 93.1564 559.674 92.2976C560.662 91.4069 561.57 90.3954 562.399 89.2633C563.259 88.1282 563.69 87.0327 563.69 85.9767C563.69 84.8567 563.307 84.0278 562.542 83.4901C561.778 82.9524 560.71 82.7465 559.34 82.8724C556.663 83.1183 554.767 84.7166 553.652 87.667L548.012 84.9213C548.968 82.4655 550.481 80.5024 552.552 79.0321C554.656 77.5268 556.998 76.6556 559.579 76.4184C562.479 76.152 564.98 76.7701 567.083 78.2729C569.218 79.7407 570.286 81.9466 570.286 84.8906C570.286 86.2346 569.999 87.509 569.425 88.7137C568.884 89.9154 568.214 90.9689 567.418 91.8741C566.653 92.7444 565.872 93.5841 565.076 94.3933C564.311 95.1676 563.642 95.9651 563.068 96.7858C562.526 97.6036 562.256 98.3965 562.256 99.1645L555.659 99.7706ZM561.825 109.908C561.029 110.781 560.073 111.269 558.957 111.372C557.842 111.474 556.886 111.162 556.09 110.435C555.293 109.708 554.895 108.785 554.895 107.665C554.895 106.545 555.293 105.548 556.09 104.675C556.886 103.802 557.842 103.314 558.957 103.212C560.073 103.109 561.029 103.421 561.825 104.148C562.622 104.875 563.02 105.798 563.02 106.918C563.02 108.038 562.622 109.035 561.825 109.908Z" fill="url(#paint0_linear)"/>
<path d="M131.93 107.986V110.986L137.891 110.438L134.323 105.97L131.93 107.986ZM120.53 109.033L118.154 111.07L119.05 112.169L120.53 112.033V109.033ZM102.605 87.0644L104.981 85.0275L99.6178 78.454V87.3389L102.605 87.0644ZM102.605 110.68V113.68L105.593 113.406V110.406L102.605 110.68ZM92.7109 111.59L89.7235 111.864V114.864L92.7109 114.59V111.59ZM92.7109 61.1896V58.1896L89.7235 58.4641V61.4641L92.7109 61.1896ZM102.605 60.2804L105.593 60.0059V57.0059L102.605 57.2804V60.2804ZM102.605 82.5284L99.6178 82.8029V91.5561L104.965 84.1518L102.605 82.5284ZM119.813 58.6993V55.6993L118.35 55.8336L117.453 57.0758L119.813 58.6993ZM131.213 57.6517L133.589 59.2513L137.244 54.0976L131.213 54.6517V57.6517ZM112.643 83.8381L110.266 82.2385L108.901 84.1645L110.25 85.8537L112.643 83.8381ZM131.93 104.986L120.53 106.033V112.033L131.93 110.986V104.986ZM122.906 106.996L104.981 85.0275L100.229 89.1013L118.154 111.07L122.906 106.996ZM99.6178 87.3389V110.955L105.593 110.406V86.7899L99.6178 87.3389ZM102.605 107.68L92.7109 108.59V114.59L102.605 113.68V107.68ZM95.6983 111.315V60.9151L89.7235 61.4641V111.864L95.6983 111.315ZM92.7109 64.1896L102.605 63.2804V57.2804L92.7109 58.1896V64.1896ZM99.6178 60.5549V82.8029L105.593 82.2539V60.0059L99.6178 60.5549ZM104.965 84.1518L122.172 60.3227L117.453 57.0758L100.246 80.905L104.965 84.1518ZM119.813 61.6993L131.213 60.6517V54.6517L119.813 55.6993V61.6993ZM128.836 56.0522L110.266 82.2385L115.019 85.4376L133.589 59.2513L128.836 56.0522ZM110.25 85.8537L129.537 110.001L134.323 105.97L115.036 81.8224L110.25 85.8537ZM170.346 104.456L167.512 105.665L168.193 107.654L170.346 107.456V104.456ZM167.335 95.6606L170.169 94.4515L169.488 92.4627L167.335 92.6606V95.6606ZM147.331 97.4987V94.4987L145.178 94.6965L144.497 96.8104L147.331 97.4987ZM144.32 106.847V109.847L146.473 109.65L147.154 107.536L144.32 106.847ZM133.637 107.829L130.817 107.097L129.426 111.216L133.637 110.829V107.829ZM151.203 55.8149V52.8149L149.083 53.0097L148.383 55.0829L151.203 55.8149ZM163.463 54.6883L166.282 53.4347L165.58 51.4938L163.463 51.6883V54.6883ZM181.101 103.468V106.468L185.317 106.08L183.919 102.214L181.101 103.468ZM150.486 87.9208L147.654 87.2264L146.332 91.3025L150.486 90.9208V87.9208ZM164.252 86.6559V89.6559L168.406 89.2742L167.084 85.441L164.252 86.6559ZM157.369 66.6963L160.201 65.4814L157.369 57.2688L154.537 66.0019L157.369 66.6963ZM173.18 103.247L170.169 94.4515L164.501 96.8697L167.512 105.665L173.18 103.247ZM167.335 92.6606L147.331 94.4987V100.499L167.335 98.6606V92.6606ZM144.497 96.8104L141.486 106.159L147.154 107.536L150.165 98.1869L144.497 96.8104ZM144.32 103.847L133.637 104.829V110.829L144.32 109.847V103.847ZM136.457 108.561L154.023 56.5469L148.383 55.0829L130.817 107.097L136.457 108.561ZM151.203 58.8149L163.463 57.6883V51.6883L151.203 52.8149V58.8149ZM160.645 55.942L178.283 104.721L183.919 102.214L166.282 53.4347L160.645 55.942ZM181.101 100.468L170.346 101.456V107.456L181.101 106.468V100.468ZM150.486 90.9208L164.252 89.6559V83.6559L150.486 84.9208V90.9208ZM167.084 85.441L160.201 65.4814L154.537 67.9112L161.42 87.8707L167.084 85.441ZM154.537 66.0019L147.654 87.2264L153.318 88.6152L160.201 67.3907L154.537 66.0019ZM225.193 99.4162V102.416L231.155 101.868L227.586 97.4005L225.193 99.4162ZM213.793 100.464L211.417 102.501L212.314 103.6L213.793 103.464V100.464ZM195.869 78.4947L198.245 76.4578L192.881 69.8843V78.7692L195.869 78.4947ZM195.869 102.111V105.111L198.856 104.836V101.836L195.869 102.111ZM185.974 103.02L182.987 103.294V106.294L185.974 106.02V103.02ZM185.974 52.6199V49.6199L182.987 49.8944V52.8944L185.974 52.6199ZM195.869 51.7107L198.856 51.4362V48.4362L195.869 48.7107V51.7107ZM195.869 73.9587L192.881 74.2332V82.9864L198.228 75.5821L195.869 73.9587ZM213.076 50.1296V47.1296L211.614 47.2639L210.717 48.5061L213.076 50.1296ZM224.476 49.082L226.852 50.6816L230.507 45.5279L224.476 46.082V49.082ZM205.906 75.2684L203.53 73.6688L202.164 75.5948L203.513 77.284L205.906 75.2684ZM225.193 96.4162L213.793 97.4637V103.464L225.193 102.416V96.4162ZM216.169 98.4268L198.245 76.4578L193.493 80.5316L211.417 102.501L216.169 98.4268ZM192.881 78.7692V102.385L198.856 101.836V78.2202L192.881 78.7692ZM195.869 99.1107L185.974 100.02V106.02L195.869 105.111V99.1107ZM188.962 102.745V52.3454L182.987 52.8944V103.294L188.962 102.745ZM185.974 55.6199L195.869 54.7107V48.7107L185.974 49.6199V55.6199ZM192.881 51.9852V74.2332L198.856 73.6842V51.4362L192.881 51.9852ZM198.228 75.5821L215.435 51.753L210.717 48.5061L193.509 72.3353L198.228 75.5821ZM213.076 53.1296L224.476 52.082V46.082L213.076 47.1296V53.1296ZM222.1 47.4825L203.53 73.6688L208.283 76.8679L226.852 50.6816L222.1 47.4825ZM203.513 77.284L222.8 101.432L227.586 97.4005L208.299 73.2528L203.513 77.284ZM268.044 88.9267L270.147 90.8649L270.152 90.8594L270.157 90.8539L268.044 88.9267ZM231.048 92.3262L228.926 94.6324L228.936 94.6416L228.946 94.6507L231.048 92.3262ZM231.048 55.1022L228.936 53.1749L231.048 55.1022ZM268.044 51.7027L265.932 54.0181L265.937 54.0227L265.942 54.0272L268.044 51.7027ZM238.003 84.9191L235.89 87.2345L235.899 87.242L235.907 87.2494L238.003 84.9191ZM261.09 82.7977L263.186 84.7428L263.194 84.7339L263.202 84.7249L261.09 82.7977ZM261.09 59.0377L263.202 56.7223V56.7223L261.09 59.0377ZM238.003 61.1591L235.89 59.2319V59.2319L238.003 61.1591ZM265.942 86.9885C261.446 91.8736 256.041 94.5897 249.546 95.1864V101.186C257.583 100.448 264.509 96.9909 270.147 90.8649L265.942 86.9885ZM249.546 95.1864C243.052 95.7832 237.646 94.0605 233.151 90.0016L228.946 94.6507C234.584 99.7407 241.51 101.925 249.546 101.186V95.1864ZM233.171 90.0199C228.721 85.9183 226.507 80.6712 226.507 74.0954L220.532 74.6444C220.532 82.7566 223.337 89.4804 228.926 94.6324L233.171 90.0199ZM226.507 74.0954C226.507 67.52 228.721 61.8959 233.161 57.0294L228.936 53.1749C223.338 59.3107 220.532 66.5318 220.532 74.6444L226.507 74.0954ZM233.161 57.0294C237.658 52.0995 243.061 49.3664 249.546 48.7704V42.7704C241.501 43.5097 234.571 46.9977 228.936 53.1749L233.161 57.0294ZM249.546 48.7704C256.032 48.1745 261.434 49.9148 265.932 54.0181L270.157 49.3873C264.521 44.2457 257.592 42.0312 249.546 42.7704V48.7704ZM265.942 54.0272C270.426 58.0759 272.657 63.2886 272.657 69.8549L278.632 69.3058C278.632 61.1841 275.796 54.4784 270.147 49.3782L265.942 54.0272ZM272.657 69.8549C272.657 76.4216 270.425 82.0741 265.932 86.9995L270.157 90.8539C275.796 84.6722 278.632 77.4271 278.632 69.3058L272.657 69.8549ZM235.907 87.2494C239.604 90.5656 244.219 91.9559 249.546 91.4664V85.4664C245.696 85.8202 242.615 84.8457 240.099 82.5888L235.907 87.2494ZM249.546 91.4664C254.874 90.9769 259.488 88.7385 263.186 84.7428L258.994 80.8526C256.477 83.572 253.396 85.1127 249.546 85.4664V91.4664ZM263.202 84.7249C266.921 80.6484 268.737 75.7336 268.737 70.215L262.763 70.764C262.763 74.8454 261.472 78.1361 258.977 80.8705L263.202 84.7249ZM268.737 70.215C268.737 64.6964 266.921 60.1154 263.202 56.7223L258.977 61.3532C261.472 63.6291 262.763 66.6826 262.763 70.764L268.737 70.215ZM263.202 56.7223C259.508 53.3519 254.888 51.9276 249.546 52.4184V58.4184C253.382 58.066 256.458 59.0545 258.977 61.3532L263.202 56.7223ZM249.546 52.4184C244.204 52.9093 239.585 55.1826 235.89 59.2319L240.115 63.0863C242.635 60.3246 245.711 58.7709 249.546 58.4184V52.4184ZM235.89 59.2319C232.171 63.3085 230.355 68.2232 230.355 73.7418L236.33 73.1928C236.33 69.1114 237.621 65.8207 240.115 63.0863L235.89 59.2319ZM230.355 73.7418C230.355 79.2604 232.171 83.8414 235.89 87.2345L240.115 82.6037C237.621 80.3278 236.33 77.2742 236.33 73.1928L230.355 73.7418ZM292.493 83.7282L289.505 84.0027V87.0027L292.493 86.7282V83.7282ZM313.644 81.7847L316.631 81.5102V78.5102L313.644 78.7847V81.7847ZM313.644 91.2887V94.2887L316.631 94.0142V91.0142L313.644 91.2887ZM282.598 94.1414L279.611 94.4159V97.4159L282.598 97.1414V94.1414ZM282.598 43.7413V40.7413L279.611 41.0159V44.0159L282.598 43.7413ZM313.285 40.9216L316.273 40.6471V37.6471L313.285 37.9216V40.9216ZM313.285 50.4256V53.4256L316.273 53.1511V50.1511L313.285 50.4256ZM292.493 52.3362V49.3362L289.505 49.6107V52.6107L292.493 52.3362ZM292.493 63.0642L289.505 63.3387V66.3387L292.493 66.0642V63.0642ZM311.493 61.3183L314.48 61.0438V58.0438L311.493 58.3183V61.3183ZM311.493 70.6783V73.6783L314.48 73.4038V70.4038L311.493 70.6783ZM292.493 72.4242V69.4242L289.505 69.6987V72.6987L292.493 72.4242ZM292.493 86.7282L313.644 84.7847V78.7847L292.493 80.7282V86.7282ZM310.656 82.0592V91.5632L316.631 91.0142V81.5102L310.656 82.0592ZM313.644 88.2887L282.598 91.1414V97.1414L313.644 94.2887V88.2887ZM285.586 93.8668V43.4668L279.611 44.0159V94.4159L285.586 93.8668ZM282.598 46.7413L313.285 43.9216V37.9216L282.598 40.7413V46.7413ZM310.298 41.1961V50.7001L316.273 50.1511V40.6471L310.298 41.1961ZM313.285 47.4256L292.493 49.3362V55.3362L313.285 53.4256V47.4256ZM289.505 52.6107V63.3387L295.48 62.7897V52.0617L289.505 52.6107ZM292.493 66.0642L311.493 64.3183V58.3183L292.493 60.0642V66.0642ZM308.505 61.5928V70.9528L314.48 70.4038V61.0438L308.505 61.5928ZM311.493 67.6783L292.493 69.4242V75.4242L311.493 73.6783V67.6783ZM289.505 72.6987V84.0027L295.48 83.4537V72.1497L289.505 72.6987ZM376.04 35.1552L379.028 34.8807V31.8807L376.04 32.1552V35.1552ZM376.04 85.5552V88.5552L379.028 88.2807V85.2807L376.04 85.5552ZM366.146 86.4644L363.159 86.7389V89.7389L366.146 89.4644V86.4644ZM366.146 45.5684L369.134 45.2939V42.2939L366.146 42.5684V45.5684ZM348.437 47.1957V44.1957L345.449 44.4702V47.4702L348.437 47.1957ZM348.437 88.0917V91.0917L351.424 90.8172V87.8172L348.437 88.0917ZM338.542 89.0008L335.555 89.2753V92.2753L338.542 92.0008V89.0008ZM338.542 38.6008V35.6008L335.555 35.8753V38.8753L338.542 38.6008ZM373.053 35.4297V85.8297L379.028 85.2807V34.8807L373.053 35.4297ZM376.04 82.5552L366.146 83.4644V89.4644L376.04 88.5552V82.5552ZM369.134 86.1899V45.2939L363.159 45.8429V86.7389L369.134 86.1899ZM366.146 42.5684L348.437 44.1957V50.1957L366.146 48.5684V42.5684ZM345.449 47.4702V88.3662L351.424 87.8172V46.9212L345.449 47.4702ZM348.437 85.0917L338.542 86.0008V92.0008L348.437 91.0917V85.0917ZM341.53 88.7263V38.3263L335.555 38.8753V89.2753L341.53 88.7263ZM338.542 41.6008L376.04 38.1552V32.1552L338.542 35.6008V41.6008ZM381.512 85.0524L378.525 85.3269V88.0572L381.232 88.065L381.512 85.0524ZM381.512 75.8364L381.942 72.8281L378.525 72.644V76.1109L381.512 75.8364ZM388.18 73.4237L385.973 71.6053L388.18 73.4237ZM390.403 33.8355V30.8355L387.416 31.11V34.11L390.403 33.8355ZM424.531 30.6996L427.519 30.425V27.425L424.531 27.6996V30.6996ZM424.531 81.0996V84.0996L427.519 83.8251V80.8251L424.531 81.0996ZM414.709 82.0021L411.721 82.2766V85.2766L414.709 85.0021V82.0021ZM414.709 41.1061L417.696 40.8316V37.8316L414.709 38.1061V41.1061ZM400.226 42.4369V39.4369L397.238 39.7114V42.7114L400.226 42.4369ZM398.648 73.6139L395.833 72.8693L398.648 73.6139ZM394.275 80.6397L392.453 78.4292L392.438 78.4421L392.424 78.4552L394.275 80.6397ZM388.396 84.06L387.733 81.1954L387.726 81.1977L387.719 81.2001L388.396 84.06ZM384.5 84.7779V75.5619L378.525 76.1109V85.3269L384.5 84.7779ZM381.083 78.8447C384.639 79.0363 388.011 78.0785 390.388 75.2421L385.973 71.6053C385.386 72.3053 384.313 72.9559 381.942 72.8281L381.083 78.8447ZM390.388 75.2421C391.6 73.7957 392.322 71.9775 392.757 70.0662C393.197 68.1314 393.39 65.8814 393.39 63.369L387.416 63.918C387.416 66.1576 387.239 67.9137 386.938 69.2389C386.631 70.5876 386.242 71.2836 385.973 71.6053L390.388 75.2421ZM393.39 63.369V33.561L387.416 34.11V63.918L393.39 63.369ZM390.403 36.8355L424.531 33.6996V27.6996L390.403 30.8355V36.8355ZM421.544 30.9741V81.3741L427.519 80.8251V30.425L421.544 30.9741ZM424.531 78.0996L414.709 79.0021V85.0021L424.531 84.0996V78.0996ZM417.696 81.7276V40.8316L411.721 41.3806V82.2766L417.696 81.7276ZM414.709 38.1061L400.226 39.4369V45.4369L414.709 44.1061V38.1061ZM397.238 42.7114V62.7274L403.213 62.1784V42.1624L397.238 42.7114ZM397.238 62.7274C397.238 66.875 396.736 70.2298 395.833 72.8693L401.464 74.3584C402.664 70.8527 403.213 66.7669 403.213 62.1784L397.238 62.7274ZM395.833 72.8693C394.91 75.5645 393.731 77.3247 392.453 78.4292L396.096 82.8502C398.547 80.7322 400.283 77.8085 401.464 74.3584L395.833 72.8693ZM392.424 78.4552C390.93 79.7762 389.372 80.671 387.733 81.1954L389.058 86.9245C391.626 86.1025 393.986 84.7171 396.126 82.8243L392.424 78.4552ZM387.719 81.2001C386.034 81.7484 384.07 82.0464 381.793 82.0399L381.232 88.065C384.022 88.0729 386.646 87.7092 389.072 86.9198L387.719 81.2001ZM466.1 77.2799L463.266 78.489L463.947 80.4777L466.1 80.2799V77.2799ZM463.089 68.4846L465.923 67.2755L465.242 65.2867L463.089 65.4846V68.4846ZM443.085 70.3227V67.3227L440.932 67.5205L440.251 69.6344L443.085 70.3227ZM440.074 79.6714V82.6714L442.227 82.4735L442.908 80.3596L440.074 79.6714ZM429.391 80.653L426.571 79.921L425.18 84.0399L429.391 83.653V80.653ZM446.957 28.6389V25.6389L444.838 25.8337L444.137 27.907L446.957 28.6389ZM459.217 27.5123L462.036 26.2587L461.334 24.3179L459.217 24.5123V27.5123ZM476.855 76.2917V79.2917L481.071 78.9042L479.674 75.038L476.855 76.2917ZM446.24 60.7448L443.408 60.0504L442.086 64.1265L446.24 63.7448V60.7448ZM460.006 59.4799V62.4799L464.16 62.0982L462.838 58.265L460.006 59.4799ZM453.123 39.5203L455.955 38.3055L453.123 30.0928L450.291 38.8259L453.123 39.5203ZM468.935 76.0708L465.923 67.2755L460.255 69.6937L463.266 78.489L468.935 76.0708ZM463.089 65.4846L443.085 67.3227V73.3227L463.089 71.4846V65.4846ZM440.251 69.6344L437.24 78.9831L442.908 80.3596L445.919 71.0109L440.251 69.6344ZM440.074 76.6714L429.391 77.653V83.653L440.074 82.6714V76.6714ZM432.211 81.385L449.777 29.3709L444.137 27.907L426.571 79.921L432.211 81.385ZM446.957 31.6389L459.217 30.5123V24.5123L446.957 25.6389V31.6389ZM456.399 28.766L474.037 77.5453L479.674 75.038L462.036 26.2587L456.399 28.766ZM476.855 73.2917L466.1 74.2799V80.2799L476.855 79.2917V73.2917ZM446.24 63.7448L460.006 62.4799V56.4799L446.24 57.7448V63.7448ZM462.838 58.265L455.955 38.3055L450.291 40.7352L457.174 60.6948L462.838 58.265ZM450.291 38.8259L443.408 60.0504L449.072 61.4392L455.955 40.2148L450.291 38.8259ZM511.284 22.7281L514.271 22.4536V19.4536L511.284 19.7281V22.7281ZM511.284 32.2321V35.2321L514.271 34.9576V31.9576L511.284 32.2321ZM497.733 33.4773V30.4773L494.745 30.7518V33.7518L497.733 33.4773ZM497.733 74.3733V77.3733L500.72 77.0988V74.0988L497.733 74.3733ZM487.838 75.2825L484.851 75.557V78.557L487.838 78.2825V75.2825ZM487.838 34.3865L490.826 34.1119V31.1119L487.838 31.3865V34.3865ZM474.359 35.625L471.372 35.8995V38.8995L474.359 38.625V35.625ZM474.359 26.121V23.121L471.372 23.3955V26.3955L474.359 26.121ZM508.296 23.0026V32.5066L514.271 31.9576V22.4536L508.296 23.0026ZM511.284 29.2321L497.733 30.4773V36.4773L511.284 35.2321V29.2321ZM494.745 33.7518V74.6478L500.72 74.0988V33.2028L494.745 33.7518ZM497.733 71.3733L487.838 72.2825V78.2825L497.733 77.3733V71.3733ZM490.826 75.0079V34.1119L484.851 34.661V75.557L490.826 75.0079ZM487.838 31.3865L474.359 32.625V38.625L487.838 37.3865V31.3865ZM477.347 35.3505V25.8465L471.372 26.3955V35.8995L477.347 35.3505ZM474.359 29.121L511.284 25.7281V19.7281L474.359 23.121V29.121ZM547.709 40.8371L545.612 43.1665L547.709 40.8371ZM547.709 64.8851L549.806 66.8292L547.709 64.8851ZM516.807 72.6206L513.82 72.8951V75.8951L516.807 75.6206V72.6206ZM516.807 22.2206V19.2206L513.82 19.4951V22.4951L516.807 22.2206ZM526.701 21.3114L529.689 21.0369V18.0369L526.701 18.3114V21.3114ZM526.701 37.8714L523.714 38.1459V41.1459L526.701 40.8714V37.8714ZM540.754 48.1002L538.573 50.3501L538.589 50.3665L538.606 50.3826L540.754 48.1002ZM526.701 47.1594V44.1594L523.714 44.4339V47.4339L526.701 47.1594ZM526.701 62.4234L523.714 62.6979V65.6979L526.701 65.4234V62.4234ZM535.52 40.0611C539.6 39.6862 542.899 40.7307 545.612 43.1665L549.806 38.5077C545.923 35.0217 541.096 33.5488 535.52 34.0611V40.0611ZM545.612 43.1665C548.326 45.6036 549.669 48.7125 549.669 52.681L555.643 52.132C555.643 46.5966 553.688 41.9926 549.806 38.5077L545.612 43.1665ZM549.669 52.681C549.669 56.6496 548.326 60.0052 545.612 62.9411L549.806 66.8292C553.688 62.631 555.643 57.6675 555.643 52.132L549.669 52.681ZM545.612 62.9411C542.899 65.8755 539.6 67.5262 535.52 67.9011V73.9011C541.096 73.3888 545.923 71.0288 549.806 66.8292L545.612 62.9411ZM535.52 67.9011L516.807 69.6206V75.6206L535.52 73.9011V67.9011ZM519.794 72.3461V21.9461L513.82 22.4951V72.8951L519.794 72.3461ZM516.807 25.2206L526.701 24.3114V18.3114L516.807 19.2206V25.2206ZM523.714 21.5859V38.1459L529.689 37.5969V21.0369L523.714 21.5859ZM526.701 40.8714L535.52 40.0611V34.0611L526.701 34.8714V40.8714ZM535.52 64.6131C538.384 64.35 540.92 63.1015 542.902 60.8599L538.606 57.0845C537.816 57.9776 536.863 58.4897 535.52 58.6131V64.6131ZM542.902 60.8599C544.884 58.6187 545.821 55.9336 545.821 53.0346L539.846 53.5836C539.846 55.1006 539.397 56.1909 538.606 57.0845L542.902 60.8599ZM545.821 53.0346C545.821 50.1637 544.872 47.6826 542.902 45.8177L538.606 50.3826C539.409 51.143 539.846 52.1346 539.846 53.5836L545.821 53.0346ZM542.936 45.8502C540.962 43.9127 538.416 43.083 535.52 43.3491V49.3491C536.831 49.2287 537.774 49.5664 538.573 50.3501L542.936 45.8502ZM535.52 43.3491L526.701 44.1594V50.1594L535.52 49.3491V43.3491ZM523.714 47.4339V62.6979L529.689 62.1489V46.8849L523.714 47.4339ZM526.701 65.4234L535.52 64.6131V58.6131L526.701 59.4234V65.4234ZM568.992 58.3215L566.005 58.596V61.596L568.992 61.3215V58.3215ZM590.143 56.378L593.13 56.1035V53.1035L590.143 53.378V56.378ZM590.143 65.882V68.882L593.13 68.6075V65.6075L590.143 65.882ZM559.098 68.7346L556.11 69.0091V72.0091L559.098 71.7346V68.7346ZM559.098 18.3346V15.3346L556.11 15.6091V18.6091L559.098 18.3346ZM589.784 15.5149L592.772 15.2404V12.2404L589.784 12.5149V15.5149ZM589.784 25.0189V28.0189L592.772 27.7444V24.7444L589.784 25.0189ZM568.992 26.9295V23.9295L566.005 24.204V27.204L568.992 26.9295ZM568.992 37.6575L566.005 37.932V40.932L568.992 40.6575V37.6575ZM587.992 35.9116L590.979 35.6371V32.6371L587.992 32.9116V35.9116ZM587.992 45.2716V48.2716L590.979 47.9971V44.9971L587.992 45.2716ZM568.992 47.0175V44.0175L566.005 44.292V47.292L568.992 47.0175ZM568.992 61.3215L590.143 59.378V53.378L568.992 55.3215V61.3215ZM587.155 56.6525V66.1565L593.13 65.6075V56.1035L587.155 56.6525ZM590.143 62.882L559.098 65.7346V71.7346L590.143 68.882V62.882ZM562.085 68.4601V18.0601L556.11 18.6091V69.0091L562.085 68.4601ZM559.098 21.3346L589.784 18.5149V12.5149L559.098 15.3346V21.3346ZM586.797 15.7894V25.2934L592.772 24.7444V15.2404L586.797 15.7894ZM589.784 22.0189L568.992 23.9295V29.9295L589.784 28.0189V22.0189ZM566.005 27.204V37.932L571.979 37.383V26.655L566.005 27.204ZM568.992 40.6575L587.992 38.9116V32.9116L568.992 34.6575V40.6575ZM585.005 36.1861V45.5461L590.979 44.9971V35.6371L585.005 36.1861ZM587.992 42.2716L568.992 44.0175V50.0175L587.992 48.2716V42.2716ZM566.005 47.292V58.596L571.979 58.047V46.743L566.005 47.292ZM114.249 147.242L116.382 144.946L114.249 147.242ZM114.249 122.378L116.372 124.294L116.377 124.289L116.382 124.283L114.249 122.378ZM135.09 117.584L133.625 120.333L133.644 120.342L133.664 120.351L135.09 117.584ZM141.112 122.79L142.611 125.248L145.219 123.489L143.683 121.025L141.112 122.79ZM135.424 126.625L132.81 128.317L134.286 130.86L136.923 129.082L135.424 126.625ZM131.887 123.446L130.422 126.195L130.443 126.205L130.464 126.214L131.887 123.446ZM118.838 126.421L116.709 124.512L116.701 124.521L116.692 124.531L118.838 126.421ZM118.838 142.309L116.692 144.593L116.701 144.601L116.709 144.609L118.838 142.309ZM131.887 142.934L133.31 145.441L133.319 145.435L133.329 145.429L131.887 142.934ZM135.424 139.105L136.923 136.372L134.266 135.069L132.799 137.913L135.424 139.105ZM141.112 141.894L143.683 143.186L145.219 140.44L142.611 139.161L141.112 141.894ZM135.137 148.251L136.577 150.747L136.59 150.739L136.602 150.731L135.137 148.251ZM126.725 148.136C122.426 148.531 119.058 147.439 116.382 144.946L112.117 149.539C116.005 153.163 120.954 154.666 126.725 154.136V148.136ZM116.382 144.946C113.676 142.424 112.314 139.172 112.314 134.988L106.339 135.537C106.339 141.21 108.259 145.944 112.117 149.539L116.382 144.946ZM112.314 134.988C112.314 130.767 113.679 127.272 116.372 124.294L112.127 120.462C108.255 124.744 106.339 129.838 106.339 135.537L112.314 134.988ZM116.382 124.283C119.058 121.298 122.426 119.587 126.725 119.192V113.192C120.954 113.722 116.005 116.135 112.117 120.474L116.382 124.283ZM126.725 119.192C129.258 118.959 131.539 119.346 133.625 120.333L136.554 114.834C133.542 113.409 130.246 112.869 126.725 113.192V119.192ZM133.664 120.351C135.792 121.316 137.395 122.715 138.542 124.555L143.683 121.025C141.962 118.264 139.549 116.192 136.516 114.816L133.664 120.351ZM139.614 120.333L133.926 124.167L136.923 129.082L142.611 125.248L139.614 120.333ZM138.038 124.932C136.929 123.02 135.333 121.591 133.31 120.677L130.464 126.214C131.501 126.683 132.263 127.373 132.81 128.317L138.038 124.932ZM133.352 120.696C131.336 119.743 129.103 119.406 126.725 119.624V125.624C128.171 125.491 129.379 125.702 130.422 126.195L133.352 120.696ZM126.725 119.624C122.793 119.985 119.356 121.568 116.709 124.512L120.967 128.33C122.335 126.809 124.156 125.86 126.725 125.624V119.624ZM116.692 124.531C114.098 127.458 112.887 131.014 112.887 134.936L118.862 134.387C118.862 131.78 119.627 129.842 120.984 128.311L116.692 124.531ZM112.887 134.936C112.887 138.834 114.103 142.148 116.692 144.593L120.984 140.024C119.621 138.737 118.862 136.952 118.862 134.387L112.887 134.936ZM116.709 144.609C119.356 147.066 122.793 148.017 126.725 147.656V141.656C124.156 141.892 122.335 141.278 120.967 140.009L116.709 144.609ZM126.725 147.656C129.083 147.439 131.301 146.718 133.31 145.441L130.464 140.427C129.414 141.095 128.19 141.521 126.725 141.656V147.656ZM133.329 145.429C135.354 144.122 136.961 142.407 138.049 140.296L132.799 137.913C132.294 138.893 131.543 139.731 130.445 140.439L133.329 145.429ZM133.926 141.838L139.614 144.627L142.611 139.161L136.923 136.372L133.926 141.838ZM138.542 140.602C137.386 142.669 135.784 144.385 133.673 145.771L136.602 150.731C139.59 148.769 141.971 146.247 143.683 143.186L138.542 140.602ZM133.698 145.755C131.612 147.098 129.307 147.899 126.725 148.136V154.136C130.261 153.811 133.564 152.689 136.577 150.747L133.698 145.755ZM151.761 141.828L148.773 142.102V145.102L151.761 144.828V141.828ZM165.861 140.532L168.849 140.258V137.258L165.861 137.532V140.532ZM165.861 146.868V149.868L168.849 149.594V146.594L165.861 146.868ZM145.164 148.77L142.177 149.044V152.044L145.164 151.77V148.77ZM145.164 115.17V112.17L142.177 112.444V115.444L145.164 115.17ZM165.622 113.29L168.61 113.015V110.015L165.622 110.29V113.29ZM165.622 119.626V122.626L168.61 122.351V119.351L165.622 119.626ZM151.761 120.9V117.9L148.773 118.174V121.174L151.761 120.9ZM151.761 128.052L148.773 128.326V131.326L151.761 131.052V128.052ZM164.427 126.888L167.415 126.613V123.613L164.427 123.888V126.888ZM164.427 133.128V136.128L167.415 135.853V132.853L164.427 133.128ZM151.761 134.292V131.292L148.773 131.566V134.566L151.761 134.292ZM151.761 144.828L165.861 143.532V137.532L151.761 138.828V144.828ZM162.874 140.807V147.143L168.849 146.594V140.258L162.874 140.807ZM165.861 143.868L145.164 145.77V151.77L165.861 149.868V143.868ZM148.152 148.495V114.895L142.177 115.444V149.044L148.152 148.495ZM145.164 118.17L165.622 116.29V110.29L145.164 112.17V118.17ZM162.635 113.564V119.9L168.61 119.351V113.015L162.635 113.564ZM165.622 116.626L151.761 117.9V123.9L165.622 122.626V116.626ZM148.773 121.174V128.326L154.748 127.777V120.625L148.773 121.174ZM151.761 131.052L164.427 129.888V123.888L151.761 125.052V131.052ZM161.44 127.162V133.402L167.415 132.853V126.613L161.44 127.162ZM164.427 130.128L151.761 131.292V137.292L164.427 136.128V130.128ZM148.773 134.566V142.102L154.748 141.553V134.017L148.773 134.566ZM189.535 111.093L192.522 110.818V107.818L189.535 108.093V111.093ZM189.535 117.429V120.429L192.522 120.154V117.154L189.535 117.429ZM177.107 118.571V115.571L174.119 115.845V118.845L177.107 118.571ZM177.107 145.835V148.835L180.094 148.56V145.56L177.107 145.835ZM170.511 146.441L167.523 146.715V149.715L170.511 149.441V146.441ZM170.511 112.841V109.841L167.523 110.115V113.115L170.511 112.841ZM186.547 111.367V117.703L192.522 117.154V110.818L186.547 111.367ZM189.535 114.429L177.107 115.571V121.571L189.535 120.429V114.429ZM174.119 118.845V146.109L180.094 145.56V118.296L174.119 118.845ZM177.107 142.835L170.511 143.441V149.441L177.107 148.835V142.835ZM173.498 146.166V112.566L167.523 113.115V146.715L173.498 146.166ZM170.511 115.841L189.535 114.093V108.093L170.511 109.841V115.841ZM219.296 137.59L221.398 139.528L221.403 139.523L221.408 139.517L219.296 137.59ZM194.632 139.856L192.509 142.163L192.519 142.172L192.529 142.181L194.632 139.856ZM194.632 115.04L192.519 113.113L194.632 115.04ZM219.296 112.774L217.183 115.089L217.188 115.094L217.193 115.099L219.296 112.774ZM199.268 134.918L197.156 137.234L197.164 137.241L197.172 137.249L199.268 134.918ZM214.659 133.504L216.755 135.449L216.764 135.44L216.772 135.431L214.659 133.504ZM214.659 117.664L216.772 115.349L216.772 115.349L214.659 117.664ZM199.268 119.078L197.156 117.151L199.268 119.078ZM217.193 135.652C214.387 138.702 211.037 140.389 206.964 140.763V146.763C212.578 146.247 217.449 143.819 221.398 139.528L217.193 135.652ZM206.964 140.763C202.891 141.137 199.541 140.066 196.734 137.532L192.529 142.181C196.478 145.746 201.349 147.279 206.964 146.763V140.763ZM196.754 137.55C193.978 134.991 192.6 131.739 192.6 127.611L186.626 128.16C186.626 133.824 188.594 138.553 192.509 142.163L196.754 137.55ZM192.6 127.611C192.6 123.484 193.977 120 196.744 116.968L192.519 113.113C188.594 117.415 186.626 122.495 186.626 128.16L192.6 127.611ZM196.744 116.968C199.553 113.889 202.9 112.193 206.964 111.819V105.819C201.34 106.336 196.466 108.787 192.519 113.113L196.744 116.968ZM206.964 111.819C211.028 111.446 214.375 112.527 217.183 115.089L221.408 110.459C217.462 106.858 212.587 105.302 206.964 105.819V111.819ZM217.193 115.099C219.989 117.622 221.375 120.849 221.375 124.967L227.35 124.418C227.35 118.744 225.358 114.025 221.398 110.45L217.193 115.099ZM221.375 124.967C221.375 129.086 219.988 132.589 217.183 135.663L221.408 139.517C225.359 135.187 227.35 130.091 227.35 124.418L221.375 124.967ZM197.172 137.249C199.834 139.636 203.166 140.632 206.964 140.283V134.283C204.643 134.496 202.845 133.916 201.364 132.588L197.172 137.249ZM206.964 140.283C210.762 139.934 214.094 138.326 216.755 135.449L212.563 131.559C211.083 133.159 209.284 134.07 206.964 134.283V140.283ZM216.772 135.431C219.455 132.49 220.754 128.943 220.754 125.024L214.779 125.573C214.779 128.054 214.006 129.978 212.547 131.577L216.772 135.431ZM220.754 125.024C220.754 121.105 219.455 117.797 216.772 115.349L212.547 119.979C214.006 121.311 214.779 123.092 214.779 125.573L220.754 125.024ZM216.772 115.349C214.113 112.923 210.776 111.901 206.964 112.251V118.251C209.27 118.039 211.063 118.626 212.547 119.979L216.772 115.349ZM206.964 112.251C203.152 112.601 199.814 114.237 197.156 117.151L201.381 121.006C202.865 119.379 204.658 118.463 206.964 118.251V112.251ZM197.156 117.151C194.472 120.093 193.174 123.64 193.174 127.558L199.149 127.009C199.149 124.528 199.922 122.605 201.381 121.006L197.156 117.151ZM193.174 127.558C193.174 131.477 194.472 134.785 197.156 137.234L201.381 132.603C199.922 131.272 199.149 129.491 199.149 127.009L193.174 127.558ZM253.221 132.505L250.233 132.779V135.779L253.221 135.505V132.505ZM256.805 132.175L259.793 131.901V128.901L256.805 129.175V132.175ZM256.805 144.943V147.943L259.793 147.669V144.669L256.805 144.943ZM250.209 145.549L247.222 145.824V148.824L250.209 148.549V145.549ZM250.209 139.117L253.197 138.843V135.843L250.209 136.117V139.117ZM231.711 140.817V137.817L228.724 138.092V141.092L231.711 140.817ZM231.711 147.249V150.249L234.699 149.975V146.975L231.711 147.249ZM225.115 147.855L222.128 148.13V151.13L225.115 150.855V147.855ZM225.115 135.087V132.087L222.128 132.362V135.362L225.115 135.087ZM228.365 134.789V137.789L229.9 137.648L230.794 136.312L228.365 134.789ZM231.138 107.27V104.27L228.15 104.544V107.544L231.138 107.27ZM253.221 105.241L256.208 104.966V101.966L253.221 102.241V105.241ZM235.439 134.139L232.853 132.874L230.261 137.615L235.439 137.139V134.139ZM246.624 133.111V136.111L249.612 135.836V132.836L246.624 133.111ZM246.624 112.039L249.612 111.764V108.764L246.624 109.039V112.039ZM237.734 112.856V109.856L234.746 110.13V113.13L237.734 112.856ZM253.221 135.505L256.805 135.175V129.175L253.221 129.505V135.505ZM253.818 132.45V145.218L259.793 144.669V131.901L253.818 132.45ZM256.805 141.943L250.209 142.549V148.549L256.805 147.943V141.943ZM253.197 145.275V138.843L247.222 139.392V145.824L253.197 145.275ZM250.209 136.117L231.711 137.817V143.817L250.209 142.117V136.117ZM228.724 141.092V147.524L234.699 146.975V140.543L228.724 141.092ZM231.711 144.249L225.115 144.855V150.855L231.711 150.249V144.249ZM228.102 147.581V134.813L222.128 135.362V148.13L228.102 147.581ZM225.115 138.087L228.365 137.789V131.789L225.115 132.087V138.087ZM230.794 136.312C233.159 132.779 234.125 128.172 234.125 122.883L228.15 123.432C228.15 128.127 227.268 131.275 225.936 133.265L230.794 136.312ZM234.125 122.883V106.995L228.15 107.544V123.432L234.125 122.883ZM231.138 110.27L253.221 108.241V102.241L231.138 104.27V110.27ZM250.233 105.515V132.779L256.208 132.23V104.966L250.233 105.515ZM235.439 137.139L246.624 136.111V130.111L235.439 131.139V137.139ZM249.612 132.836V111.764L243.637 112.313V133.385L249.612 132.836ZM246.624 109.039L237.734 109.856V115.856L246.624 115.039V109.039ZM234.746 113.13V122.922L240.721 122.373V112.581L234.746 113.13ZM234.746 122.922C234.746 127.539 234.009 130.762 232.853 132.874L238.026 135.403C239.929 131.923 240.721 127.485 240.721 122.373L234.746 122.922ZM280.231 102.759V99.7589L277.243 100.033V103.033L280.231 102.759ZM286.779 102.157L289.766 101.883V98.8827L286.779 99.1572V102.157ZM286.779 135.757V138.757L289.766 138.483V135.483L286.779 135.757ZM280.231 136.359L277.243 136.633V139.633L280.231 139.359V136.359ZM280.231 122.439L283.218 122.164V119.164L280.231 119.439V122.439ZM267.803 123.581V120.581L264.815 120.855V123.855L267.803 123.581ZM267.803 137.501V140.501L270.79 140.226V137.226L267.803 137.501ZM261.207 138.107L258.219 138.381V141.381L261.207 141.107V138.107ZM261.207 104.507V101.507L258.219 101.781V104.781L261.207 104.507ZM267.803 103.901L270.79 103.626V100.626L267.803 100.901V103.901ZM267.803 117.245L264.815 117.519V120.519L267.803 120.245V117.245ZM280.231 116.103V119.103L283.218 118.828V115.828L280.231 116.103ZM280.231 105.759L286.779 105.157V99.1572L280.231 99.7589V105.759ZM283.792 102.432V136.032L289.766 135.483V101.883L283.792 102.432ZM286.779 132.757L280.231 133.359V139.359L286.779 138.757V132.757ZM283.218 136.084V122.164L277.243 122.713V136.633L283.218 136.084ZM280.231 119.439L267.803 120.581V126.581L280.231 125.439V119.439ZM264.815 123.855V137.775L270.79 137.226V123.306L264.815 123.855ZM267.803 134.501L261.207 135.107V141.107L267.803 140.501V134.501ZM264.194 137.832V104.232L258.219 104.781V138.381L264.194 137.832ZM261.207 107.507L267.803 106.901V100.901L261.207 101.507V107.507ZM264.815 104.175V117.519L270.79 116.97V103.626L264.815 104.175ZM267.803 120.245L280.231 119.103V113.103L267.803 114.245V120.245ZM283.218 115.828V102.484L277.243 103.033V116.377L283.218 115.828ZM316.607 99.4164L319.595 99.1419V96.1419L316.607 96.4164V99.4164ZM316.607 133.016V136.016L319.595 135.742V132.742L316.607 133.016ZM310.011 133.622L307.024 133.897V136.897L310.011 136.622V133.622ZM310.011 121.958L312.998 121.684V118.684L310.011 118.958V121.958ZM306.235 122.305V119.305L304.631 119.453L303.744 120.877L306.235 122.305ZM298.539 134.677V137.677L300.144 137.529L301.03 136.105L298.539 134.677ZM291.131 135.357L288.64 133.929L285.566 138.869L291.131 138.357V135.357ZM299.304 122.222L301.794 123.651L303.9 120.267L300.312 119.305L299.304 122.222ZM294.094 118.765L291.674 120.747L294.094 118.765ZM310.011 116.15V119.15L312.998 118.876V115.876L310.011 116.15ZM310.011 106.214L312.998 105.94V102.94L310.011 103.214V106.214ZM300.021 108.572L302.205 110.419L300.021 108.572ZM300.021 115.628L297.804 117.843L297.82 117.86L297.837 117.876L300.021 115.628ZM313.62 99.6909V133.291L319.595 132.742V99.1419L313.62 99.6909ZM316.607 130.016L310.011 130.622V136.622L316.607 136.016V130.016ZM312.998 133.348V121.684L307.024 122.233V133.897L312.998 133.348ZM310.011 118.958L306.235 119.305V125.305L310.011 124.958V118.958ZM303.744 120.877L296.049 133.248L301.03 136.105L308.725 123.734L303.744 120.877ZM298.539 131.677L291.131 132.357V138.357L298.539 137.677V131.677ZM293.621 136.786L301.794 123.651L296.814 120.794L288.64 133.929L293.621 136.786ZM300.312 119.305C298.747 118.886 297.501 118.062 296.514 116.783L291.674 120.747C293.364 122.934 295.591 124.415 298.297 125.139L300.312 119.305ZM296.514 116.783C295.535 115.516 295.074 114.124 295.074 112.531L289.099 113.08C289.099 115.967 289.976 118.548 291.674 120.747L296.514 116.783ZM295.074 112.531C295.074 110.256 295.841 108.324 297.449 106.562L293.224 102.708C290.498 105.696 289.099 109.211 289.099 113.08L295.074 112.531ZM297.449 106.562C299.05 104.807 300.917 103.858 303.224 103.646V97.6462C299.348 98.0023 295.957 99.7125 293.224 102.708L297.449 106.562ZM303.224 103.646L316.607 102.416V96.4164L303.224 97.6462V103.646ZM303.224 119.774L310.011 119.15V113.15L303.224 113.774V119.774ZM312.998 115.876V105.94L307.024 106.489V116.425L312.998 115.876ZM310.011 103.214L303.224 103.838V109.838L310.011 109.214V103.214ZM303.224 103.838C301.105 104.033 299.261 105.063 297.837 106.726L302.205 110.419C302.565 109.998 302.856 109.872 303.224 109.838V103.838ZM297.837 106.726C296.402 108.402 295.695 110.378 295.695 112.474L301.67 111.925C301.67 111.269 301.856 110.827 302.205 110.419L297.837 106.726ZM295.695 112.474C295.695 114.569 296.4 116.411 297.804 117.843L302.238 113.414C301.857 113.026 301.67 112.582 301.67 111.925L295.695 112.474ZM297.837 117.876C299.261 119.277 301.105 119.969 303.224 119.774V113.774C302.856 113.808 302.565 113.735 302.205 113.381L297.837 117.876ZM354.991 112.065L353.12 109.898L349.713 112.959L353.499 114.802L354.991 112.065ZM356.377 126.626L354.372 124.586L356.377 126.626ZM334.772 131.347L331.784 131.622V134.622L334.772 134.347V131.347ZM334.772 97.7473V94.7473L331.784 95.0218V98.0218L334.772 97.7473ZM355.182 98.5599L353.161 100.955L353.18 100.971L353.199 100.986L355.182 98.5599ZM341.368 103.333V100.333L338.381 100.608V103.608L341.368 103.333ZM341.368 110.725L338.381 111V114L341.368 113.725V110.725ZM350.498 108.83L348.385 106.903L348.361 106.93L348.337 106.957L350.498 108.83ZM351.74 122.492L353.853 124.419L353.875 124.395L353.897 124.37L351.74 122.492ZM351.74 116.828L349.583 119.102L349.605 119.123L349.628 119.144L351.74 116.828ZM341.368 116.629V113.629L338.381 113.904V116.904L341.368 116.629ZM341.368 124.549L338.381 124.824V127.824L341.368 127.549V124.549ZM353.499 114.802C355.496 115.774 356.401 117.254 356.401 119.616L362.375 119.067C362.375 114.58 360.348 111.21 356.482 109.329L353.499 114.802ZM356.401 119.616C356.401 121.662 355.721 123.236 354.372 124.586L358.381 128.667C361.047 125.999 362.375 122.717 362.375 119.067L356.401 119.616ZM354.372 124.586C352.962 125.997 351.226 126.835 348.968 127.043V133.043C352.574 132.712 355.777 131.272 358.381 128.667L354.372 124.586ZM348.968 127.043L334.772 128.347V134.347L348.968 133.043V127.043ZM337.759 131.073V97.4728L331.784 98.0218V131.622L337.759 131.073ZM334.772 100.747L347.964 99.5351V93.5351L334.772 94.7473V100.747ZM347.964 99.5351C350.155 99.3338 351.819 99.841 353.161 100.955L357.202 96.1643C354.657 94.0519 351.51 93.2093 347.964 93.5351V99.5351ZM353.199 100.986C354.509 102.033 355.158 103.399 355.158 105.33L361.133 104.781C361.133 101.208 359.806 98.2441 357.164 96.1335L353.199 100.986ZM355.158 105.33C355.158 107.234 354.495 108.663 353.12 109.898L356.861 114.233C359.693 111.689 361.133 108.445 361.133 104.781L355.158 105.33ZM347.964 99.7271L341.368 100.333V106.333L347.964 105.727V99.7271ZM338.381 103.608V111L344.355 110.451V103.059L338.381 103.608ZM341.368 113.725L347.964 113.119V107.119L341.368 107.725V113.725ZM347.964 113.119C349.753 112.955 351.393 112.15 352.658 110.703L348.337 106.957C348.271 107.032 348.233 107.053 348.217 107.061C348.197 107.071 348.126 107.104 347.964 107.119V113.119ZM352.61 110.758C353.908 109.335 354.536 107.617 354.536 105.819L348.562 106.368C348.562 106.682 348.489 106.789 348.385 106.903L352.61 110.758ZM354.536 105.819C354.536 104.064 353.953 102.473 352.706 101.276L348.384 105.816C348.476 105.904 348.562 106.012 348.562 106.368L354.536 105.819ZM352.706 101.276C351.422 100.043 349.755 99.5625 347.964 99.7271V105.727C348.154 105.71 348.243 105.732 348.271 105.741C348.294 105.748 348.328 105.762 348.384 105.816L352.706 101.276ZM348.968 126.851C350.809 126.682 352.514 125.887 353.853 124.419L349.628 120.565C349.501 120.704 349.358 120.815 348.968 120.851V126.851ZM353.897 124.37C355.21 122.874 355.827 121.092 355.827 119.237L349.852 119.786C349.852 120.234 349.737 120.44 349.583 120.615L353.897 124.37ZM355.827 119.237C355.827 117.388 355.191 115.734 353.853 114.513L349.628 119.144C349.755 119.26 349.852 119.394 349.852 119.786L355.827 119.237ZM353.897 114.554C352.568 113.284 350.849 112.758 348.968 112.931V118.931C349.317 118.899 349.446 118.971 349.583 119.102L353.897 114.554ZM348.968 112.931L341.368 113.629V119.629L348.968 118.931V112.931ZM338.381 116.904V124.824L344.355 124.275V116.355L338.381 116.904ZM341.368 127.549L348.968 126.851V120.851L341.368 121.549V127.549ZM370.309 121.746L367.321 122.02V125.02L370.309 124.746V121.746ZM384.409 120.45L387.397 120.176V117.176L384.409 117.45V120.45ZM384.409 126.786V129.786L387.397 129.512V126.512L384.409 126.786ZM363.712 128.688L360.725 128.963V131.963L363.712 131.688V128.688ZM363.712 95.088V92.088L360.725 92.3625V95.3625L363.712 95.088ZM384.17 93.2082L387.158 92.9337V89.9337L384.17 90.2082V93.2082ZM384.17 99.5442V102.544L387.158 102.27V99.2697L384.17 99.5442ZM370.309 100.818V97.8179L367.321 98.0924V101.092L370.309 100.818ZM370.309 107.97L367.321 108.244V111.244L370.309 110.97V107.97ZM382.975 106.806L385.963 106.532V103.532L382.975 103.806V106.806ZM382.975 113.046V116.046L385.963 115.772V112.772L382.975 113.046ZM370.309 114.21V111.21L367.321 111.484V114.484L370.309 114.21ZM370.309 124.746L384.409 123.45V117.45L370.309 118.746V124.746ZM381.422 120.725V127.061L387.397 126.512V120.176L381.422 120.725ZM384.409 123.786L363.712 125.688V131.688L384.409 129.786V123.786ZM366.7 128.414V94.8135L360.725 95.3625V128.963L366.7 128.414ZM363.712 98.088L384.17 96.2082V90.2082L363.712 92.088V98.088ZM381.183 93.4827V99.8187L387.158 99.2697V92.9337L381.183 93.4827ZM384.17 96.5442L370.309 97.8179V103.818L384.17 102.544V96.5442ZM367.321 101.092V108.244L373.296 107.695V100.543L367.321 101.092ZM370.309 110.97L382.975 109.806V103.806L370.309 104.97V110.97ZM379.988 107.081V113.321L385.963 112.772V106.532L379.988 107.081ZM382.975 110.046L370.309 111.21V117.21L382.975 116.046V110.046ZM367.321 114.484V122.02L373.296 121.471V113.935L367.321 114.484ZM406.505 91.1559V88.1559L403.518 88.4304V91.4304L406.505 91.1559ZM413.101 90.5498L416.089 90.2753V87.2753L413.101 87.5498V90.5498ZM413.101 124.15V127.15L416.089 126.875V123.875L413.101 124.15ZM406.505 124.756L403.518 125.03V128.03L406.505 127.756V124.756ZM406.505 112.468L409.493 112.193V107.672L405.344 109.811L406.505 112.468ZM391.592 112.302L389.615 114.733L389.633 114.747L389.651 114.761L391.592 112.302ZM388.342 92.8249V89.8249L385.354 90.0994V93.0994L388.342 92.8249ZM394.938 92.2188L397.925 91.9443V88.9443L394.938 89.2188V92.2188ZM396.324 107.019L394.212 109.335L394.248 109.368L394.286 109.4L396.324 107.019ZM406.505 106.036L407.788 108.627L409.493 107.657V105.761L406.505 106.036ZM406.505 94.1559L413.101 93.5498V87.5498L406.505 88.1559V94.1559ZM410.114 90.8243V124.424L416.089 123.875V90.2753L410.114 90.8243ZM413.101 121.15L406.505 121.756V127.756L413.101 127.15V121.15ZM409.493 124.481V112.193L403.518 112.742V125.03L409.493 124.481ZM405.344 109.811C403.691 110.663 401.905 111.187 399.957 111.366V117.366C402.661 117.117 405.241 116.376 407.666 115.125L405.344 109.811ZM399.957 111.366C397.165 111.622 395.103 111.047 393.533 109.844L389.651 114.761C392.479 116.929 395.993 117.73 399.957 117.366V111.366ZM393.569 109.871C392.129 108.728 391.329 107.073 391.329 104.55L385.354 105.099C385.354 109.105 386.722 112.435 389.615 114.733L393.569 109.871ZM391.329 104.55V92.5504L385.354 93.0994V105.099L391.329 104.55ZM388.342 95.8249L394.938 95.2188V89.2188L388.342 89.8249V95.8249ZM391.951 92.4933V103.629L397.925 103.08V91.9443L391.951 92.4933ZM391.951 103.629C391.951 105.839 392.609 107.873 394.212 109.335L398.437 104.704C398.191 104.48 397.925 104.07 397.925 103.08L391.951 103.629ZM394.286 109.4C395.899 110.764 397.938 111.215 400.1 111.016V105.016C399.14 105.105 398.661 104.891 398.362 104.639L394.286 109.4ZM400.1 111.016C402.834 110.765 405.412 109.98 407.788 108.627L405.223 103.444C403.711 104.305 402.019 104.84 400.1 105.016V111.016ZM409.493 105.761V90.8814L403.518 91.4304V106.31L409.493 105.761ZM425.902 116.638L422.915 116.912V119.912L425.902 119.638V116.638ZM440.003 115.342L442.99 115.067V112.067L440.003 112.342V115.342ZM440.003 121.678V124.678L442.99 124.403V121.403L440.003 121.678ZM419.306 123.58L416.319 123.854V126.854L419.306 126.58V123.58ZM419.306 89.9797V86.9797L416.319 87.2542V90.2542L419.306 89.9797ZM439.764 88.0999L442.752 87.8253V84.8253L439.764 85.0999V88.0999ZM439.764 94.4359V97.4359L442.752 97.1614V94.1614L439.764 94.4359ZM425.902 95.7096V92.7096L422.915 92.9841V95.9841L425.902 95.7096ZM425.902 102.862L422.915 103.136V106.136L425.902 105.862V102.862ZM438.569 101.698L441.557 101.423V98.4232L438.569 98.6977V101.698ZM438.569 107.938V110.938L441.557 110.663V107.663L438.569 107.938ZM425.902 109.102V106.102L422.915 106.376V109.376L425.902 109.102ZM425.902 119.638L440.003 118.342V112.342L425.902 113.638V119.638ZM437.016 115.616V121.952L442.99 121.403V115.067L437.016 115.616ZM440.003 118.678L419.306 120.58V126.58L440.003 124.678V118.678ZM422.294 123.305V89.7052L416.319 90.2542V123.854L422.294 123.305ZM419.306 92.9797L439.764 91.0999V85.0999L419.306 86.9797V92.9797ZM436.777 88.3744V94.7104L442.752 94.1614V87.8253L436.777 88.3744ZM439.764 91.4359L425.902 92.7096V98.7096L439.764 97.4359V91.4359ZM422.915 95.9841V103.136L428.89 102.587V95.4351L422.915 95.9841ZM425.902 105.862L438.569 104.698V98.6977L425.902 99.8616V105.862ZM435.582 101.972V108.212L441.557 107.663V101.423L435.582 101.972ZM438.569 104.938L425.902 106.102V112.102L438.569 110.938V104.938ZM422.915 109.376V116.912L428.89 116.363V108.827L422.915 109.376ZM465.254 89.0217L467.351 86.6922L465.254 89.0217ZM465.254 105.054L467.351 106.998L465.254 105.054ZM451.249 109.605V106.605L448.261 106.879V109.879L451.249 109.605ZM451.249 120.645V123.645L454.236 123.37V120.37L451.249 120.645ZM444.653 121.251L441.665 121.525V124.525L444.653 124.251V121.251ZM444.653 87.6507V84.6507L441.665 84.9252V87.9252L444.653 87.6507ZM460.617 101.112L462.765 102.999L462.782 102.98L462.799 102.961L460.617 101.112ZM460.617 93.8157L458.469 96.0981L460.617 93.8157ZM451.249 93.2366V90.2366L448.261 90.5111V93.5111L451.249 93.2366ZM451.249 103.413L448.261 103.687V106.687L451.249 106.413V103.413ZM457.128 89.5043C459.599 89.2773 461.543 89.9022 463.157 91.3511L467.351 86.6922C464.567 84.1932 461.094 83.1399 457.128 83.5043V89.5043ZM463.157 91.3511C464.772 92.8011 465.565 94.6246 465.565 97.0091L471.539 96.4601C471.539 92.5087 470.133 89.1901 467.351 86.6922L463.157 91.3511ZM465.565 97.0091C465.565 99.3937 464.772 101.363 463.157 103.11L467.351 106.998C470.133 103.989 471.539 100.412 471.539 96.4601L465.565 97.0091ZM463.157 103.11C461.543 104.855 459.599 105.837 457.128 106.064V112.064C461.094 111.7 464.567 110.008 467.351 106.998L463.157 103.11ZM457.128 106.064L451.249 106.605V112.605L457.128 112.064V106.064ZM448.261 109.879V120.919L454.236 120.37V109.33L448.261 109.879ZM451.249 117.645L444.653 118.251V124.251L451.249 123.645V117.645ZM447.64 120.976V87.3762L441.665 87.9252V121.525L447.64 120.976ZM444.653 90.6507L457.128 89.5043V83.5043L444.653 84.6507V90.6507ZM457.128 105.872C459.291 105.674 461.245 104.719 462.765 102.999L458.469 99.224C458.142 99.5947 457.77 99.8134 457.128 99.8723V105.872ZM462.799 102.961C464.274 101.242 464.991 99.2127 464.991 97.0618L459.016 97.6108C459.016 98.34 458.809 98.8278 458.436 99.2627L462.799 102.961ZM464.991 97.0618C464.991 94.8988 464.285 92.9726 462.765 91.5333L458.469 96.0981C458.798 96.409 459.016 96.8298 459.016 97.6108L464.991 97.0618ZM462.765 91.5333C461.245 90.0935 459.291 89.4976 457.128 89.6963V95.6963C457.77 95.6374 458.142 95.7877 458.469 96.0981L462.765 91.5333ZM457.128 89.6963L451.249 90.2366V96.2366L457.128 95.6963V89.6963ZM448.261 93.5111V103.687L454.236 103.138V92.962L448.261 93.5111ZM451.249 106.413L457.128 105.872V99.8723L451.249 100.413V106.413ZM500.766 111.727L502.869 113.665L502.874 113.659L502.879 113.654L500.766 111.727ZM476.102 113.993L473.98 116.299L473.99 116.308L474 116.317L476.102 113.993ZM476.102 89.1768L473.99 87.2496L476.102 89.1768ZM500.766 86.9105L498.654 89.226L498.659 89.2305L498.664 89.2351L500.766 86.9105ZM480.739 109.055L478.626 111.37L478.634 111.378L478.643 111.385L480.739 109.055ZM496.13 107.641L498.226 109.586L498.234 109.577L498.242 109.568L496.13 107.641ZM496.13 91.8006L498.242 89.4851L496.13 91.8006ZM480.739 93.2148L478.626 91.2876L480.739 93.2148ZM498.664 109.788C495.857 112.838 492.507 114.525 488.434 114.9V120.9C494.049 120.384 498.92 117.956 502.869 113.665L498.664 109.788ZM488.434 114.9C484.362 115.274 481.011 114.202 478.205 111.668L474 116.317C477.949 119.883 482.82 121.416 488.434 120.9V114.9ZM478.225 111.687C475.448 109.127 474.071 105.875 474.071 101.748L468.096 102.297C468.096 107.961 470.064 112.689 473.98 116.299L478.225 111.687ZM474.071 101.748C474.071 97.6201 475.448 94.1369 478.215 91.1041L473.99 87.2496C470.065 91.5517 468.096 96.6319 468.096 102.297L474.071 101.748ZM478.215 91.1041C481.023 88.0253 484.371 86.3291 488.434 85.9557V79.9557C482.811 80.4724 477.937 82.9236 473.99 87.2496L478.215 91.1041ZM488.434 85.9557C492.498 85.5823 495.845 86.6634 498.654 89.226L502.879 84.5951C498.932 80.9944 494.058 79.439 488.434 79.9557V85.9557ZM498.664 89.2351C501.459 91.7589 502.846 94.9852 502.846 99.1035L508.82 98.5545C508.82 92.8808 506.829 88.1614 502.869 84.586L498.664 89.2351ZM502.846 99.1035C502.846 103.222 501.459 106.725 498.654 109.799L502.879 113.654C506.83 109.323 508.82 104.228 508.82 98.5545L502.846 99.1035ZM478.643 111.385C481.305 113.772 484.637 114.769 488.434 114.42V108.42C486.114 108.633 484.315 108.053 482.835 106.725L478.643 111.385ZM488.434 114.42C492.232 114.071 495.564 112.462 498.226 109.586L494.034 105.695C492.553 107.296 490.755 108.206 488.434 108.42V114.42ZM498.242 109.568C500.926 106.626 502.224 103.079 502.224 99.1606L496.249 99.7096C496.249 102.191 495.476 104.114 494.017 105.713L498.242 109.568ZM502.224 99.1606C502.224 95.242 500.926 91.9334 498.242 89.4851L494.017 94.116C495.476 95.4471 496.249 97.2282 496.249 99.7096L502.224 99.1606ZM498.242 89.4851C495.584 87.0596 492.247 86.0374 488.434 86.3877V92.3877C490.74 92.1758 492.534 92.7622 494.017 94.116L498.242 89.4851ZM488.434 86.3877C484.622 86.738 481.285 88.3735 478.626 91.2876L482.851 95.142C484.335 93.5155 486.128 92.5996 488.434 92.3877V86.3877ZM478.626 91.2876C475.943 94.229 474.644 97.7762 474.644 101.695L480.619 101.146C480.619 98.6644 481.392 96.7413 482.851 95.142L478.626 91.2876ZM474.644 101.695C474.644 105.613 475.943 108.922 478.626 111.37L482.851 106.739C481.392 105.408 480.619 103.627 480.619 101.146L474.644 101.695ZM543.211 78.5944L546.199 78.3199V75.3199L543.211 75.5944V78.5944ZM543.211 112.194V115.194L546.199 114.92V111.92L543.211 112.194ZM536.663 112.796L533.675 113.071V116.071L536.663 115.796V112.796ZM536.663 91.0041L539.65 90.7296V79.9929L534.108 89.6838L536.663 91.0041ZM527.246 107.469V110.469L528.929 110.315L529.801 108.79L527.246 107.469ZM526.482 107.54L523.929 109.333L524.802 110.694L526.482 110.54V107.54ZM517.065 92.8529L519.618 91.0597L514.078 82.4189V93.1274L517.065 92.8529ZM517.065 114.597V117.597L520.053 117.322V114.322L517.065 114.597ZM510.469 115.203L507.482 115.477V118.477L510.469 118.203V115.203ZM510.469 81.603V78.603L507.482 78.8775V81.8775L510.469 81.603ZM517.257 80.9793L519.81 79.1875L518.937 77.8248L517.257 77.9793V80.9793ZM526.864 95.9845L524.311 97.7763L526.87 101.774L529.421 97.301L526.864 95.9845ZM536.424 79.2181V76.2181L534.738 76.3729L533.867 77.9016L536.424 79.2181ZM540.224 78.8689V112.469L546.199 111.92V78.3199L540.224 78.8689ZM543.211 109.194L536.663 109.796V115.796L543.211 115.194V109.194ZM539.65 112.522V90.7296L533.675 91.2786V113.071L539.65 112.522ZM534.108 89.6838L524.692 106.149L529.801 108.79L539.217 92.3244L534.108 89.6838ZM527.246 104.469L526.482 104.54V110.54L527.246 110.469V104.469ZM529.034 105.746L519.618 91.0597L514.513 94.646L523.929 109.333L529.034 105.746ZM514.078 93.1274V114.871L520.053 114.322V92.5784L514.078 93.1274ZM517.065 111.597L510.469 112.203V118.203L517.065 117.597V111.597ZM513.457 114.928V81.3285L507.482 81.8775V115.477L513.457 114.928ZM510.469 84.603L517.257 83.9793V77.9793L510.469 78.603V84.603ZM514.703 82.7711L524.311 97.7763L529.418 94.1927L519.81 79.1875L514.703 82.7711ZM529.421 97.301L538.981 80.5346L533.867 77.9016L524.307 94.668L529.421 97.301ZM536.424 82.2181L543.211 81.5944V75.5944L536.424 76.2181V82.2181ZM555.659 99.7706L552.672 100.045V103.045L555.659 102.771V99.7706ZM556.902 95.6244L554.426 94.1735L554.411 94.1964L554.397 94.2196L556.902 95.6244ZM559.674 92.2976L561.503 94.5018L561.527 94.4814L561.55 94.4606L559.674 92.2976ZM562.399 89.2633L560.087 87.576L560.069 87.599L560.052 87.6223L562.399 89.2633ZM553.652 87.667L552.16 90.4034L555.163 91.8654L556.432 88.5095L553.652 87.667ZM548.012 84.9213L545.243 84.0486L544.265 86.5601L546.52 87.6577L548.012 84.9213ZM552.552 79.0321L554.118 81.4432L554.129 81.4355L552.552 79.0321ZM567.083 78.2729L565.213 80.7839L565.232 80.7977L565.252 80.8111L567.083 78.2729ZM569.425 88.7137L566.753 87.6175L566.738 87.6491L566.724 87.6809L569.425 88.7137ZM567.418 91.8741L565.264 89.9927L565.263 89.9946L567.418 91.8741ZM565.076 94.3933L567.094 96.4193L567.098 96.4153L565.076 94.3933ZM563.068 96.7858L560.678 95.2054L560.654 95.2403L560.63 95.2758L563.068 96.7858ZM562.256 99.1645V102.164L565.243 101.89V98.89L562.256 99.1645ZM561.825 109.908L559.713 107.981L559.713 107.981L561.825 109.908ZM556.09 104.675L558.202 106.602L556.09 104.675ZM561.825 104.148L559.713 106.463L559.713 106.463L561.825 104.148ZM558.647 99.4961C558.647 98.7175 558.866 97.9151 559.407 97.0292L554.397 94.2196C553.282 96.046 552.672 98.0077 552.672 100.045L558.647 99.4961ZM559.378 97.0753C560.1 95.9346 560.817 95.0985 561.503 94.5018L557.846 90.0935C556.556 91.2143 555.425 92.5961 554.426 94.1735L559.378 97.0753ZM561.55 94.4606C562.721 93.4041 563.786 92.2156 564.746 90.9043L560.052 87.6223C559.355 88.5753 558.603 89.4096 557.799 90.1347L561.55 94.4606ZM564.711 90.9506C565.879 89.4101 566.677 87.6314 566.677 85.7022L560.702 86.2512C560.702 86.434 560.64 86.8463 560.087 87.576L564.711 90.9506ZM566.677 85.7022C566.677 83.814 565.986 82.0848 564.397 80.9676L560.688 86.0126C560.703 86.023 560.701 86.024 560.692 86.0131C560.682 86.0019 560.676 85.9903 560.673 85.9843C560.666 85.9692 560.702 86.0346 560.702 86.2512L566.677 85.7022ZM564.397 80.9676C562.927 79.9343 561.116 79.7092 559.34 79.8724V85.8724C560.304 85.7838 560.628 85.9705 560.688 86.0126L564.397 80.9676ZM559.34 79.8724C557.445 80.0465 555.652 80.727 554.121 82.0175C552.618 83.2848 551.575 84.9638 550.872 86.8246L556.432 88.5095C556.844 87.4198 557.307 86.8244 557.7 86.4935C558.065 86.1858 558.558 85.9442 559.34 85.8724V79.8724ZM555.143 84.9307L549.503 82.185L546.52 87.6577L552.16 90.4034L555.143 84.9307ZM550.78 85.794C551.509 83.9223 552.615 82.51 554.118 81.4432L550.987 76.621C548.347 78.4947 546.426 81.0086 545.243 84.0486L550.78 85.794ZM554.129 81.4355C555.738 80.2838 557.53 79.6067 559.579 79.4184V73.4184C556.465 73.7045 553.573 74.7698 550.976 76.6286L554.129 81.4355ZM559.579 79.4184C561.853 79.2094 563.681 79.6895 565.213 80.7839L568.954 75.7618C566.279 73.8507 563.104 73.0945 559.579 73.4184V79.4184ZM565.252 80.8111C566.589 81.7307 567.298 83.0575 567.298 85.1651L573.273 84.6161C573.273 80.8357 571.847 77.7507 568.915 75.7346L565.252 80.8111ZM567.298 85.1651C567.298 86.0642 567.11 86.8676 566.753 87.6175L572.097 89.8098C572.887 88.1503 573.273 86.405 573.273 84.6161L567.298 85.1651ZM566.724 87.6809C566.306 88.6074 565.814 89.3677 565.264 89.9927L569.571 93.7556C570.614 92.5702 571.461 91.2235 572.127 89.7465L566.724 87.6809ZM565.263 89.9946C564.54 90.8171 563.803 91.6093 563.053 92.3714L567.098 96.4153C567.941 95.559 568.766 94.6717 569.573 93.7537L565.263 89.9946ZM563.057 92.3674C562.168 93.2679 561.372 94.2134 560.678 95.2054L565.458 98.3662C565.912 97.7168 566.454 97.0673 567.094 96.4193L563.057 92.3674ZM560.63 95.2758C559.813 96.5098 559.268 97.9213 559.268 99.439L565.243 98.89C565.243 98.8716 565.24 98.6973 565.506 98.2959L560.63 95.2758ZM562.256 96.1645L555.659 96.7706V102.771L562.256 102.164V96.1645ZM559.713 107.981C559.47 108.247 559.271 108.343 558.957 108.372V114.372C560.874 114.195 562.587 113.316 563.938 111.835L559.713 107.981ZM558.957 108.372C558.643 108.4 558.445 108.341 558.202 108.12L553.977 112.75C555.328 113.983 557.041 114.548 558.957 114.372V108.372ZM558.202 108.12C557.959 107.898 557.882 107.706 557.882 107.39L551.907 107.939C551.907 109.864 552.627 111.518 553.977 112.75L558.202 108.12ZM557.882 107.39C557.882 107.075 557.959 106.868 558.202 106.602L553.977 102.748C552.627 104.228 551.907 106.015 551.907 107.939L557.882 107.39ZM558.202 106.602C558.445 106.336 558.643 106.24 558.957 106.212V100.212C557.041 100.388 555.328 101.268 553.977 102.748L558.202 106.602ZM558.957 106.212C559.271 106.183 559.47 106.242 559.713 106.463L563.938 101.833C562.587 100.6 560.874 100.035 558.957 100.212V106.212ZM559.713 106.463C559.956 106.685 560.033 106.877 560.033 107.193L566.008 106.644C566.008 104.719 565.288 103.065 563.938 101.833L559.713 106.463ZM560.033 107.193C560.033 107.508 559.956 107.715 559.713 107.981L563.938 111.835C565.288 110.355 566.008 108.568 566.008 106.644L560.033 107.193Z" fill="white"/>
<defs>
<linearGradient id="paint0_linear" x1="122.918" y1="79.4639" x2="550.83" y2="54.2006" gradientUnits="userSpaceOnUse">
<stop stop-color="#DDB7E0"/>
<stop offset="1" stop-color="#98E6E2"/>
</linearGradient>
<clipPath id="clip0">
<rect width="680" height="166" fill="white"/>
</clipPath>
</defs>
</svg>
