<svg xmlns="http://www.w3.org/2000/svg" width="167.239" height="25.167" viewBox="0 0 183.779 27.656">
  <defs>
    <linearGradient id="grad1" x1="0%" y1="0%" x2="100%" y2="0%">
      <stop offset="0%" style="stop-color:rgb(235,210,160);stop-opacity:1" />
      <stop offset="100%" style="stop-color:rgb(160,162,235);stop-opacity:1" />
    </linearGradient>

  </defs>
  <path id="Color_Fill_2" data-name="Color Fill 2" fill="url(#grad1)" class="cls-1" d="M863.341,394.188a4.914,4.914,0,0,0,.738-5.153,6,6,0,0,0-.456-0.832,2.507,2.507,0,0,0-.677-0.658q-0.44-.3-0.763-0.506a3.675,3.675,0,0,0-.937-0.378q-0.615-.174-0.973-0.263c-0.239-.059-0.608-0.129-1.106-0.207s-0.865-.129-1.1-0.153-0.629-.06-1.189-0.105a12.941,12.941,0,0,1-3.39-.628,2.094,2.094,0,0,1-1.3-1.6,2.329,2.329,0,0,1,.539-2.151,4.206,4.206,0,0,1,2.391-1.251,4.5,4.5,0,0,1,4.96,1.885q0.96-.788,1.925-1.571a6.921,6.921,0,0,0-3.128-2.355,7.431,7.431,0,0,0-4.244-.265,6.908,6.908,0,0,0-4.037,2.289,4.485,4.485,0,0,0-.936,4.08,4.088,4.088,0,0,0,.762,1.655,4.791,4.791,0,0,0,1.111,1.056,5.132,5.132,0,0,0,1.606.615,17,17,0,0,0,1.708.332q0.672,0.085,1.943.195a15.116,15.116,0,0,1,3.726.662,2.166,2.166,0,0,1,1.414,1.723,2.434,2.434,0,0,1-.618,2.216,5.024,5.024,0,0,1-2.792,1.352c-2.6.536-4.5-.182-5.721-2.186q-0.945.823-1.883,1.651a6.545,6.545,0,0,0,3.33,2.643,8.495,8.495,0,0,0,4.71.235A7.6,7.6,0,0,0,863.341,394.188Zm17.837-8.167-1.8-12.04q-1.29.189-2.579,0.386,0.927,5.962,1.855,11.925a4.041,4.041,0,0,1-.716,3.222,5.837,5.837,0,0,1-6.8,1.116,4.063,4.063,0,0,1-1.728-2.821l-2.13-11.88q-1.3.228-2.6,0.464,1.111,5.985,2.224,11.97a6.047,6.047,0,0,0,2.833,4.292,7.638,7.638,0,0,0,5.378.876,7.539,7.539,0,0,0,4.789-2.544,6.038,6.038,0,0,0,1.267-4.966h0Zm12.4-4.574q0.127,1.092.256,2.184,3.516-.4,7.038-0.748a5.5,5.5,0,0,1-1.8,3.693,7.576,7.576,0,0,1-4.459,1.84,7.7,7.7,0,0,1-5.683-1.37,6.827,6.827,0,0,1-2.785-4.758,6.669,6.669,0,0,1,1.458-5.324,7.572,7.572,0,0,1,5.247-2.706,7.762,7.762,0,0,1,3.836.487,6.045,6.045,0,0,1,2.773,2.123q1.05-.723,2.108-1.44a8.887,8.887,0,0,0-3.821-2.846,10.332,10.332,0,0,0-5.141-.667,10.175,10.175,0,0,0-7.017,3.648,8.772,8.772,0,0,0-1.97,7.069,9.146,9.146,0,0,0,3.77,6.291,10.136,10.136,0,0,0,7.474,1.862,9.73,9.73,0,0,0,6.463-3.067,7.831,7.831,0,0,0,1.994-6.17l-0.1-1.094Q898.39,380.894,893.575,381.447Zm21.723-1.921q0.071,1.1.14,2.195,3.528-.221,7.06-0.379a5.505,5.505,0,0,1-1.991,3.593,7.567,7.567,0,0,1-4.546,1.605,7.68,7.68,0,0,1-5.6-1.665,6.828,6.828,0,0,1-2.526-4.9,6.686,6.686,0,0,1,1.737-5.241,7.566,7.566,0,0,1,5.377-2.427,7.746,7.746,0,0,1,3.8.686,6.033,6.033,0,0,1,2.653,2.265q1.086-.666,2.18-1.328a8.874,8.874,0,0,0-3.661-3.041,10.3,10.3,0,0,0-5.093-.935,10.168,10.168,0,0,0-7.192,3.276,8.791,8.791,0,0,0-2.34,6.956,9.151,9.151,0,0,0,3.426,6.48,10.105,10.105,0,0,0,7.355,2.249,9.717,9.717,0,0,0,6.611-2.725,7.837,7.837,0,0,0,2.317-6.057q-0.021-.549-0.044-1.1Q920.131,379.226,915.3,379.526Zm15.389,0.3q4.068-.1,8.137-0.126-0.006-1.139-.013-2.277-4.092.024-8.183,0.127-0.072-2.812-.145-5.625,4.5-.114,9-0.132,0-1.152-.01-2.3-5.838.024-11.676,0.207,0.293,9.156.587,18.312,5.649-.178,11.3-0.2l-0.009-2.3q-4.419.016-8.838,0.128Q930.761,382.728,930.687,379.823Zm22.9,7.082a4.941,4.941,0,0,0,1.867-4.863,5.974,5.974,0,0,0-.257-0.912,2.514,2.514,0,0,0-.511-0.79q-0.36-.39-0.627-0.661a3.653,3.653,0,0,0-.826-0.574q-0.558-.3-0.886-0.47t-1.027-.445c-0.466-.186-0.81-0.315-1.03-0.39s-0.6-.2-1.13-0.363a12.77,12.77,0,0,1-3.147-1.357,2.086,2.086,0,0,1-.9-1.842,2.344,2.344,0,0,1,1-1.978,4.184,4.184,0,0,1,2.6-.695,4.457,4.457,0,0,1,4.392,2.928q1.107-.558,2.219-1.11a6.864,6.864,0,0,0-2.511-2.983,7.352,7.352,0,0,0-4.058-1.191,6.876,6.876,0,0,0-4.425,1.346,4.51,4.51,0,0,0-1.817,3.772,4.086,4.086,0,0,0,.37,1.781,4.783,4.783,0,0,0,.841,1.274,5.088,5.088,0,0,0,1.42.953,16.7,16.7,0,0,0,1.582.7q0.633,0.231,1.841.618a14.873,14.873,0,0,1,3.467,1.463,2.157,2.157,0,0,1,.988,1.991,2.447,2.447,0,0,1-1.094,2.025,5.007,5.007,0,0,1-3.01.7c-2.643-.049-4.324-1.166-5.06-3.388q-1.1.6-2.194,1.2a6.5,6.5,0,0,0,2.639,3.309,8.39,8.39,0,0,0,4.515,1.263A7.57,7.57,0,0,0,953.586,386.905Zm3.216-17.137q-0.042,1.151-.085,2.3,2.9,0.106,5.789.251l-0.819,16q1.242,0.062,2.485.132l0.918-15.992q2.907,0.163,5.812.367,0.082-1.149.164-2.3Q963.94,370.029,956.8,369.768Zm15.441,19.216q1.254,0.1,2.508.2,0.768-9.129,1.535-18.258-1.312-.108-2.624-0.208Zm26.343-6.382a8.742,8.742,0,0,0-2-7.073,10.7,10.7,0,0,0-14.392-1.643,8.8,8.8,0,0,0-3.558,6.437,9.106,9.106,0,0,0,2.232,6.965,10.4,10.4,0,0,0,13.927,1.59,9.119,9.119,0,0,0,3.792-6.276h0Zm-17.415-2.043a6.689,6.689,0,0,1,2.659-4.854,8.019,8.019,0,0,1,10.727,1.225,6.657,6.657,0,0,1,1.475,5.325A6.843,6.843,0,0,1,993.251,387a7.873,7.873,0,0,1-10.465-1.194,6.816,6.816,0,0,1-1.615-5.249h0Zm31.609,8.831q-3.66-7.582-7.67-15.1-1.05-.159-2.1-0.313l-2.7,18.125q1.245,0.182,2.49.372,1.05-6.765,2.11-13.529,3.93,7.526,7.53,15.117c0.66,0.118,1.33.238,2,.36q1.68-9.009,3.35-18.018c-0.87-.158-1.73-0.313-2.6-0.466Q1013.99,382.664,1012.78,389.39Zm16.28,6.86a4.659,4.659,0,0,0,2.64-3.343,5.2,5.2,0,0,0,.12-1.087,6.527,6.527,0,0,0-.08-0.944,2.458,2.458,0,0,0-.36-0.87c-0.19-.3-0.35-0.557-0.49-0.767a3.884,3.884,0,0,0-.71-0.718c-0.33-.268-0.59-0.477-0.79-0.626s-0.5-.359-0.93-0.628-0.74-.461-0.94-0.575-0.56-.3-1.05-0.567a12.766,12.766,0,0,1-2.85-1.918,2.1,2.1,0,0,1-.55-1.976,2.357,2.357,0,0,1,1.37-1.758,4.21,4.21,0,0,1,2.69-.2,4.469,4.469,0,0,1,3.79,3.694q1.2-.342,2.4-0.678a6.831,6.831,0,0,0-1.92-3.4,7.389,7.389,0,0,0-3.78-1.924,6.97,6.97,0,0,0-4.63.5,4.533,4.533,0,0,0-2.5,3.369,3.968,3.968,0,0,0,.03,1.819,4.76,4.76,0,0,0,.59,1.407,5.258,5.258,0,0,0,1.22,1.2c0.57,0.424,1.05.751,1.43,0.98s0.96,0.545,1.7.949a14.964,14.964,0,0,1,3.15,2.082,2.146,2.146,0,0,1,.6,2.139,2.436,2.436,0,0,1-1.46,1.787,5.042,5.042,0,0,1-3.1.132c-2.61-.539-4.05-1.949-4.36-4.268-0.8.254-1.6,0.51-2.39,0.768a6.485,6.485,0,0,0,1.98,3.741,8.413,8.413,0,0,0,4.22,2.079A7.658,7.658,0,0,0,1029.06,396.25Z" transform="translate(-849.531 -369.219)"/>
</svg>
