<svg width="680" height="166" viewBox="0 0 680 166" fill="none" xmlns="http://www.w3.org/2000/svg">
<g clip-path="url(#clip0)">
<path d="M-561.88 -413.67L1292.7 83.2625M-563.174 -408.843L1291.4 88.0895M-564.467 -404.016L1290.11 92.9169M-565.761 -399.188L1288.82 97.7446M-567.055 -394.36L1287.52 102.573M-568.348 -389.532L1286.23 107.401M-569.642 -384.703L1284.94 112.229M-570.936 -379.875L1283.64 117.058M-572.23 -375.046L1282.35 121.886M-573.524 -370.217L1281.05 126.715M-574.817 -365.389L1279.76 131.544M-576.111 -360.56L1278.47 136.373M-577.405 -355.731L1277.17 141.202M-578.699 -350.901L1275.88 146.031M-579.993 -346.072L1274.58 150.86M-581.287 -341.243L1273.29 155.69M-582.581 -336.414L1272 160.519M-583.875 -331.585L1270.7 165.348M-585.169 -326.755L1269.41 170.177M-586.463 -321.926L1268.11 175.007M-587.757 -317.097L1266.82 179.836M-589.051 -312.267L1265.53 184.666M-590.345 -307.438L1264.23 189.495M-591.639 -302.608L1262.94 194.324M-592.933 -297.779L1261.64 199.154M-594.227 -292.949L1260.35 203.983M-595.522 -288.12L1259.06 208.813M-596.816 -283.291L1257.76 213.642M-598.11 -278.461L1256.47 218.472M-599.404 -273.632L1255.17 223.301M-600.698 -268.802L1253.88 228.131M-601.992 -263.972L1252.59 232.96M-603.286 -259.143L1251.29 237.79M-604.58 -254.313L1250 242.619M-605.874 -249.484L1248.7 247.449M-607.168 -244.654L1247.41 252.278M-608.462 -239.825L1246.12 257.108M-609.756 -234.995L1244.82 261.938M-611.05 -230.166L1243.53 266.767M-612.344 -225.336L1242.23 271.597M-613.639 -220.506L1240.94 276.426M-614.933 -215.677L1239.64 281.256M-616.227 -210.847L1238.35 286.086M-617.521 -206.018L1237.06 290.915M-618.815 -201.188L1235.76 295.745M-620.109 -196.358L1234.47 300.574M-621.403 -191.529L1233.17 305.404M-622.697 -186.699L1231.88 310.234M-623.991 -181.87L1230.59 315.063M-625.285 -177.04L1229.29 319.893M-626.579 -172.21L1228 324.722M-627.874 -167.381L1226.7 329.552M-629.168 -162.551L1225.41 334.382M-630.462 -157.721L1224.12 339.211M-631.756 -152.892L1222.82 344.041M-633.05 -148.062L1221.53 348.871M-634.344 -143.233L1220.23 353.7M-635.638 -138.403L1218.94 358.53M-636.932 -133.573L1217.65 363.359M-638.226 -128.744L1216.35 368.189M-639.52 -123.914L1215.06 373.019M-640.814 -119.084L1213.76 377.848M-642.109 -114.255L1212.47 382.678M-643.403 -109.425L1211.17 387.508M-644.697 -104.596L1209.88 392.337M-645.991 -99.7659L1208.59 397.167M-647.285 -94.9363L1207.29 401.996M-648.579 -90.1067L1206 406.826M-649.873 -85.277L1204.7 411.656M-651.167 -80.4474L1203.41 416.485M-652.461 -75.6178L1202.12 421.315M-653.755 -70.7881L1200.82 426.145M-655.05 -65.9585L1199.53 430.974M-656.344 -61.1289L1198.23 435.804M-657.638 -56.2993L1196.94 440.633M-658.932 -51.4697L1195.65 445.463M-660.226 -46.64L1194.35 450.293M-661.52 -41.8104L1193.06 455.122M-662.814 -36.9808L1191.76 459.952M-664.108 -32.1512L1190.47 464.782M-665.402 -27.3216L1189.18 469.611M-666.696 -22.492L1187.88 474.441M-667.99 -17.6624L1186.59 479.27M-669.285 -12.8328L1185.29 484.1M-670.579 -8.00314L1184 488.93M-671.873 -3.17357L1182.7 493.759M-673.167 1.65603L1181.41 498.589M-674.461 6.4856L1180.12 503.418M-675.755 11.3152L1178.82 508.248M-677.049 16.1448L1177.53 513.078M-678.343 20.9744L1176.23 517.907M-679.637 25.8039L1174.94 522.737M-680.931 30.6335L1173.65 527.566M-682.225 35.4631L1172.35 532.396M-683.519 40.2926L1171.06 537.225M-684.814 45.1222L1169.76 542.055M-686.108 49.9517L1168.47 546.884M-687.402 54.7812L1167.18 551.714M-688.696 59.6108L1165.88 556.543M-689.99 64.4403L1164.59 561.373M-691.284 69.2698L1163.29 566.203M-692.578 74.0992L1162 571.032M-693.872 78.9287L1160.71 575.861M-695.166 83.7582L1159.41 580.691M-696.46 88.5876L1158.12 585.52M-697.754 93.417L1156.82 590.35M-699.048 98.2464L1155.53 595.179M-700.342 103.076L1154.24 600.009M-701.636 107.905L1152.94 604.838M-702.93 112.734L1151.65 609.667M-704.224 117.564L1150.35 614.496M-705.518 122.393L1149.06 619.326M-706.812 127.222L1147.77 624.155M-708.106 132.051L1146.47 628.984M-709.402 136.886L1145.18 633.819M-710.697 141.721L1143.88 638.654" stroke="#EBEBEB"/>
</g>
<mask id="path-2-outside-1" maskUnits="userSpaceOnUse" x="174" y="21.3488" width="330" height="123" fill="black">
<rect fill="white" x="174" y="21.3488" width="330" height="123"/>
<path d="M222.557 98.5764C215.004 99.2703 208.767 97.3235 203.844 92.7359C198.92 88.1483 196.459 82.1585 196.459 74.7665C196.459 67.3265 198.92 60.8843 203.844 55.4399C208.767 49.9475 215.004 46.8543 222.557 46.1604C227.098 45.7431 231.28 46.4388 235.104 48.2475C238.976 50.0037 241.987 52.607 244.138 56.0574L235.606 61.8094C234.363 59.6675 232.594 58.0781 230.3 57.0409C228.006 55.9557 225.425 55.5449 222.557 55.8084C217.681 56.2564 213.738 58.1547 210.727 61.5034C207.763 64.8477 206.281 68.9679 206.281 73.8639C206.281 78.7119 207.763 82.5357 210.727 85.3354C213.738 88.1307 217.681 89.3044 222.557 88.8564C225.425 88.5929 228.006 87.7317 230.3 86.2729C232.642 84.7617 234.411 82.8472 235.606 80.5294L244.138 84.7134C241.987 88.559 238.999 91.7375 235.176 94.2489C231.352 96.7122 227.145 98.1548 222.557 98.5764Z"/>
<path d="M340.128 80.2131C335.061 85.7187 328.895 88.8053 321.63 89.4728C314.364 90.1404 308.198 88.187 303.132 83.6126C298.113 78.9858 295.603 73.0003 295.603 65.6563C295.603 58.3123 298.113 51.8898 303.132 46.3886C308.198 40.835 314.364 37.7244 321.63 37.0568C328.895 36.3893 335.061 38.3667 340.128 42.9891C345.195 47.5636 347.728 53.5228 347.728 60.8668C347.728 68.2108 345.195 74.6596 340.128 80.2131ZM310.086 76.2055C313.193 78.9921 317.041 80.1745 321.63 79.7528C326.218 79.3312 330.066 77.4417 333.173 74.0842C336.28 70.6787 337.834 66.5759 337.834 61.7759C337.834 56.9759 336.28 53.1587 333.173 50.3242C330.066 47.4896 326.218 46.2832 321.63 46.7048C317.041 47.1265 313.193 49.04 310.086 52.4455C306.98 55.851 305.426 59.9538 305.426 64.7538C305.426 69.5538 306.98 73.371 310.086 76.2055Z"/>
<path d="M396.912 74.9954C391.845 80.5009 385.679 83.5875 378.414 84.2551C371.149 84.9227 364.983 82.9693 359.916 78.3948C354.897 73.768 352.388 67.7826 352.388 60.4386C352.388 53.0946 354.897 46.672 359.916 41.1708C364.983 35.6173 371.149 32.5067 378.414 31.8391C385.679 31.1715 391.845 33.1489 396.912 37.7714C401.979 42.3458 404.512 48.305 404.512 55.649C404.512 62.993 401.979 69.4418 396.912 74.9954ZM366.871 70.9878C369.978 73.7743 373.825 74.9568 378.414 74.5351C383.003 74.1135 386.85 72.2239 389.957 68.8664C393.064 65.4609 394.618 61.3582 394.618 56.5582C394.618 51.7582 393.064 47.9409 389.957 45.1064C386.85 42.2719 383.003 41.0655 378.414 41.4871C373.825 41.9088 369.978 43.8223 366.871 47.2278C363.764 50.6333 362.21 54.736 362.21 59.536C362.21 64.336 363.764 68.1533 366.871 70.9878Z"/>
<path d="M426.782 79.8108C421.811 80.2675 417.628 79.5478 414.234 77.6517C410.841 75.7075 408.451 72.8791 407.065 69.1665L415.525 63.4211C417.485 68.377 421.333 70.5915 427.068 70.0644C429.841 69.8097 431.872 69.119 433.163 67.9924C434.453 66.8658 435.099 65.5345 435.099 63.9985C435.099 62.2225 434.31 60.927 432.732 60.1119C431.155 59.2489 428.335 58.428 424.272 57.6493C422.026 57.1838 420.114 56.6875 418.536 56.1604C417.007 55.6289 415.453 54.8837 413.876 53.9246C412.346 52.9132 411.175 51.5808 410.363 49.9274C409.55 48.2741 409.144 46.2954 409.144 43.9914C409.144 39.4314 410.745 35.6603 413.948 32.678C417.198 29.6434 421.094 27.9174 425.634 27.5002C429.697 27.1268 433.258 27.8076 436.317 29.5425C439.424 31.2251 441.838 33.7633 443.559 37.1571L435.242 42.7454C433.234 38.6098 430.032 36.7441 425.634 37.1482C423.579 37.337 421.954 37.9664 420.759 39.0362C419.612 40.0536 419.038 41.3063 419.038 42.7943C419.038 44.3783 419.683 45.615 420.974 46.5044C422.312 47.3414 424.846 48.1646 428.574 48.9741C430.104 49.3135 431.251 49.5921 432.016 49.8098C432.828 49.9752 433.904 50.2843 435.242 50.7374C436.628 51.138 437.68 51.5454 438.397 51.9595C439.161 52.3692 440.022 52.9382 440.978 53.6663C441.934 54.3945 442.651 55.1686 443.129 55.9887C443.654 56.8044 444.085 57.8208 444.419 59.0381C444.802 60.2029 444.993 61.5054 444.993 62.9454C444.993 67.6014 443.296 71.4533 439.902 74.5011C436.556 77.5446 432.183 79.3145 426.782 79.8108Z"/>
<path d="M235.377 134.022C231.999 137.693 227.889 139.75 223.045 140.196C218.201 140.641 214.091 139.338 210.713 136.289C207.367 133.204 205.694 129.214 205.694 124.318C205.694 119.422 207.367 115.14 210.713 111.473C214.091 107.77 218.201 105.697 223.045 105.252C227.889 104.806 231.999 106.125 235.377 109.206C238.755 112.256 240.444 116.229 240.444 121.125C240.444 126.021 238.755 130.32 235.377 134.022ZM215.349 131.351C217.421 133.208 219.986 133.997 223.045 133.716C226.104 133.434 228.669 132.175 230.741 129.936C232.812 127.666 233.848 124.931 233.848 121.731C233.848 118.531 232.812 115.986 230.741 114.096C228.669 112.207 226.104 111.402 223.045 111.684C219.986 111.965 217.421 113.24 215.349 115.511C213.278 117.781 212.243 120.516 212.243 123.716C212.243 126.916 213.278 129.461 215.349 131.351Z"/>
<path d="M257.322 137.046C253.594 137.389 250.534 136.614 248.145 134.721C245.755 132.829 244.56 130.107 244.56 126.555V103.947L251.108 103.345V125.425C251.108 127.185 251.602 128.532 252.59 129.465C253.61 130.395 255.187 130.762 257.322 130.566C259.457 130.37 261.018 129.714 262.006 128.599C263.026 127.482 263.536 126.043 263.536 124.283V102.203L270.132 101.597V124.205C270.132 127.757 268.937 130.699 266.547 133.03C264.157 135.362 261.082 136.7 257.322 137.046Z"/>
<path d="M342.171 94.9774L348.767 94.3713V127.971L342.171 128.577V94.9774Z"/>
<path d="M387.798 106.337V108.929C387.798 113.729 386.269 117.757 383.21 121.014C380.151 124.272 376.199 126.123 371.356 126.568C366.193 127.042 361.907 125.756 358.498 122.709C355.12 119.628 353.431 115.655 353.431 110.791C353.431 105.895 355.104 101.597 358.45 97.8976C361.828 94.1952 366.002 92.1156 370.973 91.6588C374.096 91.3719 376.948 91.8298 379.529 93.0326C382.11 94.2035 384.118 95.907 385.552 98.1432L379.912 101.926C379.115 100.623 377.904 99.614 376.279 98.8993C374.686 98.1817 372.901 97.9137 370.925 98.0952C367.739 98.388 365.11 99.6856 363.039 101.988C360.999 104.255 359.98 106.989 359.98 110.189C359.98 113.357 361.015 115.886 363.086 117.776C365.19 119.63 367.962 120.4 371.403 120.083C373.953 119.849 376.056 119.096 377.713 117.824C379.402 116.516 380.549 114.843 381.154 112.803L371.021 113.734V107.878L387.798 106.337Z"/>
<path d="M446.409 85.3993V91.7353L437.375 92.5654V119.829L430.779 120.435V93.1715L421.792 93.9972V87.6612L446.409 85.3993Z"/>
<path d="M456.687 111.719L470.788 110.423V116.759L450.091 118.661V85.0609L470.549 83.1811V89.5171L456.687 90.7908V97.9428L469.354 96.7789V103.019L456.687 104.183V111.719Z"/>
</mask>
<path d="M222.557 98.5764C215.004 99.2703 208.767 97.3235 203.844 92.7359C198.92 88.1483 196.459 82.1585 196.459 74.7665C196.459 67.3265 198.92 60.8843 203.844 55.4399C208.767 49.9475 215.004 46.8543 222.557 46.1604C227.098 45.7431 231.28 46.4388 235.104 48.2475C238.976 50.0037 241.987 52.607 244.138 56.0574L235.606 61.8094C234.363 59.6675 232.594 58.0781 230.3 57.0409C228.006 55.9557 225.425 55.5449 222.557 55.8084C217.681 56.2564 213.738 58.1547 210.727 61.5034C207.763 64.8477 206.281 68.9679 206.281 73.8639C206.281 78.7119 207.763 82.5357 210.727 85.3354C213.738 88.1307 217.681 89.3044 222.557 88.8564C225.425 88.5929 228.006 87.7317 230.3 86.2729C232.642 84.7617 234.411 82.8472 235.606 80.5294L244.138 84.7134C241.987 88.559 238.999 91.7375 235.176 94.2489C231.352 96.7122 227.145 98.1548 222.557 98.5764Z" fill="url(#paint0_linear)"/>
<path d="M340.128 80.2131C335.061 85.7187 328.895 88.8053 321.63 89.4728C314.364 90.1404 308.198 88.187 303.132 83.6126C298.113 78.9858 295.603 73.0003 295.603 65.6563C295.603 58.3123 298.113 51.8898 303.132 46.3886C308.198 40.835 314.364 37.7244 321.63 37.0568C328.895 36.3893 335.061 38.3667 340.128 42.9891C345.195 47.5636 347.728 53.5228 347.728 60.8668C347.728 68.2108 345.195 74.6596 340.128 80.2131ZM310.086 76.2055C313.193 78.9921 317.041 80.1745 321.63 79.7528C326.218 79.3312 330.066 77.4417 333.173 74.0842C336.28 70.6787 337.834 66.5759 337.834 61.7759C337.834 56.9759 336.28 53.1587 333.173 50.3242C330.066 47.4896 326.218 46.2832 321.63 46.7048C317.041 47.1265 313.193 49.04 310.086 52.4455C306.98 55.851 305.426 59.9538 305.426 64.7538C305.426 69.5538 306.98 73.371 310.086 76.2055Z" fill="url(#paint1_linear)"/>
<path d="M396.912 74.9954C391.845 80.5009 385.679 83.5875 378.414 84.2551C371.149 84.9227 364.983 82.9693 359.916 78.3948C354.897 73.768 352.388 67.7826 352.388 60.4386C352.388 53.0946 354.897 46.672 359.916 41.1708C364.983 35.6173 371.149 32.5067 378.414 31.8391C385.679 31.1715 391.845 33.1489 396.912 37.7714C401.979 42.3458 404.512 48.305 404.512 55.649C404.512 62.993 401.979 69.4418 396.912 74.9954ZM366.871 70.9878C369.978 73.7743 373.825 74.9568 378.414 74.5351C383.003 74.1135 386.85 72.2239 389.957 68.8664C393.064 65.4609 394.618 61.3582 394.618 56.5582C394.618 51.7582 393.064 47.9409 389.957 45.1064C386.85 42.2719 383.003 41.0655 378.414 41.4871C373.825 41.9088 369.978 43.8223 366.871 47.2278C363.764 50.6333 362.21 54.736 362.21 59.536C362.21 64.336 363.764 68.1533 366.871 70.9878Z" fill="url(#paint2_linear)"/>
<path d="M426.782 79.8108C421.811 80.2675 417.628 79.5478 414.234 77.6517C410.841 75.7075 408.451 72.8791 407.065 69.1665L415.525 63.4211C417.485 68.377 421.333 70.5915 427.068 70.0644C429.841 69.8097 431.872 69.119 433.163 67.9924C434.453 66.8658 435.099 65.5345 435.099 63.9985C435.099 62.2225 434.31 60.927 432.732 60.1119C431.155 59.2489 428.335 58.428 424.272 57.6493C422.026 57.1838 420.114 56.6875 418.536 56.1604C417.007 55.6289 415.453 54.8837 413.876 53.9246C412.346 52.9132 411.175 51.5808 410.363 49.9274C409.55 48.2741 409.144 46.2954 409.144 43.9914C409.144 39.4314 410.745 35.6603 413.948 32.678C417.198 29.6434 421.094 27.9174 425.634 27.5002C429.697 27.1268 433.258 27.8076 436.317 29.5425C439.424 31.2251 441.838 33.7633 443.559 37.1571L435.242 42.7454C433.234 38.6098 430.032 36.7441 425.634 37.1482C423.579 37.337 421.954 37.9664 420.759 39.0362C419.612 40.0536 419.038 41.3063 419.038 42.7943C419.038 44.3783 419.683 45.615 420.974 46.5044C422.312 47.3414 424.846 48.1646 428.574 48.9741C430.104 49.3135 431.251 49.5921 432.016 49.8098C432.828 49.9752 433.904 50.2843 435.242 50.7374C436.628 51.138 437.68 51.5454 438.397 51.9595C439.161 52.3692 440.022 52.9382 440.978 53.6663C441.934 54.3945 442.651 55.1686 443.129 55.9887C443.654 56.8044 444.085 57.8208 444.419 59.0381C444.802 60.2029 444.993 61.5054 444.993 62.9454C444.993 67.6014 443.296 71.4533 439.902 74.5011C436.556 77.5446 432.183 79.3145 426.782 79.8108Z" fill="url(#paint3_linear)"/>
<path d="M235.377 134.022C231.999 137.693 227.889 139.75 223.045 140.196C218.201 140.641 214.091 139.338 210.713 136.289C207.367 133.204 205.694 129.214 205.694 124.318C205.694 119.422 207.367 115.14 210.713 111.473C214.091 107.77 218.201 105.697 223.045 105.252C227.889 104.806 231.999 106.125 235.377 109.206C238.755 112.256 240.444 116.229 240.444 121.125C240.444 126.021 238.755 130.32 235.377 134.022ZM215.349 131.351C217.421 133.208 219.986 133.997 223.045 133.716C226.104 133.434 228.669 132.175 230.741 129.936C232.812 127.666 233.848 124.931 233.848 121.731C233.848 118.531 232.812 115.986 230.741 114.096C228.669 112.207 226.104 111.402 223.045 111.684C219.986 111.965 217.421 113.24 215.349 115.511C213.278 117.781 212.243 120.516 212.243 123.716C212.243 126.916 213.278 129.461 215.349 131.351Z" fill="url(#paint4_linear)"/>
<path d="M257.322 137.046C253.594 137.389 250.534 136.614 248.145 134.721C245.755 132.829 244.56 130.107 244.56 126.555V103.947L251.108 103.345V125.425C251.108 127.185 251.602 128.532 252.59 129.465C253.61 130.395 255.187 130.762 257.322 130.566C259.457 130.37 261.018 129.714 262.006 128.599C263.026 127.482 263.536 126.043 263.536 124.283V102.203L270.132 101.597V124.205C270.132 127.757 268.937 130.699 266.547 133.03C264.157 135.362 261.082 136.7 257.322 137.046Z" fill="url(#paint5_linear)"/>
<path d="M342.171 94.9774L348.767 94.3713V127.971L342.171 128.577V94.9774Z" fill="url(#paint6_linear)"/>
<path d="M387.798 106.337V108.929C387.798 113.729 386.269 117.757 383.21 121.014C380.151 124.272 376.199 126.123 371.356 126.568C366.193 127.042 361.907 125.756 358.498 122.709C355.12 119.628 353.431 115.655 353.431 110.791C353.431 105.895 355.104 101.597 358.45 97.8976C361.828 94.1952 366.002 92.1156 370.973 91.6588C374.096 91.3719 376.948 91.8298 379.529 93.0326C382.11 94.2035 384.118 95.907 385.552 98.1432L379.912 101.926C379.115 100.623 377.904 99.614 376.279 98.8993C374.686 98.1817 372.901 97.9137 370.925 98.0952C367.739 98.388 365.11 99.6856 363.039 101.988C360.999 104.255 359.98 106.989 359.98 110.189C359.98 113.357 361.015 115.886 363.086 117.776C365.19 119.63 367.962 120.4 371.403 120.083C373.953 119.849 376.056 119.096 377.713 117.824C379.402 116.516 380.549 114.843 381.154 112.803L371.021 113.734V107.878L387.798 106.337Z" fill="url(#paint7_linear)"/>
<path d="M446.409 85.3993V91.7353L437.375 92.5654V119.829L430.779 120.435V93.1715L421.792 93.9972V87.6612L446.409 85.3993Z" fill="url(#paint8_linear)"/>
<path d="M456.687 111.719L470.788 110.423V116.759L450.091 118.661V85.0609L470.549 83.1811V89.5171L456.687 90.7908V97.9428L469.354 96.7789V103.019L456.687 104.183V111.719Z" fill="url(#paint9_linear)"/>
<path d="M222.557 98.5764C215.004 99.2703 208.767 97.3235 203.844 92.7359C198.92 88.1483 196.459 82.1585 196.459 74.7665C196.459 67.3265 198.92 60.8843 203.844 55.4399C208.767 49.9475 215.004 46.8543 222.557 46.1604C227.098 45.7431 231.28 46.4388 235.104 48.2475C238.976 50.0037 241.987 52.607 244.138 56.0574L235.606 61.8094C234.363 59.6675 232.594 58.0781 230.3 57.0409C228.006 55.9557 225.425 55.5449 222.557 55.8084C217.681 56.2564 213.738 58.1547 210.727 61.5034C207.763 64.8477 206.281 68.9679 206.281 73.8639C206.281 78.7119 207.763 82.5357 210.727 85.3354C213.738 88.1307 217.681 89.3044 222.557 88.8564C225.425 88.5929 228.006 87.7317 230.3 86.2729C232.642 84.7617 234.411 82.8472 235.606 80.5294L244.138 84.7134C241.987 88.559 238.999 91.7375 235.176 94.2489C231.352 96.7122 227.145 98.1548 222.557 98.5764Z" stroke="white" stroke-width="6" mask="url(#path-2-outside-1)"/>
<path d="M340.128 80.2131C335.061 85.7187 328.895 88.8053 321.63 89.4728C314.364 90.1404 308.198 88.187 303.132 83.6126C298.113 78.9858 295.603 73.0003 295.603 65.6563C295.603 58.3123 298.113 51.8898 303.132 46.3886C308.198 40.835 314.364 37.7244 321.63 37.0568C328.895 36.3893 335.061 38.3667 340.128 42.9891C345.195 47.5636 347.728 53.5228 347.728 60.8668C347.728 68.2108 345.195 74.6596 340.128 80.2131ZM310.086 76.2055C313.193 78.9921 317.041 80.1745 321.63 79.7528C326.218 79.3312 330.066 77.4417 333.173 74.0842C336.28 70.6787 337.834 66.5759 337.834 61.7759C337.834 56.9759 336.28 53.1587 333.173 50.3242C330.066 47.4896 326.218 46.2832 321.63 46.7048C317.041 47.1265 313.193 49.04 310.086 52.4455C306.98 55.851 305.426 59.9538 305.426 64.7538C305.426 69.5538 306.98 73.371 310.086 76.2055Z" stroke="white" stroke-width="6" mask="url(#path-2-outside-1)"/>
<path d="M396.912 74.9954C391.845 80.5009 385.679 83.5875 378.414 84.2551C371.149 84.9227 364.983 82.9693 359.916 78.3948C354.897 73.768 352.388 67.7826 352.388 60.4386C352.388 53.0946 354.897 46.672 359.916 41.1708C364.983 35.6173 371.149 32.5067 378.414 31.8391C385.679 31.1715 391.845 33.1489 396.912 37.7714C401.979 42.3458 404.512 48.305 404.512 55.649C404.512 62.993 401.979 69.4418 396.912 74.9954ZM366.871 70.9878C369.978 73.7743 373.825 74.9568 378.414 74.5351C383.003 74.1135 386.85 72.2239 389.957 68.8664C393.064 65.4609 394.618 61.3582 394.618 56.5582C394.618 51.7582 393.064 47.9409 389.957 45.1064C386.85 42.2719 383.003 41.0655 378.414 41.4871C373.825 41.9088 369.978 43.8223 366.871 47.2278C363.764 50.6333 362.21 54.736 362.21 59.536C362.21 64.336 363.764 68.1533 366.871 70.9878Z" stroke="white" stroke-width="6" mask="url(#path-2-outside-1)"/>
<path d="M426.782 79.8108C421.811 80.2675 417.628 79.5478 414.234 77.6517C410.841 75.7075 408.451 72.8791 407.065 69.1665L415.525 63.4211C417.485 68.377 421.333 70.5915 427.068 70.0644C429.841 69.8097 431.872 69.119 433.163 67.9924C434.453 66.8658 435.099 65.5345 435.099 63.9985C435.099 62.2225 434.31 60.927 432.732 60.1119C431.155 59.2489 428.335 58.428 424.272 57.6493C422.026 57.1838 420.114 56.6875 418.536 56.1604C417.007 55.6289 415.453 54.8837 413.876 53.9246C412.346 52.9132 411.175 51.5808 410.363 49.9274C409.55 48.2741 409.144 46.2954 409.144 43.9914C409.144 39.4314 410.745 35.6603 413.948 32.678C417.198 29.6434 421.094 27.9174 425.634 27.5002C429.697 27.1268 433.258 27.8076 436.317 29.5425C439.424 31.2251 441.838 33.7633 443.559 37.1571L435.242 42.7454C433.234 38.6098 430.032 36.7441 425.634 37.1482C423.579 37.337 421.954 37.9664 420.759 39.0362C419.612 40.0536 419.038 41.3063 419.038 42.7943C419.038 44.3783 419.683 45.615 420.974 46.5044C422.312 47.3414 424.846 48.1646 428.574 48.9741C430.104 49.3135 431.251 49.5921 432.016 49.8098C432.828 49.9752 433.904 50.2843 435.242 50.7374C436.628 51.138 437.68 51.5454 438.397 51.9595C439.161 52.3692 440.022 52.9382 440.978 53.6663C441.934 54.3945 442.651 55.1686 443.129 55.9887C443.654 56.8044 444.085 57.8208 444.419 59.0381C444.802 60.2029 444.993 61.5054 444.993 62.9454C444.993 67.6014 443.296 71.4533 439.902 74.5011C436.556 77.5446 432.183 79.3145 426.782 79.8108Z" stroke="white" stroke-width="6" mask="url(#path-2-outside-1)"/>
<path d="M235.377 134.022C231.999 137.693 227.889 139.75 223.045 140.196C218.201 140.641 214.091 139.338 210.713 136.289C207.367 133.204 205.694 129.214 205.694 124.318C205.694 119.422 207.367 115.14 210.713 111.473C214.091 107.77 218.201 105.697 223.045 105.252C227.889 104.806 231.999 106.125 235.377 109.206C238.755 112.256 240.444 116.229 240.444 121.125C240.444 126.021 238.755 130.32 235.377 134.022ZM215.349 131.351C217.421 133.208 219.986 133.997 223.045 133.716C226.104 133.434 228.669 132.175 230.741 129.936C232.812 127.666 233.848 124.931 233.848 121.731C233.848 118.531 232.812 115.986 230.741 114.096C228.669 112.207 226.104 111.402 223.045 111.684C219.986 111.965 217.421 113.24 215.349 115.511C213.278 117.781 212.243 120.516 212.243 123.716C212.243 126.916 213.278 129.461 215.349 131.351Z" stroke="white" stroke-width="6" mask="url(#path-2-outside-1)"/>
<path d="M257.322 137.046C253.594 137.389 250.534 136.614 248.145 134.721C245.755 132.829 244.56 130.107 244.56 126.555V103.947L251.108 103.345V125.425C251.108 127.185 251.602 128.532 252.59 129.465C253.61 130.395 255.187 130.762 257.322 130.566C259.457 130.37 261.018 129.714 262.006 128.599C263.026 127.482 263.536 126.043 263.536 124.283V102.203L270.132 101.597V124.205C270.132 127.757 268.937 130.699 266.547 133.03C264.157 135.362 261.082 136.7 257.322 137.046Z" stroke="white" stroke-width="6" mask="url(#path-2-outside-1)"/>
<path d="M342.171 94.9774L348.767 94.3713V127.971L342.171 128.577V94.9774Z" stroke="white" stroke-width="6" mask="url(#path-2-outside-1)"/>
<path d="M387.798 106.337V108.929C387.798 113.729 386.269 117.757 383.21 121.014C380.151 124.272 376.199 126.123 371.356 126.568C366.193 127.042 361.907 125.756 358.498 122.709C355.12 119.628 353.431 115.655 353.431 110.791C353.431 105.895 355.104 101.597 358.45 97.8976C361.828 94.1952 366.002 92.1156 370.973 91.6588C374.096 91.3719 376.948 91.8298 379.529 93.0326C382.11 94.2035 384.118 95.907 385.552 98.1432L379.912 101.926C379.115 100.623 377.904 99.614 376.279 98.8993C374.686 98.1817 372.901 97.9137 370.925 98.0952C367.739 98.388 365.11 99.6856 363.039 101.988C360.999 104.255 359.98 106.989 359.98 110.189C359.98 113.357 361.015 115.886 363.086 117.776C365.19 119.63 367.962 120.4 371.403 120.083C373.953 119.849 376.056 119.096 377.713 117.824C379.402 116.516 380.549 114.843 381.154 112.803L371.021 113.734V107.878L387.798 106.337Z" stroke="white" stroke-width="6" mask="url(#path-2-outside-1)"/>
<path d="M446.409 85.3993V91.7353L437.375 92.5654V119.829L430.779 120.435V93.1715L421.792 93.9972V87.6612L446.409 85.3993Z" stroke="white" stroke-width="6" mask="url(#path-2-outside-1)"/>
<path d="M456.687 111.719L470.788 110.423V116.759L450.091 118.661V85.0609L470.549 83.1811V89.5171L456.687 90.7908V97.9428L469.354 96.7789V103.019L456.687 104.183V111.719Z" stroke="white" stroke-width="6" mask="url(#path-2-outside-1)"/>
<path d="M278.614 40.1622L277.252 40.2875V41.656V60.3035L261.61 61.7407V43.3689V41.7247L259.973 41.8752L250.079 42.7843L248.716 42.9095V44.278V94.678V96.3222L250.353 96.1717L260.247 95.2626L261.61 95.1374V93.7689V74.2574L277.252 72.8201V92.056V93.7001L278.889 93.5497L288.712 92.6471L290.074 92.5219V91.1534V40.7534V39.1092L288.437 39.2597L278.614 40.1622ZM479.853 41.903L462.49 43.4984V35.783L481.92 33.9977L483.283 33.8725V32.504V23V21.3559L481.646 21.5063L450.959 24.326L449.596 24.4512V25.8197V76.2197V77.8639L451.233 77.7134L482.279 74.8608L483.641 74.7355V73.3671V63.8631V62.2189L482.004 62.3694L462.49 64.1624V55.871L480.128 54.2504L481.49 54.1252V52.7567V43.3967V41.7526L479.853 41.903ZM207.768 107.805L209.074 105.352L206.307 105.606L198.85 106.292L198.015 106.368L197.643 107.12L191.659 119.215L185.774 108.403L185.302 107.536L184.319 107.627L176.863 108.312L174.51 108.528L175.707 110.565L186.924 129.66V142.356V144L188.561 143.85L195.11 143.248L196.472 143.123V141.754V129.025L207.768 107.805ZM293.148 133.397L293.635 134.195L294.566 134.109L301.688 133.455L304.1 133.233L302.827 131.173L296.203 120.451C297.762 119.36 299.062 117.992 300.095 116.356L300.101 116.346C301.416 114.227 302.095 111.965 302.095 109.585C302.095 106.114 300.85 103.179 298.356 100.903C295.857 98.6241 292.804 97.6584 289.321 97.9785L275.937 99.2083L274.574 99.3335V100.702V134.302V135.946L276.212 135.796L282.808 135.19L284.17 135.064V133.696V123.4L286.896 123.15L293.148 133.397ZM337.502 102.9L338.864 102.775V101.406V95.0702V93.426L337.227 93.5765L317.247 95.4124L315.885 95.5376V96.9061V130.506V132.15L317.522 132L324.118 131.394L325.481 131.268V129.9V118.308L337.119 117.239L338.482 117.114V115.745V109.409V107.765L336.845 107.916L325.481 108.96V104.004L337.502 102.9ZM411.377 86.7631L410.014 86.8883V88.2568V100.232L400.586 101.099V89.3988V87.7546L398.949 87.905L392.353 88.5112L390.99 88.6364V90.0049V123.605V125.249L392.627 125.099L399.224 124.492L400.586 124.367V122.999V110.447L410.014 109.581V121.857V123.501L411.651 123.351L418.2 122.749L419.562 122.624V121.255V87.6551V86.0109L417.925 86.1614L411.377 86.7631ZM492.512 115.078L492.999 115.876L493.929 115.79L501.051 115.136L503.463 114.914L502.19 112.854L495.566 102.132C497.125 101.041 498.425 99.6734 499.458 98.037L499.464 98.0273C500.779 95.908 501.458 93.6464 501.458 91.2659C501.458 87.7948 500.214 84.8604 497.719 82.5845C495.221 80.3052 492.167 79.3395 488.684 79.6596L475.3 80.8894L473.938 81.0146V82.3831V115.983V117.627L475.575 117.477L482.171 116.871L483.534 116.745V115.377V105.081L486.259 104.831L492.512 115.078ZM289.321 114.106L284.17 114.58V107.656L289.595 107.158C290.397 107.084 291.03 107.31 291.608 107.879C292.184 108.446 292.499 109.173 292.499 110.191C292.499 111.208 292.181 112.092 291.514 112.899C290.85 113.671 290.131 114.032 289.321 114.106ZM488.684 95.7876L483.534 96.2608V89.3374L488.958 88.839C489.76 88.7653 490.393 88.9907 490.972 89.5602C491.547 90.1268 491.862 90.8541 491.862 91.872C491.862 92.8885 491.544 93.773 490.877 94.5796C490.213 95.3516 489.495 95.7131 488.684 95.7876Z" fill="url(#paint10_linear)" stroke="white" stroke-width="3"/>
<defs>
<linearGradient id="paint0_linear" x1="121.938" y1="79.1961" x2="549.886" y2="55.4806" gradientUnits="userSpaceOnUse">
<stop stop-color="#DDB7E0"/>
<stop offset="1" stop-color="#98E6E2"/>
</linearGradient>
<linearGradient id="paint1_linear" x1="121.938" y1="79.1961" x2="549.886" y2="55.4806" gradientUnits="userSpaceOnUse">
<stop stop-color="#DDB7E0"/>
<stop offset="1" stop-color="#98E6E2"/>
</linearGradient>
<linearGradient id="paint2_linear" x1="121.938" y1="79.1961" x2="549.886" y2="55.4806" gradientUnits="userSpaceOnUse">
<stop stop-color="#DDB7E0"/>
<stop offset="1" stop-color="#98E6E2"/>
</linearGradient>
<linearGradient id="paint3_linear" x1="121.938" y1="79.1961" x2="549.886" y2="55.4806" gradientUnits="userSpaceOnUse">
<stop stop-color="#DDB7E0"/>
<stop offset="1" stop-color="#98E6E2"/>
</linearGradient>
<linearGradient id="paint4_linear" x1="121.938" y1="79.1961" x2="549.886" y2="55.4806" gradientUnits="userSpaceOnUse">
<stop stop-color="#DDB7E0"/>
<stop offset="1" stop-color="#98E6E2"/>
</linearGradient>
<linearGradient id="paint5_linear" x1="121.938" y1="79.1961" x2="549.886" y2="55.4806" gradientUnits="userSpaceOnUse">
<stop stop-color="#DDB7E0"/>
<stop offset="1" stop-color="#98E6E2"/>
</linearGradient>
<linearGradient id="paint6_linear" x1="121.938" y1="79.1961" x2="549.886" y2="55.4806" gradientUnits="userSpaceOnUse">
<stop stop-color="#DDB7E0"/>
<stop offset="1" stop-color="#98E6E2"/>
</linearGradient>
<linearGradient id="paint7_linear" x1="121.938" y1="79.1961" x2="549.886" y2="55.4806" gradientUnits="userSpaceOnUse">
<stop stop-color="#DDB7E0"/>
<stop offset="1" stop-color="#98E6E2"/>
</linearGradient>
<linearGradient id="paint8_linear" x1="121.938" y1="79.1961" x2="549.886" y2="55.4806" gradientUnits="userSpaceOnUse">
<stop stop-color="#DDB7E0"/>
<stop offset="1" stop-color="#98E6E2"/>
</linearGradient>
<linearGradient id="paint9_linear" x1="121.938" y1="79.1961" x2="549.886" y2="55.4806" gradientUnits="userSpaceOnUse">
<stop stop-color="#DDB7E0"/>
<stop offset="1" stop-color="#98E6E2"/>
</linearGradient>
<linearGradient id="paint10_linear" x1="121.938" y1="78.8473" x2="549.886" y2="55.1318" gradientUnits="userSpaceOnUse">
<stop stop-color="#DDB7E0"/>
<stop offset="1" stop-color="#98E6E2"/>
</linearGradient>
<clipPath id="clip0">
<rect width="680" height="166" fill="white"/>
</clipPath>
</defs>
</svg>
