<svg width="680" height="166" viewBox="0 0 680 166" fill="none" xmlns="http://www.w3.org/2000/svg">
<g clip-path="url(#clip0)">
<path d="M-561.88 -420.67L1292.7 76.2625M-563.174 -415.843L1291.4 81.0895M-564.467 -411.016L1290.11 85.9169M-565.761 -406.188L1288.82 90.7446M-567.055 -401.36L1287.52 95.5726M-568.348 -396.532L1286.23 100.401M-569.642 -391.703L1284.94 105.229M-570.936 -386.875L1283.64 110.058M-572.23 -382.046L1282.35 114.886M-573.524 -377.217L1281.05 119.715M-574.817 -372.389L1279.76 124.544M-576.111 -367.56L1278.47 129.373M-577.405 -362.731L1277.17 134.202M-578.699 -357.901L1275.88 139.031M-579.993 -353.072L1274.58 143.86M-581.287 -348.243L1273.29 148.69M-582.581 -343.414L1272 153.519M-583.875 -338.585L1270.7 158.348M-585.169 -333.755L1269.41 163.177M-586.463 -328.926L1268.11 168.007M-587.757 -324.097L1266.82 172.836M-589.051 -319.267L1265.53 177.666M-590.345 -314.438L1264.23 182.495M-591.639 -309.608L1262.94 187.324M-592.933 -304.779L1261.64 192.154M-594.227 -299.949L1260.35 196.983M-595.522 -295.12L1259.06 201.813M-596.816 -290.291L1257.76 206.642M-598.11 -285.461L1256.47 211.472M-599.404 -280.632L1255.17 216.301M-600.698 -275.802L1253.88 221.131M-601.992 -270.972L1252.59 225.96M-603.286 -266.143L1251.29 230.79M-604.58 -261.313L1250 235.619M-605.874 -256.484L1248.7 240.449M-607.168 -251.654L1247.41 245.278M-608.462 -246.825L1246.12 250.108M-609.756 -241.995L1244.82 254.938M-611.05 -237.166L1243.53 259.767M-612.344 -232.336L1242.23 264.597M-613.639 -227.506L1240.94 269.426M-614.933 -222.677L1239.64 274.256M-616.227 -217.847L1238.35 279.086M-617.521 -213.018L1237.06 283.915M-618.815 -208.188L1235.76 288.745M-620.109 -203.358L1234.47 293.574M-621.403 -198.529L1233.17 298.404M-622.697 -193.699L1231.88 303.234M-623.991 -188.87L1230.59 308.063M-625.285 -184.04L1229.29 312.893M-626.579 -179.21L1228 317.722M-627.874 -174.381L1226.7 322.552M-629.168 -169.551L1225.41 327.382M-630.462 -164.721L1224.12 332.211M-631.756 -159.892L1222.82 337.041M-633.05 -155.062L1221.53 341.871M-634.344 -150.233L1220.23 346.7M-635.638 -145.403L1218.94 351.53M-636.932 -140.573L1217.65 356.359M-638.226 -135.744L1216.35 361.189M-639.52 -130.914L1215.06 366.019M-640.814 -126.084L1213.76 370.848M-642.109 -121.255L1212.47 375.678M-643.403 -116.425L1211.17 380.508M-644.697 -111.596L1209.88 385.337M-645.991 -106.766L1208.59 390.167M-647.285 -101.936L1207.29 394.996M-648.579 -97.1067L1206 399.826M-649.873 -92.277L1204.7 404.656M-651.167 -87.4474L1203.41 409.485M-652.461 -82.6178L1202.12 414.315M-653.755 -77.7881L1200.82 419.145M-655.05 -72.9585L1199.53 423.974M-656.344 -68.1289L1198.23 428.804M-657.638 -63.2993L1196.94 433.633M-658.932 -58.4697L1195.65 438.463M-660.226 -53.64L1194.35 443.293M-661.52 -48.8104L1193.06 448.122M-662.814 -43.9808L1191.76 452.952M-664.108 -39.1512L1190.47 457.782M-665.402 -34.3216L1189.18 462.611M-666.696 -29.492L1187.88 467.441M-667.99 -24.6624L1186.59 472.27M-669.285 -19.8328L1185.29 477.1M-670.579 -15.0031L1184 481.93M-671.873 -10.1736L1182.7 486.759M-673.167 -5.34397L1181.41 491.589M-674.461 -0.5144L1180.12 496.418M-675.755 4.31523L1178.82 501.248M-677.049 9.1448L1177.53 506.078M-678.343 13.9744L1176.23 510.907M-679.637 18.8039L1174.94 515.737M-680.931 23.6335L1173.65 520.566M-682.225 28.4631L1172.35 525.396M-683.519 33.2926L1171.06 530.225M-684.814 38.1222L1169.76 535.055M-686.108 42.9517L1168.47 539.884M-687.402 47.7812L1167.18 544.714M-688.696 52.6108L1165.88 549.543M-689.99 57.4403L1164.59 554.373M-691.284 62.2698L1163.29 559.203M-692.578 67.0992L1162 564.032M-693.872 71.9287L1160.71 568.861M-695.166 76.7582L1159.41 573.691M-696.46 81.5876L1158.12 578.52M-697.754 86.417L1156.82 583.35M-699.048 91.2464L1155.53 588.179M-700.342 96.0758L1154.24 593.009M-701.636 100.905L1152.94 597.838M-702.93 105.734L1151.65 602.667M-704.224 110.564L1150.35 607.496M-705.518 115.393L1149.06 612.326M-706.812 120.222L1147.77 617.155M-708.106 125.051L1146.47 621.984M-709.402 129.886L1145.18 626.819M-710.697 134.721L1143.88 631.654" stroke="#EBEBEB"/>
</g>
<mask id="path-2-outside-1" maskUnits="userSpaceOnUse" x="89.7109" y="11.5149" width="504" height="143" fill="black">
<rect fill="white" x="89.7109" y="11.5149" width="504" height="143"/>
<path d="M131.93 107.986L120.53 109.033L102.605 87.0644V110.68L92.7109 111.59V61.1896L102.605 60.2804V82.5284L119.813 58.6993L131.213 57.6517L112.643 83.8381L131.93 107.986Z"/>
<path d="M170.346 104.456L167.335 95.6606L147.331 97.4987L144.32 106.847L133.637 107.829L151.203 55.8149L163.463 54.6883L181.101 103.468L170.346 104.456ZM150.486 87.9208L164.252 86.6559L157.369 66.6963L150.486 87.9208Z"/>
<path d="M225.193 99.4162L213.793 100.464L195.869 78.4947V102.111L185.974 103.02V52.6199L195.869 51.7107V73.9587L213.076 50.1296L224.476 49.082L205.906 75.2684L225.193 99.4162Z"/>
<path d="M268.044 88.9267C262.978 94.4322 256.812 97.5188 249.546 98.1864C242.281 98.854 236.115 96.9006 231.048 92.3262C226.029 87.6993 223.52 81.7139 223.52 74.3699C223.52 67.0259 226.029 60.6033 231.048 55.1022C236.115 49.5486 242.281 46.438 249.546 45.7704C256.812 45.1028 262.978 47.0802 268.044 51.7027C273.111 56.2771 275.644 62.2363 275.644 69.5803C275.644 76.9243 273.111 83.3731 268.044 88.9267ZM238.003 84.9191C241.11 87.7056 244.958 88.8881 249.546 88.4664C254.135 88.0448 257.983 86.1552 261.09 82.7977C264.197 79.3923 265.75 75.2895 265.75 70.4895C265.75 65.6895 264.197 61.8723 261.09 59.0377C257.983 56.2032 254.135 54.9968 249.546 55.4184C244.958 55.8401 241.11 57.7536 238.003 61.1591C234.896 64.5646 233.343 68.6673 233.343 73.4673C233.343 78.2673 234.896 82.0846 238.003 84.9191Z"/>
<path d="M292.493 83.7282L313.644 81.7847V91.2887L282.598 94.1413V43.7414L313.285 40.9216V50.4256L292.493 52.3362V63.0642L311.493 61.3183V70.6783L292.493 72.4242V83.7282Z"/>
<path d="M376.04 35.1552V85.5552L366.146 86.4644V45.5684L348.437 47.1957V88.0917L338.542 89.0008V38.6008L376.04 35.1552Z"/>
<path d="M381.513 85.0524V75.8364C384.476 75.9961 386.699 75.1919 388.18 73.4237C389.662 71.6556 390.403 68.3955 390.403 63.6435V33.8355L424.531 30.6996V81.0996L414.709 82.0021V41.1061L400.226 42.4369V62.4529C400.226 66.8209 399.7 70.5412 398.648 73.6139C397.597 76.6865 396.139 79.0284 394.275 80.6397C392.458 82.2466 390.499 83.3867 388.396 84.06C386.34 84.7288 384.046 85.0596 381.513 85.0524Z"/>
<path d="M466.1 77.2799L463.089 68.4846L443.085 70.3227L440.074 79.6714L429.391 80.653L446.957 28.6389L459.217 27.5123L476.855 76.2917L466.1 77.2799ZM446.24 60.7448L460.006 59.4799L453.123 39.5203L446.24 60.7448Z"/>
<path d="M511.284 22.7281V32.2321L497.733 33.4773V74.3733L487.838 75.2825V34.3865L474.359 35.625V26.121L511.284 22.7281Z"/>
<path d="M535.52 37.0611C540.348 36.6175 544.411 37.8762 547.709 40.8371C551.007 43.7981 552.656 47.6545 552.656 52.4065C552.656 57.1585 551.007 61.3181 547.709 64.8851C544.411 68.4522 540.348 70.4575 535.52 70.9011L516.807 72.6206V22.2206L526.701 21.3114V37.8714L535.52 37.0611ZM535.52 61.6131C537.623 61.4199 539.368 60.5395 540.754 58.9722C542.14 57.4048 542.833 55.5171 542.833 53.3091C542.833 51.1491 542.14 49.4128 540.754 48.1002C539.368 46.7395 537.623 46.1558 535.52 46.3491L526.701 47.1594V62.4234L535.52 61.6131Z"/>
<path d="M568.992 58.3215L590.143 56.378V65.882L559.098 68.7346V18.3346L589.784 15.5149V25.0189L568.992 26.9295V37.6575L587.992 35.9116V45.2716L568.992 47.0175V58.3215Z"/>
<path d="M126.725 151.136C121.69 151.599 117.532 150.301 114.249 147.242C110.967 144.184 109.326 140.191 109.326 135.263C109.326 130.303 110.967 126.008 114.249 122.378C117.532 118.717 121.69 116.655 126.725 116.192C129.752 115.914 132.54 116.378 135.09 117.584C137.671 118.754 139.678 120.49 141.112 122.79L135.424 126.625C134.596 125.197 133.417 124.137 131.887 123.446C130.358 122.722 128.637 122.448 126.725 122.624C123.475 122.923 120.846 124.188 118.838 126.421C116.862 128.65 115.875 131.397 115.875 134.661C115.875 137.893 116.862 140.442 118.838 142.309C120.846 144.172 123.475 144.955 126.725 144.656C128.637 144.48 130.358 143.906 131.887 142.934C133.449 141.926 134.628 140.65 135.424 139.105L141.112 141.894C139.678 144.458 137.687 146.577 135.137 148.251C132.588 149.893 129.784 150.855 126.725 151.136Z"/>
<path d="M151.761 141.828L165.861 140.532V146.868L145.164 148.77V115.17L165.622 113.29V119.626L151.761 120.9V128.052L164.427 126.888V133.128L151.761 134.292V141.828Z"/>
<path d="M189.535 111.093V117.429L177.107 118.571V145.835L170.511 146.441V112.841L189.535 111.093Z"/>
<path d="M219.296 137.59C215.918 141.26 211.807 143.318 206.964 143.763C202.12 144.208 198.01 142.906 194.632 139.856C191.286 136.772 189.613 132.782 189.613 127.886C189.613 122.99 191.286 118.708 194.632 115.04C198.01 111.338 202.12 109.264 206.964 108.819C211.807 108.374 215.918 109.692 219.296 112.774C222.674 115.824 224.363 119.796 224.363 124.692C224.363 129.588 222.674 133.888 219.296 137.59ZM199.268 134.918C201.34 136.776 203.905 137.564 206.964 137.283C210.023 137.002 212.588 135.742 214.659 133.504C216.731 131.234 217.766 128.499 217.766 125.299C217.766 122.099 216.731 119.554 214.659 117.664C212.588 115.774 210.023 114.97 206.964 115.251C203.905 115.532 201.34 116.808 199.268 119.078C197.197 121.349 196.161 124.084 196.161 127.284C196.161 130.484 197.197 133.029 199.268 134.918Z"/>
<path d="M253.221 132.505L256.805 132.175V144.943L250.209 145.549V139.118L231.711 140.817V147.249L225.115 147.855V135.087L228.365 134.789C230.214 132.027 231.138 128.15 231.138 123.158V107.27L253.221 105.241V132.505ZM235.439 134.139L246.624 133.111V112.039L237.734 112.856V122.648C237.734 127.512 236.969 131.342 235.439 134.139Z"/>
<path d="M280.231 102.759L286.779 102.157V135.757L280.231 136.359V122.439L267.803 123.581V137.501L261.207 138.107V104.507L267.803 103.901V117.245L280.231 116.103V102.759Z"/>
<path d="M316.607 99.4164V133.016L310.011 133.622V121.958L306.235 122.305L298.539 134.677L291.131 135.357L299.304 122.222C297.169 121.651 295.432 120.498 294.094 118.765C292.756 117.032 292.086 115.046 292.086 112.806C292.086 109.734 293.17 107.01 295.337 104.635C297.504 102.26 300.133 100.93 303.224 100.646L316.607 99.4164ZM303.224 116.774L310.011 116.15V106.214L303.224 106.838C301.981 106.952 300.913 107.53 300.021 108.572C299.129 109.614 298.683 110.823 298.683 112.199C298.683 113.575 299.129 114.718 300.021 115.628C300.913 116.506 301.981 116.888 303.224 116.774Z"/>
<path d="M354.991 112.065C357.922 113.492 359.388 115.917 359.388 119.341C359.388 122.189 358.384 124.618 356.377 126.626C354.369 128.635 351.9 129.773 348.968 130.043L334.772 131.347V97.7473L347.964 96.5351C350.832 96.2716 353.238 96.9465 355.182 98.5599C357.157 100.138 358.145 102.304 358.145 105.056C358.145 107.84 357.094 110.176 354.991 112.065ZM347.964 102.727L341.368 103.333V110.725L347.964 110.119C348.984 110.025 349.828 109.596 350.498 108.83C351.199 108.062 351.549 107.15 351.549 106.094C351.549 105.038 351.215 104.188 350.545 103.546C349.876 102.903 349.016 102.63 347.964 102.727ZM348.968 123.851C350.083 123.748 351.007 123.295 351.74 122.492C352.473 121.657 352.84 120.663 352.84 119.511C352.84 118.391 352.473 117.497 351.74 116.828C351.007 116.127 350.083 115.828 348.968 115.931L341.368 116.629V124.549L348.968 123.851Z"/>
<path d="M370.309 121.746L384.409 120.45V126.786L363.712 128.688V95.088L384.17 93.2082V99.5442L370.309 100.818V107.97L382.975 106.806V113.046L370.309 114.21V121.746Z"/>
<path d="M406.505 91.1559L413.101 90.5498V124.15L406.505 124.756V112.468C404.466 113.519 402.283 114.152 399.957 114.366C396.579 114.676 393.791 113.988 391.592 112.302C389.425 110.581 388.342 108.089 388.342 104.825V92.8249L394.938 92.2188V103.355C394.938 104.955 395.4 106.176 396.324 107.019C397.28 107.828 398.539 108.16 400.1 108.016C402.426 107.803 404.561 107.143 406.505 106.036V91.1559Z"/>
<path d="M425.902 116.638L440.003 115.342V121.678L419.306 123.58V89.9797L439.764 88.0999V94.4359L425.902 95.7096V102.862L438.569 101.698V107.938L425.902 109.102V116.638Z"/>
<path d="M457.128 86.5043C460.347 86.2086 463.055 87.0477 465.254 89.0217C467.453 90.9956 468.552 93.5666 468.552 96.7346C468.552 99.9026 467.453 102.676 465.254 105.054C463.055 107.432 460.347 108.769 457.128 109.064L451.249 109.605V120.645L444.653 121.251V87.6507L457.128 86.5043ZM457.128 102.872C458.53 102.743 459.693 102.157 460.617 101.112C461.541 100.035 462.004 98.7763 462.004 97.3363C462.004 95.8643 461.541 94.6908 460.617 93.8157C459.693 92.9406 458.53 92.5675 457.128 92.6963L451.249 93.2366V103.413L457.128 102.872Z"/>
<path d="M500.766 111.727C497.389 115.397 493.278 117.455 488.434 117.9C483.591 118.345 479.48 117.042 476.102 113.993C472.756 110.908 471.083 106.918 471.083 102.022C471.083 97.126 472.756 92.8443 476.102 89.1768C479.48 85.4745 483.591 83.4008 488.434 82.9557C493.278 82.5106 497.389 83.8289 500.766 86.9105C504.144 89.9602 505.833 93.933 505.833 98.829C505.833 103.725 504.144 108.024 500.766 111.727ZM480.739 109.055C482.81 110.912 485.375 111.701 488.434 111.42C491.493 111.139 494.059 109.879 496.13 107.641C498.201 105.37 499.237 102.635 499.237 99.4351C499.237 96.2351 498.201 93.6902 496.13 91.8006C494.059 89.9109 491.493 89.1066 488.434 89.3877C485.375 89.6688 482.81 90.9445 480.739 93.2148C478.667 95.4851 477.632 98.2203 477.632 101.42C477.632 104.62 478.667 107.165 480.739 109.055Z"/>
<path d="M543.211 78.5944V112.194L536.663 112.796V91.0041L527.246 107.469L526.482 107.54L517.065 92.8529V114.597L510.469 115.203V81.603L517.257 80.9793L526.864 95.9845L536.424 79.2181L543.211 78.5944Z"/>
<path d="M555.659 99.7706C555.659 98.3626 556.074 96.9805 556.902 95.6244C557.763 94.2653 558.687 93.1564 559.674 92.2976C560.662 91.4069 561.57 90.3954 562.399 89.2633C563.259 88.1282 563.69 87.0327 563.69 85.9767C563.69 84.8567 563.307 84.0278 562.542 83.4901C561.778 82.9524 560.71 82.7465 559.34 82.8724C556.663 83.1183 554.767 84.7166 553.652 87.667L548.012 84.9213C548.968 82.4655 550.481 80.5024 552.552 79.0321C554.656 77.5268 556.998 76.6556 559.579 76.4184C562.479 76.152 564.98 76.7701 567.083 78.2729C569.218 79.7407 570.286 81.9466 570.286 84.8906C570.286 86.2346 569.999 87.509 569.425 88.7137C568.884 89.9154 568.214 90.9689 567.418 91.8741C566.653 92.7444 565.872 93.5841 565.076 94.3933C564.311 95.1676 563.642 95.9651 563.068 96.7858C562.526 97.6036 562.256 98.3965 562.256 99.1645L555.659 99.7706ZM561.825 109.908C561.029 110.781 560.073 111.269 558.957 111.372C557.842 111.474 556.886 111.162 556.09 110.435C555.293 109.708 554.895 108.785 554.895 107.665C554.895 106.545 555.293 105.548 556.09 104.675C556.886 103.802 557.842 103.314 558.957 103.212C560.073 103.109 561.029 103.421 561.825 104.148C562.622 104.875 563.02 105.798 563.02 106.918C563.02 108.038 562.622 109.035 561.825 109.908Z"/>
</mask>
<path d="M131.93 107.986L120.53 109.033L102.605 87.0644V110.68L92.7109 111.59V61.1896L102.605 60.2804V82.5284L119.813 58.6993L131.213 57.6517L112.643 83.8381L131.93 107.986Z" fill="url(#paint0_linear)"/>
<path d="M170.346 104.456L167.335 95.6606L147.331 97.4987L144.32 106.847L133.637 107.829L151.203 55.8149L163.463 54.6883L181.101 103.468L170.346 104.456ZM150.486 87.9208L164.252 86.6559L157.369 66.6963L150.486 87.9208Z" fill="url(#paint1_linear)"/>
<path d="M225.193 99.4162L213.793 100.464L195.869 78.4947V102.111L185.974 103.02V52.6199L195.869 51.7107V73.9587L213.076 50.1296L224.476 49.082L205.906 75.2684L225.193 99.4162Z" fill="url(#paint2_linear)"/>
<path d="M268.044 88.9267C262.978 94.4322 256.812 97.5188 249.546 98.1864C242.281 98.854 236.115 96.9006 231.048 92.3262C226.029 87.6993 223.52 81.7139 223.52 74.3699C223.52 67.0259 226.029 60.6033 231.048 55.1022C236.115 49.5486 242.281 46.438 249.546 45.7704C256.812 45.1028 262.978 47.0802 268.044 51.7027C273.111 56.2771 275.644 62.2363 275.644 69.5803C275.644 76.9243 273.111 83.3731 268.044 88.9267ZM238.003 84.9191C241.11 87.7056 244.958 88.8881 249.546 88.4664C254.135 88.0448 257.983 86.1552 261.09 82.7977C264.197 79.3923 265.75 75.2895 265.75 70.4895C265.75 65.6895 264.197 61.8723 261.09 59.0377C257.983 56.2032 254.135 54.9968 249.546 55.4184C244.958 55.8401 241.11 57.7536 238.003 61.1591C234.896 64.5646 233.343 68.6673 233.343 73.4673C233.343 78.2673 234.896 82.0846 238.003 84.9191Z" fill="url(#paint3_linear)"/>
<path d="M292.493 83.7282L313.644 81.7847V91.2887L282.598 94.1413V43.7414L313.285 40.9216V50.4256L292.493 52.3362V63.0642L311.493 61.3183V70.6783L292.493 72.4242V83.7282Z" fill="url(#paint4_linear)"/>
<path d="M376.04 35.1552V85.5552L366.146 86.4644V45.5684L348.437 47.1957V88.0917L338.542 89.0008V38.6008L376.04 35.1552Z" fill="url(#paint5_linear)"/>
<path d="M381.513 85.0524V75.8364C384.476 75.9961 386.699 75.1919 388.18 73.4237C389.662 71.6556 390.403 68.3955 390.403 63.6435V33.8355L424.531 30.6996V81.0996L414.709 82.0021V41.1061L400.226 42.4369V62.4529C400.226 66.8209 399.7 70.5412 398.648 73.6139C397.597 76.6865 396.139 79.0284 394.275 80.6397C392.458 82.2466 390.499 83.3867 388.396 84.06C386.34 84.7288 384.046 85.0596 381.513 85.0524Z" fill="url(#paint6_linear)"/>
<path d="M466.1 77.2799L463.089 68.4846L443.085 70.3227L440.074 79.6714L429.391 80.653L446.957 28.6389L459.217 27.5123L476.855 76.2917L466.1 77.2799ZM446.24 60.7448L460.006 59.4799L453.123 39.5203L446.24 60.7448Z" fill="url(#paint7_linear)"/>
<path d="M511.284 22.7281V32.2321L497.733 33.4773V74.3733L487.838 75.2825V34.3865L474.359 35.625V26.121L511.284 22.7281Z" fill="url(#paint8_linear)"/>
<path d="M535.52 37.0611C540.348 36.6175 544.411 37.8762 547.709 40.8371C551.007 43.7981 552.656 47.6545 552.656 52.4065C552.656 57.1585 551.007 61.3181 547.709 64.8851C544.411 68.4522 540.348 70.4575 535.52 70.9011L516.807 72.6206V22.2206L526.701 21.3114V37.8714L535.52 37.0611ZM535.52 61.6131C537.623 61.4199 539.368 60.5395 540.754 58.9722C542.14 57.4048 542.833 55.5171 542.833 53.3091C542.833 51.1491 542.14 49.4128 540.754 48.1002C539.368 46.7395 537.623 46.1558 535.52 46.3491L526.701 47.1594V62.4234L535.52 61.6131Z" fill="url(#paint9_linear)"/>
<path d="M568.992 58.3215L590.143 56.378V65.882L559.098 68.7346V18.3346L589.784 15.5149V25.0189L568.992 26.9295V37.6575L587.992 35.9116V45.2716L568.992 47.0175V58.3215Z" fill="url(#paint10_linear)"/>
<path d="M126.725 151.136C121.69 151.599 117.532 150.301 114.249 147.242C110.967 144.184 109.326 140.191 109.326 135.263C109.326 130.303 110.967 126.008 114.249 122.378C117.532 118.717 121.69 116.655 126.725 116.192C129.752 115.914 132.54 116.378 135.09 117.584C137.671 118.754 139.678 120.49 141.112 122.79L135.424 126.625C134.596 125.197 133.417 124.137 131.887 123.446C130.358 122.722 128.637 122.448 126.725 122.624C123.475 122.923 120.846 124.188 118.838 126.421C116.862 128.65 115.875 131.397 115.875 134.661C115.875 137.893 116.862 140.442 118.838 142.309C120.846 144.172 123.475 144.955 126.725 144.656C128.637 144.48 130.358 143.906 131.887 142.934C133.449 141.926 134.628 140.65 135.424 139.105L141.112 141.894C139.678 144.458 137.687 146.577 135.137 148.251C132.588 149.893 129.784 150.855 126.725 151.136Z" fill="url(#paint11_linear)"/>
<path d="M151.761 141.828L165.861 140.532V146.868L145.164 148.77V115.17L165.622 113.29V119.626L151.761 120.9V128.052L164.427 126.888V133.128L151.761 134.292V141.828Z" fill="url(#paint12_linear)"/>
<path d="M189.535 111.093V117.429L177.107 118.571V145.835L170.511 146.441V112.841L189.535 111.093Z" fill="url(#paint13_linear)"/>
<path d="M219.296 137.59C215.918 141.26 211.807 143.318 206.964 143.763C202.12 144.208 198.01 142.906 194.632 139.856C191.286 136.772 189.613 132.782 189.613 127.886C189.613 122.99 191.286 118.708 194.632 115.04C198.01 111.338 202.12 109.264 206.964 108.819C211.807 108.374 215.918 109.692 219.296 112.774C222.674 115.824 224.363 119.796 224.363 124.692C224.363 129.588 222.674 133.888 219.296 137.59ZM199.268 134.918C201.34 136.776 203.905 137.564 206.964 137.283C210.023 137.002 212.588 135.742 214.659 133.504C216.731 131.234 217.766 128.499 217.766 125.299C217.766 122.099 216.731 119.554 214.659 117.664C212.588 115.774 210.023 114.97 206.964 115.251C203.905 115.532 201.34 116.808 199.268 119.078C197.197 121.349 196.161 124.084 196.161 127.284C196.161 130.484 197.197 133.029 199.268 134.918Z" fill="url(#paint14_linear)"/>
<path d="M253.221 132.505L256.805 132.175V144.943L250.209 145.549V139.118L231.711 140.817V147.249L225.115 147.855V135.087L228.365 134.789C230.214 132.027 231.138 128.15 231.138 123.158V107.27L253.221 105.241V132.505ZM235.439 134.139L246.624 133.111V112.039L237.734 112.856V122.648C237.734 127.512 236.969 131.342 235.439 134.139Z" fill="url(#paint15_linear)"/>
<path d="M280.231 102.759L286.779 102.157V135.757L280.231 136.359V122.439L267.803 123.581V137.501L261.207 138.107V104.507L267.803 103.901V117.245L280.231 116.103V102.759Z" fill="url(#paint16_linear)"/>
<path d="M316.607 99.4164V133.016L310.011 133.622V121.958L306.235 122.305L298.539 134.677L291.131 135.357L299.304 122.222C297.169 121.651 295.432 120.498 294.094 118.765C292.756 117.032 292.086 115.046 292.086 112.806C292.086 109.734 293.17 107.01 295.337 104.635C297.504 102.26 300.133 100.93 303.224 100.646L316.607 99.4164ZM303.224 116.774L310.011 116.15V106.214L303.224 106.838C301.981 106.952 300.913 107.53 300.021 108.572C299.129 109.614 298.683 110.823 298.683 112.199C298.683 113.575 299.129 114.718 300.021 115.628C300.913 116.506 301.981 116.888 303.224 116.774Z" fill="url(#paint17_linear)"/>
<path d="M354.991 112.065C357.922 113.492 359.388 115.917 359.388 119.341C359.388 122.189 358.384 124.618 356.377 126.626C354.369 128.635 351.9 129.773 348.968 130.043L334.772 131.347V97.7473L347.964 96.5351C350.832 96.2716 353.238 96.9465 355.182 98.5599C357.157 100.138 358.145 102.304 358.145 105.056C358.145 107.84 357.094 110.176 354.991 112.065ZM347.964 102.727L341.368 103.333V110.725L347.964 110.119C348.984 110.025 349.828 109.596 350.498 108.83C351.199 108.062 351.549 107.15 351.549 106.094C351.549 105.038 351.215 104.188 350.545 103.546C349.876 102.903 349.016 102.63 347.964 102.727ZM348.968 123.851C350.083 123.748 351.007 123.295 351.74 122.492C352.473 121.657 352.84 120.663 352.84 119.511C352.84 118.391 352.473 117.497 351.74 116.828C351.007 116.127 350.083 115.828 348.968 115.931L341.368 116.629V124.549L348.968 123.851Z" fill="url(#paint18_linear)"/>
<path d="M370.309 121.746L384.409 120.45V126.786L363.712 128.688V95.088L384.17 93.2082V99.5442L370.309 100.818V107.97L382.975 106.806V113.046L370.309 114.21V121.746Z" fill="url(#paint19_linear)"/>
<path d="M406.505 91.1559L413.101 90.5498V124.15L406.505 124.756V112.468C404.466 113.519 402.283 114.152 399.957 114.366C396.579 114.676 393.791 113.988 391.592 112.302C389.425 110.581 388.342 108.089 388.342 104.825V92.8249L394.938 92.2188V103.355C394.938 104.955 395.4 106.176 396.324 107.019C397.28 107.828 398.539 108.16 400.1 108.016C402.426 107.803 404.561 107.143 406.505 106.036V91.1559Z" fill="url(#paint20_linear)"/>
<path d="M425.902 116.638L440.003 115.342V121.678L419.306 123.58V89.9797L439.764 88.0999V94.4359L425.902 95.7096V102.862L438.569 101.698V107.938L425.902 109.102V116.638Z" fill="url(#paint21_linear)"/>
<path d="M457.128 86.5043C460.347 86.2086 463.055 87.0477 465.254 89.0217C467.453 90.9956 468.552 93.5666 468.552 96.7346C468.552 99.9026 467.453 102.676 465.254 105.054C463.055 107.432 460.347 108.769 457.128 109.064L451.249 109.605V120.645L444.653 121.251V87.6507L457.128 86.5043ZM457.128 102.872C458.53 102.743 459.693 102.157 460.617 101.112C461.541 100.035 462.004 98.7763 462.004 97.3363C462.004 95.8643 461.541 94.6908 460.617 93.8157C459.693 92.9406 458.53 92.5675 457.128 92.6963L451.249 93.2366V103.413L457.128 102.872Z" fill="url(#paint22_linear)"/>
<path d="M500.766 111.727C497.389 115.397 493.278 117.455 488.434 117.9C483.591 118.345 479.48 117.042 476.102 113.993C472.756 110.908 471.083 106.918 471.083 102.022C471.083 97.126 472.756 92.8443 476.102 89.1768C479.48 85.4745 483.591 83.4008 488.434 82.9557C493.278 82.5106 497.389 83.8289 500.766 86.9105C504.144 89.9602 505.833 93.933 505.833 98.829C505.833 103.725 504.144 108.024 500.766 111.727ZM480.739 109.055C482.81 110.912 485.375 111.701 488.434 111.42C491.493 111.139 494.059 109.879 496.13 107.641C498.201 105.37 499.237 102.635 499.237 99.4351C499.237 96.2351 498.201 93.6902 496.13 91.8006C494.059 89.9109 491.493 89.1066 488.434 89.3877C485.375 89.6688 482.81 90.9445 480.739 93.2148C478.667 95.4851 477.632 98.2203 477.632 101.42C477.632 104.62 478.667 107.165 480.739 109.055Z" fill="url(#paint23_linear)"/>
<path d="M543.211 78.5944V112.194L536.663 112.796V91.0041L527.246 107.469L526.482 107.54L517.065 92.8529V114.597L510.469 115.203V81.603L517.257 80.9793L526.864 95.9845L536.424 79.2181L543.211 78.5944Z" fill="url(#paint24_linear)"/>
<path d="M555.659 99.7706C555.659 98.3626 556.074 96.9805 556.902 95.6244C557.763 94.2653 558.687 93.1564 559.674 92.2976C560.662 91.4069 561.57 90.3954 562.399 89.2633C563.259 88.1282 563.69 87.0327 563.69 85.9767C563.69 84.8567 563.307 84.0278 562.542 83.4901C561.778 82.9524 560.71 82.7465 559.34 82.8724C556.663 83.1183 554.767 84.7166 553.652 87.667L548.012 84.9213C548.968 82.4655 550.481 80.5024 552.552 79.0321C554.656 77.5268 556.998 76.6556 559.579 76.4184C562.479 76.152 564.98 76.7701 567.083 78.2729C569.218 79.7407 570.286 81.9466 570.286 84.8906C570.286 86.2346 569.999 87.509 569.425 88.7137C568.884 89.9154 568.214 90.9689 567.418 91.8741C566.653 92.7444 565.872 93.5841 565.076 94.3933C564.311 95.1676 563.642 95.9651 563.068 96.7858C562.526 97.6036 562.256 98.3965 562.256 99.1645L555.659 99.7706ZM561.825 109.908C561.029 110.781 560.073 111.269 558.957 111.372C557.842 111.474 556.886 111.162 556.09 110.435C555.293 109.708 554.895 108.785 554.895 107.665C554.895 106.545 555.293 105.548 556.09 104.675C556.886 103.802 557.842 103.314 558.957 103.212C560.073 103.109 561.029 103.421 561.825 104.148C562.622 104.875 563.02 105.798 563.02 106.918C563.02 108.038 562.622 109.035 561.825 109.908Z" fill="url(#paint25_linear)"/>
<path d="M131.93 107.986L120.53 109.033L102.605 87.0644V110.68L92.7109 111.59V61.1896L102.605 60.2804V82.5284L119.813 58.6993L131.213 57.6517L112.643 83.8381L131.93 107.986Z" stroke="white" stroke-width="6" mask="url(#path-2-outside-1)"/>
<path d="M170.346 104.456L167.335 95.6606L147.331 97.4987L144.32 106.847L133.637 107.829L151.203 55.8149L163.463 54.6883L181.101 103.468L170.346 104.456ZM150.486 87.9208L164.252 86.6559L157.369 66.6963L150.486 87.9208Z" stroke="white" stroke-width="6" mask="url(#path-2-outside-1)"/>
<path d="M225.193 99.4162L213.793 100.464L195.869 78.4947V102.111L185.974 103.02V52.6199L195.869 51.7107V73.9587L213.076 50.1296L224.476 49.082L205.906 75.2684L225.193 99.4162Z" stroke="white" stroke-width="6" mask="url(#path-2-outside-1)"/>
<path d="M268.044 88.9267C262.978 94.4322 256.812 97.5188 249.546 98.1864C242.281 98.854 236.115 96.9006 231.048 92.3262C226.029 87.6993 223.52 81.7139 223.52 74.3699C223.52 67.0259 226.029 60.6033 231.048 55.1022C236.115 49.5486 242.281 46.438 249.546 45.7704C256.812 45.1028 262.978 47.0802 268.044 51.7027C273.111 56.2771 275.644 62.2363 275.644 69.5803C275.644 76.9243 273.111 83.3731 268.044 88.9267ZM238.003 84.9191C241.11 87.7056 244.958 88.8881 249.546 88.4664C254.135 88.0448 257.983 86.1552 261.09 82.7977C264.197 79.3923 265.75 75.2895 265.75 70.4895C265.75 65.6895 264.197 61.8723 261.09 59.0377C257.983 56.2032 254.135 54.9968 249.546 55.4184C244.958 55.8401 241.11 57.7536 238.003 61.1591C234.896 64.5646 233.343 68.6673 233.343 73.4673C233.343 78.2673 234.896 82.0846 238.003 84.9191Z" stroke="white" stroke-width="6" mask="url(#path-2-outside-1)"/>
<path d="M292.493 83.7282L313.644 81.7847V91.2887L282.598 94.1413V43.7414L313.285 40.9216V50.4256L292.493 52.3362V63.0642L311.493 61.3183V70.6783L292.493 72.4242V83.7282Z" stroke="white" stroke-width="6" mask="url(#path-2-outside-1)"/>
<path d="M376.04 35.1552V85.5552L366.146 86.4644V45.5684L348.437 47.1957V88.0917L338.542 89.0008V38.6008L376.04 35.1552Z" stroke="white" stroke-width="6" mask="url(#path-2-outside-1)"/>
<path d="M381.513 85.0524V75.8364C384.476 75.9961 386.699 75.1919 388.18 73.4237C389.662 71.6556 390.403 68.3955 390.403 63.6435V33.8355L424.531 30.6996V81.0996L414.709 82.0021V41.1061L400.226 42.4369V62.4529C400.226 66.8209 399.7 70.5412 398.648 73.6139C397.597 76.6865 396.139 79.0284 394.275 80.6397C392.458 82.2466 390.499 83.3867 388.396 84.06C386.34 84.7288 384.046 85.0596 381.513 85.0524Z" stroke="white" stroke-width="6" mask="url(#path-2-outside-1)"/>
<path d="M466.1 77.2799L463.089 68.4846L443.085 70.3227L440.074 79.6714L429.391 80.653L446.957 28.6389L459.217 27.5123L476.855 76.2917L466.1 77.2799ZM446.24 60.7448L460.006 59.4799L453.123 39.5203L446.24 60.7448Z" stroke="white" stroke-width="6" mask="url(#path-2-outside-1)"/>
<path d="M511.284 22.7281V32.2321L497.733 33.4773V74.3733L487.838 75.2825V34.3865L474.359 35.625V26.121L511.284 22.7281Z" stroke="white" stroke-width="6" mask="url(#path-2-outside-1)"/>
<path d="M535.52 37.0611C540.348 36.6175 544.411 37.8762 547.709 40.8371C551.007 43.7981 552.656 47.6545 552.656 52.4065C552.656 57.1585 551.007 61.3181 547.709 64.8851C544.411 68.4522 540.348 70.4575 535.52 70.9011L516.807 72.6206V22.2206L526.701 21.3114V37.8714L535.52 37.0611ZM535.52 61.6131C537.623 61.4199 539.368 60.5395 540.754 58.9722C542.14 57.4048 542.833 55.5171 542.833 53.3091C542.833 51.1491 542.14 49.4128 540.754 48.1002C539.368 46.7395 537.623 46.1558 535.52 46.3491L526.701 47.1594V62.4234L535.52 61.6131Z" stroke="white" stroke-width="6" mask="url(#path-2-outside-1)"/>
<path d="M568.992 58.3215L590.143 56.378V65.882L559.098 68.7346V18.3346L589.784 15.5149V25.0189L568.992 26.9295V37.6575L587.992 35.9116V45.2716L568.992 47.0175V58.3215Z" stroke="white" stroke-width="6" mask="url(#path-2-outside-1)"/>
<path d="M126.725 151.136C121.69 151.599 117.532 150.301 114.249 147.242C110.967 144.184 109.326 140.191 109.326 135.263C109.326 130.303 110.967 126.008 114.249 122.378C117.532 118.717 121.69 116.655 126.725 116.192C129.752 115.914 132.54 116.378 135.09 117.584C137.671 118.754 139.678 120.49 141.112 122.79L135.424 126.625C134.596 125.197 133.417 124.137 131.887 123.446C130.358 122.722 128.637 122.448 126.725 122.624C123.475 122.923 120.846 124.188 118.838 126.421C116.862 128.65 115.875 131.397 115.875 134.661C115.875 137.893 116.862 140.442 118.838 142.309C120.846 144.172 123.475 144.955 126.725 144.656C128.637 144.48 130.358 143.906 131.887 142.934C133.449 141.926 134.628 140.65 135.424 139.105L141.112 141.894C139.678 144.458 137.687 146.577 135.137 148.251C132.588 149.893 129.784 150.855 126.725 151.136Z" stroke="white" stroke-width="6" mask="url(#path-2-outside-1)"/>
<path d="M151.761 141.828L165.861 140.532V146.868L145.164 148.77V115.17L165.622 113.29V119.626L151.761 120.9V128.052L164.427 126.888V133.128L151.761 134.292V141.828Z" stroke="white" stroke-width="6" mask="url(#path-2-outside-1)"/>
<path d="M189.535 111.093V117.429L177.107 118.571V145.835L170.511 146.441V112.841L189.535 111.093Z" stroke="white" stroke-width="6" mask="url(#path-2-outside-1)"/>
<path d="M219.296 137.59C215.918 141.26 211.807 143.318 206.964 143.763C202.12 144.208 198.01 142.906 194.632 139.856C191.286 136.772 189.613 132.782 189.613 127.886C189.613 122.99 191.286 118.708 194.632 115.04C198.01 111.338 202.12 109.264 206.964 108.819C211.807 108.374 215.918 109.692 219.296 112.774C222.674 115.824 224.363 119.796 224.363 124.692C224.363 129.588 222.674 133.888 219.296 137.59ZM199.268 134.918C201.34 136.776 203.905 137.564 206.964 137.283C210.023 137.002 212.588 135.742 214.659 133.504C216.731 131.234 217.766 128.499 217.766 125.299C217.766 122.099 216.731 119.554 214.659 117.664C212.588 115.774 210.023 114.97 206.964 115.251C203.905 115.532 201.34 116.808 199.268 119.078C197.197 121.349 196.161 124.084 196.161 127.284C196.161 130.484 197.197 133.029 199.268 134.918Z" stroke="white" stroke-width="6" mask="url(#path-2-outside-1)"/>
<path d="M253.221 132.505L256.805 132.175V144.943L250.209 145.549V139.118L231.711 140.817V147.249L225.115 147.855V135.087L228.365 134.789C230.214 132.027 231.138 128.15 231.138 123.158V107.27L253.221 105.241V132.505ZM235.439 134.139L246.624 133.111V112.039L237.734 112.856V122.648C237.734 127.512 236.969 131.342 235.439 134.139Z" stroke="white" stroke-width="6" mask="url(#path-2-outside-1)"/>
<path d="M280.231 102.759L286.779 102.157V135.757L280.231 136.359V122.439L267.803 123.581V137.501L261.207 138.107V104.507L267.803 103.901V117.245L280.231 116.103V102.759Z" stroke="white" stroke-width="6" mask="url(#path-2-outside-1)"/>
<path d="M316.607 99.4164V133.016L310.011 133.622V121.958L306.235 122.305L298.539 134.677L291.131 135.357L299.304 122.222C297.169 121.651 295.432 120.498 294.094 118.765C292.756 117.032 292.086 115.046 292.086 112.806C292.086 109.734 293.17 107.01 295.337 104.635C297.504 102.26 300.133 100.93 303.224 100.646L316.607 99.4164ZM303.224 116.774L310.011 116.15V106.214L303.224 106.838C301.981 106.952 300.913 107.53 300.021 108.572C299.129 109.614 298.683 110.823 298.683 112.199C298.683 113.575 299.129 114.718 300.021 115.628C300.913 116.506 301.981 116.888 303.224 116.774Z" stroke="white" stroke-width="6" mask="url(#path-2-outside-1)"/>
<path d="M354.991 112.065C357.922 113.492 359.388 115.917 359.388 119.341C359.388 122.189 358.384 124.618 356.377 126.626C354.369 128.635 351.9 129.773 348.968 130.043L334.772 131.347V97.7473L347.964 96.5351C350.832 96.2716 353.238 96.9465 355.182 98.5599C357.157 100.138 358.145 102.304 358.145 105.056C358.145 107.84 357.094 110.176 354.991 112.065ZM347.964 102.727L341.368 103.333V110.725L347.964 110.119C348.984 110.025 349.828 109.596 350.498 108.83C351.199 108.062 351.549 107.15 351.549 106.094C351.549 105.038 351.215 104.188 350.545 103.546C349.876 102.903 349.016 102.63 347.964 102.727ZM348.968 123.851C350.083 123.748 351.007 123.295 351.74 122.492C352.473 121.657 352.84 120.663 352.84 119.511C352.84 118.391 352.473 117.497 351.74 116.828C351.007 116.127 350.083 115.828 348.968 115.931L341.368 116.629V124.549L348.968 123.851Z" stroke="white" stroke-width="6" mask="url(#path-2-outside-1)"/>
<path d="M370.309 121.746L384.409 120.45V126.786L363.712 128.688V95.088L384.17 93.2082V99.5442L370.309 100.818V107.97L382.975 106.806V113.046L370.309 114.21V121.746Z" stroke="white" stroke-width="6" mask="url(#path-2-outside-1)"/>
<path d="M406.505 91.1559L413.101 90.5498V124.15L406.505 124.756V112.468C404.466 113.519 402.283 114.152 399.957 114.366C396.579 114.676 393.791 113.988 391.592 112.302C389.425 110.581 388.342 108.089 388.342 104.825V92.8249L394.938 92.2188V103.355C394.938 104.955 395.4 106.176 396.324 107.019C397.28 107.828 398.539 108.16 400.1 108.016C402.426 107.803 404.561 107.143 406.505 106.036V91.1559Z" stroke="white" stroke-width="6" mask="url(#path-2-outside-1)"/>
<path d="M425.902 116.638L440.003 115.342V121.678L419.306 123.58V89.9797L439.764 88.0999V94.4359L425.902 95.7096V102.862L438.569 101.698V107.938L425.902 109.102V116.638Z" stroke="white" stroke-width="6" mask="url(#path-2-outside-1)"/>
<path d="M457.128 86.5043C460.347 86.2086 463.055 87.0477 465.254 89.0217C467.453 90.9956 468.552 93.5666 468.552 96.7346C468.552 99.9026 467.453 102.676 465.254 105.054C463.055 107.432 460.347 108.769 457.128 109.064L451.249 109.605V120.645L444.653 121.251V87.6507L457.128 86.5043ZM457.128 102.872C458.53 102.743 459.693 102.157 460.617 101.112C461.541 100.035 462.004 98.7763 462.004 97.3363C462.004 95.8643 461.541 94.6908 460.617 93.8157C459.693 92.9406 458.53 92.5675 457.128 92.6963L451.249 93.2366V103.413L457.128 102.872Z" stroke="white" stroke-width="6" mask="url(#path-2-outside-1)"/>
<path d="M500.766 111.727C497.389 115.397 493.278 117.455 488.434 117.9C483.591 118.345 479.48 117.042 476.102 113.993C472.756 110.908 471.083 106.918 471.083 102.022C471.083 97.126 472.756 92.8443 476.102 89.1768C479.48 85.4745 483.591 83.4008 488.434 82.9557C493.278 82.5106 497.389 83.8289 500.766 86.9105C504.144 89.9602 505.833 93.933 505.833 98.829C505.833 103.725 504.144 108.024 500.766 111.727ZM480.739 109.055C482.81 110.912 485.375 111.701 488.434 111.42C491.493 111.139 494.059 109.879 496.13 107.641C498.201 105.37 499.237 102.635 499.237 99.4351C499.237 96.2351 498.201 93.6902 496.13 91.8006C494.059 89.9109 491.493 89.1066 488.434 89.3877C485.375 89.6688 482.81 90.9445 480.739 93.2148C478.667 95.4851 477.632 98.2203 477.632 101.42C477.632 104.62 478.667 107.165 480.739 109.055Z" stroke="white" stroke-width="6" mask="url(#path-2-outside-1)"/>
<path d="M543.211 78.5944V112.194L536.663 112.796V91.0041L527.246 107.469L526.482 107.54L517.065 92.8529V114.597L510.469 115.203V81.603L517.257 80.9793L526.864 95.9845L536.424 79.2181L543.211 78.5944Z" stroke="white" stroke-width="6" mask="url(#path-2-outside-1)"/>
<path d="M555.659 99.7706C555.659 98.3626 556.074 96.9805 556.902 95.6244C557.763 94.2653 558.687 93.1564 559.674 92.2976C560.662 91.4069 561.57 90.3954 562.399 89.2633C563.259 88.1282 563.69 87.0327 563.69 85.9767C563.69 84.8567 563.307 84.0278 562.542 83.4901C561.778 82.9524 560.71 82.7465 559.34 82.8724C556.663 83.1183 554.767 84.7166 553.652 87.667L548.012 84.9213C548.968 82.4655 550.481 80.5024 552.552 79.0321C554.656 77.5268 556.998 76.6556 559.579 76.4184C562.479 76.152 564.98 76.7701 567.083 78.2729C569.218 79.7407 570.286 81.9466 570.286 84.8906C570.286 86.2346 569.999 87.509 569.425 88.7137C568.884 89.9154 568.214 90.9689 567.418 91.8741C566.653 92.7444 565.872 93.5841 565.076 94.3933C564.311 95.1676 563.642 95.9651 563.068 96.7858C562.526 97.6036 562.256 98.3965 562.256 99.1645L555.659 99.7706ZM561.825 109.908C561.029 110.781 560.073 111.269 558.957 111.372C557.842 111.474 556.886 111.162 556.09 110.435C555.293 109.708 554.895 108.785 554.895 107.665C554.895 106.545 555.293 105.548 556.09 104.675C556.886 103.802 557.842 103.314 558.957 103.212C560.073 103.109 561.029 103.421 561.825 104.148C562.622 104.875 563.02 105.798 563.02 106.918C563.02 108.038 562.622 109.035 561.825 109.908Z" stroke="white" stroke-width="6" mask="url(#path-2-outside-1)"/>
<defs>
<linearGradient id="paint0_linear" x1="122.918" y1="79.4639" x2="550.83" y2="54.2006" gradientUnits="userSpaceOnUse">
<stop stop-color="#DDB7E0"/>
<stop offset="1" stop-color="#98E6E2"/>
</linearGradient>
<linearGradient id="paint1_linear" x1="122.918" y1="79.4639" x2="550.83" y2="54.2006" gradientUnits="userSpaceOnUse">
<stop stop-color="#DDB7E0"/>
<stop offset="1" stop-color="#98E6E2"/>
</linearGradient>
<linearGradient id="paint2_linear" x1="122.918" y1="79.4639" x2="550.83" y2="54.2006" gradientUnits="userSpaceOnUse">
<stop stop-color="#DDB7E0"/>
<stop offset="1" stop-color="#98E6E2"/>
</linearGradient>
<linearGradient id="paint3_linear" x1="122.918" y1="79.4639" x2="550.83" y2="54.2006" gradientUnits="userSpaceOnUse">
<stop stop-color="#DDB7E0"/>
<stop offset="1" stop-color="#98E6E2"/>
</linearGradient>
<linearGradient id="paint4_linear" x1="122.918" y1="79.4639" x2="550.83" y2="54.2006" gradientUnits="userSpaceOnUse">
<stop stop-color="#DDB7E0"/>
<stop offset="1" stop-color="#98E6E2"/>
</linearGradient>
<linearGradient id="paint5_linear" x1="122.918" y1="79.4639" x2="550.83" y2="54.2006" gradientUnits="userSpaceOnUse">
<stop stop-color="#DDB7E0"/>
<stop offset="1" stop-color="#98E6E2"/>
</linearGradient>
<linearGradient id="paint6_linear" x1="122.918" y1="79.4639" x2="550.83" y2="54.2006" gradientUnits="userSpaceOnUse">
<stop stop-color="#DDB7E0"/>
<stop offset="1" stop-color="#98E6E2"/>
</linearGradient>
<linearGradient id="paint7_linear" x1="122.918" y1="79.4639" x2="550.83" y2="54.2006" gradientUnits="userSpaceOnUse">
<stop stop-color="#DDB7E0"/>
<stop offset="1" stop-color="#98E6E2"/>
</linearGradient>
<linearGradient id="paint8_linear" x1="122.918" y1="79.4639" x2="550.83" y2="54.2006" gradientUnits="userSpaceOnUse">
<stop stop-color="#DDB7E0"/>
<stop offset="1" stop-color="#98E6E2"/>
</linearGradient>
<linearGradient id="paint9_linear" x1="122.918" y1="79.4639" x2="550.83" y2="54.2006" gradientUnits="userSpaceOnUse">
<stop stop-color="#DDB7E0"/>
<stop offset="1" stop-color="#98E6E2"/>
</linearGradient>
<linearGradient id="paint10_linear" x1="122.918" y1="79.4639" x2="550.83" y2="54.2006" gradientUnits="userSpaceOnUse">
<stop stop-color="#DDB7E0"/>
<stop offset="1" stop-color="#98E6E2"/>
</linearGradient>
<linearGradient id="paint11_linear" x1="122.918" y1="79.4639" x2="550.83" y2="54.2006" gradientUnits="userSpaceOnUse">
<stop stop-color="#DDB7E0"/>
<stop offset="1" stop-color="#98E6E2"/>
</linearGradient>
<linearGradient id="paint12_linear" x1="122.918" y1="79.4639" x2="550.83" y2="54.2006" gradientUnits="userSpaceOnUse">
<stop stop-color="#DDB7E0"/>
<stop offset="1" stop-color="#98E6E2"/>
</linearGradient>
<linearGradient id="paint13_linear" x1="122.918" y1="79.4639" x2="550.83" y2="54.2006" gradientUnits="userSpaceOnUse">
<stop stop-color="#DDB7E0"/>
<stop offset="1" stop-color="#98E6E2"/>
</linearGradient>
<linearGradient id="paint14_linear" x1="122.918" y1="79.4639" x2="550.83" y2="54.2006" gradientUnits="userSpaceOnUse">
<stop stop-color="#DDB7E0"/>
<stop offset="1" stop-color="#98E6E2"/>
</linearGradient>
<linearGradient id="paint15_linear" x1="122.918" y1="79.4639" x2="550.83" y2="54.2006" gradientUnits="userSpaceOnUse">
<stop stop-color="#DDB7E0"/>
<stop offset="1" stop-color="#98E6E2"/>
</linearGradient>
<linearGradient id="paint16_linear" x1="122.918" y1="79.4639" x2="550.83" y2="54.2006" gradientUnits="userSpaceOnUse">
<stop stop-color="#DDB7E0"/>
<stop offset="1" stop-color="#98E6E2"/>
</linearGradient>
<linearGradient id="paint17_linear" x1="122.918" y1="79.4639" x2="550.83" y2="54.2006" gradientUnits="userSpaceOnUse">
<stop stop-color="#DDB7E0"/>
<stop offset="1" stop-color="#98E6E2"/>
</linearGradient>
<linearGradient id="paint18_linear" x1="122.918" y1="79.4639" x2="550.83" y2="54.2006" gradientUnits="userSpaceOnUse">
<stop stop-color="#DDB7E0"/>
<stop offset="1" stop-color="#98E6E2"/>
</linearGradient>
<linearGradient id="paint19_linear" x1="122.918" y1="79.4639" x2="550.83" y2="54.2006" gradientUnits="userSpaceOnUse">
<stop stop-color="#DDB7E0"/>
<stop offset="1" stop-color="#98E6E2"/>
</linearGradient>
<linearGradient id="paint20_linear" x1="122.918" y1="79.4639" x2="550.83" y2="54.2006" gradientUnits="userSpaceOnUse">
<stop stop-color="#DDB7E0"/>
<stop offset="1" stop-color="#98E6E2"/>
</linearGradient>
<linearGradient id="paint21_linear" x1="122.918" y1="79.4639" x2="550.83" y2="54.2006" gradientUnits="userSpaceOnUse">
<stop stop-color="#DDB7E0"/>
<stop offset="1" stop-color="#98E6E2"/>
</linearGradient>
<linearGradient id="paint22_linear" x1="122.918" y1="79.4639" x2="550.83" y2="54.2006" gradientUnits="userSpaceOnUse">
<stop stop-color="#DDB7E0"/>
<stop offset="1" stop-color="#98E6E2"/>
</linearGradient>
<linearGradient id="paint23_linear" x1="122.918" y1="79.4639" x2="550.83" y2="54.2006" gradientUnits="userSpaceOnUse">
<stop stop-color="#DDB7E0"/>
<stop offset="1" stop-color="#98E6E2"/>
</linearGradient>
<linearGradient id="paint24_linear" x1="122.918" y1="79.4639" x2="550.83" y2="54.2006" gradientUnits="userSpaceOnUse">
<stop stop-color="#DDB7E0"/>
<stop offset="1" stop-color="#98E6E2"/>
</linearGradient>
<linearGradient id="paint25_linear" x1="122.918" y1="79.4639" x2="550.83" y2="54.2006" gradientUnits="userSpaceOnUse">
<stop stop-color="#DDB7E0"/>
<stop offset="1" stop-color="#98E6E2"/>
</linearGradient>
<clipPath id="clip0">
<rect width="680" height="166" fill="white"/>
</clipPath>
</defs>
</svg>
