<svg xmlns="http://www.w3.org/2000/svg" width="129" height="50" viewBox="0 0 129 50">
  <defs>
    <style>
      .cls-1 {
        fill: #408067;
        fill-opacity: 0;
        stroke: #d2a3db;
        stroke-linejoin: round;
        stroke-width: 2px;
        fill-rule: evenodd;
      }
    </style>
  </defs>
  <path id="COLOR_PICKER_copy" data-name="COLOR                PICKER copy" class="cls-1" d="M578.114,146.471a9.506,9.506,0,0,0,2.488-3.519l-2.975-.942a5.5,5.5,0,0,1-3.956,3.483,4.108,4.108,0,0,1-3.686-.537,4.551,4.551,0,0,1-1.7-3.47,6.22,6.22,0,0,1,1.044-4.228,5.983,5.983,0,0,1,3.519-2.462,3.952,3.952,0,0,1,4.338,1.172l2.439-2.222a6.19,6.19,0,0,0-3.144-2.062,7.671,7.671,0,0,0-4.14.06,9.513,9.513,0,0,0-5.507,3.85,9.358,9.358,0,0,0-1.689,6.493,8,8,0,0,0,1.461,4.046,6.437,6.437,0,0,0,3.276,2.371,7.556,7.556,0,0,0,4.395.039A9.227,9.227,0,0,0,578.114,146.471Zm17.757-6.053a9.51,9.51,0,0,0,1.723-6.5,7.165,7.165,0,0,0-2.98-5.484,6.841,6.841,0,0,0-6.046-1.025,9.77,9.77,0,0,0-5.667,3.881,9.428,9.428,0,0,0-1.708,6.51,7.088,7.088,0,0,0,2.943,5.482,6.861,6.861,0,0,0,6.076,1A9.748,9.748,0,0,0,595.871,140.418Zm-9.8.229a4.469,4.469,0,0,1-1.734-3.449,6.31,6.31,0,0,1,1.093-4.229,5.949,5.949,0,0,1,3.47-2.462,4.268,4.268,0,0,1,3.763.553,4.52,4.52,0,0,1,1.8,3.457,6.362,6.362,0,0,1-4.687,6.676A4.167,4.167,0,0,1,586.066,140.647Zm16.1-16.538-3.1.828,1.14,13.207,0.27,3.068,9.1-2.433-0.27-3.067-6,1.6Zm21.427,8.9a9.5,9.5,0,0,0,1.722-6.5,7.162,7.162,0,0,0-2.979-5.484A6.838,6.838,0,0,0,616.286,120a9.77,9.77,0,0,0-5.667,3.881,9.428,9.428,0,0,0-1.708,6.51,7.09,7.09,0,0,0,2.942,5.482,6.863,6.863,0,0,0,6.077,1A9.756,9.756,0,0,0,623.589,133.013Zm-9.805.229a4.469,4.469,0,0,1-1.734-3.45,6.312,6.312,0,0,1,1.092-4.228,5.954,5.954,0,0,1,3.471-2.462,4.266,4.266,0,0,1,3.763.553,4.521,4.521,0,0,1,1.8,3.457,6.362,6.362,0,0,1-4.687,6.676A4.167,4.167,0,0,1,613.784,133.242Zm23.062-16.663a4.514,4.514,0,0,0-3.931-.686l-6.137,1.639,1.409,16.274,3.1-.828-0.483-5.652,2.585-.69,3.63,4.81,3.147-.841-3.939-5.156a5.853,5.853,0,0,0,2.6-5.381A4.527,4.527,0,0,0,636.846,116.579Zm-3.1,7.083-3.192.853-0.426-4.811,3.035-.81a1.893,1.893,0,0,1,2.525,1.775,3,3,0,0,1-.458,1.883,2.453,2.453,0,0,1-1.484,1.11h0Zm-20.956,18.625,1.41,16.274,3.1-.829-0.472-5.344,2.63-.7a6.845,6.845,0,0,0,3.982-2.575,5.852,5.852,0,0,0,1.065-4.2,4.578,4.578,0,0,0-6.074-4.134Zm8.059,5.244a3.12,3.12,0,0,1-1.844,1.207l-2.428.648-0.432-4.927,2.585-.69a2.183,2.183,0,0,1,1.875.164,1.988,1.988,0,0,1,.762,1.581A3.008,3.008,0,0,1,620.853,147.531Zm6.614,7.487,3.1-.829-1.41-16.274-3.1.828Zm17.547-5.4A9.5,9.5,0,0,0,647.5,146.1l-2.975-.941a5.5,5.5,0,0,1-3.956,3.483,4.105,4.105,0,0,1-3.686-.538,4.548,4.548,0,0,1-1.7-3.47,6.217,6.217,0,0,1,1.044-4.227,5.989,5.989,0,0,1,3.519-2.463,3.956,3.956,0,0,1,4.338,1.172l2.439-2.221a6.19,6.19,0,0,0-3.144-2.062,7.671,7.671,0,0,0-4.14.059,9.517,9.517,0,0,0-5.507,3.85,9.359,9.359,0,0,0-1.689,6.493,8,8,0,0,0,1.461,4.046,6.438,6.438,0,0,0,3.276,2.372,7.573,7.573,0,0,0,4.395.039A9.227,9.227,0,0,0,645.014,149.616Zm11.818-19.1-4.842,8.43-0.6-6.976-3.1.829,1.41,16.274,3.1-.829-0.69-7.856,6.625,6.271,3.259-.871-6.979-6.6,5.524-9.659Zm14.882-3.976-9.622,2.571,1.41,16.274,9.734-2.6-0.27-3.068-6.632,1.772-0.307-3.653,5.935-1.585-0.23-3.007-5.979,1.6-0.288-3.491,6.519-1.742Zm12.361-1.566a4.52,4.52,0,0,0-3.931-.686l-6.137,1.64,1.41,16.274,3.1-.829-0.483-5.651,2.586-.691,3.629,4.811,3.148-.841-3.94-5.156a5.853,5.853,0,0,0,2.6-5.381A4.529,4.529,0,0,0,684.075,124.979Zm-3.1,7.084-3.192.852-0.426-4.81,3.035-.811a1.894,1.894,0,0,1,2.525,1.776,2.992,2.992,0,0,1-.457,1.882,2.463,2.463,0,0,1-1.485,1.111h0Z" transform="translate(-562 -112)"/>
</svg>
