<svg width="680" height="166" viewBox="0 0 680 166" fill="none" xmlns="http://www.w3.org/2000/svg">
<g clip-path="url(#clip0)">
<path d="M-561.88 -413.67L1292.7 83.2625M-563.174 -408.843L1291.4 88.0895M-564.467 -404.016L1290.11 92.9169M-565.761 -399.188L1288.82 97.7446M-567.054 -394.36L1287.52 102.573M-568.348 -389.532L1286.23 107.401M-569.642 -384.703L1284.94 112.229M-570.936 -379.875L1283.64 117.058M-572.229 -375.046L1282.35 121.886M-573.523 -370.217L1281.05 126.715M-574.817 -365.389L1279.76 131.544M-576.111 -360.56L1278.47 136.373M-577.405 -355.731L1277.17 141.202M-578.699 -350.901L1275.88 146.031M-579.993 -346.072L1274.58 150.86M-581.287 -341.243L1273.29 155.69M-582.581 -336.414L1272 160.519M-583.875 -331.585L1270.7 165.348M-585.169 -326.755L1269.41 170.177M-586.463 -321.926L1268.11 175.007M-587.757 -317.097L1266.82 179.836M-589.051 -312.267L1265.53 184.666M-590.345 -307.438L1264.23 189.495M-591.639 -302.608L1262.94 194.324M-592.933 -297.779L1261.64 199.154M-594.227 -292.949L1260.35 203.983M-595.521 -288.12L1259.06 208.813M-596.815 -283.291L1257.76 213.642M-598.109 -278.461L1256.47 218.472M-599.403 -273.632L1255.17 223.301M-600.698 -268.802L1253.88 228.131M-601.992 -263.972L1252.59 232.96M-603.286 -259.143L1251.29 237.79M-604.58 -254.313L1250 242.619M-605.874 -249.484L1248.7 247.449M-607.168 -244.654L1247.41 252.278M-608.462 -239.825L1246.12 257.108M-609.756 -234.995L1244.82 261.938M-611.05 -230.166L1243.53 266.767M-612.344 -225.336L1242.23 271.597M-613.638 -220.506L1240.94 276.426M-614.932 -215.677L1239.65 281.256M-616.226 -210.847L1238.35 286.086M-617.521 -206.018L1237.06 290.915M-618.815 -201.188L1235.76 295.745M-620.109 -196.358L1234.47 300.574M-621.403 -191.529L1233.17 305.404M-622.697 -186.699L1231.88 310.234M-623.991 -181.87L1230.59 315.063M-625.285 -177.04L1229.29 319.893M-626.579 -172.21L1228 324.722M-627.873 -167.381L1226.7 329.552M-629.167 -162.551L1225.41 334.382M-630.461 -157.721L1224.12 339.211M-631.756 -152.892L1222.82 344.041M-633.05 -148.062L1221.53 348.871M-634.344 -143.233L1220.23 353.7M-635.638 -138.403L1218.94 358.53M-636.932 -133.573L1217.65 363.359M-638.226 -128.744L1216.35 368.189M-639.52 -123.914L1215.06 373.019M-640.814 -119.084L1213.76 377.848M-642.108 -114.255L1212.47 382.678M-643.402 -109.425L1211.18 387.508M-644.697 -104.596L1209.88 392.337M-645.991 -99.7659L1208.59 397.167M-647.285 -94.9363L1207.29 401.996M-648.579 -90.1067L1206 406.826M-649.873 -85.277L1204.7 411.656M-651.167 -80.4474L1203.41 416.485M-652.461 -75.6178L1202.12 421.315M-653.755 -70.7881L1200.82 426.145M-655.049 -65.9585L1199.53 430.974M-656.343 -61.1289L1198.23 435.804M-657.637 -56.2993L1196.94 440.633M-658.932 -51.4697L1195.65 445.463M-660.226 -46.64L1194.35 450.293M-661.52 -41.8104L1193.06 455.122M-662.814 -36.9808L1191.76 459.952M-664.108 -32.1512L1190.47 464.782M-665.402 -27.3216L1189.18 469.611M-666.696 -22.492L1187.88 474.441M-667.99 -17.6624L1186.59 479.27M-669.284 -12.8328L1185.29 484.1M-670.578 -8.00314L1184 488.93M-671.872 -3.17357L1182.71 493.759M-673.167 1.65603L1181.41 498.589M-674.461 6.4856L1180.12 503.418M-675.755 11.3152L1178.82 508.248M-677.049 16.1448L1177.53 513.078M-678.343 20.9744L1176.23 517.907M-679.637 25.8039L1174.94 522.737M-680.931 30.6335L1173.65 527.566M-682.225 35.4631L1172.35 532.396M-683.519 40.2926L1171.06 537.225M-684.813 45.1222L1169.76 542.055M-686.107 49.9517L1168.47 546.884M-687.401 54.7812L1167.18 551.714M-688.695 59.6108L1165.88 556.543M-689.99 64.4403L1164.59 561.373M-691.284 69.2698L1163.29 566.203M-692.578 74.0992L1162 571.032M-693.872 78.9287L1160.71 575.861M-695.166 83.7582L1159.41 580.691M-696.46 88.5876L1158.12 585.52M-697.754 93.417L1156.82 590.35M-699.048 98.2464L1155.53 595.179M-700.342 103.076L1154.24 600.009M-701.636 107.905L1152.94 604.838M-702.93 112.734L1151.65 609.667M-704.224 117.564L1150.35 614.496M-705.518 122.393L1149.06 619.326M-706.812 127.222L1147.77 624.155M-708.106 132.051L1146.47 628.984M-709.401 136.886L1145.18 633.819M-710.697 141.721L1143.88 638.654" stroke="#EBEBEB"/>
</g>
<mask id="path-2-outside-1" maskUnits="userSpaceOnUse" x="193.632" y="13.5989" width="294" height="134" fill="black">
<rect fill="white" x="193.632" y="13.5989" width="294" height="134"/>
<path d="M241.176 83.2978V55.9698L222.057 85.0546L215.365 85.6695V40.8695L224.16 40.0614V67.4534L243.28 38.3046L249.971 37.6897V82.4897L241.176 83.2978Z"/>
<path d="M301.903 32.9178V77.7178L293.172 78.5201V49.4641L280.617 71.4177L279.597 71.5114L267.042 51.9291V80.9211L258.247 81.7292V36.9292L267.297 36.0977L280.107 56.1046L292.853 33.7494L301.903 32.9178Z"/>
<path d="M343.547 29.0913V73.8913L334.752 74.6994V38.3474L319.011 39.7939V76.1459L310.216 76.954V32.154L343.547 29.0913Z"/>
<path d="M389.391 63.8548C384.887 68.7487 379.406 71.4923 372.948 72.0857C366.49 72.6791 361.009 70.9428 356.505 66.8766C352.044 62.7639 349.813 57.4435 349.813 50.9155C349.813 44.3875 352.044 38.6785 356.505 33.7886C361.009 28.8521 366.49 26.0871 372.948 25.4937C379.406 24.9003 384.887 26.658 389.391 30.7668C393.894 34.833 396.146 40.1301 396.146 46.6581C396.146 53.1861 393.894 58.9183 389.391 63.8548ZM362.687 60.2925C365.449 62.7695 368.869 63.8205 372.948 63.4457C377.027 63.0709 380.447 61.3913 383.209 58.4069C385.97 55.3798 387.351 51.7329 387.351 47.4662C387.351 43.1996 385.97 39.8065 383.209 37.2869C380.447 34.7673 377.027 33.6949 372.948 34.0697C368.869 34.4445 365.449 36.1454 362.687 39.1725C359.925 42.1996 358.545 45.8465 358.545 50.1132C358.545 54.3799 359.925 57.773 362.687 60.2925Z"/>
<path d="M418.962 22.1617C423.253 21.7673 426.864 22.8862 429.796 25.5181C432.728 28.1501 434.193 31.578 434.193 35.802C434.193 40.026 432.728 43.7234 429.796 46.8941C426.864 50.0648 423.253 51.8473 418.962 52.2417L411.123 52.962V67.682L402.328 68.4901V23.6901L418.962 22.1617ZM418.962 43.9857C420.831 43.8139 422.382 43.0314 423.614 41.6382C424.846 40.2023 425.462 38.5243 425.462 36.6043C425.462 34.6417 424.846 33.0769 423.614 31.9102C422.382 30.7434 420.831 30.2459 418.962 30.4177L411.123 31.138V44.706L418.962 43.9857Z"/>
<path d="M468.618 17.5989V26.0469L456.573 27.1537V63.5057L447.778 64.3138V27.9618L435.796 29.0628V20.6148L468.618 17.5989Z"/>
<path d="M229.963 95.5282V140.328L221.168 141.136V104.784L205.427 106.231V142.583L196.632 143.391V98.5909L229.963 95.5282Z"/>
<path d="M266.948 136.93L264.271 129.112L246.49 130.746L243.813 139.056L234.317 139.928L249.932 93.6933L260.83 92.6919L276.508 136.051L266.948 136.93ZM249.294 122.232L261.531 121.108L255.412 103.366L249.294 122.232Z"/>
<path d="M277.896 135.924V127.732C280.53 127.874 282.506 127.159 283.823 125.587C285.14 124.015 285.798 121.118 285.798 116.894V90.3976L316.135 87.6101V132.41L307.403 133.212V96.8604L294.53 98.0433V115.835C294.53 119.718 294.062 123.025 293.128 125.756C292.193 128.487 290.897 130.569 289.24 132.001C287.625 133.43 285.883 134.443 284.014 135.042C282.187 135.636 280.148 135.93 277.896 135.924Z"/>
<path d="M350.217 129.278V101.95L331.098 131.035L324.406 131.65V86.8501L333.201 86.042V113.434L352.32 84.2851L359.012 83.6702V128.47L350.217 129.278Z"/>
<path d="M396.795 80.1984V88.6464L384.75 89.7532V126.105L375.955 126.913V90.5614L363.974 91.6623V83.2143L396.795 80.1984Z"/>
<path d="M418.339 78.2188C422.63 77.8245 426.242 78.9433 429.173 81.5753C432.105 84.2073 433.571 87.6352 433.571 91.8592C433.571 96.0832 432.105 99.7806 429.173 102.951C426.242 106.122 422.63 107.905 418.339 108.299L410.5 109.019V123.739L401.705 124.547V79.7473L418.339 78.2188ZM418.339 100.043C420.209 99.8711 421.759 99.0886 422.992 97.6953C424.224 96.2595 424.84 94.5815 424.84 92.6615C424.84 90.6988 424.224 89.1341 422.992 87.9673C421.759 86.8006 420.209 86.3031 418.339 86.4748L410.5 87.1951V100.763L418.339 100.043Z"/>
<path d="M439.297 121.093V76.2931L448.092 75.485V90.205L455.931 89.4847C460.222 89.0903 463.833 90.2092 466.765 92.8411C469.697 95.4731 471.163 98.901 471.163 103.125C471.163 107.349 469.697 111.046 466.765 114.217C463.833 117.388 460.222 119.17 455.931 119.565L439.297 121.093ZM475.241 117.79V72.9903L483.973 72.188V116.988L475.241 117.79ZM448.092 112.029L455.931 111.309C457.8 111.137 459.351 110.354 460.583 108.961C461.815 107.568 462.431 105.89 462.431 103.927C462.431 101.965 461.815 100.4 460.583 99.2332C459.351 98.0664 457.8 97.5689 455.931 97.7407L448.092 98.461V112.029Z"/>
</mask>
<path d="M241.176 83.2978V55.9698L222.057 85.0546L215.365 85.6695V40.8695L224.16 40.0614V67.4534L243.28 38.3046L249.971 37.6897V82.4897L241.176 83.2978Z" fill="url(#paint0_linear)"/>
<path d="M301.903 32.9178V77.7178L293.172 78.5201V49.4641L280.617 71.4177L279.597 71.5114L267.042 51.9291V80.9211L258.247 81.7292V36.9292L267.297 36.0977L280.107 56.1046L292.853 33.7494L301.903 32.9178Z" fill="url(#paint1_linear)"/>
<path d="M343.547 29.0913V73.8913L334.752 74.6994V38.3474L319.011 39.7939V76.1459L310.216 76.954V32.154L343.547 29.0913Z" fill="url(#paint2_linear)"/>
<path d="M389.391 63.8548C384.887 68.7487 379.406 71.4923 372.948 72.0857C366.49 72.6791 361.009 70.9428 356.505 66.8766C352.044 62.7639 349.813 57.4435 349.813 50.9155C349.813 44.3875 352.044 38.6785 356.505 33.7886C361.009 28.8521 366.49 26.0871 372.948 25.4937C379.406 24.9003 384.887 26.658 389.391 30.7668C393.894 34.833 396.146 40.1301 396.146 46.6581C396.146 53.1861 393.894 58.9183 389.391 63.8548ZM362.687 60.2925C365.449 62.7695 368.869 63.8205 372.948 63.4457C377.027 63.0709 380.447 61.3913 383.209 58.4069C385.97 55.3798 387.351 51.7329 387.351 47.4662C387.351 43.1996 385.97 39.8065 383.209 37.2869C380.447 34.7673 377.027 33.6949 372.948 34.0697C368.869 34.4445 365.449 36.1454 362.687 39.1725C359.925 42.1996 358.545 45.8465 358.545 50.1132C358.545 54.3799 359.925 57.773 362.687 60.2925Z" fill="url(#paint3_linear)"/>
<path d="M418.962 22.1617C423.253 21.7673 426.864 22.8862 429.796 25.5181C432.728 28.1501 434.193 31.578 434.193 35.802C434.193 40.026 432.728 43.7234 429.796 46.8941C426.864 50.0648 423.253 51.8473 418.962 52.2417L411.123 52.962V67.682L402.328 68.4901V23.6901L418.962 22.1617ZM418.962 43.9857C420.831 43.8139 422.382 43.0314 423.614 41.6382C424.846 40.2023 425.462 38.5243 425.462 36.6043C425.462 34.6417 424.846 33.0769 423.614 31.9102C422.382 30.7434 420.831 30.2459 418.962 30.4177L411.123 31.138V44.706L418.962 43.9857Z" fill="url(#paint4_linear)"/>
<path d="M468.618 17.5989V26.0469L456.573 27.1537V63.5057L447.778 64.3138V27.9618L435.796 29.0628V20.6148L468.618 17.5989Z" fill="url(#paint5_linear)"/>
<path d="M229.963 95.5282V140.328L221.168 141.136V104.784L205.427 106.231V142.583L196.632 143.391V98.5909L229.963 95.5282Z" fill="url(#paint6_linear)"/>
<path d="M266.948 136.93L264.271 129.112L246.49 130.746L243.813 139.056L234.317 139.928L249.932 93.6933L260.83 92.6919L276.508 136.051L266.948 136.93ZM249.294 122.232L261.531 121.108L255.412 103.366L249.294 122.232Z" fill="url(#paint7_linear)"/>
<path d="M277.896 135.924V127.732C280.53 127.874 282.506 127.159 283.823 125.587C285.14 124.015 285.798 121.118 285.798 116.894V90.3976L316.135 87.6101V132.41L307.403 133.212V96.8604L294.53 98.0433V115.835C294.53 119.718 294.062 123.025 293.128 125.756C292.193 128.487 290.897 130.569 289.24 132.001C287.625 133.43 285.883 134.443 284.014 135.042C282.187 135.636 280.148 135.93 277.896 135.924Z" fill="url(#paint8_linear)"/>
<path d="M350.217 129.278V101.95L331.098 131.035L324.406 131.65V86.8501L333.201 86.042V113.434L352.32 84.2851L359.012 83.6702V128.47L350.217 129.278Z" fill="url(#paint9_linear)"/>
<path d="M396.795 80.1984V88.6464L384.75 89.7532V126.105L375.955 126.913V90.5614L363.974 91.6623V83.2143L396.795 80.1984Z" fill="url(#paint10_linear)"/>
<path d="M418.339 78.2188C422.63 77.8245 426.242 78.9433 429.173 81.5753C432.105 84.2073 433.571 87.6352 433.571 91.8592C433.571 96.0832 432.105 99.7806 429.173 102.951C426.242 106.122 422.63 107.905 418.339 108.299L410.5 109.019V123.739L401.705 124.547V79.7473L418.339 78.2188ZM418.339 100.043C420.209 99.8711 421.759 99.0886 422.992 97.6953C424.224 96.2595 424.84 94.5815 424.84 92.6615C424.84 90.6988 424.224 89.1341 422.992 87.9673C421.759 86.8006 420.209 86.3031 418.339 86.4748L410.5 87.1951V100.763L418.339 100.043Z" fill="url(#paint11_linear)"/>
<path d="M439.297 121.093V76.2931L448.092 75.485V90.205L455.931 89.4847C460.222 89.0903 463.833 90.2092 466.765 92.8411C469.697 95.4731 471.163 98.901 471.163 103.125C471.163 107.349 469.697 111.046 466.765 114.217C463.833 117.388 460.222 119.17 455.931 119.565L439.297 121.093ZM475.241 117.79V72.9903L483.973 72.188V116.988L475.241 117.79ZM448.092 112.029L455.931 111.309C457.8 111.137 459.351 110.354 460.583 108.961C461.815 107.568 462.431 105.89 462.431 103.927C462.431 101.965 461.815 100.4 460.583 99.2332C459.351 98.0664 457.8 97.5689 455.931 97.7407L448.092 98.461V112.029Z" fill="url(#paint12_linear)"/>
<path d="M241.176 83.2978V55.9698L222.057 85.0546L215.365 85.6695V40.8695L224.16 40.0614V67.4534L243.28 38.3046L249.971 37.6897V82.4897L241.176 83.2978Z" stroke="white" stroke-width="6" mask="url(#path-2-outside-1)"/>
<path d="M301.903 32.9178V77.7178L293.172 78.5201V49.4641L280.617 71.4177L279.597 71.5114L267.042 51.9291V80.9211L258.247 81.7292V36.9292L267.297 36.0977L280.107 56.1046L292.853 33.7494L301.903 32.9178Z" stroke="white" stroke-width="6" mask="url(#path-2-outside-1)"/>
<path d="M343.547 29.0913V73.8913L334.752 74.6994V38.3474L319.011 39.7939V76.1459L310.216 76.954V32.154L343.547 29.0913Z" stroke="white" stroke-width="6" mask="url(#path-2-outside-1)"/>
<path d="M389.391 63.8548C384.887 68.7487 379.406 71.4923 372.948 72.0857C366.49 72.6791 361.009 70.9428 356.505 66.8766C352.044 62.7639 349.813 57.4435 349.813 50.9155C349.813 44.3875 352.044 38.6785 356.505 33.7886C361.009 28.8521 366.49 26.0871 372.948 25.4937C379.406 24.9003 384.887 26.658 389.391 30.7668C393.894 34.833 396.146 40.1301 396.146 46.6581C396.146 53.1861 393.894 58.9183 389.391 63.8548ZM362.687 60.2925C365.449 62.7695 368.869 63.8205 372.948 63.4457C377.027 63.0709 380.447 61.3913 383.209 58.4069C385.97 55.3798 387.351 51.7329 387.351 47.4662C387.351 43.1996 385.97 39.8065 383.209 37.2869C380.447 34.7673 377.027 33.6949 372.948 34.0697C368.869 34.4445 365.449 36.1454 362.687 39.1725C359.925 42.1996 358.545 45.8465 358.545 50.1132C358.545 54.3799 359.925 57.773 362.687 60.2925Z" stroke="white" stroke-width="6" mask="url(#path-2-outside-1)"/>
<path d="M418.962 22.1617C423.253 21.7673 426.864 22.8862 429.796 25.5181C432.728 28.1501 434.193 31.578 434.193 35.802C434.193 40.026 432.728 43.7234 429.796 46.8941C426.864 50.0648 423.253 51.8473 418.962 52.2417L411.123 52.962V67.682L402.328 68.4901V23.6901L418.962 22.1617ZM418.962 43.9857C420.831 43.8139 422.382 43.0314 423.614 41.6382C424.846 40.2023 425.462 38.5243 425.462 36.6043C425.462 34.6417 424.846 33.0769 423.614 31.9102C422.382 30.7434 420.831 30.2459 418.962 30.4177L411.123 31.138V44.706L418.962 43.9857Z" stroke="white" stroke-width="6" mask="url(#path-2-outside-1)"/>
<path d="M468.618 17.5989V26.0469L456.573 27.1537V63.5057L447.778 64.3138V27.9618L435.796 29.0628V20.6148L468.618 17.5989Z" stroke="white" stroke-width="6" mask="url(#path-2-outside-1)"/>
<path d="M229.963 95.5282V140.328L221.168 141.136V104.784L205.427 106.231V142.583L196.632 143.391V98.5909L229.963 95.5282Z" stroke="white" stroke-width="6" mask="url(#path-2-outside-1)"/>
<path d="M266.948 136.93L264.271 129.112L246.49 130.746L243.813 139.056L234.317 139.928L249.932 93.6933L260.83 92.6919L276.508 136.051L266.948 136.93ZM249.294 122.232L261.531 121.108L255.412 103.366L249.294 122.232Z" stroke="white" stroke-width="6" mask="url(#path-2-outside-1)"/>
<path d="M277.896 135.924V127.732C280.53 127.874 282.506 127.159 283.823 125.587C285.14 124.015 285.798 121.118 285.798 116.894V90.3976L316.135 87.6101V132.41L307.403 133.212V96.8604L294.53 98.0433V115.835C294.53 119.718 294.062 123.025 293.128 125.756C292.193 128.487 290.897 130.569 289.24 132.001C287.625 133.43 285.883 134.443 284.014 135.042C282.187 135.636 280.148 135.93 277.896 135.924Z" stroke="white" stroke-width="6" mask="url(#path-2-outside-1)"/>
<path d="M350.217 129.278V101.95L331.098 131.035L324.406 131.65V86.8501L333.201 86.042V113.434L352.32 84.2851L359.012 83.6702V128.47L350.217 129.278Z" stroke="white" stroke-width="6" mask="url(#path-2-outside-1)"/>
<path d="M396.795 80.1984V88.6464L384.75 89.7532V126.105L375.955 126.913V90.5614L363.974 91.6623V83.2143L396.795 80.1984Z" stroke="white" stroke-width="6" mask="url(#path-2-outside-1)"/>
<path d="M418.339 78.2188C422.63 77.8245 426.242 78.9433 429.173 81.5753C432.105 84.2073 433.571 87.6352 433.571 91.8592C433.571 96.0832 432.105 99.7806 429.173 102.951C426.242 106.122 422.63 107.905 418.339 108.299L410.5 109.019V123.739L401.705 124.547V79.7473L418.339 78.2188ZM418.339 100.043C420.209 99.8711 421.759 99.0886 422.992 97.6953C424.224 96.2595 424.84 94.5815 424.84 92.6615C424.84 90.6988 424.224 89.1341 422.992 87.9673C421.759 86.8006 420.209 86.3031 418.339 86.4748L410.5 87.1951V100.763L418.339 100.043Z" stroke="white" stroke-width="6" mask="url(#path-2-outside-1)"/>
<path d="M439.297 121.093V76.2931L448.092 75.485V90.205L455.931 89.4847C460.222 89.0903 463.833 90.2092 466.765 92.8411C469.697 95.4731 471.163 98.901 471.163 103.125C471.163 107.349 469.697 111.046 466.765 114.217C463.833 117.388 460.222 119.17 455.931 119.565L439.297 121.093ZM475.241 117.79V72.9903L483.973 72.188V116.988L475.241 117.79ZM448.092 112.029L455.931 111.309C457.8 111.137 459.351 110.354 460.583 108.961C461.815 107.568 462.431 105.89 462.431 103.927C462.431 101.965 461.815 100.4 460.583 99.2332C459.351 98.0664 457.8 97.5689 455.931 97.7407L448.092 98.461V112.029Z" stroke="white" stroke-width="6" mask="url(#path-2-outside-1)"/>
<defs>
<linearGradient id="paint0_linear" x1="118.801" y1="103.967" x2="557.83" y2="80.5143" gradientUnits="userSpaceOnUse">
<stop stop-color="#DDB7E0"/>
<stop offset="1" stop-color="#98E6E2"/>
</linearGradient>
<linearGradient id="paint1_linear" x1="118.801" y1="103.967" x2="557.83" y2="80.5143" gradientUnits="userSpaceOnUse">
<stop stop-color="#DDB7E0"/>
<stop offset="1" stop-color="#98E6E2"/>
</linearGradient>
<linearGradient id="paint2_linear" x1="118.801" y1="103.967" x2="557.83" y2="80.5143" gradientUnits="userSpaceOnUse">
<stop stop-color="#DDB7E0"/>
<stop offset="1" stop-color="#98E6E2"/>
</linearGradient>
<linearGradient id="paint3_linear" x1="118.801" y1="103.967" x2="557.83" y2="80.5143" gradientUnits="userSpaceOnUse">
<stop stop-color="#DDB7E0"/>
<stop offset="1" stop-color="#98E6E2"/>
</linearGradient>
<linearGradient id="paint4_linear" x1="118.801" y1="103.967" x2="557.83" y2="80.5143" gradientUnits="userSpaceOnUse">
<stop stop-color="#DDB7E0"/>
<stop offset="1" stop-color="#98E6E2"/>
</linearGradient>
<linearGradient id="paint5_linear" x1="118.801" y1="103.967" x2="557.83" y2="80.5143" gradientUnits="userSpaceOnUse">
<stop stop-color="#DDB7E0"/>
<stop offset="1" stop-color="#98E6E2"/>
</linearGradient>
<linearGradient id="paint6_linear" x1="118.801" y1="103.967" x2="557.83" y2="80.5143" gradientUnits="userSpaceOnUse">
<stop stop-color="#DDB7E0"/>
<stop offset="1" stop-color="#98E6E2"/>
</linearGradient>
<linearGradient id="paint7_linear" x1="118.801" y1="103.967" x2="557.83" y2="80.5143" gradientUnits="userSpaceOnUse">
<stop stop-color="#DDB7E0"/>
<stop offset="1" stop-color="#98E6E2"/>
</linearGradient>
<linearGradient id="paint8_linear" x1="118.801" y1="103.967" x2="557.83" y2="80.5143" gradientUnits="userSpaceOnUse">
<stop stop-color="#DDB7E0"/>
<stop offset="1" stop-color="#98E6E2"/>
</linearGradient>
<linearGradient id="paint9_linear" x1="118.801" y1="103.967" x2="557.83" y2="80.5143" gradientUnits="userSpaceOnUse">
<stop stop-color="#DDB7E0"/>
<stop offset="1" stop-color="#98E6E2"/>
</linearGradient>
<linearGradient id="paint10_linear" x1="118.801" y1="103.967" x2="557.83" y2="80.5143" gradientUnits="userSpaceOnUse">
<stop stop-color="#DDB7E0"/>
<stop offset="1" stop-color="#98E6E2"/>
</linearGradient>
<linearGradient id="paint11_linear" x1="118.801" y1="103.967" x2="557.83" y2="80.5143" gradientUnits="userSpaceOnUse">
<stop stop-color="#DDB7E0"/>
<stop offset="1" stop-color="#98E6E2"/>
</linearGradient>
<linearGradient id="paint12_linear" x1="118.801" y1="103.967" x2="557.83" y2="80.5143" gradientUnits="userSpaceOnUse">
<stop stop-color="#DDB7E0"/>
<stop offset="1" stop-color="#98E6E2"/>
</linearGradient>
<clipPath id="clip0">
<rect width="680" height="166" fill="white" transform="translate(0.000244141)"/>
</clipPath>
</defs>
</svg>
