<svg width="243" height="37" viewBox="0 0 243 37" fill="none" xmlns="http://www.w3.org/2000/svg">
    <path d="M11.6984 36.5183C9.47048 36.8417 7.47324 36.5979 5.70664 35.7868C3.96277 34.9724 2.62016 33.7053 1.67882 31.9855L4.14393 30.0264C5.55988 32.768 7.9274 33.898 11.2465 33.4162C12.8833 33.1786 14.0784 32.6686 14.8317 31.8862C15.5813 31.0812 15.8627 30.1237 15.6761 29.0137C15.4855 27.881 14.9107 27.0942 13.9516 26.6533C12.9925 26.2124 11.4479 25.8216 9.31799 25.481C8.26438 25.309 7.4609 25.1704 6.90755 25.0651C6.35039 24.9371 5.64159 24.7383 4.78115 24.4687C3.93964 24.1731 3.29135 23.8495 2.8363 23.4979C2.37744 23.1236 1.93173 22.6197 1.49916 21.9863C1.08932 21.3496 0.812009 20.6008 0.667225 19.74C0.320506 17.6785 0.773647 15.9419 2.02665 14.53C3.27584 13.0955 4.94617 12.2265 7.03765 11.9229C8.92452 11.649 10.6413 11.8871 12.1881 12.6372C13.7576 13.3841 15.0262 14.4879 15.9938 15.9487L13.5912 17.8639C12.1567 15.5658 10.1436 14.6049 7.55201 14.9811C6.25621 15.1692 5.26381 15.6382 4.57482 16.388C3.88584 17.1378 3.63279 18.0563 3.81567 19.1437C3.99094 20.1858 4.49939 20.9242 5.34104 21.359C6.18268 21.7938 7.57374 22.172 9.51421 22.4937C10.2078 22.6019 10.6986 22.6814 10.9866 22.7325C11.2746 22.7835 11.7219 22.881 12.3283 23.025C12.9575 23.1658 13.4199 23.2843 13.7156 23.3806C14.0112 23.4769 14.4074 23.6167 14.9039 23.7999C15.4232 23.9798 15.8156 24.1665 16.0811 24.36C16.3465 24.5535 16.6555 24.7988 17.0082 25.0957C17.3798 25.3666 17.6624 25.6621 17.856 25.9821C18.0495 26.3021 18.2299 26.682 18.397 27.1219C18.5831 27.5358 18.718 27.992 18.8018 28.4903C19.1524 30.5745 18.6708 32.35 17.3572 33.8171C16.0399 35.2615 14.1536 36.1619 11.6984 36.5183Z"
          fill="url(#paint0_linear)"/>
    <path d="M38.9669 29.6184C37.504 31.3373 35.4491 32.3503 32.8021 32.6574C30.1552 32.9644 27.886 32.453 25.9945 31.1232C24.1228 29.768 23.0158 27.8038 22.6736 25.2307L20.5614 9.3478L23.7446 8.97855L25.8387 24.7248C26.0628 26.4099 26.7435 27.6952 27.8807 28.5806C29.015 29.4433 30.5177 29.7661 32.3888 29.5491C34.2599 29.332 35.6324 28.6757 36.5062 27.5801C37.377 26.4617 37.7003 25.0599 37.4762 23.3749L35.3821 7.6286L38.5311 7.26332L40.6433 23.1462C40.9855 25.7194 40.4267 27.8768 38.9669 29.6184Z"
          fill="url(#paint1_linear)"/>
    <path d="M70.1032 15.2855L70.2402 16.7262C70.5381 19.8592 69.71 22.5554 67.7559 24.8149C65.7997 27.0516 63.0473 28.3171 59.4989 28.6114C55.836 28.9151 52.6885 27.9661 50.0564 25.7643C47.4451 23.5377 45.9741 20.6864 45.6436 17.2104C45.3131 13.7343 46.2241 10.697 48.3767 8.09835C50.5499 5.47492 53.4451 4.01321 57.0622 3.71322C59.2829 3.52905 61.3715 3.89748 63.328 4.8185C65.2824 5.71666 66.8458 6.99297 68.0184 8.64744L65.4245 10.4875C64.6138 9.24097 63.4732 8.28684 62.0028 7.62513C60.5531 6.93865 58.9927 6.66472 57.3215 6.80332C54.5743 7.03116 52.4052 8.12149 50.8142 10.0743C49.2211 12.0042 48.5506 14.2956 48.8028 16.9483C49.0551 19.6011 50.1474 21.7462 52.0798 23.3838C54.035 25.0194 56.4206 25.7205 59.2364 25.4869C61.6402 25.2876 63.5307 24.543 64.9078 23.2533C66.2828 21.9408 67.0414 20.3336 67.1836 18.4318L58.3583 19.1637L58.0843 16.2823L70.1032 15.2855Z"
          fill="url(#paint2_linear)"/>
    <path d="M98.5316 12.8263L98.6112 14.2714C98.7844 17.4137 97.8501 20.0804 95.8083 22.2713C93.7652 24.4393 90.9654 25.6088 87.4089 25.7798C83.7377 25.9563 80.6311 24.8982 78.0891 22.6057C75.5688 20.2891 74.2126 17.3876 74.0204 13.9012C73.8283 10.4148 74.859 7.41003 77.1125 4.88695C79.3878 2.33982 82.3381 0.979111 85.9634 0.804828C88.1891 0.697831 90.2609 1.13868 92.1789 2.12736C94.0956 3.09311 95.6068 4.42332 96.7124 6.11798L94.0481 7.8674C93.2877 6.59309 92.1862 5.59965 90.7436 4.88709C89.3226 4.15048 87.7746 3.82244 86.0996 3.90296C83.3462 4.03533 81.1361 5.04998 79.4692 6.94693C77.801 8.82094 77.0402 11.0883 77.1869 13.749C77.3335 16.4096 78.3395 18.592 80.2049 20.2962C82.0932 21.9992 84.4485 22.7829 87.2708 22.6472C89.68 22.5314 91.5981 21.8528 93.0251 20.6113C94.4508 19.3469 95.2724 17.7665 95.49 15.8703L86.6446 16.2955L86.4853 13.4054L98.5316 12.8263Z"
          fill="url(#paint3_linear)"/>
    <path d="M107.164 22.1179L118.361 21.9162L118.424 24.9478L104.023 25.2072L103.525 1.0921L117.753 0.835782L117.816 3.8674L106.791 4.06599L106.944 11.4728L117.108 11.2897L117.17 14.2869L107.006 14.4699L107.164 22.1179Z"
          fill="url(#paint4_linear)"/>
    <path d="M131.013 25.5266C128.762 25.5082 126.838 24.9642 125.241 23.8944C123.667 22.8249 122.569 21.3686 121.945 19.5258L124.718 17.9633C125.629 20.8882 127.762 22.3643 131.115 22.3917C132.769 22.4051 134.036 22.0824 134.916 21.4233C135.796 20.7413 136.242 19.8376 136.254 18.712C136.266 17.5635 135.839 16.6986 134.972 16.1172C134.105 15.5358 132.653 14.9152 130.616 14.2554C129.608 13.9255 128.841 13.6666 128.315 13.4785C127.789 13.2675 127.126 12.9634 126.326 12.5664C125.549 12.1466 124.968 11.7283 124.582 11.3117C124.196 10.8721 123.846 10.3064 123.532 9.61464C123.24 8.9231 123.099 8.14089 123.108 7.26801C123.131 5.17771 123.883 3.52983 125.366 2.32438C126.849 1.09596 128.648 0.490365 130.761 0.50759C132.668 0.52313 134.316 1.01899 135.707 1.99517C137.121 2.97153 138.176 4.25509 138.871 5.84585L136.167 7.37445C135.16 4.88522 133.347 3.62994 130.728 3.60859C129.419 3.59792 128.359 3.91089 127.548 4.54751C126.737 5.18413 126.326 6.05373 126.314 7.15631C126.303 8.21294 126.674 9.02 127.426 9.57747C128.178 10.1349 129.481 10.7199 131.336 11.3323C132 11.5444 132.469 11.6976 132.744 11.7917C133.018 11.8858 133.442 12.0501 134.013 12.2845C134.608 12.519 135.043 12.7064 135.317 12.8464C135.591 12.9865 135.957 13.1847 136.413 13.4412C136.893 13.6978 137.247 13.9419 137.474 14.1734C137.701 14.405 137.962 14.6943 138.257 15.0413C138.575 15.3655 138.802 15.7004 138.936 16.0461C139.07 16.3918 139.181 16.7947 139.268 17.2549C139.378 17.6922 139.43 18.1636 139.425 18.6689C139.403 20.7822 138.615 22.4643 137.063 23.7151C135.511 24.943 133.494 25.5468 131.013 25.5266Z"
          fill="url(#paint5_linear)"/>
    <path d="M159.488 1.51816L159.363 4.54783L152.235 4.29093L151.364 25.3609L148.196 25.2468L149.067 4.17675L141.973 3.92109L142.098 0.89141L159.488 1.51816Z"
          fill="url(#paint6_linear)"/>
    <path d="M164.493 2.3325L167.692 2.51628L166.107 26.5844L162.908 26.4006L164.493 2.3325Z"
          fill="url(#paint7_linear)"/>
    <path d="M192.429 26.1846C189.795 28.4093 186.738 29.3774 183.258 29.0888C179.778 28.8002 176.952 27.3442 174.778 24.7207C172.605 22.0973 171.683 19.059 172.011 15.6059C172.342 12.1299 173.823 9.29095 176.455 7.08911C179.089 4.86441 182.146 3.89636 185.626 4.18497C189.106 4.47357 191.932 5.92958 194.106 8.55301C196.304 11.1555 197.238 14.1947 196.907 17.6707C196.579 21.1239 195.086 23.9618 192.429 26.1846ZM177.182 22.7419C178.798 24.6738 180.922 25.7489 183.555 25.9672C186.188 26.1856 188.47 25.476 190.402 23.8384C192.36 22.1799 193.464 20.0357 193.714 17.4058C193.966 14.7531 193.284 12.4608 191.668 10.529C190.077 8.57615 187.965 7.49057 185.332 7.27222C182.7 7.05387 180.405 7.77395 178.447 9.43247C176.515 11.07 175.423 13.2152 175.17 15.8679C174.92 18.4978 175.591 20.7891 177.182 22.7419Z"
          fill="url(#paint8_linear)"/>
    <path d="M217.982 8.13461L221.165 8.50386L217.985 32.4136L215.418 32.1158L205.472 12.8225L203.096 30.6865L199.913 30.3172L203.093 6.40747L205.66 6.70526L215.611 25.9645L217.982 8.13461Z"
          fill="url(#paint9_linear)"/>
    <path d="M231.347 35.7764C229.12 35.4513 227.297 34.6516 225.881 33.3771C224.487 32.106 223.623 30.5178 223.29 28.6124L226.279 27.4471C226.73 30.4605 228.614 32.2094 231.933 32.6937C233.57 32.9325 234.875 32.7864 235.848 32.2554C236.826 31.7018 237.407 30.8699 237.593 29.7597C237.783 28.6269 237.493 27.7142 236.724 27.0217C235.955 26.3293 234.612 25.5182 232.695 24.5886C231.748 24.1255 231.028 23.7651 230.536 23.5076C230.047 23.2273 229.437 22.8366 228.706 22.3353C228.001 21.8147 227.49 21.3223 227.172 20.8581C226.857 20.3712 226.598 19.7647 226.393 19.0386C226.212 18.3158 226.193 17.5239 226.337 16.6629C226.682 14.6012 227.682 13.076 229.338 12.0875C230.997 11.0763 232.873 10.7233 234.964 11.0285C236.85 11.3038 238.407 12.0185 239.635 13.1724C240.885 14.3297 241.732 15.7414 242.175 17.4075L239.259 18.5487C238.646 15.9525 237.043 14.4653 234.452 14.0872C233.156 13.8981 232.058 14.0627 231.156 14.581C230.254 15.0993 229.712 15.9022 229.531 16.9897C229.356 18.0319 229.599 18.8797 230.258 19.5329C230.917 20.1861 232.118 20.9416 233.86 21.7994C234.485 22.0995 234.927 22.3148 235.184 22.4452C235.442 22.5756 235.836 22.7956 236.366 23.1051C236.919 23.4179 237.321 23.6622 237.571 23.8379C237.821 24.0137 238.153 24.2593 238.565 24.5749C239.001 24.8938 239.314 25.1831 239.503 25.4428C239.692 25.7026 239.906 26.0239 240.145 26.4069C240.41 26.7705 240.583 27.1322 240.662 27.492C240.742 27.8517 240.789 28.2648 240.804 28.7312C240.846 29.1783 240.825 29.651 240.741 30.1495C240.393 32.2339 239.353 33.7881 237.621 34.8119C235.894 35.8131 233.802 36.1346 231.347 35.7764Z"
          fill="url(#paint10_linear)"/>
    <defs>
        <linearGradient id="paint0_linear" x1="0.0602612" y1="1.14068" x2="242.483" y2="-3.91736"
                        gradientUnits="userSpaceOnUse">
            <stop stop-color="#A3A3DB"/>
            <stop offset="0.520833" stop-color="#A3DBA3"/>
            <stop offset="1" stop-color="#DBA3A3"/>
        </linearGradient>
        <linearGradient id="paint1_linear" x1="0.0602612" y1="1.14068" x2="242.483" y2="-3.91736"
                        gradientUnits="userSpaceOnUse">
            <stop stop-color="#A3A3DB"/>
            <stop offset="0.520833" stop-color="#A3DBA3"/>
            <stop offset="1" stop-color="#DBA3A3"/>
        </linearGradient>
        <linearGradient id="paint2_linear" x1="0.0602612" y1="1.14068" x2="242.483" y2="-3.91736"
                        gradientUnits="userSpaceOnUse">
            <stop stop-color="#A3A3DB"/>
            <stop offset="0.520833" stop-color="#A3DBA3"/>
            <stop offset="1" stop-color="#DBA3A3"/>
        </linearGradient>
        <linearGradient id="paint3_linear" x1="0.0602612" y1="1.14068" x2="242.483" y2="-3.91736"
                        gradientUnits="userSpaceOnUse">
            <stop stop-color="#A3A3DB"/>
            <stop offset="0.520833" stop-color="#A3DBA3"/>
            <stop offset="1" stop-color="#DBA3A3"/>
        </linearGradient>
        <linearGradient id="paint4_linear" x1="0.0602612" y1="1.14068" x2="242.483" y2="-3.91736"
                        gradientUnits="userSpaceOnUse">
            <stop stop-color="#A3A3DB"/>
            <stop offset="0.520833" stop-color="#A3DBA3"/>
            <stop offset="1" stop-color="#DBA3A3"/>
        </linearGradient>
        <linearGradient id="paint5_linear" x1="0.0602612" y1="1.14068" x2="242.483" y2="-3.91736"
                        gradientUnits="userSpaceOnUse">
            <stop stop-color="#A3A3DB"/>
            <stop offset="0.520833" stop-color="#A3DBA3"/>
            <stop offset="1" stop-color="#DBA3A3"/>
        </linearGradient>
        <linearGradient id="paint6_linear" x1="0.0602612" y1="1.14068" x2="242.483" y2="-3.91736"
                        gradientUnits="userSpaceOnUse">
            <stop stop-color="#A3A3DB"/>
            <stop offset="0.520833" stop-color="#A3DBA3"/>
            <stop offset="1" stop-color="#DBA3A3"/>
        </linearGradient>
        <linearGradient id="paint7_linear" x1="0.0602612" y1="1.14068" x2="242.483" y2="-3.91736"
                        gradientUnits="userSpaceOnUse">
            <stop stop-color="#A3A3DB"/>
            <stop offset="0.520833" stop-color="#A3DBA3"/>
            <stop offset="1" stop-color="#DBA3A3"/>
        </linearGradient>
        <linearGradient id="paint8_linear" x1="0.0602612" y1="1.14068" x2="242.483" y2="-3.91736"
                        gradientUnits="userSpaceOnUse">
            <stop stop-color="#A3A3DB"/>
            <stop offset="0.520833" stop-color="#A3DBA3"/>
            <stop offset="1" stop-color="#DBA3A3"/>
        </linearGradient>
        <linearGradient id="paint9_linear" x1="0.0602612" y1="1.14068" x2="242.483" y2="-3.91736"
                        gradientUnits="userSpaceOnUse">
            <stop stop-color="#A3A3DB"/>
            <stop offset="0.520833" stop-color="#A3DBA3"/>
            <stop offset="1" stop-color="#DBA3A3"/>
        </linearGradient>
        <linearGradient id="paint10_linear" x1="0.0602612" y1="1.14068" x2="242.483" y2="-3.91736"
                        gradientUnits="userSpaceOnUse">
            <stop stop-color="#A3A3DB"/>
            <stop offset="0.520833" stop-color="#A3DBA3"/>
            <stop offset="1" stop-color="#DBA3A3"/>
        </linearGradient>
    </defs>
</svg>
