<svg width="173" height="10" viewBox="0 0 173 10" fill="none" xmlns="http://www.w3.org/2000/svg">
<path d="M1.1507 5.11483C1.1507 -0.223741 9.6924 -0.223741 9.6924 5.11483C9.6924 10.4534 18.2341 10.4534 18.2341 5.11483C18.2341 -0.223741 26.7758 -0.223741 26.7758 5.11483C26.7758 10.4534 35.3175 10.4534 35.3175 5.11483C35.3175 -0.223741 43.8592 -0.223741 43.8592 5.11483C43.8592 10.4534 52.4009 10.4534 52.4009 5.11483C52.4009 -0.223741 60.9426 -0.223741 60.9426 5.11483C60.9426 10.4534 69.4843 10.4534 69.4843 5.11483C69.4843 -0.223741 78.0261 -0.223741 78.0261 5.11483C78.0261 10.4534 86.5678 10.4534 86.5678 5.11483C86.5678 -0.223741 95.1095 -0.223741 95.1095 5.11483C95.1095 10.4534 103.651 10.4534 103.651 5.11483C103.651 -0.223741 112.193 -0.223741 112.193 5.11483C112.193 10.4534 120.735 10.4534 120.735 5.11483C120.735 -0.223741 129.276 -0.223741 129.276 5.11483C129.276 10.4534 137.818 10.4534 137.818 5.11483C137.818 -0.223741 146.36 -0.223741 146.36 5.11483C146.36 10.4534 154.901 10.4534 154.901 5.11483C154.901 -0.223741 163.443 -0.223741 163.443 5.11483C163.443 10.4534 171.985 10.4534 171.985 5.11483" stroke="#EBEBEB" stroke-width="1.06771"/>
</svg>
